<svg width="24" height="24" viewBox="0 0 24 24" fill="none" xmlns="http://www.w3.org/2000/svg">
<path d="M19.8382 14.462C17.8038 14.462 16.1763 16.0895 16.1763 18.1239C16.1763 20.1582 17.8038 21.7857 19.8382 21.7857C21.8725 21.7857 23.5 20.1582 23.5 18.1239C23.5 16.0895 21.8725 14.462 19.8382 14.462ZM19.8382 21.3789C18.0479 21.3789 16.5832 19.9141 16.5832 18.1239C16.5832 16.3336 18.0479 14.8689 19.8382 14.8689C21.6284 14.8689 23.0931 16.3336 23.0931 18.1239C23.0931 19.9141 21.6691 21.3789 19.8382 21.3789Z" fill="black"/>
<path d="M21.8318 16.7405C21.7911 16.7405 21.7098 16.7405 21.6691 16.7812L19.0651 19.3851L17.9665 18.2866C17.8852 18.2052 17.7631 18.2052 17.6817 18.2866C17.6004 18.368 17.6004 18.49 17.6817 18.5714L19.0651 19.9548L21.9539 17.066C22.0353 16.9846 22.0353 16.8625 21.9539 16.7812C21.9539 16.7405 21.8725 16.7405 21.8318 16.7405Z" fill="black"/>
<path d="M8.85262 17.1067C8.68988 16.9847 8.48644 16.944 8.24232 16.944C7.99819 16.944 7.79476 16.9847 7.63201 17.1067C7.50995 17.1881 7.42857 17.3102 7.42857 17.4322C7.42857 17.5543 7.50995 17.6763 7.63201 17.7577C7.79476 17.8798 7.99819 17.9205 8.24232 17.9205C8.48644 17.9205 8.68988 17.8798 8.85262 17.7577C8.97469 17.6763 9.05606 17.5543 9.05606 17.4322C9.01537 17.3102 8.97469 17.1881 8.85262 17.1067ZM8.24232 17.8798C8.07957 17.8798 7.83544 17.7984 7.83544 17.4322C7.83544 17.1067 8.03888 16.9847 8.24232 16.9847C8.48644 16.9847 8.64919 17.1474 8.64919 17.4322C8.64919 17.717 8.52713 17.8798 8.24232 17.8798Z" fill="black"/>
<path d="M13.9385 16.9847V16.944H13.2875V16.9847H13.4096V17.3915H12.84V16.9847H13.0027V16.944H12.3517V16.9847H12.4738V17.8391H12.3517V17.8798H13.0027V17.8391H12.84V17.4322H13.4096V17.8391H13.2875V17.8798H13.9385V17.8391H13.7758V16.9847H13.9385Z" fill="black"/>
<path d="M9.99186 17.9205H10.8056V17.8798H10.6429L9.8698 16.944L9.13743 17.8798H8.97469V17.9205H9.38156V17.8798H9.17812L9.34087 17.6357H9.95118L10.1546 17.8798L9.99186 17.9205ZM9.38156 17.595L9.66637 17.2288L9.99186 17.595H9.38156Z" fill="black"/>
<path d="M6.6962 17.9205C6.81827 17.9205 6.94033 17.8798 7.0217 17.7984L7.18445 17.8798H7.22514V17.5543H7.18445C7.18445 17.5543 7.14376 17.6357 7.10308 17.717C7.0217 17.7984 6.89964 17.8798 6.6962 17.9205C6.57414 17.8798 6.45208 17.8391 6.37071 17.717C6.33002 17.6357 6.28933 17.5543 6.28933 17.4322C6.28933 17.1474 6.49277 16.9847 6.6962 16.9847C6.81827 16.9847 6.94033 17.0253 7.06239 17.1067C7.14376 17.1881 7.18445 17.2695 7.18445 17.3102H7.22514V16.944H7.18445L7.0217 17.0253C7.0217 17.0253 6.98102 16.9847 6.94033 16.9847C6.89964 16.944 6.77758 16.944 6.65552 16.944C6.45208 16.944 6.28933 16.9847 6.12658 17.066C5.96384 17.1474 5.88246 17.2695 5.88246 17.4322C5.88246 17.7577 6.16727 17.9205 6.6962 17.9205Z" fill="black"/>
<path d="M11.5787 16.944C11.7007 16.944 11.8228 16.9847 11.9448 17.0661C12.0262 17.1474 12.0669 17.2288 12.0669 17.2695H12.1076V16.9033H12.0669L11.9042 16.9847C11.9042 16.9847 11.8635 16.944 11.8228 16.944C11.7821 16.9033 11.66 16.9033 11.538 16.9033C11.3345 16.9033 11.1718 16.944 11.009 17.0254C10.8463 17.1068 10.7649 17.2288 10.7649 17.3916C10.7649 17.7171 11.0497 17.8798 11.5787 17.8798C11.7007 17.8798 11.8228 17.8391 11.9042 17.7578L12.0669 17.8391H12.1076V17.4729H12.0669C12.0669 17.4729 12.0262 17.5543 11.9855 17.6357C11.9042 17.7171 11.7821 17.7984 11.5787 17.7984C11.4566 17.7984 11.3345 17.7578 11.2532 17.6357C11.2125 17.5543 11.1718 17.4323 11.1718 17.3509C11.1718 17.1068 11.3752 16.944 11.5787 16.944Z" fill="black"/>
<path d="M6.28933 10.8409C6.41139 10.8409 6.49276 10.7595 6.49276 10.6374V6.36528C6.49276 4.45298 8.03888 2.90687 9.95117 2.90687C11.8635 2.90687 13.4096 4.45298 13.4096 6.36528V10.6374C13.4096 10.7595 13.491 10.8409 13.613 10.8409C13.7351 10.8409 13.8165 10.7595 13.8165 10.6374V6.36528C13.7758 4.20886 12.0669 2.5 9.95117 2.5C7.83544 2.5 6.08589 4.20886 6.08589 6.36528V10.6374C6.08589 10.7595 6.16727 10.8409 6.28933 10.8409Z" fill="black"/>
<path d="M12.7993 7.58594H7.10307V7.99281H12.7993V7.58594Z" fill="black"/>
<path d="M1.40687 19.3852V7.99281H5.47559V7.58594H1V19.3852C1 19.6293 1.16275 19.7921 1.40687 19.7921H15.7694V19.3852C10.9277 19.3852 1.40687 19.3852 1.40687 19.3852Z" fill="black"/>
<path d="M18.4955 13.8924H18.9024V7.58594H14.4268V7.99281H18.4955V13.8924Z" fill="black"/>
</svg>
