<svg width="24" height="24" viewBox="0 0 24 24" fill="none" xmlns="http://www.w3.org/2000/svg">
<path d="M22.3275 9.51639C22.2786 9.41803 22.1319 9.07377 22.0341 8.72951C21.9364 8.48361 21.8386 8.18852 21.7897 8.13934C21.7897 8.09016 21.7408 7.94262 21.6919 7.79508C21.5941 7.45082 21.4474 6.95902 21.3008 6.71311C21.1052 6.31967 20.8608 6.02459 20.5674 5.63115C20.2741 5.28688 19.6874 4.9918 19.2474 4.79508C18.7585 4.59836 18.1229 4.40164 17.5362 4.45082C17.0473 4.5 16.6561 4.69672 16.3628 4.89344C16.265 4.89344 16.1672 4.94262 16.0695 4.9918C15.9717 5.04098 15.9228 5.09016 15.8739 5.09016C15.8739 5.04098 15.8739 4.9918 15.9228 4.94262C15.9717 4.7459 16.0695 4.30328 16.1184 3.90984C16.1672 3.46721 16.0206 2.92623 15.825 2.63115C15.6294 2.28689 15.4339 2.09016 14.8472 1.79508C14.2605 1.5 13.5271 1.5 13.3316 1.5C13.2338 1.5 13.1849 1.5 13.136 1.5C12.9404 1.5 12.5004 1.54918 12.0604 1.54918C11.7671 1.54918 11.5226 1.54918 11.4248 1.59836C11.3271 1.59836 11.1804 1.59836 11.0337 1.59836H10.9359C10.6915 1.59836 10.3492 1.54918 10.0559 1.59836C9.51809 1.64754 9.02918 1.79508 8.49139 2.13934C8.00248 2.43443 7.75802 2.72951 7.3669 3.12295C7.02466 3.51639 6.73132 3.90984 6.53575 4.40164C6.34019 4.84426 6.43797 5.43443 6.48686 5.68033C6.48686 5.72951 6.53575 5.82787 6.53575 5.97541C6.58464 6.07377 6.58464 6.27049 6.63353 6.41803C6.58464 6.27049 6.38908 6.17213 6.2913 6.07377C6.04684 5.92623 5.46016 5.68033 5.31348 5.63115C5.2157 5.63115 5.02014 5.53279 4.62901 5.53279C3.84676 5.63115 3.6023 5.92623 3.21118 6.36885L3.1134 6.46721C2.67338 6.90984 2.38003 7.9918 2.23336 8.63115L2.18447 8.77869C2.13558 9.02459 2.0378 9.31967 1.94002 9.61475C1.84224 9.90984 1.74445 10.2049 1.69556 10.4508C1.54889 10.9918 1.5 11.6311 1.5 12.1721C1.54889 12.7623 1.69556 13.2541 2.08669 13.9918C2.42893 14.582 2.72227 14.877 2.96672 15.0738L3.01561 15.123C3.26007 15.3197 3.84676 15.4672 4.43345 15.6148C4.53123 15.6148 4.58012 15.6639 4.62901 15.6639H4.72679C4.6779 15.7131 4.62901 15.7623 4.53123 15.8607C4.28678 16.0574 3.99343 16.3525 3.6512 16.8443C3.40674 17.1885 3.30896 17.6311 3.35785 18.0738C3.35785 18.3689 3.6023 18.9098 3.94454 19.3525C4.33567 19.8443 4.87347 20.1885 5.06903 20.3361C5.36237 20.5328 6.14463 21.0738 6.34019 21.1721L6.38908 21.2213C6.8291 21.5656 7.3669 21.959 7.61135 22.0574L7.66024 22.1066C7.95359 22.2541 8.34471 22.4508 9.02918 22.5C9.12697 22.5 9.22475 22.5 9.37142 22.5C9.90922 22.5 10.3003 22.4016 10.6426 22.3033C11.0826 22.2049 11.4248 22.0574 11.6693 21.9098C12.0115 21.7131 12.3049 21.418 12.4026 21.2213C12.5982 20.9754 12.8427 20.2869 12.8427 20.1885V20.1393C12.8427 20.1885 12.8916 20.2377 12.8916 20.2869C12.9404 20.3852 12.9893 20.4836 12.9893 20.582C13.136 20.9262 13.3316 21.2213 13.5271 21.4672C13.8205 21.7623 14.0649 21.959 14.4072 22.1066C14.7494 22.2049 15.1894 22.2541 15.5806 22.2049C15.9717 22.1557 16.3139 21.959 16.705 21.7623C17.0962 21.5656 17.5362 21.1721 18.0251 20.7295C18.3673 20.3852 18.7096 20.1393 19.1496 19.8443C19.5896 19.5492 19.8829 19.3033 20.2741 18.7623C20.6163 18.3197 20.8119 17.7295 20.9097 16.9918C21.0074 16.3525 20.9585 15.7131 20.8608 15.3197C20.8119 14.9754 20.6163 14.6311 20.323 14.3361C20.2252 14.1885 20.0785 14.041 19.9318 13.8934C19.8341 13.7951 19.7852 13.7459 19.6874 13.6475C19.7363 13.6475 19.8829 13.5984 20.0296 13.5984C20.4696 13.5492 20.9097 13.4016 21.1541 13.3033L21.203 13.2541C21.5941 13.0082 21.7897 12.9098 22.083 12.418C22.4253 11.9262 22.4253 11.3361 22.4253 10.8443C22.6208 10.3525 22.3764 9.61475 22.3275 9.51639ZM21.9364 12.1721C21.6919 12.5656 21.5941 12.6148 21.203 12.8607L21.1541 12.9098C21.0074 13.0082 20.6163 13.1066 20.1763 13.1557C19.8341 13.2049 19.6385 13.2541 19.5407 13.3033C19.4429 13.3525 19.394 13.4508 19.394 13.5492C19.394 13.6475 19.394 13.7459 19.4918 13.8934C19.5407 13.9426 19.6385 14.0902 19.7852 14.2377C19.9318 14.3852 20.0785 14.5328 20.1763 14.6311C20.4207 14.9262 20.5674 15.1721 20.6163 15.418C20.6652 15.7623 20.7141 16.3525 20.6652 16.9426C20.5674 17.6311 20.3719 18.1229 20.0785 18.5164C19.6874 19.0082 19.4429 19.2541 19.0518 19.5C18.6118 19.7951 18.2207 20.0902 17.8784 20.4344C17.5851 20.6803 17.0473 21.2213 16.6561 21.418C16.3139 21.6148 16.0206 21.7623 15.6783 21.8115C15.3361 21.8607 14.9939 21.8115 14.7005 21.7131C14.4072 21.6148 14.2116 21.4672 13.9672 21.2213C13.7716 21.0246 13.6249 20.7295 13.4782 20.4344C13.4294 20.3361 13.4294 20.2377 13.3805 20.1885C13.3316 20.041 13.2827 19.8934 13.2338 19.7951C13.1849 19.6967 13.136 19.5984 12.9893 19.5984C12.8916 19.5984 12.8427 19.5984 12.7449 19.6475C12.5982 19.7459 12.4515 20.1393 12.4515 20.1393C12.4026 20.2869 12.2071 20.877 12.0604 21.0738C11.8649 21.3197 11.6693 21.5164 11.4737 21.6148C11.2782 21.7131 10.9359 21.8607 10.4959 21.959C10.1048 22.0574 9.71366 22.1557 9.07807 22.1066C8.49139 22.0574 8.10026 21.9098 7.8558 21.7623L7.80691 21.6639C7.56246 21.5656 6.87799 21.0246 6.68243 20.877L6.63353 20.8279C6.43797 20.6803 5.60683 20.1393 5.36237 19.9426C5.2157 19.8443 4.6779 19.5 4.33567 19.0574C4.04232 18.6639 3.84676 18.2213 3.84676 18.0246C3.79787 17.6311 3.89565 17.3361 4.09121 17.041C4.38456 16.5984 4.6779 16.3525 4.87347 16.1557C5.2157 15.9098 5.31348 15.7131 5.31348 15.5164C5.31348 15.418 5.26459 15.2213 4.92236 15.1721H4.82457C4.72679 15.1721 4.72679 15.123 4.62901 15.123C4.33567 15.0738 3.55341 14.877 3.40674 14.7295L3.35785 14.6803C3.16229 14.4836 2.86894 14.2377 2.5756 13.6967C2.23336 13.0574 2.08669 12.5656 2.0378 12.0738C1.98891 11.582 2.08669 10.9918 2.18447 10.5C2.23336 10.2541 2.33114 9.95902 2.42893 9.66393C2.52671 9.36885 2.62449 9.07377 2.67338 8.77869L2.72227 8.63115C2.86894 8.09016 3.16229 7.05738 3.50452 6.66393L3.6023 6.56557C3.94454 6.17213 4.1401 5.97541 4.77568 5.92623C4.77568 5.92623 4.77568 5.92623 4.82457 5.92623C5.11792 5.92623 5.26459 5.97541 5.31348 5.97541C5.36237 5.97541 5.94906 6.22131 6.14463 6.36885C6.73132 6.76229 6.8291 6.76229 6.87799 6.76229C6.92688 6.76229 7.02466 6.76229 7.12244 6.66393C7.17133 6.61475 7.22022 6.51639 7.22022 6.36885C7.22022 6.27049 7.17133 6.02459 7.07355 5.68033C7.07355 5.58197 7.02466 5.48361 7.02466 5.43443C6.97577 5.28689 6.92688 4.7459 7.02466 4.40164C7.22022 3.95902 7.46468 3.61475 7.75802 3.22131C8.10026 2.82787 8.34471 2.58197 8.78473 2.28689C9.22475 1.9918 9.66476 1.84426 10.1048 1.79508C10.3981 1.79508 10.6915 1.79508 10.9359 1.79508H11.0337C11.2293 1.79508 11.3759 1.79508 11.4737 1.79508C11.5715 1.79508 11.816 1.79508 12.0604 1.79508C12.5004 1.79508 12.9404 1.7459 13.136 1.7459C13.1849 1.7459 13.2338 1.7459 13.2827 1.7459C13.6738 1.7459 14.2116 1.79508 14.6516 1.9918C15.1894 2.48361 15.2872 2.63115 15.4339 2.87705C15.5806 3.12295 15.6783 3.51639 15.6783 3.86066C15.6294 4.2541 15.5317 4.64754 15.4828 4.89344C15.4339 5.13934 15.385 5.43443 15.5806 5.53279L15.6294 5.58197C15.7761 5.63115 15.9228 5.58197 16.265 5.38525C16.3628 5.33607 16.4117 5.28689 16.5095 5.2377C16.8028 5.09016 17.0962 4.89344 17.4873 4.84426C18.0251 4.79508 18.6607 5.04098 18.954 5.13934C19.3451 5.28689 19.8829 5.58197 20.1274 5.87705C20.4207 6.22131 20.6652 6.46721 20.8119 6.81148C20.9096 7.05738 21.0563 7.5 21.1541 7.84426C21.203 8.04098 21.2519 8.18852 21.3008 8.2377C21.3497 8.33607 21.4474 8.58197 21.5452 8.82787C21.6919 9.17213 21.8386 9.51639 21.8386 9.56557C21.8875 9.71311 22.083 10.3525 22.1319 10.7459C22.1808 11.2377 22.1808 11.7787 21.9364 12.1721Z" fill="#060707"/>
<path d="M17.7317 10.2541C17.7317 10.3033 17.7806 10.3033 17.8784 10.3033C18.1229 10.3033 18.6607 10.1066 19.2474 9.86065C20.0296 9.46721 20.6163 9.02459 20.5674 8.87704C20.5185 8.7295 19.834 8.87704 19.0518 9.27049C18.2207 9.71311 17.634 10.1066 17.7317 10.2541Z" fill="#060707"/>
<path d="M16.9495 9.07374C16.9495 9.07374 16.9984 9.12292 17.0473 9.12292C17.2917 9.12292 17.8295 8.87702 18.4162 8.4344C19.1496 7.94259 19.6385 7.45079 19.5407 7.30325C19.4429 7.15571 18.7584 7.45079 18.074 7.94259C17.3406 8.38521 16.8028 8.9262 16.9495 9.07374Z" fill="#060707"/>
<path d="M16.1183 7.7951C16.3139 7.7951 16.7539 7.45084 17.2428 7.00822C17.7806 6.46723 18.1229 5.92625 18.0251 5.77871C17.9273 5.68035 17.3895 6.02461 16.8517 6.5656C16.3139 7.10658 15.9717 7.64756 16.0694 7.74592C16.0694 7.7951 16.1183 7.7951 16.1183 7.7951Z" fill="#060707"/>
<path d="M15.2383 12.123C15.2383 12.4181 15.4828 12.664 15.7761 12.664C16.0695 12.664 16.3139 12.4181 16.3139 12.123C16.3139 11.8279 16.0695 11.582 15.7761 11.582C15.4828 11.6312 15.2872 11.8279 15.2383 12.123Z" fill="#060707"/>
<path d="M15.2872 10.7459C15.385 10.7459 15.4828 10.7459 15.5806 10.6475C15.825 10.5 15.9228 10.1557 15.7761 9.90984C15.6295 9.66394 15.2872 9.56558 15.0428 9.71312C14.7983 9.86066 14.7005 10.2049 14.8472 10.4508C14.945 10.6475 15.1405 10.7459 15.2872 10.7459Z" fill="#060707"/>
<path d="M14.9939 14.4836C15.0916 14.5328 15.1405 14.5328 15.2383 14.5328C15.4339 14.5328 15.5806 14.4344 15.6783 14.2869C15.825 14.041 15.7272 13.6967 15.4828 13.5492C15.2383 13.4016 14.8961 13.5 14.7494 13.7459C14.7005 13.9918 14.7494 14.3361 14.9939 14.4836Z" fill="#060707"/>
<path d="M13.5271 8.63116C13.3805 8.87706 13.4782 9.22132 13.7227 9.36886C13.8205 9.41804 13.8694 9.41804 13.9672 9.41804C14.1627 9.41804 14.3094 9.31968 14.4072 9.17214C14.5538 8.92624 14.4561 8.58197 14.2116 8.43443C14.016 8.28689 13.6738 8.38525 13.5271 8.63116Z" fill="#060707"/>
<path d="M13.5271 6.76237C13.6738 6.76237 13.9183 6.12303 14.1138 5.38532C14.3094 4.59844 14.3094 3.90991 14.1627 3.90991C14.016 3.90991 13.7716 4.50008 13.576 5.28696C13.3805 6.07385 13.3805 6.76237 13.5271 6.76237Z" fill="#060707"/>
<path d="M12.1582 6.71309C12.3049 6.71309 12.4515 5.97539 12.4027 5.13932C12.3538 4.25408 12.1582 3.56555 12.0115 3.56555C11.8649 3.56555 11.7671 4.30326 11.7671 5.13932C11.816 6.02457 12.0115 6.71309 12.1582 6.71309Z" fill="#060707"/>
<path d="M12.1582 8.9754C12.4516 8.9754 12.696 8.7295 12.696 8.43442C12.696 8.13933 12.4516 7.89343 12.1582 7.89343C11.8649 7.89343 11.6204 8.13933 11.6204 8.43442C11.6204 8.7295 11.8649 8.9754 12.1582 8.9754Z" fill="#060707"/>
<path d="M10.7404 7.05738C10.9359 7.0082 10.887 6.2705 10.7404 5.43443C10.5448 4.59837 10.3003 3.90984 10.1048 3.95902C9.95811 4.0082 9.95811 4.74591 10.1048 5.58198C10.3003 6.41804 10.5448 7.05738 10.7404 7.05738Z" fill="#060707"/>
<path d="M10.3492 9.66388C10.447 9.66388 10.5448 9.6147 10.6426 9.56552C10.887 9.41797 10.9848 9.07371 10.8381 8.82781C10.6915 8.58191 10.3492 8.48355 10.1048 8.63109C9.86032 8.77863 9.76254 9.12289 9.90922 9.36879C10.007 9.56552 10.2026 9.66388 10.3492 9.66388Z" fill="#060707"/>
<path d="M8.49138 10.0573C8.34471 10.3032 8.44249 10.6475 8.68695 10.795C8.78473 10.8442 8.83362 10.8442 8.9314 10.8442C9.12696 10.8442 9.27364 10.7458 9.37142 10.5983C9.51809 10.3524 9.42031 10.0081 9.17585 9.86059C8.98029 9.71305 8.63806 9.76223 8.49138 10.0573Z" fill="#060707"/>
<path d="M8.83361 13.5492C8.58916 13.6967 8.49138 14.041 8.63805 14.2869C8.73583 14.4344 8.88251 14.5328 9.07807 14.5328C9.17585 14.5328 9.27363 14.5328 9.37141 14.4344C9.61587 14.2869 9.71365 13.9426 9.56698 13.6967C9.4203 13.5 9.07807 13.4016 8.83361 13.5492Z" fill="#060707"/>
<path d="M9.17587 7.40172C9.22476 7.40172 9.22476 7.40172 9.17587 7.40172C9.37143 7.35254 9.22476 6.7132 8.93141 5.9755C8.63807 5.28697 8.29583 4.74599 8.10027 4.84435C7.9536 4.89353 8.05138 5.53287 8.34472 6.2214C8.68696 6.90992 9.02919 7.40172 9.17587 7.40172Z" fill="#060707"/>
<path d="M8.44249 12.7131C8.73584 12.7131 8.98029 12.4672 8.98029 12.1721C8.98029 11.877 8.73584 11.6311 8.44249 11.6311C8.14915 11.6311 7.90469 11.877 7.90469 12.1721C7.90469 12.4672 8.14915 12.7131 8.44249 12.7131Z" fill="#060707"/>
<path d="M6.09573 8.6803C6.63353 8.97538 7.17133 9.17211 7.3669 9.17211C7.41579 9.17211 7.46468 9.17211 7.46468 9.12293C7.51357 8.97538 7.02466 8.58194 6.34019 8.1885C5.65572 7.79506 5.02014 7.59834 4.97125 7.6967C4.92236 7.89342 5.41126 8.28686 6.09573 8.6803Z" fill="#060707"/>
<path d="M5.41127 10.4017C5.90018 10.5 6.3402 10.5984 6.63354 10.5984C6.878 10.5984 7.02467 10.5492 7.02467 10.5C7.07356 10.3525 6.43798 10.0574 5.60684 9.86069C4.77569 9.66397 4.04233 9.61479 3.99344 9.81151C3.94455 9.86069 4.58013 10.1558 5.41127 10.4017Z" fill="#060707"/>
<path d="M5.90017 12.1229C6.48686 12.1229 6.87799 12.0245 6.87799 11.9262C6.87799 11.7786 6.19352 11.5819 5.36237 11.4836C4.48234 11.4344 3.79787 11.4836 3.79787 11.6803C3.79787 11.8278 4.48234 12.0245 5.31348 12.1229C5.50905 12.1229 5.70461 12.1229 5.90017 12.1229Z" fill="#060707"/>
<path d="M6.73132 13.5C6.73132 13.3525 6.09574 13.2541 5.31348 13.3525C4.58012 13.4508 3.94454 13.6475 3.99343 13.7951C3.99343 13.8934 4.33567 13.9918 4.77568 13.9918C4.97125 13.9918 5.16681 13.9918 5.41126 13.9426C6.14463 13.8443 6.78021 13.6475 6.73132 13.5Z" fill="#060707"/>
<path d="M7.66025 15.9099C7.56246 15.8115 7.02467 16.205 6.48687 16.746C5.90018 17.3361 5.50905 17.8771 5.60683 17.9263C5.60683 17.9263 5.60683 17.9263 5.65572 17.9263C5.8024 17.9263 6.2913 17.582 6.78021 17.041C7.3669 16.5492 7.75803 16.0083 7.66025 15.9099Z" fill="#060707"/>
<path d="M8.58916 16.6475C8.44248 16.5492 8.00247 17.0901 7.56245 17.877C7.12243 18.6147 6.82909 19.3033 6.97576 19.4016C6.97576 19.4016 6.97576 19.4016 7.02465 19.4016C7.17132 19.4016 7.61134 18.8606 8.05136 18.1721C8.44248 17.4344 8.73583 16.7459 8.58916 16.6475Z" fill="#060707"/>
<path d="M8.88251 18.5165C8.54027 19.3033 8.34471 19.9919 8.49138 20.041C8.63805 20.041 9.02918 19.4509 9.37141 18.664C9.71365 17.8771 9.90921 17.1886 9.76254 17.1394C9.66476 17.1394 9.27363 17.7296 8.88251 18.5165Z" fill="#060707"/>
<path d="M10.6915 15.664C10.8381 15.4181 10.7404 15.0738 10.4959 14.9263C10.2515 14.7787 9.90922 14.8771 9.76255 15.123C9.61588 15.3689 9.71366 15.7131 9.95811 15.8607C10.0559 15.9099 10.1537 15.9099 10.2026 15.9099C10.3981 15.9099 10.5937 15.8115 10.6915 15.664Z" fill="#060707"/>
<path d="M11.0826 17.6804C10.9359 17.6804 10.6915 18.2214 10.4959 18.9591C10.3003 19.6968 10.3003 20.3362 10.447 20.3362C10.5937 20.3362 10.8381 19.746 11.0337 19.0575C11.1804 18.3198 11.2293 17.6804 11.0826 17.6804Z" fill="#060707"/>
<path d="M12.0604 15.3689C11.7671 15.3689 11.5226 15.6148 11.5226 15.9099C11.5226 16.205 11.7671 16.4509 12.0604 16.4509C12.3538 16.4509 12.5982 16.205 12.5982 15.9099C12.5982 15.6148 12.3538 15.3689 12.0604 15.3689Z" fill="#060707"/>
<path d="M14.3583 10.8443C14.016 10.2541 13.4782 9.86065 12.7938 9.66393C12.1093 9.51639 11.4248 9.61475 10.8381 9.95901C9.61587 10.6967 9.22475 12.2705 9.90922 13.5C10.3492 14.2869 11.1804 14.7295 12.0604 14.7295C12.5004 14.7295 12.9893 14.582 13.3805 14.3361C14.6516 13.6475 15.0428 12.0246 14.3583 10.8443ZM13.2338 14.041C12.8916 14.2377 12.5004 14.3361 12.1093 14.3361C11.3271 14.3361 10.6426 13.9426 10.3003 13.3033C9.71365 12.2705 10.0559 10.9426 11.0826 10.3033C11.4248 10.1066 11.816 10.0082 12.2071 10.0082C12.4026 10.0082 12.5493 10.0082 12.7449 10.0574C13.2827 10.2049 13.7716 10.5492 14.0649 11.041C14.6027 12.0738 14.2605 13.4016 13.2338 14.041Z" fill="#060707"/>
<path d="M14.4561 15.0738C14.3094 14.8279 13.9672 14.7295 13.7227 14.8771C13.4782 15.0246 13.3805 15.3689 13.5271 15.6148C13.6249 15.7623 13.7716 15.8607 13.9672 15.8607C14.0649 15.8607 14.1627 15.8115 14.2605 15.7623C14.505 15.6639 14.6027 15.3197 14.4561 15.0738Z" fill="#060707"/>
<path d="M14.4561 17.8771C14.3094 17.9263 14.505 18.6148 14.7983 19.3525C15.0916 20.0411 15.4828 20.582 15.6294 20.582C15.6294 20.582 15.6294 20.582 15.6783 20.582C15.825 20.5329 15.6294 19.8443 15.3361 19.1066C14.9939 18.3689 14.6027 17.8279 14.4561 17.8771Z" fill="#060707"/>
<path d="M15.5806 17.0902C15.4339 17.1885 15.7761 17.8279 16.3628 18.4672C16.8517 19.0574 17.3406 19.5 17.5362 19.5H17.5851C17.7317 19.4017 17.3895 18.7623 16.8028 18.123C16.265 17.4344 15.7272 16.9918 15.5806 17.0902Z" fill="#060707"/>
<path d="M17.9273 16.7951C17.2917 16.2049 16.6562 15.8607 16.5584 16.0082C16.4606 16.1557 16.9006 16.6967 17.5362 17.2869C18.074 17.7787 18.6118 18.0738 18.8074 18.0738C18.8562 18.0738 18.8562 18.0738 18.9051 18.0246C19.0029 17.9262 18.5629 17.3361 17.9273 16.7951Z" fill="#060707"/>
<path d="M17.5851 14.7787C17.4873 14.9262 17.9762 15.3689 18.6118 15.7131C19.1007 16.0082 19.5896 16.1557 19.8341 16.1557C19.8829 16.1557 19.9318 16.1557 19.9807 16.1066C20.0785 15.959 19.5896 15.5164 18.954 15.1721C18.2207 14.8279 17.634 14.6311 17.5851 14.7787Z" fill="#060707"/>
<path d="M19.5407 11.0411C18.7585 11.1886 18.1229 11.4345 18.1718 11.5821C18.1718 11.6312 18.3673 11.6804 18.6118 11.6804C18.8562 11.6804 19.2474 11.6312 19.6385 11.5821C20.4207 11.4345 21.0563 11.1886 21.0074 11.0411C21.0074 10.8935 20.323 10.8935 19.5407 11.0411Z" fill="#060707"/>
</svg>
