<svg width="48" height="48" viewBox="0 0 48 48" fill="none" xmlns="http://www.w3.org/2000/svg">
<path fill-rule="evenodd" clip-rule="evenodd" d="M24 48C37.2548 48 48 37.2548 48 24C48 10.7452 37.2548 0 24 0C10.7452 0 0 10.7452 0 24C0 37.2548 10.7452 48 24 48ZM23.9999 45.3333C35.782 45.3333 45.3333 35.782 45.3333 23.9999C45.3333 12.2179 35.782 2.6666 23.9999 2.6666C12.2179 2.6666 2.6666 12.2179 2.6666 23.9999C2.6666 35.782 12.2179 45.3333 23.9999 45.3333Z" fill="black"/>
<path fill-rule="evenodd" clip-rule="evenodd" d="M24.9605 28.5714H21.957V27.0476C21.957 26.4973 22.0103 26 22.1168 25.5556C22.2233 25.1111 22.3777 24.709 22.5801 24.3492C22.7824 23.9894 23.0274 23.6455 23.315 23.3175C23.6025 22.9894 23.9274 22.6561 24.2895 22.3175L25.4717 21.2063C25.9403 20.8042 26.3291 20.3651 26.6379 19.8889C26.9468 19.4127 27.1012 18.8042 27.1012 18.0635C27.1012 17.0476 26.7764 16.2381 26.1267 15.6349C25.477 15.0317 24.641 14.7302 23.6185 14.7302C22.5534 14.7302 21.7014 15.0688 21.0624 15.746C20.4233 16.4233 20.0506 17.2487 19.9441 18.2222L16.8767 17.873C17.0045 16.963 17.2708 16.1429 17.6755 15.4127C18.0802 14.6825 18.5861 14.0635 19.1932 13.5556C19.8003 13.0476 20.4979 12.6614 21.286 12.3968C22.0742 12.1323 22.9156 12 23.8102 12C24.7049 12 25.5409 12.127 26.3184 12.381C27.0959 12.6349 27.7829 13.0106 28.3793 13.5079C28.9757 14.0053 29.4443 14.619 29.7852 15.3492C30.126 16.0794 30.2964 16.9206 30.2964 17.873C30.2964 18.5503 30.2218 19.1429 30.0727 19.6508C29.9236 20.1587 29.7159 20.619 29.4497 21.0317C29.1834 21.4444 28.8586 21.8307 28.4751 22.1905C28.0917 22.5503 27.6764 22.9206 27.229 23.3016C26.803 23.6614 26.4409 23.9841 26.1427 24.2698C25.8445 24.5556 25.6101 24.8466 25.4397 25.1429C25.2693 25.4392 25.1469 25.7672 25.0723 26.127C24.9977 26.4868 24.9605 26.9312 24.9605 27.4603V28.5714ZM25.7593 33.0479C25.7593 33.5981 25.557 34.0849 25.1523 34.5082C24.7475 34.9315 24.2363 35.1431 23.6186 35.1431C23.0222 35.1431 22.5163 34.9368 22.1009 34.5241C21.6855 34.1114 21.4778 33.6299 21.4778 33.0796C21.4778 32.5082 21.6802 32.0161 22.0849 31.6034C22.4896 31.1907 23.0009 30.9844 23.6186 30.9844C24.2363 30.9844 24.7475 31.1854 25.1523 31.5875C25.557 31.9897 25.7593 32.4764 25.7593 33.0479Z" fill="black"/>
</svg>
