<svg width="24" height="24" viewBox="0 0 24 24" fill="none" xmlns="http://www.w3.org/2000/svg">
<path fill-rule="evenodd" clip-rule="evenodd" d="M22.08 7H4.44002C4.18802 7 4.02002 7.16667 4.02002 7.41667V19.0833C4.02002 19.3333 4.18802 19.5 4.44002 19.5H22.08C22.332 19.5 22.5 19.3333 22.5 19.0833V7.41667C22.5 7.16667 22.332 7 22.08 7ZM22.08 19.0833H4.44002V7.41667H22.08V19.0833Z" fill="#010101"/>
<path fill-rule="evenodd" clip-rule="evenodd" d="M10.866 13.6666C11.034 13.7916 11.244 13.8333 11.496 13.8333C11.748 13.8333 11.958 13.7916 12.126 13.6666C12.252 13.5833 12.336 13.4583 12.336 13.3333C12.336 13.2083 12.252 13.0833 12.126 12.9999C11.958 12.8749 11.748 12.8333 11.496 12.8333C11.244 12.8333 11.034 12.8749 10.866 12.9999C10.74 13.0833 10.656 13.2083 10.656 13.3333C10.656 13.4583 10.74 13.5833 10.866 13.6666ZM11.496 12.8749C11.748 12.8749 11.916 13.0416 11.916 13.3333C11.916 13.6249 11.79 13.7916 11.496 13.7916C11.328 13.7916 11.076 13.7083 11.076 13.3333C11.076 12.9999 11.286 12.8749 11.496 12.8749Z" fill="#010101"/>
<path fill-rule="evenodd" clip-rule="evenodd" d="M16.41 13.7499H16.242V13.3333H16.83V13.7499H16.704V13.7916H17.376V13.7499H17.208V12.8749H17.376V12.8333H16.704V12.8749H16.83V13.2916H16.242V12.8749H16.41V12.8333H15.738V12.8749H15.864V13.7499H15.738V13.7916H16.41V13.7499Z" fill="#010101"/>
<path fill-rule="evenodd" clip-rule="evenodd" d="M12.252 13.8333H12.672V13.7916H12.462L12.63 13.5416H13.26L13.47 13.7916H13.26V13.8333H14.1V13.7916H13.932L13.176 12.8333L12.42 13.7916L12.252 13.8333ZM12.966 13.1249L13.302 13.4999H12.714L12.966 13.1249Z" fill="#010101"/>
<path fill-rule="evenodd" clip-rule="evenodd" d="M9.9 13.8333C10.026 13.8333 10.152 13.7916 10.236 13.7083L10.404 13.7916H10.446V13.4166H10.404C10.404 13.4166 10.362 13.4999 10.32 13.5833C10.236 13.7083 10.11 13.7916 9.9 13.8333C9.774 13.7916 9.648 13.7499 9.564 13.6249C9.522 13.5416 9.48 13.4166 9.48 13.3333C9.48 13.0416 9.69 12.8749 9.9 12.8749C10.026 12.8749 10.152 12.9166 10.278 12.9999C10.362 13.0833 10.404 13.1666 10.404 13.2083H10.446V12.8333H10.404L10.236 12.9166C10.236 12.9166 10.194 12.8749 10.152 12.8749C10.11 12.8333 9.984 12.8333 9.858 12.8333C9.648 12.8333 9.48 12.8749 9.312 12.9583C9.144 13.0416 9.06 13.1666 9.06 13.3333C9.06 13.6666 9.354 13.8333 9.9 13.8333Z" fill="#010101"/>
<path fill-rule="evenodd" clip-rule="evenodd" d="M14.94 13.7916C15.066 13.7916 15.192 13.7499 15.276 13.6666L15.444 13.7499H15.486V13.3749H15.444C15.444 13.3749 15.402 13.4583 15.36 13.5416C15.276 13.6666 15.15 13.7916 14.94 13.7916C14.814 13.7499 14.688 13.7083 14.604 13.5833C14.562 13.4999 14.52 13.3749 14.52 13.2916C14.52 12.9999 14.73 12.8333 14.94 12.8333C15.066 12.8333 15.192 12.8749 15.318 12.9583C15.402 13.0416 15.444 13.1249 15.444 13.1666H15.486V12.8333H15.444L15.276 12.9166C15.276 12.9166 15.234 12.8749 15.192 12.8749C15.15 12.8333 15.024 12.8333 14.898 12.8333C14.688 12.8333 14.52 12.8749 14.352 12.9583C14.184 13.0416 14.1 13.1666 14.1 13.3333C14.1 13.6249 14.394 13.7916 14.94 13.7916Z" fill="#010101"/>
<path fill-rule="evenodd" clip-rule="evenodd" d="M1.92 4.91667H19.56C19.56 4.91667 19.56 5.41667 19.56 6.20833H19.98V4.91667C19.98 4.66667 19.812 4.5 19.56 4.5H1.92C1.668 4.5 1.5 4.66667 1.5 4.91667V16.5833C1.5 16.8333 1.668 17 1.92 17H3.18V16.5833C2.382 16.5833 1.92 16.5833 1.92 16.5833V4.91667Z" fill="#010101"/>
</svg>
