<svg xmlns="http://www.w3.org/2000/svg" viewBox="0 0 15 19"><path d="M16.7,9.75h-1V7.06A3.59,3.59,0,0,0,12.09,3.5h-.18A3.59,3.59,0,0,0,8.3,7.06V9.75h-1V7.06A4.59,4.59,0,0,1,11.91,2.5h.18A4.59,4.59,0,0,1,16.7,7.06Z" transform="translate(-4.5 -2.5)"/><path d="M17.73,21.5H6.27A1.77,1.77,0,0,1,4.5,19.73V10.57A1.77,1.77,0,0,1,6.27,8.8H17.73a1.77,1.77,0,0,1,1.77,1.77v9.16A1.77,1.77,0,0,1,17.73,21.5ZM6.27,9.8a.78.78,0,0,0-.77.77v9.16a.78.78,0,0,0,.77.77H17.73a.78.78,0,0,0,.77-.77V10.57a.78.78,0,0,0-.77-.77Z" transform="translate(-4.5 -2.5)"/><path d="M12.54,18.35h-.62a.9.9,0,0,1-.91-.89V15.57a1.61,1.61,0,0,1-.44-1.1,1.67,1.67,0,0,1,3.33,0,1.58,1.58,0,0,1-.45,1.1v1.89A.9.9,0,0,1,12.54,18.35Zm-.53-1h.44V15.1l.2-.15a.61.61,0,0,0,.25-.48.67.67,0,0,0-1.33,0,.63.63,0,0,0,.24.48l.2.15Z" transform="translate(-4.5 -2.5)"/></svg>