<svg width="24" height="25" viewBox="0 0 24 25" fill="none" xmlns="http://www.w3.org/2000/svg">
<mask id="mask0" style="mask-type:alpha" maskUnits="userSpaceOnUse" x="3" y="3" width="19" height="19">
<path fill-rule="evenodd" clip-rule="evenodd" d="M3.00012 3.00012H21.0008V21.0018H3.00012V3.00012Z" fill="white"/>
</mask>
<g mask="url(#mask0)">
<path fill-rule="evenodd" clip-rule="evenodd" d="M19.2197 3H19.2186C12.6615 3.00777 12.5264 3.03413 12.4456 3.04995C12.063 3.12432 11.7153 3.30941 11.4392 3.58525L3.66442 11.36C2.77836 12.246 2.77836 13.6879 3.66442 14.574L9.42672 20.3363C9.85601 20.7656 10.4266 21.0017 11.0337 21.0017C11.6406 21.0017 12.2114 20.7656 12.6407 20.3363L20.4155 12.5616C20.772 12.205 20.9738 11.7327 20.9854 11.2284C20.986 11.216 20.9866 11.2035 20.9866 11.1913V11.171L21.0007 4.78266C21.0007 3.79892 20.2018 3 19.2197 3M19.2196 3.69381C19.8203 3.69381 20.3071 4.18055 20.3071 4.78133L20.2929 11.1786V11.1858V11.1913L20.2924 11.1908C20.2902 11.5096 20.1683 11.8279 19.925 12.071L12.1502 19.8457C11.8419 20.1538 11.4379 20.308 11.0338 20.308C10.6298 20.308 10.2258 20.1538 9.91746 19.8457L4.15517 14.0834C3.53856 13.4668 3.53856 12.4673 4.15517 11.8507L11.9299 4.07593C12.1139 3.89195 12.3406 3.77706 12.5779 3.73099H12.5781C12.7288 3.70158 19.2196 3.69381 19.2196 3.69381" fill="black"/>
</g>
<path fill-rule="evenodd" clip-rule="evenodd" d="M15.1071 12.3853C14.7635 12.7288 14.2065 12.7288 13.8629 12.3853C13.519 12.0417 13.519 11.4847 13.8629 11.1409C14.2065 10.7973 14.7635 10.7973 15.1071 11.1409C15.4506 11.4847 15.4506 12.0417 15.1071 12.3853Z" stroke="black" stroke-width="0.675027" stroke-linejoin="round"/>
<path fill-rule="evenodd" clip-rule="evenodd" d="M10.7076 12.3853C10.3641 12.7288 9.80706 12.7288 9.46348 12.3853C9.1196 12.0417 9.1196 11.4847 9.46348 11.1411C9.80706 10.7972 10.3641 10.7972 10.7076 11.1411C11.0512 11.4847 11.0512 12.0417 10.7076 12.3853Z" stroke="black" stroke-width="0.675027" stroke-linejoin="round"/>
<path d="M12.2563 9.60974V13.8818" stroke="black" stroke-width="0.900035"/>
<path fill-rule="evenodd" clip-rule="evenodd" d="M18.8002 6.44617C18.4567 6.78975 17.8996 6.78975 17.5561 6.44617C17.2122 6.10259 17.2122 5.54558 17.5561 5.202C17.8996 4.85812 18.4567 4.85812 18.8002 5.202C19.1438 5.54558 19.1438 6.10259 18.8002 6.44617Z" stroke="black" stroke-width="0.675027" stroke-linejoin="round"/>
</svg>
