<svg width="24" height="24" viewBox="0 0 24 24" fill="none" xmlns="http://www.w3.org/2000/svg">
<path d="M10.7727 18.8182C10.5909 18.6818 10.3636 18.6364 10.0909 18.6364C9.81818 18.6364 9.59091 18.6818 9.40909 18.8182C9.27273 18.9091 9.18182 19.0454 9.18182 19.1818C9.18182 19.3182 9.27273 19.4545 9.40909 19.5454C9.59091 19.6818 9.81818 19.7273 10.0909 19.7273C10.3636 19.7273 10.5909 19.6818 10.7727 19.5454C10.9091 19.4545 11 19.3182 11 19.1818C10.9545 19.0454 10.9091 18.9091 10.7727 18.8182ZM10.0909 19.6818C9.90909 19.6818 9.63636 19.5909 9.63636 19.1818C9.63636 18.8182 9.86364 18.6818 10.0909 18.6818C10.3636 18.6818 10.5455 18.8636 10.5455 19.1818C10.5455 19.5 10.4091 19.6818 10.0909 19.6818Z" fill="black"/>
<path d="M16.4545 18.6818V18.6364H15.7273V18.6818H15.8636V19.1364H15.2273V18.6818H15.4091V18.6364H14.6818V18.6818H14.8182V19.6364H14.6818V19.6818H15.4091V19.6364H15.2273V19.1818H15.8636V19.6364H15.7273V19.6818H16.4545V19.6364H16.2727V18.6818H16.4545Z" fill="black"/>
<path d="M12.0455 19.7273H12.9545V19.6818H12.7727L11.9091 18.6364L11.0909 19.6818H10.9091V19.7273H11.3636V19.6818H11.1364L11.3182 19.4091H12L12.2273 19.6818L12.0455 19.7273ZM11.3636 19.3636L11.6818 18.9545L12.0455 19.3636H11.3636Z" fill="black"/>
<path d="M8.36364 19.7273C8.5 19.7273 8.63636 19.6818 8.72727 19.5909L8.90909 19.6818H8.95454V19.3182H8.90909C8.90909 19.3182 8.86364 19.4091 8.81818 19.5C8.72727 19.5909 8.59091 19.6818 8.36364 19.7273C8.22727 19.6818 8.09091 19.6364 8 19.5C7.95454 19.4091 7.90909 19.3182 7.90909 19.1818C7.90909 18.8636 8.13636 18.6818 8.36364 18.6818C8.5 18.6818 8.63636 18.7273 8.77273 18.8182C8.86363 18.9091 8.90909 19 8.90909 19.0454H8.95454V18.6364H8.90909L8.72727 18.7273C8.72727 18.7273 8.68182 18.6818 8.63636 18.6818C8.59091 18.6364 8.45454 18.6364 8.31818 18.6364C8.09091 18.6364 7.90909 18.6818 7.72727 18.7727C7.54545 18.8636 7.45454 19 7.45454 19.1818C7.45454 19.5454 7.77273 19.7273 8.36364 19.7273Z" fill="black"/>
<path d="M13.8182 18.6363C13.9545 18.6363 14.0909 18.6817 14.2273 18.7726C14.3182 18.8635 14.3636 18.9545 14.3636 18.9999H14.4091V18.5908H14.3636L14.1818 18.6817C14.1818 18.6817 14.1364 18.6363 14.0909 18.6363C14.0455 18.5908 13.9091 18.5908 13.7727 18.5908C13.5455 18.5908 13.3636 18.6363 13.1818 18.7272C13 18.8181 12.9091 18.9545 12.9091 19.1363C12.9091 19.4999 13.2273 19.6817 13.8182 19.6817C13.9545 19.6817 14.0909 19.6363 14.1818 19.5454L14.3636 19.6363H14.4091V19.2272H14.3636C14.3636 19.2272 14.3182 19.3181 14.2727 19.409C14.1818 19.4999 14.0455 19.5908 13.8182 19.5908C13.6818 19.5908 13.5455 19.5454 13.4545 19.409C13.4091 19.3181 13.3636 19.1817 13.3636 19.0908C13.3636 18.8181 13.5909 18.6363 13.8182 18.6363Z" fill="black"/>
<path d="M7.90909 11.8182C8.04546 11.8182 8.13637 11.7273 8.13637 11.5909V6.81818C8.13637 4.68182 9.86364 2.95455 12 2.95455C14.1364 2.95455 15.8636 4.68182 15.8636 6.81818V11.5909C15.8636 11.7273 15.9545 11.8182 16.0909 11.8182C16.2273 11.8182 16.3182 11.7273 16.3182 11.5909V6.81818C16.2727 4.40909 14.3636 2.5 12 2.5C9.63637 2.5 7.68182 4.40909 7.68182 6.81818V11.5909C7.68182 11.7273 7.77273 11.8182 7.90909 11.8182Z" fill="black"/>
<path d="M15.1818 8.18176H8.81818V8.63631H15.1818V8.18176Z" fill="black"/>
<path d="M17 8.18176V8.63631H21.5455V21.3636H2.45455V8.63631H7V8.18176H2V21.3636C2 21.6363 2.18182 21.8181 2.45455 21.8181H21.5455C21.8182 21.8181 22 21.6363 22 21.3636V8.18176H17Z" fill="black"/>
</svg>
