<svg width="24" height="24" viewBox="0 0 24 24" fill="none" xmlns="http://www.w3.org/2000/svg">
<path d="M16.6612 7.97666C16.465 8.17293 16.465 8.46732 16.6612 8.66358C16.8575 8.85984 17.1519 8.85984 17.3481 8.66358C17.5444 8.46732 17.5444 8.17293 17.3481 7.97666C17.1519 7.7804 16.8575 7.7804 16.6612 7.97666Z" fill="#231F20"/>
<path d="M16.6612 5.22898C16.465 5.42525 16.465 5.71964 16.6612 5.9159C16.8575 6.11216 17.1519 6.11216 17.3481 5.9159C17.5444 5.71964 17.5444 5.42525 17.3481 5.22898C17.1519 5.03272 16.8575 5.03272 16.6612 5.22898Z" fill="#231F20"/>
<path d="M18.035 6.60276C17.8388 6.79902 17.8388 7.09342 18.035 7.28968C18.2313 7.48594 18.5257 7.48594 18.722 7.28968C18.9182 7.09342 18.9182 6.79902 18.722 6.60276C18.5257 6.4065 18.2313 6.4065 18.035 6.60276Z" fill="#231F20"/>
<path d="M15.2874 6.60276C15.0911 6.79902 15.0911 7.09342 15.2874 7.28968C15.4837 7.48594 15.778 7.48594 15.9743 7.28968C16.1706 7.09342 16.1706 6.79902 15.9743 6.60276C15.778 6.4065 15.4837 6.4065 15.2874 6.60276Z" fill="#231F20"/>
<path d="M5.22897 16.6611C5.03271 16.8574 5.03271 17.1518 5.22897 17.348C5.42523 17.5443 5.71962 17.5443 5.91588 17.348C6.11215 17.1518 6.11215 16.8574 5.91588 16.6611C5.71962 16.4649 5.42523 16.4649 5.22897 16.6611Z" fill="#231F20"/>
<path d="M6.60279 18.0351C6.40653 18.2314 6.40653 18.5258 6.60279 18.7221C6.79905 18.9183 7.09345 18.9183 7.28971 18.7221C7.48597 18.5258 7.48597 18.2314 7.28971 18.0351C7.09345 17.8389 6.79905 17.8389 6.60279 18.0351Z" fill="#231F20"/>
<path d="M6.60279 15.2873C6.40653 15.4836 6.40653 15.778 6.60279 15.9742C6.79905 16.1705 7.09345 16.1705 7.28971 15.9742C7.48597 15.778 7.48597 15.4836 7.28971 15.2873C7.09345 15.0911 6.79905 15.0911 6.60279 15.2873Z" fill="#231F20"/>
<path d="M7.97663 16.6611C7.78037 16.8574 7.78037 17.1518 7.97663 17.348C8.1729 17.5443 8.46729 17.5443 8.66355 17.348C8.85981 17.1518 8.85981 16.8574 8.66355 16.6611C8.46729 16.4649 8.1729 16.4649 7.97663 16.6611Z" fill="#231F20"/>
<path d="M15.2874 17.348C15.4837 17.5443 15.778 17.5443 15.9743 17.348C16.1706 17.1518 16.1706 16.8574 15.9743 16.6611C15.778 16.4649 15.4837 16.4649 15.2874 16.6611C15.0911 16.8574 15.0911 17.1518 15.2874 17.348Z" fill="#231F20"/>
<path d="M17.3481 18.7221C17.5444 18.5258 17.5444 18.2314 17.3481 18.0351C17.1519 17.8389 16.8575 17.8389 16.6612 18.0351C16.465 18.2314 16.465 18.5258 16.6612 18.7221C16.8575 18.9183 17.1519 18.9183 17.3481 18.7221Z" fill="#231F20"/>
<path d="M17.3481 15.9742C17.5444 15.778 17.5444 15.4836 17.3481 15.2873C17.1519 15.0911 16.8575 15.0911 16.6612 15.2873C16.465 15.4836 16.465 15.778 16.6612 15.9742C16.8575 16.1705 17.1519 16.1705 17.3481 15.9742Z" fill="#231F20"/>
<path d="M22.2056 15.9743L18.2313 12L17.8879 12.3435L21.8621 16.3178C22.0584 16.514 22.0584 16.8084 21.8621 17.0047L17.0047 21.8621C16.8084 22.0584 16.514 22.0584 16.3178 21.8621L12.3435 17.8879L18.2313 12L22.2056 8.0257C22.5981 7.63318 22.5981 7.04439 22.2056 6.65187L17.3481 1.79439C16.9556 1.40187 16.3668 1.40187 15.9743 1.79439L12 5.76869L8.0257 1.79439C7.63318 1.40187 7.04439 1.40187 6.65187 1.79439L1.79439 6.65187C1.40187 7.04439 1.40187 7.63318 1.79439 8.0257L5.76869 12L1.79439 15.9743C1.40187 16.3668 1.40187 16.9556 1.79439 17.3481L6.65187 22.2056C7.04439 22.5981 7.63318 22.5981 8.0257 22.2056L12 18.2313L15.9743 22.2056C16.3668 22.5981 16.9556 22.5981 17.3481 22.2056L22.2056 17.3481C22.5981 16.9556 22.5981 16.3668 22.2056 15.9743ZM2.08879 7.63318C1.89252 7.43692 1.89252 7.14252 2.08879 6.94626L6.94626 2.08879C7.14252 1.89252 7.43692 1.89252 7.63318 2.08879L11.6075 6.06308L6.06308 11.6075L2.08879 7.63318ZM7.63318 21.8621C7.43692 22.0584 7.14252 22.0584 6.94626 21.8621L2.08879 17.0047C1.89252 16.8084 1.89252 16.514 2.08879 16.3178L16.3178 2.08879C16.514 1.89252 16.8084 1.89252 17.0047 2.08879L21.8621 6.94626C22.0584 7.14252 22.0584 7.43692 21.8621 7.63318L7.63318 21.8621Z" fill="#231F20"/>
<path d="M18.722 17.348C18.9182 17.1518 18.9182 16.8574 18.722 16.6611C18.5257 16.4649 18.2313 16.4649 18.035 16.6611C17.8388 16.8574 17.8388 17.1518 18.035 17.348C18.2313 17.5443 18.5257 17.5443 18.722 17.348Z" fill="#231F20"/>
<path d="M8.66355 6.60276C8.46729 6.4065 8.1729 6.4065 7.97663 6.60276C7.78037 6.79902 7.78037 7.09342 7.97663 7.28968C8.1729 7.48594 8.46729 7.48594 8.66355 7.28968C8.85981 7.09342 8.85981 6.79902 8.66355 6.60276Z" fill="#231F20"/>
<path d="M5.22897 6.60276C5.03271 6.79902 5.03271 7.09342 5.22897 7.28968C5.42523 7.48594 5.71962 7.48594 5.91588 7.28968C6.11215 7.09342 6.11215 6.79902 5.91588 6.60276C5.71962 6.4065 5.42523 6.4065 5.22897 6.60276Z" fill="#231F20"/>
<path d="M6.60279 5.22898C6.40653 5.42525 6.40653 5.71964 6.60279 5.9159C6.79905 6.11216 7.09345 6.11216 7.28971 5.9159C7.48597 5.71964 7.48597 5.42525 7.28971 5.22898C7.09345 5.03272 6.79905 5.03272 6.60279 5.22898Z" fill="#231F20"/>
<path d="M6.60279 7.97666C6.40653 8.17293 6.40653 8.46732 6.60279 8.66358C6.79905 8.85984 7.09345 8.85984 7.28971 8.66358C7.48597 8.46732 7.48597 8.17293 7.28971 7.97666C7.09345 7.7804 6.79905 7.7804 6.60279 7.97666Z" fill="#231F20"/>
</svg>
