<svg xmlns="http://www.w3.org/2000/svg" viewBox="0 0 21 21"><path d="M16.66,8a.48.48,0,0,0,0,.68.47.47,0,0,0,.69,0,.48.48,0,0,0,0-.68A.47.47,0,0,0,16.66,8Z" transform="translate(-1.5 -1.5)" fill="#231f20"/><path d="M16.66,5.23a.49.49,0,1,0,.69,0A.47.47,0,0,0,16.66,5.23Z" transform="translate(-1.5 -1.5)" fill="#231f20"/><path d="M18,6.6a.49.49,0,0,0,0,.69.49.49,0,1,0,.69-.69A.49.49,0,0,0,18,6.6Z" transform="translate(-1.5 -1.5)" fill="#231f20"/><path d="M15.29,6.6a.47.47,0,0,0,0,.69.46.46,0,0,0,.68,0,.47.47,0,0,0,0-.69A.48.48,0,0,0,15.29,6.6Z" transform="translate(-1.5 -1.5)" fill="#231f20"/><path d="M5.23,16.66a.47.47,0,0,0,0,.69.49.49,0,1,0,0-.69Z" transform="translate(-1.5 -1.5)" fill="#231f20"/><path d="M6.6,18a.49.49,0,0,0,0,.69A.49.49,0,1,0,7.29,18,.49.49,0,0,0,6.6,18Z" transform="translate(-1.5 -1.5)" fill="#231f20"/><path d="M6.6,15.29a.48.48,0,0,0,0,.68.47.47,0,0,0,.69,0,.46.46,0,0,0,0-.68A.47.47,0,0,0,6.6,15.29Z" transform="translate(-1.5 -1.5)" fill="#231f20"/><path d="M8,16.66a.47.47,0,0,0,0,.69.48.48,0,0,0,.68,0,.47.47,0,0,0,0-.69A.48.48,0,0,0,8,16.66Z" transform="translate(-1.5 -1.5)" fill="#231f20"/><path d="M15.29,17.35a.48.48,0,0,0,.68,0,.47.47,0,0,0,0-.69.48.48,0,0,0-.68,0A.47.47,0,0,0,15.29,17.35Z" transform="translate(-1.5 -1.5)" fill="#231f20"/><path d="M17.35,18.72a.49.49,0,1,0-.69,0A.47.47,0,0,0,17.35,18.72Z" transform="translate(-1.5 -1.5)" fill="#231f20"/><path d="M17.35,16a.48.48,0,0,0,0-.68.47.47,0,0,0-.69,0,.48.48,0,0,0,0,.68A.47.47,0,0,0,17.35,16Z" transform="translate(-1.5 -1.5)" fill="#231f20"/><path d="M22.21,16l-4-4-.34.34,4,4a.46.46,0,0,1,0,.68L17,21.86a.46.46,0,0,1-.68,0l-4-4L18.23,12l4-4a1,1,0,0,0,0-1.38L17.35,1.79a1,1,0,0,0-1.38,0l-4,4-4-4a1,1,0,0,0-1.38,0L1.79,6.65A1,1,0,0,0,1.79,8l4,4-4,4a1,1,0,0,0,0,1.38l4.86,4.86a1,1,0,0,0,1.38,0l4-4,4,4a1,1,0,0,0,1.38,0l4.86-4.86A1,1,0,0,0,22.21,16ZM2.09,7.63a.46.46,0,0,1,0-.68L7,2.09a.46.46,0,0,1,.68,0l4,4L6.06,11.61ZM7.63,21.86a.46.46,0,0,1-.68,0L2.09,17a.46.46,0,0,1,0-.68L16.32,2.09a.46.46,0,0,1,.68,0L21.86,7a.46.46,0,0,1,0,.68Z" transform="translate(-1.5 -1.5)" fill="#231f20"/><path d="M18.72,17.35a.47.47,0,0,0,0-.69.49.49,0,1,0,0,.69Z" transform="translate(-1.5 -1.5)" fill="#231f20"/><path d="M8.66,6.6A.48.48,0,0,0,8,6.6a.47.47,0,0,0,0,.69.46.46,0,0,0,.68,0A.47.47,0,0,0,8.66,6.6Z" transform="translate(-1.5 -1.5)" fill="#231f20"/><path d="M5.23,6.6a.49.49,0,1,0,.69.69.49.49,0,0,0-.69-.69Z" transform="translate(-1.5 -1.5)" fill="#231f20"/><path d="M6.6,5.23a.49.49,0,0,0,.69.69.49.49,0,1,0-.69-.69Z" transform="translate(-1.5 -1.5)" fill="#231f20"/><path d="M6.6,8a.48.48,0,0,0,0,.68.47.47,0,0,0,.69,0,.46.46,0,0,0,0-.68A.47.47,0,0,0,6.6,8Z" transform="translate(-1.5 -1.5)" fill="#231f20"/></svg>