<svg width="24" height="24" viewBox="0 0 24 24" fill="none" xmlns="http://www.w3.org/2000/svg">
<path fill-rule="evenodd" clip-rule="evenodd" d="M0.549988 5.32631C0.549988 4.64913 1.08692 4.07861 1.77568 4.07861H14.0069C14.3737 4.07861 14.663 4.24623 14.8336 4.53114C14.982 4.77916 15.0167 5.07606 15.0167 5.32631V7.23212H17.1803C18.1128 7.23212 19.0031 7.61781 19.6518 8.29775C20.6307 9.26476 22.6479 11.5492 22.8999 11.871C23.3297 12.4199 23.45 12.9878 23.45 13.6087V16.6959C23.45 17.585 22.7458 18.3271 21.8514 18.3271H19.9851C19.7366 18.3271 19.5351 18.1256 19.5351 17.8771C19.5351 17.6286 19.7366 17.4271 19.9851 17.4271H21.8514C22.2253 17.4271 22.55 17.1117 22.55 16.6959V13.6087C22.55 13.1224 22.4615 12.771 22.1914 12.4259C21.9654 12.1374 19.9679 9.87409 19.0146 8.93338L19.0095 8.92828L19.0045 8.92303C18.5225 8.41567 17.8646 8.13212 17.1803 8.13212H14.1167V5.32631C14.1167 5.13595 14.0856 5.03401 14.0613 4.99333C14.0584 4.98854 14.0563 4.98567 14.055 4.98409C14.0498 4.98229 14.0353 4.97861 14.0069 4.97861H1.77568C1.60755 4.97861 1.44999 5.12229 1.44999 5.32631V17.0792C1.44999 17.2834 1.60772 17.4271 1.77568 17.4271H3.3165C3.56503 17.4271 3.5 17.6286 3.5 17.8771C3.5 18.1256 3.56503 18.3271 3.3165 18.3271H1.77568C1.08675 18.3271 0.549988 17.7562 0.549988 17.0792V5.32631Z" fill="black"/>
<path fill-rule="evenodd" clip-rule="evenodd" d="M17.3448 8.45459H16.2364C15.9917 8.45459 15.7932 8.6573 15.7932 8.90715V11.1337C15.7932 11.3886 15.9955 11.5954 16.2451 11.5954H20.0482C20.3054 11.5954 20.4403 11.2832 20.267 11.0893L18.2958 8.88301C18.0519 8.61015 17.7066 8.45459 17.3448 8.45459ZM17.3448 9.02405C17.5493 9.02405 17.7458 9.11265 17.8837 9.26684L19.4552 11.0258H16.3508V9.02405H17.3448Z" fill="black"/>
<path fill-rule="evenodd" clip-rule="evenodd" d="M3.72587 17.7623C3.72587 17.1288 4.21825 16.6418 4.79311 16.6418C5.36797 16.6418 5.86035 17.1288 5.86035 17.7623C5.86035 18.3958 5.36805 18.8826 4.79311 18.8826C4.21817 18.8826 3.72587 18.3958 3.72587 17.7623ZM4.79311 15.7418C3.69217 15.7418 2.82587 16.6613 2.82587 17.7623C2.82587 18.8635 3.69225 19.7826 4.79311 19.7826C5.6095 19.7826 6.29693 19.2772 6.59769 18.5668C6.62368 18.5712 6.65037 18.5735 6.67757 18.5735H16.2137C16.4818 19.3525 17.2028 19.9214 18.0689 19.9214C19.17 19.9214 20.0362 19.0023 20.0362 17.9011C20.0362 16.8001 19.1701 15.8806 18.0689 15.8806C17.0793 15.8806 16.2793 16.6235 16.1276 17.5735H6.7518C6.65948 16.5581 5.83045 15.7418 4.79311 15.7418ZM18.0689 16.7806C17.4941 16.7806 17.0017 17.2676 17.0017 17.9011C17.0017 18.5346 17.494 19.0214 18.0689 19.0214C18.644 19.0214 19.1362 18.5347 19.1362 17.9011C19.1362 17.2675 18.644 16.7806 18.0689 16.7806Z" fill="black"/>
<path fill-rule="evenodd" clip-rule="evenodd" d="M14.12 17.7917V7.79175H15.02V17.7917H14.12Z" fill="black"/>
</svg>
