<svg width="24" height="24" viewBox="0 0 24 24" fill="none" xmlns="http://www.w3.org/2000/svg">
<path fill-rule="evenodd" clip-rule="evenodd" d="M6.14333 1.68567C6.07661 1.02194 5.52163 0.5 4.84466 0.5H4.18059L4.04693 0.506847L3.91718 0.526936C3.32178 0.650534 2.87519 1.18465 2.87519 1.82019L2.87518 2.19061L2.65427 2.19083L2.48624 2.19621C1.09724 2.28535 0 3.47194 0 4.91193V20.6956L0.00521522 20.8672C0.091706 22.2855 1.24322 23.4167 2.65427 23.4167H18.9177L18.9183 23.5L18.9961 23.4167H19.8491L24 19.0723V4.91193L23.9948 4.74038L23.9793 4.57158C23.8158 3.23308 22.7004 2.19052 21.3457 2.19052L21.0384 2.18961L21.0391 1.82019L21.0324 1.68567C20.9657 1.02194 20.4107 0.5 19.7337 0.5H19.0697L18.936 0.506847L18.8063 0.526936C18.2109 0.650534 17.7643 1.18465 17.7643 1.82019L17.7634 2.19061H6.14918L6.15006 1.82019L6.14333 1.68567ZM1.6144 8.89376H22.3846V17.578L19.1157 17.5788L19.0141 17.5851C18.6148 17.6355 18.3085 17.9789 18.3085 18.3917L18.3079 21.7905L2.65427 21.7908L2.54192 21.7844C2.02471 21.7252 1.6144 21.2622 1.6144 20.6953L1.6144 8.89376ZM19.9223 19.2043H21.6321L19.9223 20.9934V19.2043ZM4.1125 4.49361C3.9808 4.46117 3.87979 4.3369 3.87979 4.1868V1.82019L3.88788 1.74761C3.9196 1.60795 4.0406 1.50512 4.18059 1.50512H4.84466L4.91274 1.51338C5.04445 1.54583 5.14546 1.6701 5.14546 1.82019V4.1868L5.13736 4.25939C5.10565 4.39904 4.98465 4.50188 4.84466 4.50188H4.18059L4.1125 4.49361ZM19.0697 1.50512H19.7337L19.8018 1.51338C19.9335 1.54583 20.0345 1.6701 20.0345 1.82019L20.0348 4.1868L20.0267 4.25939C19.995 4.39904 19.874 4.50188 19.734 4.50188H19.07L19.0019 4.49361C18.8702 4.46117 18.7692 4.3369 18.7692 4.1868L18.7689 1.82019L18.777 1.74761C18.8087 1.60795 18.9297 1.50512 19.0697 1.50512Z" fill="black"/>
<path fill-rule="evenodd" clip-rule="evenodd" d="M15.4441 11.0748L16.5543 12.2283L9.79786 19.2486L6.23047 15.824L7.33799 14.6733L9.76311 16.977L15.4441 11.0748Z" fill="black"/>
</svg>
