<svg width="48" height="48" viewBox="0 0 48 48" fill="none" xmlns="http://www.w3.org/2000/svg">
<path fill-rule="evenodd" clip-rule="evenodd" d="M42.3886 5H5.61125C2.52274 5 0 7.47038 0 10.4948V37.5052C0 40.5296 2.52274 43 5.61125 43H42.3886C45.4771 43 47.9998 40.5296 47.9998 37.5052V10.4948C47.9998 7.47038 45.4771 5 42.3886 5ZM5.61116 6.9861H42.3885C44.3569 6.9861 45.9716 8.56729 45.9716 10.4948V37.5053C45.9716 39.4328 44.3569 41.014 42.3885 41.014H5.61116C3.64278 41.014 2.02808 39.4328 2.02808 37.5053V10.4948C2.02808 8.56729 3.64278 6.9861 5.61116 6.9861Z" fill="black"/>
<path fill-rule="evenodd" clip-rule="evenodd" d="M46.4043 9.68124C46.8631 9.36673 47.4954 9.476 47.8166 9.9253C48.1086 10.3337 48.0429 10.8826 47.6838 11.2153L47.5674 11.3083L24.5815 27.0644C24.276 27.2738 23.882 27.3 23.5544 27.1429L23.4185 27.0644L0.432631 11.3083C-0.0261894 10.9938 -0.137774 10.3746 0.183401 9.9253C0.475377 9.51685 1.02449 9.38941 1.46663 9.60591L1.59571 9.68124L24 25.038L46.4043 9.68124Z" fill="black"/>
</svg>
