<svg width="24" height="24" viewBox="0 0 24 24" fill="none" xmlns="http://www.w3.org/2000/svg">
<g id="Instagram">
<path id="Shape" fill-rule="evenodd" clip-rule="evenodd" d="M8.24854 3C5.35429 3 3 5.35646 3 8.25146V15.7515C3 18.6457 5.35646 21 8.25146 21H15.7515C18.6457 21 21 18.6435 21 15.7485V8.24854C21 5.35429 18.6435 3 15.7485 3H8.24854ZM17.25 6C17.664 6 18 6.336 18 6.75C18 7.164 17.664 7.5 17.25 7.5C16.836 7.5 16.5 7.164 16.5 6.75C16.5 6.336 16.836 6 17.25 6ZM12 7.5C14.4818 7.5 16.5 9.51825 16.5 12C16.5 14.4818 14.4818 16.5 12 16.5C9.51825 16.5 7.5 14.4818 7.5 12C7.5 9.51825 9.51825 7.5 12 7.5ZM12 9C10.3431 9 9 10.3431 9 12C9 13.6569 10.3431 15 12 15C13.6569 15 15 13.6569 15 12C15 10.3431 13.6569 9 12 9Z" fill="black"/>
</g>
</svg>
