<svg width="25" height="25" viewBox="0 0 25 25" fill="none" xmlns="http://www.w3.org/2000/svg">
<g id="Pinterest">
<path id="Path" fill-rule="evenodd" clip-rule="evenodd" d="M12.8342 3.69141C9.31933 3.69141 5.84619 6.03371 5.84619 9.82617C5.84619 12.2375 7.20207 13.6082 8.02453 13.6082C8.36376 13.6082 8.55998 12.6625 8.55998 12.3953C8.55998 12.0768 7.74733 11.398 7.74733 10.0723C7.74733 7.31827 9.84382 5.36674 12.557 5.36674C14.8901 5.36674 16.6162 6.69156 16.6162 9.1271C16.6162 10.9458 15.886 14.3573 13.5224 14.3573C12.6695 14.3573 11.9404 13.7411 11.9404 12.8577C11.9404 11.5631 12.7693 10.3091 12.7693 8.97296C12.7693 6.70496 9.62819 7.11643 9.62819 9.85727C9.62819 10.4326 9.69992 11.0694 9.95677 11.5934C9.48461 13.6281 8.61542 16.8711 8.61542 18.9681C8.61542 19.6155 8.70795 20.2524 8.76957 20.9004C8.88588 21.0305 8.82827 21.0168 9.0062 20.9518C10.7328 18.5882 10.5726 17.9143 11.3536 14.8211C11.7752 15.6228 12.8646 16.0542 13.728 16.0542C17.366 16.0542 19 12.5087 19 9.31235C19 5.91104 16.061 3.69141 12.8342 3.69141Z" fill="black"/>
</g>
</svg>
