<svg width="24" height="24" viewBox="0 0 24 24" fill="none" xmlns="http://www.w3.org/2000/svg">
<path fill-rule="evenodd" clip-rule="evenodd" d="M12.6895 0C7.81583 0 3 3.24783 3 8.50644C3 11.8499 4.88005 13.7505 6.02047 13.7505C6.49085 13.7505 6.76293 12.4393 6.76293 12.0688C6.76293 11.6272 5.63611 10.686 5.63611 8.84767C5.63611 5.02899 8.5431 2.32301 12.3051 2.32301C15.5402 2.32301 17.9336 4.16001 17.9336 7.53711C17.9336 10.0589 16.9211 14.7892 13.6438 14.7892C12.4612 14.7892 11.4502 13.9349 11.4502 12.71C11.4502 10.9149 12.5995 9.17608 12.5995 7.32337C12.5995 4.17858 8.24411 4.74912 8.24411 8.54956C8.24411 9.34728 8.34357 10.2303 8.69971 10.9569C8.04502 13.7782 6.8398 18.275 6.8398 21.1827C6.8398 22.0802 6.96811 22.9634 7.05354 23.8619C7.21481 24.0424 7.13494 24.0234 7.38165 23.9331C9.77577 20.6559 9.55366 19.7214 10.6365 15.4323C11.2211 16.544 12.7318 17.1422 13.9288 17.1422C18.9734 17.1422 21.2391 12.2261 21.2391 7.79397C21.2391 3.07774 17.1638 0 12.6895 0Z" fill="black"/>
</svg>
