<svg width="25" height="25" viewBox="0 0 25 25" fill="none" xmlns="http://www.w3.org/2000/svg">
<g id="Snapchat">
<path id="Path" fill-rule="evenodd" clip-rule="evenodd" d="M12.9292 3.76636C7.48706 3.76636 7.48706 9.20853 7.48706 9.20853V10.1156C7.48706 10.1156 7.4662 10.1147 7.42992 10.1147C7.12153 10.1147 5.673 10.1781 5.673 11.3809C5.673 12.7822 7.21223 12.8367 7.45531 12.8367C7.47618 12.8367 7.48706 12.8367 7.48706 12.8367C7.48706 13.7437 5.98865 14.8058 5.00543 15.0516C4.08933 15.4072 3.87073 16.014 3.85894 16.4738C3.85169 16.7487 3.91881 16.9709 3.95509 17.0571C4.29704 17.8598 5.31291 18.2743 6.30792 18.2743C6.34239 19.5795 7.28389 20.0929 7.91427 20.0929C8.63445 20.0929 9.39636 19.741 9.39636 19.741C9.43355 19.7718 10.5936 20.9999 12.9292 20.9999C15.2648 20.9999 16.4249 19.7718 16.463 19.741C16.463 19.741 17.224 20.0929 17.9451 20.0929C18.5755 20.0929 19.5161 19.5795 19.5506 18.2743C20.5456 18.2743 21.5614 17.8598 21.9034 17.0571C21.9397 16.9709 22.0068 16.7487 21.9995 16.4738C21.9877 16.014 21.7691 15.4072 20.853 15.0516C19.8698 14.8058 18.3714 13.7437 18.3714 12.8367C18.3714 12.8367 18.3823 12.8367 18.4032 12.8367C18.6462 12.8367 20.1855 12.7822 20.1855 11.3809C20.1855 10.1781 18.7369 10.1147 18.4286 10.1147C18.3923 10.1147 18.3714 10.1156 18.3714 10.1156V9.20853C18.3714 9.20853 18.3714 3.76636 12.9292 3.76636Z" fill="black"/>
</g>
</svg>
