<svg width="24" height="24" viewBox="0 0 24 24" fill="none" xmlns="http://www.w3.org/2000/svg">
<path fill-rule="evenodd" clip-rule="evenodd" d="M12 1C4.80043 1 4.80043 8.19957 4.80043 8.19957V9.3995C4.80043 9.3995 4.77283 9.3983 4.72484 9.3983C4.31686 9.3983 2.40058 9.48229 2.40058 11.0734C2.40058 12.9273 4.43685 12.9993 4.75843 12.9993C4.78603 12.9993 4.80043 12.9993 4.80043 12.9993C4.80043 14.1992 2.81815 15.6043 1.51743 15.9295C0.305501 16.3999 0.0163185 17.2026 0.000719453 17.811C-0.00887997 18.1746 0.0799147 18.4686 0.127912 18.5825C0.580285 19.6445 1.9242 20.1929 3.24053 20.1929C3.28612 21.9195 4.53165 22.5987 5.3656 22.5987C6.31834 22.5987 7.32628 22.1331 7.32628 22.1331C7.37548 22.1739 8.91019 23.7986 12 23.7986C15.0898 23.7986 16.6245 22.1739 16.6749 22.1331C16.6749 22.1331 17.6817 22.5987 18.6356 22.5987C19.4696 22.5987 20.7139 21.9195 20.7595 20.1929C22.0758 20.1929 23.4197 19.6445 23.8721 18.5825C23.9201 18.4686 24.0089 18.1746 23.9993 17.811C23.9837 17.2026 23.6945 16.3999 22.4826 15.9295C21.1818 15.6043 19.1996 14.1992 19.1996 12.9993C19.1996 12.9993 19.214 12.9993 19.2416 12.9993C19.5631 12.9993 21.5994 12.9273 21.5994 11.0734C21.5994 9.48229 19.6831 9.3983 19.2752 9.3983C19.2272 9.3983 19.1996 9.3995 19.1996 9.3995V8.19957C19.1996 8.19957 19.1996 1 12 1Z" fill="black"/>
</svg>
