<svg width="25" height="24" viewBox="0 0 25 24" fill="none" xmlns="http://www.w3.org/2000/svg">
<g id="Tiktok">
<path id="tiktok" fill-rule="evenodd" clip-rule="evenodd" d="M13.1251 3C12.8079 3 12.5484 3.26937 12.5484 3.5986C12.5484 3.5986 12.5259 15.2711 12.5259 15.325C12.5259 16.3965 11.5921 17.3009 10.4907 17.3009C9.42386 17.3009 8.55797 16.402 8.55797 15.2946C8.55797 14.1872 9.42386 13.2896 10.4907 13.2896C10.5426 13.2896 10.5886 13.2964 10.6405 13.3024L10.7272 13.3141C10.8887 13.3381 11.0555 13.284 11.1766 13.1703C11.3035 13.0566 11.3726 12.8949 11.3726 12.7214V10.2065C11.3726 9.88929 11.1365 9.62591 10.8308 9.60795L10.7734 9.6021C10.6811 9.59612 10.5887 9.59041 10.4907 9.59041C7.46321 9.59041 5 12.152 5 15.2946C5 18.4373 7.46321 21 10.4907 21C13.5239 21 15.9859 18.4373 15.9859 15.2946V9.92011C16.9547 10.7162 18.2353 11.1108 19.4751 10.991C19.775 10.9611 20 10.7036 20 10.3983V7.60288C20 7.28563 19.7626 7.02823 19.4628 7.00429C17.6578 6.86661 16.2055 5.41258 16.0152 3.53897C15.9863 3.23369 15.7382 3 15.4441 3H13.1251Z" fill="black"/>
</g>
</svg>
