<svg width="24" height="24" viewBox="0 0 24 24" fill="none" xmlns="http://www.w3.org/2000/svg">
<path fill-rule="evenodd" clip-rule="evenodd" d="M24 4.30853C23.1166 4.70082 22.1678 4.96481 21.1718 5.08388C22.189 4.47467 22.969 3.5101 23.3363 2.35999C22.3856 2.92396 21.3315 3.33379 20.2091 3.55532C19.3109 2.59813 18.0316 2 16.6157 2C13.8964 2 11.6922 4.20515 11.6922 6.9235C11.6922 7.30933 11.7365 7.68594 11.8195 8.045C7.7277 7.84008 4.10015 5.87954 1.67071 2.89997C1.24795 3.62732 1.00519 4.47283 1.00519 5.37649C1.00519 7.08411 1.87377 8.59144 3.19465 9.47387C2.38791 9.44802 1.62825 9.22649 0.964578 8.8582C0.964578 8.87943 0.964578 8.89881 0.964578 8.92004C0.964578 11.3061 2.66113 13.2962 4.91427 13.7475C4.50167 13.8602 4.066 13.9202 3.61648 13.9202C3.29987 13.9202 2.99065 13.8888 2.69067 13.8325C3.31741 15.7884 5.1358 17.2126 7.29018 17.2523C5.60563 18.5732 3.48264 19.3606 1.17503 19.3606C0.778124 19.3606 0.385831 19.3375 0 19.2913C2.1793 20.6879 4.76659 21.5029 7.54771 21.5029C16.6046 21.5029 21.5558 14.0005 21.5558 7.49394C21.5558 7.28072 21.5512 7.06842 21.5419 6.85704C22.5047 6.16199 23.34 5.29526 24 4.30853Z" fill="black"/>
</svg>
