<svg width="25" height="25" viewBox="0 0 25 25" fill="none" xmlns="http://www.w3.org/2000/svg">
<g id="Twitter">
<path id="Path" fill-rule="evenodd" clip-rule="evenodd" d="M22.0002 6.20147C21.2913 6.51628 20.5299 6.72814 19.7306 6.82369C20.5469 6.3348 21.1728 5.56073 21.4676 4.63777C20.7047 5.09036 19.8588 5.41925 18.958 5.59703C18.2373 4.82888 17.2106 4.34888 16.0743 4.34888C13.8921 4.34888 12.1232 6.11851 12.1232 8.29999C12.1232 8.60962 12.1588 8.91184 12.2254 9.19999C8.94172 9.03554 6.0306 7.46221 4.08098 5.0711C3.74172 5.6548 3.5469 6.33332 3.5469 7.05851C3.5469 8.42888 4.24394 9.63851 5.30394 10.3467C4.65653 10.3259 4.0469 10.1481 3.51431 9.85258C3.51431 9.86962 3.51431 9.88517 3.51431 9.90221C3.51431 11.817 4.87579 13.4141 6.68394 13.7763C6.35283 13.8667 6.0032 13.9148 5.64246 13.9148C5.38838 13.9148 5.14023 13.8896 4.89949 13.8444C5.40246 15.4141 6.86172 16.557 8.5906 16.5889C7.23875 17.6489 5.53505 18.2807 3.6832 18.2807C3.36468 18.2807 3.04986 18.2622 2.74023 18.2252C4.48912 19.3459 6.56542 20 8.79727 20C16.0654 20 20.0388 13.9792 20.0388 8.75777C20.0388 8.58665 20.035 8.41628 20.0276 8.24665C20.8002 7.68888 21.4706 6.99332 22.0002 6.20147Z" fill="black"/>
</g>
</svg>
