<svg width="24" height="25" viewBox="0 0 24 25" fill="none" xmlns="http://www.w3.org/2000/svg">
<g id="Wechat">
<path id="Shape" fill-rule="evenodd" clip-rule="evenodd" d="M10.5 4.04883C6.3645 4.04883 3 6.90858 3 10.4238C3 11.6156 3.38353 12.766 4.11328 13.771L3.67676 17.1855L6.69287 15.9185C7.66182 16.4039 8.74622 16.6827 9.87891 16.7622C10.4338 18.9704 12.7384 20.5488 15.375 20.5488C16.4644 20.5488 17.4542 20.2403 18.3223 19.7754L20.5034 21L20.1709 18.1743C20.6654 17.4619 21 16.638 21 15.7354C21 13.8124 19.71 12.2148 17.8901 11.436C17.9557 11.0976 18 10.7593 18 10.4238C18 6.90858 14.6355 4.04883 10.5 4.04883ZM7.92188 7.92773C8.50537 7.92773 8.97656 8.39896 8.97656 8.98096C8.97656 9.56296 8.50462 10.0371 7.92188 10.0371C7.33913 10.0371 6.86719 9.56446 6.86719 8.98096C6.86719 8.39896 7.33913 7.92773 7.92188 7.92773ZM13.6758 7.92773C14.2585 7.92773 14.7305 8.39896 14.7305 8.98096C14.7305 9.56446 14.2585 10.0371 13.6758 10.0371C13.0915 10.0371 12.6211 9.56446 12.6211 8.98096C12.6211 8.39821 13.093 7.92773 13.6758 7.92773ZM15.375 12.4233C17.7298 12.4233 19.5 13.9776 19.5 15.7354C19.5 16.4016 19.2583 17.0185 18.8188 17.5532L18.6167 17.7993L18.6533 18.1157L18.6694 18.2505L18.3369 18.0645L17.9561 18.3105C17.2555 18.7655 16.36 19.0488 15.375 19.0488C13.0202 19.0488 11.25 17.4931 11.25 15.7354C11.25 13.9786 13.0204 12.4233 15.375 12.4233ZM13.4897 14.1211C13.0472 14.1211 12.6914 14.4784 12.6914 14.9194C12.6914 15.3604 13.048 15.7192 13.4897 15.7192C13.93 15.7192 14.2888 15.3604 14.2896 14.9194C14.2896 14.4784 13.9307 14.1211 13.4897 14.1211ZM17.2749 14.1211C16.8347 14.1211 16.4766 14.4784 16.4766 14.9194C16.4766 15.3604 16.8339 15.7192 17.2749 15.7192C17.7167 15.7192 18.0762 15.3604 18.0762 14.9194C18.0762 14.4784 17.7167 14.1211 17.2749 14.1211Z" fill="black"/>
</g>
</svg>
