<svg width="25" height="25" viewBox="0 0 25 25" fill="none" xmlns="http://www.w3.org/2000/svg">
<path fill-rule="evenodd" clip-rule="evenodd" d="M10.2637 1C4.74967 1 0.263672 4.813 0.263672 9.5C0.263672 11.089 0.775047 12.6229 1.74805 13.9629L1.16602 18.5156L5.1875 16.8262C6.47944 17.4734 7.92529 17.8452 9.43555 17.9512C10.1754 20.8954 13.2483 23 16.7637 23C18.2161 23 19.5359 22.5886 20.6934 21.9688L23.6016 23.6016L23.1582 19.834C23.8175 18.8841 24.2637 17.7856 24.2637 16.582C24.2637 14.018 22.5437 11.888 20.1172 10.8496C20.2045 10.3983 20.2637 9.94726 20.2637 9.5C20.2637 4.813 15.7777 1 10.2637 1ZM6.82617 6.17188C7.60417 6.17188 8.23242 6.80017 8.23242 7.57617C8.23242 8.35217 7.60317 8.98438 6.82617 8.98438C6.04917 8.98438 5.41992 8.35417 5.41992 7.57617C5.41992 6.80017 6.04917 6.17188 6.82617 6.17188ZM14.498 6.17188C15.275 6.17188 15.9043 6.80017 15.9043 7.57617C15.9043 8.35417 15.275 8.98438 14.498 8.98438C13.719 8.98438 13.0918 8.35417 13.0918 7.57617C13.0918 6.79917 13.721 6.17188 14.498 6.17188ZM16.7637 12.166C19.9033 12.166 22.2637 14.2384 22.2637 16.582C22.2637 17.4703 21.9414 18.2929 21.3555 19.0059L21.0859 19.334L21.1348 19.7559L21.1562 19.9355L20.7129 19.6875L20.2051 20.0156C19.2711 20.6222 18.0771 21 16.7637 21C13.624 21 11.2637 18.9256 11.2637 16.582C11.2637 14.2396 13.6242 12.166 16.7637 12.166ZM14.25 14.4297C13.66 14.4297 13.1855 14.9061 13.1855 15.4941C13.1855 16.0821 13.661 16.5605 14.25 16.5605C14.837 16.5605 15.3154 16.0821 15.3164 15.4941C15.3164 14.9061 14.838 14.4297 14.25 14.4297ZM19.2969 14.4297C18.7099 14.4297 18.2324 14.9061 18.2324 15.4941C18.2324 16.0821 18.7089 16.5605 19.2969 16.5605C19.8859 16.5605 20.3652 16.0821 20.3652 15.4941C20.3652 14.9061 19.8859 14.4297 19.2969 14.4297Z" fill="black"/>
</svg>
