<svg width="25" height="25" viewBox="0 0 25 25" fill="none" xmlns="http://www.w3.org/2000/svg">
<g id="Weibo">
<path id="Shape" fill-rule="evenodd" clip-rule="evenodd" d="M16.5441 4.5833C16.3283 4.59818 16.1014 4.62794 15.8893 4.67259C15.495 4.75815 15.2383 5.14506 15.3238 5.53568C15.4057 5.93003 15.7926 6.18672 16.1869 6.10116C17.3997 5.84446 18.7204 6.22021 19.6095 7.20235C20.4987 8.18821 20.733 9.53494 20.3536 10.7143C20.2308 11.0974 20.4466 11.5141 20.8298 11.6369C21.213 11.7596 21.6259 11.5439 21.7524 11.1607C22.2881 9.50146 21.9607 7.6339 20.7107 6.24997C19.7732 5.2083 18.4637 4.64283 17.1691 4.5833C16.9533 4.57214 16.7598 4.56842 16.5441 4.5833ZM10.6214 6.75592C9.29332 6.89729 7.41832 7.93524 5.77025 9.5833C3.97338 11.3802 2.94287 13.2924 2.94287 14.9404C2.94287 18.0915 6.96817 20 10.9191 20C16.0976 20 19.55 16.9717 19.55 14.5833C19.55 13.1398 18.3521 12.3326 17.2583 11.994C16.9905 11.9122 16.7896 11.8712 16.931 11.5178C17.236 10.7515 17.2918 10.0855 16.9607 9.61306C16.3432 8.72765 14.6133 8.77229 12.675 9.5833C12.675 9.5833 12.0723 9.8586 12.2286 9.37497C12.5262 8.41515 12.4853 7.60785 12.0203 7.14283C11.6929 6.81172 11.2241 6.69268 10.6214 6.75592ZM17.05 7.14283C16.838 7.13166 16.6333 7.15771 16.425 7.20235C16.0865 7.27303 15.8744 7.63762 15.9488 7.97616C16.0232 8.3147 16.3543 8.52675 16.6929 8.45235C17.0984 8.36678 17.556 8.47839 17.8536 8.80949C18.1512 9.14059 18.2219 9.57586 18.0917 9.97021C17.9838 10.3013 18.1475 10.6659 18.4786 10.7738C18.8097 10.8779 19.178 10.718 19.2822 10.3869C19.5426 9.57958 19.3863 8.65324 18.7762 7.97616C18.3186 7.47021 17.6825 7.17259 17.05 7.14283ZM11.3357 11.3393C13.9734 11.4323 16.0976 12.7418 16.2762 14.5535C16.4808 16.6257 14.1036 18.5565 10.9488 18.869C7.79406 19.1815 5.05225 17.7529 4.84763 15.6845C4.64302 13.6123 7.05373 11.6815 10.2048 11.369C10.5991 11.3318 10.96 11.3244 11.3357 11.3393ZM9.55001 13.3333C8.47115 13.43 7.4518 14.0476 6.99049 14.9404C6.36177 16.157 6.98305 17.5037 8.41906 17.9464C9.90344 18.404 11.6482 17.712 12.2583 16.3988C12.8573 15.1153 12.0909 13.7834 10.6214 13.4226C10.268 13.3333 9.91088 13.2998 9.55001 13.3333ZM8.86549 15.2976C8.99198 15.3013 9.10731 15.3422 9.22263 15.3869C9.68766 15.5766 9.83275 16.0751 9.55001 16.5178C9.25984 16.9568 8.646 17.1689 8.18097 16.9643C7.72338 16.7634 7.59317 16.2611 7.88335 15.8333C8.09912 15.5134 8.48975 15.2939 8.86549 15.2976Z" fill="black"/>
</g>
</svg>
