<svg width="25" height="25" viewBox="0 0 25 25" fill="none" xmlns="http://www.w3.org/2000/svg">
<path fill-rule="evenodd" clip-rule="evenodd" d="M17.9212 3.01236C17.6494 3.0311 17.3636 3.06858 17.0966 3.1248C16.6 3.23256 16.2767 3.71982 16.3844 4.21176C16.4875 4.70839 16.9748 5.03166 17.4714 4.9239C18.9988 4.60063 20.662 5.07383 21.7817 6.31071C22.9015 7.55227 23.1967 9.2483 22.7188 10.7335C22.5642 11.2161 22.8359 11.7408 23.3185 11.8954C23.801 12.05 24.3211 11.7783 24.4804 11.2957C25.1551 9.20613 24.7428 6.85419 23.1686 5.11131C21.9879 3.79947 20.3387 3.08732 18.7083 3.01236C18.4365 2.9983 18.1929 2.99362 17.9212 3.01236ZM10.4624 5.7485C8.78979 5.92654 6.42848 7.23369 4.35295 9.30922C2.09002 11.5721 0.792236 13.9803 0.792236 16.0558C0.792236 20.0242 5.86157 22.4276 10.8372 22.4276C17.3589 22.4276 21.7068 18.6139 21.7068 15.6061C21.7068 13.7882 20.1981 12.7715 18.8207 12.3452C18.4834 12.2421 18.2304 12.1906 18.4084 11.7455C18.7926 10.7804 18.8629 9.94171 18.4459 9.3467C17.6682 8.23163 15.4896 8.28785 13.0486 9.30922C13.0486 9.30922 12.2896 9.65592 12.4864 9.04685C12.8612 7.83808 12.8097 6.8214 12.224 6.23576C11.8117 5.81878 11.2214 5.66885 10.4624 5.7485ZM18.5582 6.23576C18.2911 6.22171 18.0335 6.2545 17.7711 6.31072C17.3447 6.39974 17.0777 6.85889 17.1714 7.28524C17.2651 7.71158 17.6821 7.97864 18.1084 7.88493C18.6191 7.77718 19.1954 7.91773 19.5702 8.33471C19.945 8.75169 20.034 9.29985 19.87 9.79648C19.7342 10.2135 19.9403 10.6726 20.3573 10.8085C20.7743 10.9397 21.2381 10.7382 21.3693 10.3212C21.6972 9.30454 21.5005 8.13793 20.7321 7.28524C20.1558 6.64805 19.3547 6.27324 18.5582 6.23576ZM11.3619 11.5206C14.6836 11.6377 17.3589 13.2869 17.5837 15.5685C17.8414 18.1782 14.8476 20.6098 10.8746 21.0033C6.9016 21.3969 3.44864 19.5978 3.19096 16.9928C2.93327 14.3832 5.96925 11.9516 9.93758 11.558C10.4342 11.5112 10.8887 11.5018 11.3619 11.5206ZM9.11301 14.0318C7.75432 14.1536 6.47059 14.9314 5.88963 16.0558C5.09784 17.5879 5.88026 19.2839 7.68873 19.8414C9.5581 20.4177 11.7554 19.5463 12.5238 17.8924C13.2781 16.276 12.313 14.5987 10.4623 14.1443C10.0172 14.0318 9.56747 13.9897 9.11301 14.0318ZM8.25093 16.5055C8.41022 16.5102 8.55546 16.5618 8.7007 16.618C9.28635 16.8569 9.46907 17.4847 9.113 18.0423C8.74756 18.5951 7.9745 18.8622 7.38886 18.6045C6.81259 18.3515 6.64861 17.719 7.01405 17.1802C7.28579 16.7773 7.77773 16.5008 8.25093 16.5055Z" fill="black"/>
</svg>
