<svg width="25" height="25" viewBox="0 0 25 25" fill="none" xmlns="http://www.w3.org/2000/svg">
<g id="Youtube">
<path id="Shape" fill-rule="evenodd" clip-rule="evenodd" d="M7.06055 3.07471L8.39209 7.88379V10.1909H9.54492V7.88379L10.894 3.07471H9.73242L9.24902 5.26318C9.11327 5.90218 9.02657 6.3562 8.98682 6.62695H8.95166C8.89541 6.2482 8.80795 5.79064 8.68945 5.25439L8.22363 3.07471H7.06055ZM12.2388 4.88965C11.848 4.88965 11.5325 4.96656 11.2925 5.12256C11.0517 5.27781 10.8755 5.52623 10.7622 5.86523C10.6497 6.20498 10.5923 6.65339 10.5923 7.21289V7.96729C10.5923 8.52078 10.6427 8.96508 10.7417 9.29883C10.8407 9.63258 11.0065 9.87886 11.2412 10.0371C11.476 10.1954 11.7999 10.2751 12.2124 10.2759C12.6137 10.2759 12.9335 10.1975 13.1675 10.0415C13.4015 9.8855 13.5715 9.64144 13.6758 9.30469C13.78 8.96794 13.8325 8.523 13.8325 7.96875V7.21289C13.8325 6.65339 13.7786 6.20638 13.6714 5.86963C13.5641 5.53363 13.3956 5.2852 13.1631 5.12695C12.9313 4.9687 12.6228 4.88965 12.2388 4.88965ZM14.439 4.99219V8.87549C14.439 9.35624 14.5216 9.71028 14.6851 9.93604C14.8493 10.1618 15.1032 10.2744 15.4482 10.2744C15.9455 10.2744 16.3191 10.0345 16.5674 9.55371H16.5923L16.6948 10.1895H17.6104V4.99219H16.4414V9.12012C16.3964 9.21687 16.3271 9.29664 16.2334 9.35889C16.1396 9.42189 16.0424 9.45264 15.9404 9.45264C15.8212 9.45264 15.7365 9.40222 15.6855 9.30322C15.6345 9.20422 15.6094 9.04061 15.6094 8.80811V4.99219H14.439ZM12.2124 5.69531C12.3759 5.69531 12.4921 5.78209 12.5566 5.95459C12.6219 6.12634 12.6533 6.39847 12.6533 6.77197V8.39209C12.6533 8.77684 12.6211 9.05316 12.5566 9.22266C12.4921 9.39216 12.3766 9.47679 12.2139 9.47754C12.0504 9.47754 11.9363 9.39216 11.874 9.22266C11.811 9.05316 11.7803 8.77609 11.7803 8.39209V6.77197C11.7803 6.39922 11.8139 6.12709 11.8784 5.95459C11.9429 5.78284 12.0542 5.69531 12.2124 5.69531ZM6.375 11.25C5.33925 11.25 4.5 12.0892 4.5 13.125V19.125C4.5 20.1607 5.33925 21 6.375 21H19.125C20.1608 21 21 20.1607 21 19.125V13.125C21 12.0892 20.1608 11.25 19.125 11.25H6.375ZM12.7939 12.9741H13.7461V15.2871H13.7534C13.8389 15.1199 13.9607 14.9856 14.1182 14.8828C14.2757 14.7801 14.4464 14.729 14.6279 14.729C14.8619 14.729 15.0445 14.7913 15.1772 14.915C15.31 15.0388 15.408 15.2403 15.4673 15.5171C15.5265 15.7946 15.5566 16.1787 15.5566 16.6699V17.3628C15.5566 18.0168 15.4783 18.4974 15.3208 18.8057C15.1633 19.1139 14.9163 19.2686 14.5825 19.2686C14.3965 19.2686 14.2272 19.2251 14.0742 19.1396C13.9212 19.0541 13.8079 18.9366 13.7314 18.7881H13.7095L13.6099 19.2026H12.7939V12.9741ZM6.8877 13.1968H9.81592V13.9922H8.83447V19.2026H7.86768V13.9922H6.8877V13.1968ZM17.3379 14.7319C17.6761 14.7319 17.9372 14.7928 18.1187 14.9165C18.2994 15.041 18.4282 15.2348 18.5024 15.4966C18.5759 15.7591 18.6123 16.1222 18.6123 16.585V17.3379H16.96V17.5605C16.96 17.8425 16.9676 18.0531 16.9849 18.1934C17.0021 18.3336 17.0364 18.4372 17.0889 18.501C17.1414 18.5655 17.2225 18.5977 17.332 18.5977C17.4798 18.5977 17.5812 18.5403 17.6367 18.4263C17.6915 18.3123 17.7216 18.1205 17.7261 17.8535L18.5771 17.9033C18.5816 17.9408 18.5845 17.9948 18.5845 18.0615C18.5845 18.4673 18.474 18.7702 18.252 18.9697C18.03 19.1707 17.7158 19.2715 17.3101 19.2715C16.8233 19.2715 16.4826 19.1182 16.2861 18.813C16.0896 18.5077 15.9932 18.0348 15.9932 17.395V16.6289C15.9932 15.9704 16.0954 15.4898 16.2979 15.186C16.5004 14.8823 16.8466 14.7319 17.3379 14.7319ZM11.2119 14.8125H12.2007V19.2012H12.1978V19.2026H11.4243L11.3394 18.665H11.3174C11.1074 19.0715 10.7926 19.2744 10.3726 19.2744C10.0808 19.2744 9.86678 19.18 9.72803 18.9888C9.58928 18.7983 9.52002 18.4987 9.52002 18.0938V14.814H10.5103V18.0366C10.5103 18.2316 10.532 18.3731 10.5747 18.4556C10.6182 18.5396 10.6888 18.5801 10.79 18.5801C10.8755 18.5801 10.9574 18.5542 11.0361 18.501C11.1156 18.4485 11.1729 18.3813 11.2119 18.3003V14.8125ZM17.3174 15.3984C17.2124 15.3984 17.1333 15.4292 17.083 15.4907C17.0328 15.553 16.9991 15.6544 16.9834 15.7954C16.9661 15.9357 16.9585 16.1498 16.9585 16.4355V16.7505H17.6807V16.4355C17.6807 16.1535 17.6716 15.9409 17.6528 15.7954C17.6341 15.6492 17.6005 15.5478 17.5503 15.4878C17.5 15.4285 17.4231 15.3984 17.3174 15.3984ZM14.1826 15.4307C14.0874 15.4307 13.9985 15.4684 13.9175 15.5449C13.8365 15.6214 13.7791 15.7194 13.7461 15.8379V18.3296C13.7896 18.4061 13.8456 18.4627 13.9146 18.501C13.9836 18.5385 14.0584 18.5596 14.1401 18.5596C14.2451 18.5596 14.3284 18.5218 14.3906 18.4453C14.4529 18.3688 14.497 18.2401 14.5225 18.0586C14.5487 17.8778 14.562 17.6266 14.562 17.3071V16.7417C14.562 16.3982 14.5515 16.133 14.5298 15.9463C14.5088 15.7603 14.4695 15.6273 14.4155 15.5493C14.3608 15.4713 14.2839 15.4307 14.1826 15.4307Z" fill="black"/>
</g>
</svg>
