<svg width="24" height="25" viewBox="0 0 24 25" fill="none" xmlns="http://www.w3.org/2000/svg">
<path fill-rule="evenodd" clip-rule="evenodd" d="M3.94196 0L5.72475 6.43883V9.52783H7.26827V6.43883L9.07459 0H7.51931L6.87209 2.93013C6.69034 3.78568 6.57425 4.39356 6.52103 4.75607H6.47396C6.39864 4.24896 6.28155 3.63634 6.12289 2.91836L5.49921 0H3.94196ZM10.875 2.43001C10.3519 2.43001 9.92939 2.53298 9.60806 2.74185C9.28572 2.94971 9.04971 3.28233 8.89808 3.73621C8.74745 4.1911 8.67057 4.79146 8.67057 5.54057V6.55062C8.67057 7.2917 8.73807 7.88656 8.87062 8.33342C9.00317 8.78027 9.22511 9.11001 9.53941 9.32189C9.85372 9.53377 10.2874 9.64057 10.8397 9.64158C11.377 9.64158 11.8052 9.53664 12.1185 9.32778C12.4318 9.11891 12.6595 8.79213 12.799 8.34126C12.9386 7.89039 13.0089 7.29467 13.0089 6.55259V5.54057C13.0089 4.79146 12.9367 4.19297 12.7932 3.74209C12.6496 3.29223 12.4239 2.95961 12.1126 2.74773C11.8023 2.53585 11.3892 2.43001 10.875 2.43001ZM13.8209 2.5673V7.76661C13.8209 8.41028 13.9314 8.88431 14.1503 9.18657C14.3703 9.48882 14.7102 9.63962 15.1722 9.63962C15.8379 9.63962 16.3382 9.31835 16.6706 8.67467H16.7039L16.8412 9.52586H18.067V2.5673H16.5019V8.09414C16.4417 8.22368 16.3489 8.33048 16.2234 8.41383C16.0979 8.49818 15.9677 8.53935 15.8312 8.53935C15.6715 8.53935 15.5582 8.47185 15.4899 8.3393C15.4216 8.20675 15.3879 7.98768 15.3879 7.67639V2.5673H13.8209ZM10.8397 3.5087C11.0586 3.5087 11.2143 3.62489 11.3006 3.85585C11.388 4.0858 11.4301 4.45016 11.4301 4.95023V7.11939C11.4301 7.63453 11.387 8.00449 11.3006 8.23143C11.2143 8.45837 11.0596 8.57168 10.8417 8.57269C10.6228 8.57269 10.47 8.45837 10.3867 8.23143C10.3023 8.00449 10.2612 7.63353 10.2612 7.11939V4.95023C10.2612 4.45116 10.3062 4.08681 10.3926 3.85585C10.4789 3.62589 10.6279 3.5087 10.8397 3.5087ZM3.02409 10.9458C1.63734 10.9458 0.513672 12.0695 0.513672 13.4562V21.4896C0.513672 22.8763 1.63734 24 3.02409 24H20.0949C21.4817 24 22.6054 22.8763 22.6054 21.4896V13.4562C22.6054 12.0695 21.4817 10.9458 20.0949 10.9458H3.02409ZM11.6184 13.2542H12.8932V16.3511H12.903C13.0175 16.1271 13.1805 15.9473 13.3913 15.8098C13.6022 15.6722 13.8308 15.6038 14.0739 15.6038C14.3872 15.6038 14.6316 15.6872 14.8093 15.8529C14.9871 16.0186 15.1183 16.2884 15.1977 16.659C15.277 17.0305 15.3173 17.5448 15.3173 18.2025V19.1302C15.3173 20.0058 15.2124 20.6493 15.0015 21.062C14.7907 21.4747 14.4599 21.6818 14.0131 21.6818C13.764 21.6818 13.5374 21.6237 13.3325 21.5092C13.1277 21.3947 12.976 21.2373 12.8736 21.0385H12.8441L12.7108 21.5935H11.6184V13.2542ZM3.71053 13.5523H7.6311V14.6173H6.31706V21.5935H5.02262V14.6173H3.71053V13.5523ZM17.7022 15.6077C18.1551 15.6077 18.5045 15.6892 18.7476 15.8549C18.9896 16.0216 19.162 16.2811 19.2614 16.6315C19.3598 16.983 19.4085 17.4692 19.4085 18.0887V19.0968H17.1962V19.3949C17.1962 19.7725 17.2064 20.0544 17.2295 20.2422C17.2526 20.43 17.2985 20.5687 17.3688 20.6541C17.4391 20.7404 17.5477 20.7835 17.6944 20.7835C17.8922 20.7835 18.028 20.7067 18.1023 20.5541C18.1756 20.4014 18.2159 20.1447 18.2219 19.7872L19.3614 19.8539C19.3675 19.9041 19.3712 19.9763 19.3712 20.0657C19.3712 20.609 19.2233 21.0146 18.926 21.2817C18.6288 21.5508 18.2082 21.6857 17.6649 21.6857C17.0132 21.6857 16.5571 21.4805 16.294 21.0718C16.0309 20.6631 15.9018 20.0299 15.9018 19.1733V18.1476C15.9018 17.2659 16.0386 16.6224 16.3097 16.2157C16.5808 15.8091 17.0445 15.6077 17.7022 15.6077ZM9.50019 15.7156H10.824V21.5916H10.8201V21.5935H9.78457L9.67082 20.8737H9.6414C9.36023 21.418 8.93872 21.6896 8.37638 21.6896C7.98576 21.6896 7.6992 21.5632 7.51343 21.3072C7.32766 21.0521 7.23493 20.6511 7.23493 20.1089V15.7176H8.56074V20.0324C8.56074 20.2934 8.5898 20.4828 8.64704 20.5933C8.70528 20.7057 8.79978 20.76 8.93534 20.76C9.04982 20.76 9.1594 20.7254 9.26484 20.6541C9.37128 20.5838 9.44797 20.4938 9.50019 20.3854V15.7156ZM17.6747 16.5001C17.5342 16.5001 17.4282 16.5413 17.3609 16.6237C17.2937 16.707 17.2487 16.8428 17.2276 17.0316C17.2045 17.2194 17.1942 17.5061 17.1942 17.8887V18.3104H18.1611V17.8887C18.1611 17.5111 18.149 17.2264 18.1239 17.0316C18.0988 16.8358 18.0539 16.7001 17.9866 16.6198C17.9193 16.5404 17.8163 16.5001 17.6747 16.5001ZM13.4776 16.5433C13.3501 16.5433 13.2311 16.5938 13.1226 16.6962C13.0142 16.7987 12.9374 16.9298 12.8932 17.0885V20.4246C12.9514 20.527 13.0263 20.6029 13.1187 20.6541C13.2111 20.7043 13.3113 20.7325 13.4208 20.7325C13.5613 20.7325 13.6728 20.682 13.7561 20.5796C13.8395 20.4771 13.8985 20.3048 13.9326 20.0618C13.9678 19.8198 13.9856 19.4834 13.9856 19.0557V18.2986C13.9856 17.8387 13.9716 17.4837 13.9425 17.2336C13.9143 16.9846 13.8618 16.8066 13.7895 16.7021C13.7162 16.5977 13.6132 16.5433 13.4776 16.5433Z" fill="black"/>
</svg>
