<svg width="172" height="72" viewBox="0 0 172 72" fill="none" xmlns="http://www.w3.org/2000/svg">
<path fill-rule="evenodd" clip-rule="evenodd" d="M114.681 48.8367V36.5137H105.425C105.244 45.0311 112.503 48.1119 114.681 48.8367Z" fill="black"/>
<path fill-rule="evenodd" clip-rule="evenodd" d="M130.836 48.8367C131.199 48.6555 131.562 48.6555 132.106 48.2931C135.373 39.7757 140.091 36.6949 140.454 36.5137C137.551 36.5137 133.195 36.5137 131.017 36.5137V48.8367H130.836Z" fill="black"/>
<path fill-rule="evenodd" clip-rule="evenodd" d="M38.2821 40.5011L39.5524 37.964C38.8265 37.7828 37.9191 37.7828 37.0117 37.964L38.2821 40.5011" fill="black"/>
<path fill-rule="evenodd" clip-rule="evenodd" d="M47.1706 38.6875C46.6262 36.1504 46.2632 32.8884 46.2632 31.0762C43.7225 31.6198 41.7262 31.6198 41.3633 31.6198V36.5128C43.7225 37.2377 44.9928 37.6002 47.1706 38.6875Z" fill="black"/>
<path fill-rule="evenodd" clip-rule="evenodd" d="M39.5524 36.3329V31.6211C39.1895 31.6211 37.3747 31.6211 37.0117 31.6211V36.3329C37.0117 36.3329 37.5562 36.3329 38.2821 36.3329C39.008 36.3329 39.5524 36.3329 39.5524 36.3329Z" fill="black"/>
<path fill-rule="evenodd" clip-rule="evenodd" d="M62.0521 45.5746C64.0484 42.3126 64.0484 39.9567 64.0484 39.9567C64.0484 36.5135 61.8706 33.6139 60.4188 32.3454V32.3454C56.4263 29.0834 48.0783 30.7144 48.0783 30.7144C47.8968 31.9829 47.8968 35.9698 48.9856 39.5943C52.7967 41.7689 59.6929 44.8497 62.0521 45.5746Z" fill="black"/>
<path fill-rule="evenodd" clip-rule="evenodd" d="M52.7971 49.7432C51.8897 48.2934 50.0749 46.2999 46.8083 47.9309C46.8083 47.9309 46.6268 50.8305 48.0786 51.9178C48.6231 52.4615 50.2564 54.4549 49.7119 55.9047C49.5304 56.6296 46.0824 59.5291 45.175 60.4352C43.3602 61.885 43.7231 62.7911 43.7231 62.7911C44.0861 64.4221 42.8157 67.3217 43.9046 68.5902C44.0861 68.7714 44.0861 68.7714 44.0861 68.7714C45.175 68.7714 46.8083 66.2343 46.8083 65.6907C46.8083 65.3282 45.7194 63.8785 45.7194 63.6972C45.9009 63.3348 46.0824 63.516 46.4453 62.9724C46.6268 62.7911 46.6268 62.2475 46.6268 62.0662C46.8083 60.9789 51.5267 57.1733 52.4341 56.6296C53.8859 55.7235 52.7971 54.6361 52.7971 54.6361C50.9823 52.4615 52.6156 49.9244 52.7971 49.7432Z" fill="black"/>
<path fill-rule="evenodd" clip-rule="evenodd" d="M35.3778 38.1449C35.3778 38.1449 29.3891 39.051 25.2151 43.2191C24.8521 43.5816 24.6706 43.2191 24.6706 43.2191C24.6706 43.2191 24.6706 42.8567 24.8521 42.4943C26.6669 40.1384 31.9298 36.6952 35.1964 36.3327V31.2585C33.926 31.0773 32.6557 30.7148 32.2927 30.7148C29.2076 33.4332 23.4003 37.7825 17.9559 40.3196C17.4115 43.0379 19.2263 44.3065 19.2263 45.575C19.2263 45.9375 19.0448 46.1187 18.8633 46.2999C17.7744 47.3872 13.056 50.8305 12.5116 52.099C12.1486 53.0051 13.2375 59.3479 13.2375 61.5225C13.2375 63.1535 14.5078 64.0596 14.5078 64.0596C15.0523 64.7845 17.4115 67.6841 18.5004 67.6841V67.6841V67.6841C19.2263 67.3216 20.3151 62.9723 17.7744 63.516C16.5041 63.6972 16.5041 63.516 16.6856 62.7911C16.6856 62.4286 16.5041 62.0662 16.1411 61.885C14.5078 61.1601 14.1449 53.1863 16.1411 52.4614C23.2188 49.7431 28.3002 47.7497 28.6631 44.6689C30.8409 47.5685 25.7595 50.1056 25.578 50.1056C25.941 51.3741 26.8484 53.5488 26.6669 54.6361C26.4854 55.361 27.0298 58.0793 27.0298 58.0793C27.7558 59.7103 27.7558 65.5094 27.0298 66.2343C26.8484 66.4155 26.6669 66.9592 26.4854 67.3216C25.941 68.0465 24.6706 69.1338 24.4891 70.5836C24.3077 71.4897 28.8446 70.5836 28.6631 69.3151C28.6631 68.9526 28.3002 68.409 28.6631 68.0465C28.8446 67.6841 29.2076 67.8653 29.5705 67.6841C29.9335 67.3216 30.2965 66.778 30.115 66.2343C29.3891 64.2409 29.2076 60.254 29.752 58.4418C29.9335 57.8981 30.115 54.9986 29.9335 54.0924C29.9335 53.3676 31.2038 48.1121 31.2038 47.9309C32.6557 48.2933 34.4705 48.6558 37.5556 48.6558C37.5556 47.0248 37.5556 46.4811 37.5556 41.9506L35.3778 38.1449Z" fill="black"/>
<path fill-rule="evenodd" clip-rule="evenodd" d="M50.6188 46.4811C48.6226 43.2192 47.8967 41.7694 47.7152 40.8633C44.993 39.0511 42.0894 38.3262 41.3634 38.3262C40.819 39.2323 39.3672 41.9506 39.3672 41.9506C39.3672 46.4811 39.3672 47.0248 39.3672 48.6558C43.1782 48.1121 46.9893 44.8502 50.6188 46.4811Z" fill="black"/>
<path fill-rule="evenodd" clip-rule="evenodd" d="M63.6883 46.2995C65.1401 46.6619 65.8661 46.6619 67.6808 46.8432C68.7697 36.5135 66.0475 34.3389 62.418 33.0703C63.8698 34.1576 68.2253 39.7755 63.6883 46.2995Z" fill="black"/>
<path fill-rule="evenodd" clip-rule="evenodd" d="M5.97561 27.6331C5.79413 27.4519 5.79413 26.727 6.33857 26.0021C6.15709 26.0021 5.2497 26.0021 5.2497 26.0021C5.2497 26.0021 5.2497 26.0021 5.2497 25.8209L4.88674 23.1025L7.24596 22.7401C7.24596 22.7401 7.24596 22.1964 7.06448 21.834C5.2497 21.834 3.25344 22.5589 2.89048 22.5589C2.52752 24.9148 3.61639 25.6396 3.61639 25.6396C4.52378 26.5457 5.06822 29.6265 5.2497 29.8077C5.79413 30.1702 7.06448 29.989 7.60892 29.989C5.2497 29.8077 5.97561 27.6331 5.97561 27.6331Z" fill="black"/>
<path fill-rule="evenodd" clip-rule="evenodd" d="M17.7722 25.6406C17.4092 26.0031 15.9574 26.3655 15.2315 27.0904C15.7759 28.5402 11.9648 33.6144 11.9648 37.0576C11.9648 37.2388 11.9648 37.0576 11.9648 37.2388C12.6908 36.3327 16.1388 33.4332 17.4092 32.7083C18.1351 30.7148 18.4981 27.0904 17.7722 25.6406Z" fill="black"/>
<path fill-rule="evenodd" clip-rule="evenodd" d="M5.43359 31.9832C5.43359 31.9832 5.43359 32.1645 5.61507 32.5269C5.97803 33.7955 5.97803 34.3391 7.24838 34.3391C7.42986 34.3391 9.97055 34.5203 9.78907 32.8893C9.78907 32.7081 10.515 32.3457 10.3335 31.9832C10.3335 31.4396 10.152 31.6208 10.152 31.6208C9.24464 31.802 6.34099 32.1645 5.43359 31.9832Z" fill="black"/>
<path fill-rule="evenodd" clip-rule="evenodd" d="M4.16097 19.6607C3.25358 20.2044 2.89062 20.5668 2.89062 20.9293C3.0721 20.9293 3.61654 20.748 4.34245 20.5668C4.70541 20.5668 5.06837 20.3856 5.43132 20.3856C5.79428 20.3856 6.33871 20.2044 6.70167 20.2044C5.6128 18.5734 3.61654 15.6738 3.61654 15.6738C3.61654 15.6738 3.61654 15.855 3.61654 16.5799C3.25358 18.2109 4.16097 19.6607 4.16097 19.6607Z" fill="black"/>
<path fill-rule="evenodd" clip-rule="evenodd" d="M17.2279 45.7553C16.3205 43.7618 15.4131 41.7684 17.4094 34.5195C15.7761 35.7881 13.0539 38.3252 12.328 39.5937C11.6021 41.7684 13.7798 43.7618 13.9613 44.8492C14.1428 46.4802 5.43181 49.0173 5.06886 49.1985C4.34294 49.5609 3.79851 50.467 3.79851 51.1919C3.79851 51.9168 1.98373 56.8098 1.98373 57.1722C1.80225 57.7159 1.25781 60.9779 1.25781 60.9779C1.43929 62.0652 1.43929 65.3272 1.43929 65.3272C5.43181 64.4211 3.97999 61.3403 3.79851 61.3403C3.79851 61.1591 3.97999 61.1591 4.16147 60.9779C4.34294 60.6155 4.52442 59.8906 4.34294 59.5281C3.79851 58.8032 3.97999 58.4408 3.97999 58.4408C4.7059 55.5412 6.33921 51.7356 7.42808 51.1919C7.60956 51.0107 11.6021 50.467 12.8724 50.2858C13.2354 49.3797 17.4094 45.9365 17.2279 45.7553Z" fill="black"/>
<path fill-rule="evenodd" clip-rule="evenodd" d="M47.7172 54.4553C46.8098 53.5492 44.8136 50.6497 44.9951 48.6562C43.7247 49.0187 42.0914 49.7436 42.0914 49.7436C42.2729 52.2807 44.8136 53.368 44.8136 55.3615C44.8136 56.4488 41.9099 58.6234 41.0025 59.5296C39.1877 60.9793 39.5507 61.8854 39.5507 61.8854C40.0951 63.154 38.8248 65.6911 39.7322 67.3221C39.7322 67.5033 39.9137 67.5033 40.0951 67.5033C41.184 67.5033 42.8173 65.1474 42.8173 64.4225C42.8173 64.2413 41.0025 62.6103 41.7284 62.6103C42.8173 62.4291 42.6358 61.8854 42.6358 61.1605C42.6358 59.7108 48.2617 56.4488 48.2617 56.0863C48.0802 55.3615 47.8987 54.8178 47.7172 54.4553Z" fill="black"/>
<path fill-rule="evenodd" clip-rule="evenodd" d="M19.9507 52.4602C20.3136 54.4537 21.9469 56.0847 22.3099 56.8096C23.0358 58.803 23.2173 61.7025 23.3988 62.2462C23.5803 64.4209 22.4914 66.4143 21.4025 66.5955C20.8581 66.7768 19.4062 68.589 19.4062 68.9514C19.9507 69.8575 23.2173 69.3139 23.2173 69.3139C23.7617 69.1326 23.9432 67.8641 23.9432 67.8641C23.3988 66.4143 24.6691 66.2331 24.8506 66.2331V66.2331C26.1209 66.2331 25.758 64.4209 25.758 64.4209C25.395 63.696 24.6691 58.2593 25.2136 56.0847C25.5765 54.6349 24.8506 51.5541 24.6691 50.4668C23.3988 51.0105 22.3099 51.5541 19.9507 52.4602Z" fill="black"/>
<path fill-rule="evenodd" clip-rule="evenodd" d="M60.7852 31.6214C60.9666 31.8026 61.5111 32.1651 61.5111 32.1651C71.1294 32.3463 70.0406 44.4882 70.0406 45.213L75.6664 43.2196C70.222 27.0909 63.5073 29.8092 60.7852 31.6214Z" fill="black"/>
<path fill-rule="evenodd" clip-rule="evenodd" d="M62.9603 64.2409C62.7788 63.516 60.964 59.1667 61.5085 55.9047C61.1455 55.7235 59.5122 54.8174 58.7863 54.2737C57.6974 53.73 55.7012 52.4615 54.2493 51.0117C54.2493 51.0117 53.5234 52.099 53.7049 53.3676C58.0604 55.1798 60.6011 59.1667 60.4196 64.4221C60.4196 65.5095 58.6048 67.6841 58.6048 67.6841C57.516 69.1339 57.516 69.6776 57.516 69.6776C59.5122 70.04 61.69 69.4963 61.69 69.4963C61.8714 69.3151 61.8714 68.409 61.69 68.2278C60.6011 67.1405 61.8714 66.4156 61.8714 66.4156C62.5973 65.8719 63.1418 65.147 62.9603 64.2409Z" fill="black"/>
<path fill-rule="evenodd" clip-rule="evenodd" d="M15.9598 17.3036C16.5042 16.035 16.3228 15.1289 16.1413 14.9477C15.5969 14.5852 13.4191 13.3167 12.6932 12.5918V12.5918C12.5117 12.5918 12.8747 14.2228 13.0562 14.5852C13.4191 15.4913 13.9635 15.6726 13.9635 15.6726C13.9635 15.6726 12.8747 16.2162 12.5117 16.5787C12.8747 16.5787 14.508 16.035 15.9598 17.3036Z" fill="black"/>
<path fill-rule="evenodd" clip-rule="evenodd" d="M10.8773 26.3642C11.4217 26.0018 13.418 23.4647 13.5995 22.7398L11.9662 21.8337C11.9662 21.8337 11.9662 21.8337 11.9662 21.6525C12.8735 19.8403 13.5995 18.7529 13.5995 18.7529C13.5995 18.7529 13.5995 18.7529 13.7809 18.7529L15.5957 19.659C15.9587 18.9341 15.9587 18.9341 16.1402 18.5717C15.2328 17.6656 13.055 17.4844 12.1476 17.4844C11.6032 18.3905 10.6958 20.0215 10.6958 20.9276C10.5143 22.1961 9.0625 24.9145 9.0625 24.9145L10.8773 26.3642Z" fill="black"/>
<path fill-rule="evenodd" clip-rule="evenodd" d="M7.79268 26.0028C7.6112 25.8216 7.42972 26.3652 7.42972 26.7277C7.24824 27.0901 7.6112 27.0901 7.6112 27.2713C7.6112 27.815 7.6112 28.5399 8.15563 29.0836C8.51859 29.446 9.06303 29.6272 9.78894 29.6272C9.97042 29.6272 10.6963 29.446 11.0593 28.9023C11.2408 28.7211 11.4222 29.0836 11.6037 28.9023C11.7852 28.7211 11.7852 28.5399 11.6037 28.5399C10.5149 28.1775 8.88155 27.2713 7.79268 26.0028Z" fill="black"/>
<path fill-rule="evenodd" clip-rule="evenodd" d="M29.3885 24.5524C29.7515 25.8209 31.0219 29.6266 34.4699 30.1702L34.6514 29.8078V29.8078C30.8404 26.5458 32.8366 13.1354 21.0405 12.0481C17.2295 11.6856 16.1406 12.7729 16.1406 12.9542C16.1406 12.9542 16.6851 13.6791 17.2295 13.6791C25.2145 13.3166 27.2108 18.9345 29.3885 24.5524Z" fill="black"/>
<path fill-rule="evenodd" clip-rule="evenodd" d="M25.9377 21.1088C24.8489 18.5717 21.9452 15.4909 18.3156 14.9473C18.6786 20.3839 12.6898 26.7267 13.2342 26.3642C14.6861 25.2769 15.5935 25.2769 16.6823 24.552C17.2268 24.1896 18.3156 22.921 18.3156 22.921C21.5822 26.183 18.6786 37.0563 18.3156 38.5061C24.4859 35.6065 30.1117 30.7136 30.8376 30.1699C28.4784 28.7201 27.0266 23.6459 25.9377 21.1088Z" fill="black"/>
<path fill-rule="evenodd" clip-rule="evenodd" d="M1.80127 20.2031C1.98275 19.8407 2.70867 18.9346 3.07162 18.7533C2.52719 18.3909 0.893882 17.666 0.167969 17.666V17.666C0.167969 17.666 0.893882 19.297 1.80127 20.2031Z" fill="black"/>
<path fill-rule="evenodd" clip-rule="evenodd" d="M129.201 18.5723H116.316V49.1987C118.313 49.7424 120.309 50.1048 122.85 50.1048C122.85 50.1048 127.024 50.1048 129.201 49.1987C129.201 41.9499 129.201 18.5723 129.201 18.5723ZM125.027 37.2381C125.027 37.7818 124.846 37.963 124.846 37.963H123.031H121.216C121.216 37.963 121.035 37.6006 121.035 37.2381C121.035 37.0569 121.035 36.6944 121.035 36.6944H125.027V37.2381ZM127.387 35.2447C127.387 35.2447 125.572 35.2447 122.668 35.2447C119.946 35.2447 118.131 35.2447 118.131 35.2447V20.3845H127.387V35.2447Z" fill="black"/>
<path fill-rule="evenodd" clip-rule="evenodd" d="M109.055 25.2784L109.418 19.8418H107.422L107.785 25.2784H109.055Z" fill="black"/>
<path fill-rule="evenodd" clip-rule="evenodd" d="M95.083 20.5665L94.3571 23.8285L89.8201 24.191V26.3656H93.9941V26.5468C93.9941 26.5468 91.2719 26.9093 90.7275 27.0905C90.7275 27.0905 90.7275 27.453 90.7275 27.6342C89.4571 27.8154 84.5572 28.5403 84.1943 29.4464C83.8313 30.3525 81.835 34.1582 81.6536 34.883C81.2906 35.7892 80.2017 36.8765 79.8388 37.0577C79.2943 37.4202 78.024 37.0577 77.4796 36.514C77.2981 36.3328 76.7537 35.7892 76.5722 35.9704C76.3907 36.1516 76.2092 36.3328 76.2092 36.514C75.6648 36.1516 75.3018 35.6079 74.7574 35.2455C74.7574 35.2455 74.3944 35.2455 74.213 35.4267C74.0315 35.6079 74.213 35.7892 74.213 35.7892C75.1203 36.6953 76.2092 37.7826 77.2981 38.8699C79.8388 41.5883 82.9239 44.8502 86.372 45.5751C82.9239 46.8437 78.9314 48.2935 73.487 48.2935C65.6835 48.1122 58.4243 45.9376 50.2578 41.2258C54.0689 52.2803 64.7761 53.7301 66.0464 57.5358C66.7723 59.8916 66.7723 63.6973 66.4094 65.1471C66.2279 66.0532 63.1428 68.9527 63.6872 69.8588C63.8687 70.2213 65.865 70.4025 66.5909 70.2213C66.9538 70.2213 67.1353 70.2213 67.3168 70.0401C67.4983 69.8588 67.6797 68.9527 67.4983 68.7715C67.4983 68.5903 67.1353 68.4091 67.1353 68.4091C66.7723 67.8654 67.4983 67.3217 67.8612 67.3217C68.5871 67.3217 69.1316 66.5969 68.9501 66.0532C68.4056 64.6034 68.2242 56.2672 68.2242 56.2672C68.4056 55.1799 68.2242 53.9113 67.1353 53.5489C64.5946 52.824 62.5983 49.1996 62.4169 48.1122C64.2316 48.6559 68.2242 49.7432 73.487 49.7432C82.9239 49.7432 87.8238 45.2127 96.3533 45.2127C103.068 45.2127 106.153 48.1122 107.786 49.0183C111.235 50.8306 115.227 52.4616 120.671 53.0052L120.49 56.6297C120.49 56.8109 120.49 56.9921 120.308 56.9921H116.497C116.497 56.9921 116.497 57.1733 116.497 57.5358C116.497 57.717 116.497 57.8982 116.497 57.8982L117.042 58.6231C118.494 58.6231 128.112 58.6231 129.382 58.6231C129.564 58.6231 129.927 57.8982 129.927 57.8982C129.927 57.8982 130.108 57.717 130.108 57.5358C130.108 57.1733 130.108 56.9921 130.108 56.9921H125.934C125.753 56.9921 125.753 56.8109 125.753 56.6297L125.571 53.0052C131.197 52.6428 134.827 50.8306 135.008 50.6493C135.008 50.6493 135.916 46.6625 139.182 42.3131C140.997 39.9573 144.808 35.2455 153.7 35.2455V35.2455C153.7 35.2455 154.063 35.2455 154.063 34.7018C154.063 34.1582 153.7 34.1582 153.7 34.1582C151.886 34.1582 148.619 34.5206 146.804 34.7018C146.078 34.7018 145.534 34.7018 145.171 34.7018C144.264 34.5206 143.538 33.6145 143.538 32.5272C143.538 32.3459 143.538 25.6407 143.538 23.1036H145.171L145.352 27.0905H145.897C146.804 27.0905 146.986 27.9966 146.986 27.9966L147.167 29.2652H147.712L147.893 27.9966C147.893 27.9966 148.075 27.0905 148.982 27.0905H149.526L150.252 17.8482H148.801C147.893 17.8482 147.893 16.9421 147.893 16.9421C147.893 16.9421 147.893 16.3984 147.349 16.3984C146.986 16.3984 146.804 16.9421 146.804 16.9421C146.804 16.9421 146.804 17.8482 145.897 17.8482H144.445L144.808 21.8351H143.356C143.356 21.4726 143.356 16.036 143.356 16.036V16.036H143.901C143.901 16.036 144.082 15.8548 144.082 15.6735C144.082 15.4923 144.082 15.3111 144.082 15.3111C144.082 15.3111 136.097 13.8613 122.849 13.8613C109.964 13.8613 101.798 15.4923 101.798 15.4923C101.798 15.4923 101.798 15.6735 101.798 15.8548C101.798 16.036 101.979 16.2172 101.979 16.2172H102.524V32.3459C102.524 32.5272 102.524 34.883 101.979 35.6079C101.798 35.7892 101.798 35.7892 101.616 35.7892C101.253 35.7892 101.253 35.6079 101.253 35.4267C100.89 34.7018 99.9829 32.5272 99.9829 32.3459V32.3459H100.89C100.89 32.3459 101.072 32.1647 101.072 31.9835C101.072 31.8023 100.89 31.6211 100.89 31.6211H96.8977C99.9829 31.0774 100.346 29.4464 100.346 27.9966C100.527 21.4726 100.164 19.6604 99.8014 17.667C99.6199 16.9421 99.0755 15.8548 99.0755 15.8548L95.4459 20.2041L95.083 20.5665ZM148.801 20.0229L148.256 26.1844H146.078L145.715 20.0229H148.801ZM86.9164 43.5817C86.735 43.7629 86.009 43.9441 86.009 44.1253C86.009 44.3066 86.009 44.4878 86.1905 44.669C84.1943 44.3066 82.198 42.8568 80.2017 41.0446C80.3832 40.8634 84.9202 35.7892 85.1016 35.4267C85.6461 36.3328 87.2794 38.3263 87.6423 38.8699C89.6386 42.1319 88.1868 43.038 86.9164 43.5817ZM92.1793 42.1319V42.1319C91.8164 41.2258 90.7275 37.4202 90.546 36.6953C90.1831 35.7892 89.0942 33.4333 88.7312 33.2521C88.5498 33.2521 88.1868 33.6145 88.1868 33.6145C88.1868 33.6145 86.9165 32.7084 87.4609 31.8023C88.1868 30.8962 91.9978 31.4398 92.7238 31.4398V38.8699C92.7238 39.0511 92.9052 40.6821 92.1793 42.1319ZM107.242 18.2107C107.968 18.2107 107.968 17.4858 107.968 17.4858C107.968 17.4858 107.968 17.1233 108.331 17.1233C108.694 17.1233 108.694 17.4858 108.694 17.4858C108.694 17.4858 108.694 18.2107 109.601 18.2107H110.69L109.964 26.3656H109.601C108.694 26.3656 108.512 27.2717 108.512 27.2717L108.331 28.1778H107.786L107.605 27.2717C107.605 27.2717 107.423 26.3656 106.516 26.3656H106.153L105.427 18.2107H107.242ZM123.938 56.8109C123.938 56.9921 123.938 57.1733 123.757 57.1733H121.397C121.216 57.1733 121.216 56.9921 121.216 56.8109V56.8109L121.034 53.1864C121.76 53.3677 123.575 53.3677 124.119 53.1864L123.938 56.8109ZM133.375 49.7432C133.375 49.7432 128.838 51.9179 122.668 51.9179C119.764 51.9179 117.042 51.7367 114.501 50.8306C112.142 50.1057 103.249 46.4812 103.249 36.1516V36.1516V35.0643H114.32V16.7609H130.653V34.8831H141.541L143.175 36.1516C135.553 41.0446 133.375 49.7432 133.375 49.7432Z" fill="black"/>
<path fill-rule="evenodd" clip-rule="evenodd" d="M89.2765 18.7541C87.8246 16.9419 84.921 15.4922 81.1099 13.8612L78.2063 9.1494C78.2063 9.1494 78.2063 9.1494 78.2063 8.96817C73.1249 0.813197 68.9509 0.269531 67.862 0.269531H67.6805C66.5917 0.269531 65.8658 0.813196 65.5028 1.53808C64.9584 2.80664 65.3213 4.61885 66.5917 6.61229C68.5879 9.51184 73.6693 11.5053 78.5693 13.4987C79.2952 13.8612 80.0211 14.0424 80.5655 14.2236L86.7358 24.0096V24.0096H86.5543C86.1913 24.0096 85.4654 24.0096 85.6469 24.372C85.8284 24.9157 86.3728 24.372 86.5543 25.0969C86.9173 26.1842 89.095 26.003 89.095 26.003L88.3691 24.0096H87.8246L82.0173 14.7673C85.1025 16.0358 87.8246 17.1232 89.095 18.7541L89.2765 18.9354C89.458 18.9354 89.458 18.9354 89.458 18.7541C89.458 18.9354 89.458 18.9354 89.2765 18.7541ZM78.7507 12.9551C74.0323 10.9616 69.1324 8.96817 67.3176 6.43107C66.2287 4.80008 65.6843 3.16908 66.2287 2.26297C66.4102 1.71931 66.9546 1.53808 67.6805 1.53808C67.6805 1.53808 67.6805 1.53808 67.862 1.53808C69.8583 1.53808 73.6693 3.71275 77.4804 9.87428V9.87428L79.8396 13.4987C79.4766 13.1363 79.1137 13.1363 78.7507 12.9551Z" fill="black"/>
<path fill-rule="evenodd" clip-rule="evenodd" d="M12.1486 14.9482C7.79314 14.767 5.79688 16.9417 5.79688 16.9417C5.79688 16.9417 7.2487 18.5727 7.61166 19.1163C8.51905 20.3849 8.33757 21.6534 8.33757 22.5595C9.24496 21.291 8.88201 19.1163 10.3338 16.7604C10.8783 16.0356 11.6042 15.4919 12.3301 15.3107C12.1486 15.1295 12.1486 15.1295 12.1486 14.9482Z" fill="black"/>
<path fill-rule="evenodd" clip-rule="evenodd" d="M95.4473 20.0231L95.8102 17.6672L96.1732 17.3048L95.9917 16.2174L98.5324 15.1301C98.3509 14.7677 98.3509 14.7677 98.7139 14.4052C98.8954 14.224 99.8027 13.3179 99.9842 13.1367C100.347 11.5057 97.988 10.4183 96.5361 10.7808C95.9917 10.7808 94.7214 10.962 93.9954 10.7808C93.814 10.7808 93.451 10.7808 93.451 10.7808L93.2695 11.1432C93.2695 11.3244 94.3584 12.4118 94.7214 12.9554C95.0843 13.3179 93.814 14.4052 94.3584 14.5864C94.3584 14.5864 94.7214 14.5864 94.7214 14.7677C94.7214 14.7677 94.7214 15.1301 94.7214 15.3113L94.9028 15.4925C94.9028 15.6738 94.9028 16.2174 95.0843 16.3987C95.2658 16.5799 96.1732 16.7611 96.1732 16.7611C96.1732 16.7611 96.1732 16.7611 96.1732 16.9423L95.8102 17.1235C95.6287 17.1235 95.2658 17.486 95.6287 17.6672C95.8102 17.8484 95.9917 18.0296 95.9917 18.0296C95.8102 18.2109 95.4473 18.3921 95.4473 19.117C95.4473 19.8419 95.6287 20.3855 95.8102 20.748L95.4473 20.0231Z" fill="black"/>
<path fill-rule="evenodd" clip-rule="evenodd" d="M95.8075 47.5684C89.0928 47.5684 83.6484 53.005 83.6484 59.7102C83.6484 66.4154 89.0928 71.8521 95.8075 71.8521C102.522 71.8521 107.967 66.4154 107.967 59.7102C107.967 53.005 102.522 47.5684 95.8075 47.5684ZM96.7149 57.7168L96.5334 57.898V57.898V57.898L96.3519 49.3806V49.3806C98.7111 49.5618 100.889 50.4679 102.704 52.0989V52.0989L96.7149 57.7168ZM96.5334 61.5224V61.3412V61.3412L102.704 67.3215V67.3215C100.889 68.9525 98.7111 69.8586 96.3519 69.8586L96.5334 61.5224ZM106.152 59.1666L97.6223 58.9853V58.9853V58.9853L103.611 52.8238V52.8238V52.8238C105.244 54.636 106.152 56.8107 106.152 59.1666V59.1666ZM103.43 66.4154V66.4154L97.6223 60.2539V60.2539V60.2539V60.2539V60.2539L106.152 60.0727V60.0727C105.97 61.8849 105.426 63.6971 104.337 65.3281C104.155 65.6905 103.793 66.053 103.43 66.4154ZM94.1742 58.8041V58.8041L85.6447 58.9853C85.6447 57.7168 86.0077 56.6294 86.3706 55.5421C86.7336 54.4548 87.4595 53.5487 88.1854 52.6426V52.6426V52.6426L93.8112 58.4417V58.4417L94.1742 58.8041ZM95.0816 61.3412C95.0816 61.3412 95.0816 61.16 95.0816 61.3412L95.263 69.8586C92.9038 69.6774 90.7261 68.7713 88.9113 67.1403L95.0816 61.3412ZM95.263 57.898V58.0792V58.0792L89.0928 52.0989V52.0989C90.9076 50.4679 93.0853 49.5618 95.4445 49.5618V49.5618L95.263 57.898ZM94.1742 60.2539C94.3557 60.2539 94.1742 60.2539 94.1742 60.2539L88.1854 66.4154C86.5521 64.6032 85.6447 62.4285 85.4632 60.0727L94.1742 60.2539Z" fill="black"/>
<path fill-rule="evenodd" clip-rule="evenodd" d="M153.518 37.7812V37.7812V37.7812C148.981 37.7812 144.807 39.5935 141.541 42.8555C138.274 46.1174 136.641 50.2855 136.641 54.8161C136.641 59.1654 138.274 63.3335 141.359 66.5955C141.541 66.7767 141.722 66.9579 141.903 67.1392L142.085 67.3204C145.352 70.2199 149.344 71.8509 153.7 71.8509C163.136 71.8509 170.759 64.2396 170.759 54.8161C170.577 45.3926 162.955 37.7812 153.518 37.7812ZM163.862 43.5803L154.607 52.6414V52.6414L154.425 52.8227V52.8227V52.6414L154.244 39.5935C157.874 39.7747 161.322 41.2245 163.862 43.5803V43.5803V43.5803ZM154.244 57.172C154.244 57.172 154.244 56.9907 154.426 57.172V57.172L163.681 66.2331C160.959 68.5889 157.692 70.0387 154.063 70.2199C154.244 70.0387 154.244 57.172 154.244 57.172ZM155.696 54.0912V54.0912V54.0912V54.0912L164.77 44.6677C167.129 47.386 168.581 50.8292 168.762 54.2724L155.696 54.0912ZM155.696 55.9034V55.9034V55.9034V55.9034L168.762 55.7222C168.581 59.3466 167.129 62.6086 164.77 65.3269L155.696 55.9034ZM152.792 52.6414C152.792 52.6414 152.792 53.0039 152.611 52.8226V52.8226L143.355 43.7616C146.077 41.2245 149.344 39.9559 152.974 39.7747L152.792 52.6414ZM152.429 56.9907V56.9907C152.429 56.9907 152.611 56.9907 152.611 57.172L152.792 70.0387C149.344 69.8575 145.896 68.4077 143.174 66.0518L152.429 56.9907ZM151.159 53.7288L151.34 53.91C151.522 54.0912 151.159 54.0912 151.159 54.0912L138.274 54.2724C138.455 50.648 139.726 47.2048 142.266 44.6677L151.159 53.7288ZM138.455 55.541L151.34 55.7222C151.522 55.7222 151.522 55.7222 151.522 55.9034V56.0846L142.448 65.3269C140.089 62.7898 138.637 59.3466 138.455 55.9034V55.9034V55.541Z" fill="black"/>
</svg>
