<svg xmlns="http://www.w3.org/2000/svg" viewBox="0 0 286.7 194"><path d="M281,118.3l-.1.4c-.1.2-5.8,17.2-21.6,34-14.6,15.5-41,34-83.9,34-29,0-52.5-10.7-68-30.9C95.1,140,88.1,118.6,88.1,97.1c0-58.4,44.9-89.9,87.2-89.9,28.7,0,54.7,9,75.1,26.1,17.1,14.3,26.9,31.1,30.4,42l.1.4h5.7V2.7h-5.3L246,21.9a110,110,0,0,0-21.5-10.8A168.6,168.6,0,0,0,163.9.1C121.1,0,81.4,8.2,52.1,23,18,40.3,0,65.9,0,96.9c0,63.6,60.1,97.2,173.7,97.2,28.2,0,52.7-7.3,72.7-21.6l34.7,18.8,5.6.1V118.3Z" transform="translate(0 -0.1)"/></svg>