<svg width="252" height="28" viewBox="0 0 252 28" fill="none" xmlns="http://www.w3.org/2000/svg">
<path d="M92.4486 4.59625C87.3799 1.703 80.6775 0.0859375 73.5462 0.0859375C66.329 0.0859375 59.6271 1.703 54.6437 4.59625C50.9492 6.80943 48.8008 10.2143 48.8008 14.0434C48.8008 17.8725 50.9492 21.2774 54.6437 23.49C59.7136 26.3838 66.4149 28.0009 73.5462 28.0009C80.7633 28.0009 87.4657 26.3838 92.4486 23.49C96.1431 21.2774 98.291 17.8731 98.291 14.0434C98.291 10.2137 96.1437 6.80943 92.4486 4.59625ZM73.4603 26.7252C68.9069 26.7252 61.2602 24.0855 61.2602 14.044C61.2602 5.27801 67.3602 1.36325 73.4603 1.36325C81.6228 1.36325 86.4345 6.12937 86.4345 14.044C86.5204 22.5541 82.2241 26.7252 73.4603 26.7252Z" fill="white"/>
<path d="M251.318 1.78847V0.511719H230.697V1.78847H235.079V12.767H217.808V1.78847H222.276V0.511719H201.57V1.78847H206.037V26.3842H201.57V27.6609H222.276V26.3842H217.808V14.0438H235.079V26.3842H230.697V27.6609H251.318V26.3842H246.85V1.78847H251.318Z" fill="white"/>
<path d="M123.467 0.0859375H122.78L101.128 26.3844H96.1445V27.6611H108.603V26.3844H102.76L108.001 20.0868H127.419L133.262 26.47H127.592V27.7468H153.453V26.3849H147.697L123.467 0.0859375ZM109.032 18.7244L117.022 8.93697L126.216 18.7244H109.032Z" fill="white"/>
<path d="M35.5717 3.14905C35.2282 2.97946 34.1969 2.29769 32.4779 1.61706C30.5877 0.936433 27.5809 0 23.7141 0C17.5276 0 11.7712 1.19167 7.56075 3.31921C2.57789 5.78649 0 9.53166 0 13.9575C0 23.1494 8.67849 27.9155 25.1743 27.9155C29.2123 27.9155 32.735 26.894 35.6565 24.8504L40.6399 27.4901H41.5847V16.9364H40.6399L40.554 17.0214V17.1059C40.554 17.191 39.6945 19.5744 37.4613 21.9571C35.3994 24.1698 31.6184 26.8083 25.4325 26.8083C21.308 26.8083 17.9571 25.2758 15.7233 22.4682C14.0049 20.255 12.9742 17.1916 12.9742 14.1276C12.9742 5.87158 19.4184 1.44691 25.4325 1.44691C29.5564 1.44691 33.2509 2.72309 36.1724 5.19094C38.6644 7.2334 40.0387 9.61731 40.554 11.2338V11.3189H41.5847V0.509907H40.6399L35.5717 3.14905Z" fill="white"/>
<path d="M188.078 3.14905C187.735 2.97946 186.704 2.29769 184.986 1.61706C183.096 0.936433 180.088 0 176.222 0C170.035 0 164.279 1.19167 160.069 3.31921C155.085 5.78649 152.508 9.53166 152.508 13.9575C152.508 23.1494 161.186 27.9155 177.682 27.9155C181.72 27.9155 185.243 26.894 188.164 24.8504L193.148 27.4901H194.093V16.9364H193.148L193.062 17.0214V17.1059C193.062 17.191 192.202 19.5744 189.968 21.9571C187.906 24.1698 184.126 26.8083 177.94 26.8083C173.815 26.8083 170.464 25.2758 168.231 22.4682C166.512 20.255 165.481 17.1916 165.481 14.1276C165.481 5.87158 171.925 1.44691 177.94 1.44691C182.063 1.44691 185.758 2.72309 188.679 5.19094C191.171 7.2334 192.546 9.61731 193.062 11.2338V11.3189H194.093V0.509907H193.148L188.078 3.14905Z" fill="white"/>
</svg>
