<svg xmlns="http://www.w3.org/2000/svg" viewBox="0 0 1032.4 115"><path d="M379.2,18.8C358.5,6.7,330.9,0,301.6,0s-57,6.7-77.6,18.7c-15.1,8.9-23.8,23-23.8,38.7s8.7,29.7,23.8,38.7c20.6,12.1,48.2,18.8,77.6,18.8s57-6.7,77.6-18.8C394.3,87.1,403,73,403,57.4S394.3,27.7,379.2,18.8Zm-77.6,91.8c-18.8,0-50.6-11.2-50.6-53.2,0-36.7,25.4-53.2,50.6-53.2,33.8,0,54,19.9,54,53.2C355.5,93.2,337.9,110.6,301.6,110.6Z"/><path d="M1032.3,5.9V1.7H948.4V6h18.3V52.6H894.5V5.9h18.3V1.6H828.9V5.9h18.3V109H828.9v4.3h83.9V109H894.5V56.8h72.2v52.3H948.4v4.3h84v-4.2H1014V5.9Z"/><path d="M507,.1l-.1-.1h-2.5L415.3,109.1H395.2v4.3h50.3v-4.3H420.9l22.4-27.3h80.4l25.1,27.3h-24v4.3H630.2v-4.3H606.9Zm12.7,77.4h-73l34-41.9Z"/><path d="M166.5,70.1l-.1.2a60.15,60.15,0,0,1-12.8,20.2c-8.6,9.2-24.3,20.1-49.7,20.1-17.2,0-31.1-6.3-40.3-18.3-7.2-9.4-11.4-22.1-11.4-34.8,0-34.6,26.6-53.2,51.7-53.2,17,0,32.4,5.4,44.5,15.5,10.2,8.5,16,18.4,18,24.9l.1.3h3.4V1.7h-3.1L145.8,13A70.22,70.22,0,0,0,133,6.6,99,99,0,0,0,97.1.1C71.7,0,48.2,4.8,30.9,13.6,10.7,23.9,0,39,0,57.4,0,95.1,35.6,115,102.9,115c16.7,0,31.2-4.3,43.1-12.8l20.6,11.1h3.3V70.1Z"/><path d="M730.8,4.3c17,0,32.4,5.4,44.5,15.5,10.2,8.5,16,18.4,18,24.9l.1.3h3.4V1.7h-3.1L772.7,13a70.22,70.22,0,0,0-12.8-6.4A98.66,98.66,0,0,0,724,0c-25.4,0-48.9,4.8-66.2,13.6C637.6,23.9,626.9,39,626.9,57.4c0,37.7,35.6,57.6,102.9,57.6,16.7,0,31.2-4.3,43.1-12.8l20.6,11.1h3.3V70.1h-3.4l-.1.2a60.15,60.15,0,0,1-12.8,20.2c-8.6,9.2-24.3,20.1-49.7,20.1-17.2,0-31.1-6.3-40.3-18.3-7.2-9.4-11.4-22.1-11.4-34.8C679.1,22.9,705.7,4.3,730.8,4.3Z"/></svg>