<svg width="24" height="24" viewBox="0 0 24 24" fill="none" xmlns="http://www.w3.org/2000/svg">
<g id="Canada">
<g id="CA">
<path id="Path" d="M7 6H17V18H7V6Z" fill="white"/>
<path id="Shape" fill-rule="evenodd" clip-rule="evenodd" d="M2 6H7.00001V18H2V6ZM17 6H22V18H17L17 6ZM8.10706 11.9114L8.49535 11.7987L8.49519 11.7989C8.67404 11.6481 8.50985 11.2674 8.36387 10.9289C8.31348 10.812 8.26525 10.7002 8.23406 10.6046C8.34454 10.6251 8.47189 10.6555 8.59973 10.686C8.88372 10.7538 9.17015 10.8222 9.27948 10.7836C9.38516 10.7438 9.45651 10.612 9.52787 10.4803C9.56356 10.4144 9.59925 10.3485 9.63923 10.2941L10.5561 11.1786C10.646 11.2184 10.7224 11.1977 10.7543 11.1241L10.3532 9.26917L11.0213 9.5874C11.0649 9.61649 11.1174 9.61154 11.1699 9.56875L11.8658 8.37461L12.5407 9.52445C12.5794 9.58258 12.6381 9.60097 12.6969 9.57965L13.3985 9.24456L12.9554 11.1141C12.98 11.1893 13.0246 11.2247 13.1294 11.2033L14.0886 10.3087L14.3571 10.7466C14.4262 10.9077 15.4805 10.5999 15.4805 10.5999C15.4619 10.7358 15.4083 10.8982 15.3548 11.0605C15.2478 11.3853 15.1408 11.71 15.313 11.8228L15.629 11.9199L13.8233 13.1955C13.7238 13.504 13.7972 13.63 13.8996 13.8061C13.9129 13.8289 13.9266 13.8525 13.9406 13.8775L11.9772 13.6799L12.0658 15.342L11.6595 15.352L11.7106 13.6759L9.74907 13.8873C9.77271 13.8507 9.79906 13.8174 9.82496 13.7846C9.92756 13.6548 10.023 13.5341 9.91386 13.2578L8.10706 11.9114Z" fill="#BF0A30"/>
</g>
</g>
</svg>
