<svg width="25" height="24" viewBox="0 0 25 24" fill="none" xmlns="http://www.w3.org/2000/svg">
<path d="M6.01074 5H18.0108V19.4H6.01074V5Z" fill="white"/>
<path fill-rule="evenodd" clip-rule="evenodd" d="M0.0107422 5H6.01076V19.4H0.0107422V5ZM18.0107 5H24.0107V19.4H18.0108L18.0107 5ZM7.33906 12.0937L7.80502 11.9585L7.80482 11.9587C8.01944 11.7778 7.82242 11.3209 7.64724 10.9147C7.58677 10.7744 7.5289 10.6403 7.49147 10.5255C7.62404 10.5501 7.77686 10.5866 7.93027 10.6232C8.27106 10.7046 8.61477 10.7866 8.74597 10.7403C8.87278 10.6925 8.95841 10.5345 9.04404 10.3764C9.08687 10.2973 9.12969 10.2182 9.17768 10.1529L10.2779 11.2143C10.3858 11.2621 10.4775 11.2372 10.5158 11.1489L10.0345 8.92304L10.8362 9.30492C10.8885 9.33982 10.9515 9.33389 11.0145 9.28253L11.8495 7.84956L12.6594 9.22937C12.7058 9.29912 12.7763 9.3212 12.8468 9.29561L13.6888 8.8935L13.1571 11.1369C13.1866 11.2271 13.2402 11.2696 13.3659 11.244L14.5169 10.1705L14.8391 10.696C14.922 10.8893 16.1871 10.5199 16.1871 10.5199C16.1648 10.683 16.1006 10.8778 16.0364 11.0727C15.908 11.4623 15.7795 11.852 15.9862 11.9874L16.3654 12.1039L14.1986 13.6347C14.0792 14.0048 14.1672 14.1561 14.2901 14.3673C14.3061 14.3947 14.3226 14.4231 14.3393 14.4531L11.9832 14.2159L12.0895 16.2105L11.602 16.2224L11.6633 14.2111L9.30948 14.4648C9.33785 14.4209 9.36947 14.3809 9.40055 14.3416C9.52367 14.1858 9.63815 14.0409 9.50723 13.7093L7.33906 12.0937Z" fill="#BF0A30"/>
</svg>
