<svg width="25" height="25" viewBox="0 0 25 25" fill="none" xmlns="http://www.w3.org/2000/svg">
<g id="USA">
<g id="US">
<g id="Group">
<path id="Shape" fill-rule="evenodd" clip-rule="evenodd" d="M2.01086 6.26465H22.0109V7.18773H2.01086V6.26465ZM2.01086 8.11081H22.0109V9.03388H2.01086V8.11081ZM22.0109 9.95696H2.01086V10.88H22.0109V9.95696ZM2.01086 11.8031H22.0109V12.7262H2.01086V11.8031ZM22.0109 13.6493H2.01086V14.5724H22.0109V13.6493ZM2.01086 15.4954H22.0109V16.4185H2.01086V15.4954ZM22.0109 17.3416H2.01086V18.2646H22.0109V17.3416Z" fill="#BD3D44"/>
<path id="Shape_2" fill-rule="evenodd" clip-rule="evenodd" d="M22.0109 7.18774H2.01086V8.11082H22.0109V7.18774ZM22.0109 9.0339H2.01086V9.95698H22.0109V9.0339ZM2.01086 10.8801H22.0109V11.8031H2.01086V10.8801ZM22.0109 12.7262H2.01086V13.6493H22.0109V12.7262ZM2.01086 14.5724H22.0109V15.4954H2.01086V14.5724ZM22.0109 16.4185H2.01086V17.3416H22.0109V16.4185Z" fill="white"/>
</g>
<path id="Path" d="M2.01086 6.26465H10.0108V12.7261H2.01086V6.26465Z" fill="#192F5D"/>
<g id="Group_2">
<path id="Shape_3" fill-rule="evenodd" clip-rule="evenodd" d="M2.67678 6.54114L2.74948 6.79651H2.98479L2.79442 6.95436L2.86714 7.20973L2.67676 7.05191L2.48643 7.20973L2.55913 6.95436L2.36877 6.79651H2.60406L2.67678 6.54114ZM4.01051 6.54114L4.08323 6.79651H4.31854L4.12816 6.95436L4.20088 7.20973L4.01051 7.05191L3.82017 7.20973L3.89287 6.95436L3.70252 6.79651H3.93781L4.01051 6.54114ZM5.41658 6.79651L5.34388 6.54114L5.27118 6.79651H5.03587L5.22623 6.95436L5.15353 7.20973L5.34388 7.05191L5.53424 7.20973L5.46152 6.95436L5.65189 6.79651H5.41658ZM6.67714 6.54114L6.74984 6.79651H6.98513L6.79477 6.95436L6.86747 7.20973L6.67714 7.05191L6.48676 7.20973L6.55948 6.95436L6.36911 6.79651H6.60442L6.67714 6.54114ZM8.08317 6.79651L8.01047 6.54114L7.93775 6.79651H7.70246L7.89282 6.95436L7.82012 7.20973L8.01045 7.05191L8.20083 7.20973L8.12811 6.95436L8.31848 6.79651H8.08317ZM9.34383 6.54114L9.41653 6.79651H9.65184L9.46146 6.95436L9.53418 7.20973L9.34383 7.05191L9.15345 7.20973L9.2262 6.95436L9.03582 6.79651H9.27113L9.34383 6.54114ZM3.4166 7.44267L3.3439 7.1873L3.2712 7.44267H3.03589L3.22624 7.6005L3.15354 7.85589L3.3439 7.69807L3.53427 7.85589L3.46153 7.6005L3.65191 7.44267H3.4166ZM4.67717 7.1873L4.74987 7.44267H4.98516L4.7948 7.6005L4.8675 7.85589L4.67717 7.69807L4.4868 7.85589L4.55952 7.6005L4.36914 7.44267H4.60445L4.67717 7.1873ZM6.08322 7.44267L6.01052 7.1873L5.9378 7.44267H5.70251L5.89287 7.6005L5.82017 7.85589L6.0105 7.69807L6.20088 7.85589L6.12816 7.6005L6.31853 7.44267H6.08322ZM7.34388 7.1873L7.41658 7.44267H7.65189L7.46151 7.6005L7.53423 7.85589L7.34388 7.69807L7.1535 7.85589L7.22626 7.6005L7.03589 7.44267H7.2712L7.34388 7.1873ZM8.74987 7.44267L8.67717 7.1873L8.60445 7.44267H8.36914L8.55952 7.6005L8.4868 7.85589L8.67717 7.69807L8.8675 7.85589L8.7948 7.6005L8.98516 7.44267H8.74987ZM2.67678 7.83344L2.74948 8.08881H2.98479L2.79442 8.24666L2.86714 8.50203L2.67676 8.34421L2.48643 8.50203L2.55913 8.24666L2.36877 8.08881H2.60406L2.67678 7.83344ZM4.08322 8.08881L4.0105 7.83344L3.9378 8.08881H3.70251L3.89287 8.24666L3.82017 8.50203L4.0105 8.34421L4.20088 8.50203L4.12816 8.24666L4.31853 8.08881H4.08322ZM5.3439 7.83344L5.4166 8.08881H5.65191L5.46153 8.24666L5.53425 8.50203L5.3439 8.34421L5.15354 8.50203L5.22624 8.24666L5.03589 8.08881H5.2712L5.3439 7.83344ZM6.74987 8.08881L6.67717 7.83344L6.60445 8.08881H6.36914L6.55952 8.24666L6.4868 8.50203L6.67717 8.34421L6.8675 8.50203L6.7948 8.24666L6.98516 8.08881H6.74987ZM8.01052 7.83344L8.08322 8.08881H8.31853L8.12816 8.24666L8.20088 8.50203L8.0105 8.34421L7.82017 8.50203L7.89287 8.24666L7.70251 8.08881H7.9378L8.01052 7.83344ZM9.41648 8.08881L9.34378 7.83344L9.27108 8.08881H9.03577L9.22614 8.24666L9.1534 8.50203L9.34378 8.34421L9.53413 8.50203L9.46141 8.24666L9.65179 8.08881H9.41648ZM3.3439 8.47958L3.4166 8.73498H3.65191L3.46153 8.8928L3.53427 9.1482L3.3439 8.99037L3.15354 9.1482L3.22624 8.8928L3.03589 8.73498H3.2712L3.3439 8.47958ZM4.74987 8.73498L4.67717 8.47958L4.60445 8.73498H4.36914L4.55952 8.8928L4.4868 9.1482L4.67717 8.99037L4.8675 9.1482L4.7948 8.8928L4.98516 8.73498H4.74987ZM6.01052 8.47958L6.08322 8.73498H6.31853L6.12816 8.8928L6.20088 9.1482L6.0105 8.99037L5.82017 9.1482L5.89287 8.8928L5.70251 8.73498H5.9378L6.01052 8.47958ZM7.4166 8.73498L7.3439 8.47958L7.2712 8.73498H7.03589L7.22626 8.8928L7.15352 9.1482L7.3439 8.99037L7.53425 9.1482L7.46153 8.8928L7.65191 8.73498H7.4166ZM8.67717 8.47958L8.74987 8.73498H8.98516L8.7948 8.8928L8.8675 9.1482L8.67717 8.99037L8.4868 9.1482L8.55952 8.8928L8.36914 8.73498H8.60445L8.67717 8.47958ZM2.74948 9.38113L2.67678 9.12575L2.60406 9.38113H2.36877L2.55913 9.53898L2.48643 9.79435L2.67676 9.63652L2.86714 9.79435L2.79442 9.53898L2.98479 9.38113H2.74948ZM4.0105 9.12575L4.08322 9.38113H4.31853L4.12816 9.53898L4.20088 9.79435L4.0105 9.63652L3.82017 9.79435L3.89287 9.53898L3.70251 9.38113H3.9378L4.0105 9.12575ZM5.4166 9.38113L5.3439 9.12575L5.2712 9.38113H5.03589L5.22624 9.53898L5.15354 9.79435L5.3439 9.63652L5.53425 9.79435L5.46153 9.53898L5.65191 9.38113H5.4166ZM6.67717 9.12575L6.74987 9.38113H6.98516L6.7948 9.53898L6.8675 9.79435L6.67717 9.63652L6.4868 9.79435L6.55952 9.53898L6.36914 9.38113H6.60445L6.67717 9.12575ZM8.08322 9.38113L8.01052 9.12575L7.9378 9.38113H7.70251L7.89287 9.53898L7.82017 9.79435L8.0105 9.63652L8.20088 9.79435L8.12816 9.53898L8.31853 9.38113H8.08322ZM9.34378 9.12575L9.41648 9.38113H9.65179L9.46141 9.53898L9.53413 9.79435L9.34378 9.63652L9.1534 9.79435L9.22614 9.53898L9.03577 9.38113H9.27108L9.34378 9.12575ZM3.4166 10.0273L3.3439 9.77189L3.2712 10.0273H3.03589L3.22624 10.1851L3.15354 10.4405L3.3439 10.2827L3.53427 10.4405L3.46153 10.1851L3.65191 10.0273H3.4166ZM4.67717 9.77189L4.74987 10.0273H4.98516L4.7948 10.1851L4.8675 10.4405L4.67717 10.2827L4.4868 10.4405L4.55952 10.1851L4.36914 10.0273H4.60445L4.67717 9.77189ZM6.08322 10.0273L6.01052 9.77189L5.9378 10.0273H5.70251L5.89287 10.1851L5.82017 10.4405L6.0105 10.2827L6.20088 10.4405L6.12816 10.1851L6.31853 10.0273H6.08322ZM7.3439 9.77189L7.4166 10.0273H7.65191L7.46153 10.1851L7.53425 10.4405L7.3439 10.2827L7.15352 10.4405L7.22626 10.1851L7.03589 10.0273H7.2712L7.3439 9.77189ZM8.74987 10.0273L8.67717 9.77189L8.60445 10.0273H8.36914L8.55952 10.1851L8.4868 10.4405L8.67717 10.2827L8.8675 10.4405L8.7948 10.1851L8.98516 10.0273H8.74987Z" fill="white"/>
<path id="Shape_4" fill-rule="evenodd" clip-rule="evenodd" d="M2.67678 10.4181L2.74948 10.6735H2.98479L2.79442 10.8313L2.86714 11.0867L2.67676 10.9289L2.48643 11.0867L2.55913 10.8313L2.36877 10.6735H2.60406L2.67678 10.4181ZM4.01051 10.4181L4.08323 10.6735H4.31854L4.12816 10.8313L4.20088 11.0867L4.01051 10.9289L3.82017 11.0867L3.89287 10.8313L3.70252 10.6735H3.93781L4.01051 10.4181ZM5.41658 10.6735L5.34388 10.4181L5.27118 10.6735H5.03587L5.22623 10.8313L5.15353 11.0867L5.34388 10.9289L5.53424 11.0867L5.46152 10.8313L5.65189 10.6735H5.41658ZM6.67714 10.4181L6.74984 10.6735H6.98513L6.79477 10.8313L6.86747 11.0867L6.67714 10.9289L6.48676 11.0867L6.55948 10.8313L6.36911 10.6735H6.60442L6.67714 10.4181ZM8.08317 10.6735L8.01047 10.4181L7.93775 10.6735H7.70246L7.89282 10.8313L7.82012 11.0867L8.01045 10.9289L8.20083 11.0867L8.12811 10.8313L8.31848 10.6735H8.08317ZM9.34383 10.4181L9.41653 10.6735H9.65184L9.46146 10.8313L9.53418 11.0867L9.34383 10.9289L9.15345 11.0867L9.2262 10.8313L9.03582 10.6735H9.27113L9.34383 10.4181ZM3.4166 11.3196L3.3439 11.0642L3.2712 11.3196H3.03589L3.22624 11.4775L3.15354 11.7329L3.3439 11.575L3.53427 11.7329L3.46153 11.4775L3.65191 11.3196H3.4166ZM4.67717 11.0642L4.74987 11.3196H4.98516L4.7948 11.4775L4.8675 11.7329L4.67717 11.575L4.4868 11.7329L4.55952 11.4775L4.36914 11.3196H4.60445L4.67717 11.0642ZM6.08322 11.3196L6.01052 11.0642L5.9378 11.3196H5.70251L5.89287 11.4775L5.82017 11.7329L6.0105 11.575L6.20088 11.7329L6.12816 11.4775L6.31853 11.3196H6.08322ZM7.3439 11.0642L7.4166 11.3196H7.65191L7.46153 11.4775L7.53425 11.7329L7.3439 11.575L7.15352 11.7329L7.22626 11.4775L7.03589 11.3196H7.2712L7.3439 11.0642ZM8.74987 11.3196L8.67717 11.0642L8.60445 11.3196H8.36914L8.55952 11.4775L8.4868 11.7329L8.67717 11.575L8.8675 11.7329L8.7948 11.4775L8.98516 11.3196H8.74987Z" fill="white"/>
<path id="Shape_5" fill-rule="evenodd" clip-rule="evenodd" d="M2.74948 11.9657L2.67678 11.7103L2.60406 11.9657H2.36877L2.55913 12.1235L2.48643 12.3789L2.67676 12.2211L2.86714 12.3789L2.79442 12.1235L2.98479 11.9657H2.74948ZM4.08323 11.9657L4.01051 11.7103L3.93781 11.9657H3.70252L3.89287 12.1235L3.82017 12.3789L4.01051 12.2211L4.20088 12.3789L4.12816 12.1235L4.31854 11.9657H4.08323ZM5.34388 11.7103L5.41658 11.9657H5.65189L5.46152 12.1235L5.53424 12.3789L5.34388 12.2211L5.15353 12.3789L5.22623 12.1235L5.03587 11.9657H5.27118L5.34388 11.7103ZM6.74984 11.9657L6.67714 11.7103L6.60442 11.9657H6.36911L6.55948 12.1235L6.48676 12.3789L6.67714 12.2211L6.86747 12.3789L6.79477 12.1235L6.98513 11.9657H6.74984ZM8.01047 11.7103L8.08317 11.9657H8.31848L8.12811 12.1235L8.20083 12.3789L8.01045 12.2211L7.82012 12.3789L7.89282 12.1235L7.70246 11.9657H7.93775L8.01047 11.7103ZM9.41653 11.9657L9.34383 11.7103L9.27113 11.9657H9.03582L9.2262 12.1235L9.15345 12.3789L9.34383 12.2211L9.53418 12.3789L9.46146 12.1235L9.65184 11.9657H9.41653Z" fill="white"/>
</g>
</g>
</g>
</svg>
