<svg width="24" height="24" viewBox="0 0 24 24" fill="none" xmlns="http://www.w3.org/2000/svg">
<path fill-rule="evenodd" clip-rule="evenodd" d="M0 4.73535H24V5.84304H0V4.73535ZM0 6.95078H24V8.05847H0V6.95078ZM24 9.16606H0V10.2738H24V9.16606ZM0 11.3815H24V12.4892H0V11.3815ZM24 13.5969H0V14.7046H24V13.5969ZM0 15.8122H24V16.9199H0V15.8122ZM24 18.0276H0V19.1353H24V18.0276Z" fill="#BD3D44"/>
<path fill-rule="evenodd" clip-rule="evenodd" d="M24 5.84302H0V6.95071H24V5.84302ZM24 8.0585H0V9.16619H24V8.0585ZM0 10.2738H24V11.3815H0V10.2738ZM24 12.4892H0V13.5969H24V12.4892ZM0 14.7046H24V15.8123H0V14.7046ZM24 16.9199H0V18.0276H24V16.9199Z" fill="white"/>
<path d="M0 4.73535H9.5999V12.4891H0V4.73535Z" fill="#192F5D"/>
<path fill-rule="evenodd" clip-rule="evenodd" d="M0.799055 5.06714L0.886294 5.37359H1.16867L0.940215 5.56301L1.02748 5.86945L0.79903 5.68006L0.570629 5.86945L0.657869 5.56301L0.429443 5.37359H0.71179L0.799055 5.06714ZM2.39957 5.06714L2.48683 5.37359H2.7692L2.54075 5.56301L2.62802 5.86945L2.39957 5.68006L2.17117 5.86945L2.25841 5.56301L2.02998 5.37359H2.31233L2.39957 5.06714ZM4.08673 5.37359L3.99949 5.06714L3.91225 5.37359H3.62988L3.85831 5.56301L3.77107 5.86945L3.99949 5.68006L4.22792 5.86945L4.14066 5.56301L4.36911 5.37359H4.08673ZM5.59942 5.06714L5.68666 5.37359H5.96901L5.74058 5.56301L5.82782 5.86945L5.59942 5.68006L5.37097 5.86945L5.45824 5.56301L5.22978 5.37359H5.51216L5.59942 5.06714ZM7.28683 5.37359L7.19959 5.06714L7.11233 5.37359H6.82998L7.05841 5.56301L6.97117 5.86945L7.19957 5.68006L7.42802 5.86945L7.34075 5.56301L7.5692 5.37359H7.28683ZM8.79949 5.06714L8.88673 5.37359H9.16911L8.94065 5.56301L9.02792 5.86945L8.79949 5.68006L8.57104 5.86945L8.65833 5.56301L8.42988 5.37359H8.71225L8.79949 5.06714ZM1.68673 6.14893L1.59949 5.84248L1.51225 6.14893H1.22988L1.45831 6.33832L1.37107 6.64479L1.59949 6.4554L1.82794 6.64479L1.74065 6.33832L1.96911 6.14893H1.68673ZM3.19971 5.84248L3.28695 6.14893H3.5693L3.34087 6.33832L3.42811 6.64479L3.19971 6.4554L2.97126 6.64479L3.05853 6.33832L2.83008 6.14893H3.11245L3.19971 5.84248ZM4.88683 6.14893L4.79959 5.84248L4.71233 6.14893H4.42998L4.65841 6.33832L4.57117 6.64479L4.79957 6.4554L5.02802 6.64479L4.94075 6.33832L5.1692 6.14893H4.88683ZM6.39947 5.84248L6.48671 6.14893H6.76908L6.54063 6.33832L6.62789 6.64479L6.39947 6.4554L6.17102 6.64479L6.25833 6.33832L6.02988 6.14893H6.31225L6.39947 5.84248ZM8.08695 6.14893L7.99971 5.84248L7.91245 6.14893H7.63008L7.85853 6.33832L7.77126 6.64479L7.99971 6.4554L8.22812 6.64479L8.14087 6.33832L8.3693 6.14893H8.08695ZM0.799103 6.61797L0.886343 6.92442H1.16871L0.940264 7.11384L1.02753 7.42028L0.799079 7.23089L0.570678 7.42028L0.657918 7.11384L0.429492 6.92442H0.711839L0.799103 6.61797ZM2.48683 6.92442L2.39957 6.61797L2.31233 6.92442H2.02998L2.25841 7.11384L2.17117 7.42028L2.39957 7.23089L2.62802 7.42028L2.54075 7.11384L2.7692 6.92442H2.48683ZM3.99949 6.61797L4.08673 6.92442H4.36911L4.14066 7.11384L4.22792 7.42028L3.99949 7.23089L3.77107 7.42028L3.85831 7.11384L3.62988 6.92442H3.91225L3.99949 6.61797ZM5.68695 6.92442L5.59971 6.61797L5.51245 6.92442H5.23008L5.45853 7.11384L5.37126 7.42028L5.59971 7.23089L5.82811 7.42028L5.74087 7.11384L5.9693 6.92442H5.68695ZM7.19959 6.61797L7.28683 6.92442H7.5692L7.34075 7.11384L7.42802 7.42028L7.19957 7.23089L6.97117 7.42028L7.05841 7.11384L6.82998 6.92442H7.11233L7.19959 6.61797ZM8.88673 6.92442L8.79949 6.61797L8.71225 6.92442H8.42988L8.65833 7.11384L8.57104 7.42028L8.79949 7.23089L9.02792 7.42028L8.94065 7.11384L9.16911 6.92442H8.88673ZM1.59949 7.39331L1.68673 7.69979H1.96911L1.74065 7.88918L1.82794 8.19565L1.59949 8.00626L1.37107 8.19565L1.45831 7.88918L1.22988 7.69979H1.51225L1.59949 7.39331ZM3.28695 7.69979L3.19971 7.39331L3.11245 7.69979H2.83008L3.05853 7.88918L2.97126 8.19565L3.19971 8.00626L3.42811 8.19565L3.34087 7.88918L3.5693 7.69979H3.28695ZM4.79959 7.39331L4.88683 7.69979H5.1692L4.94075 7.88918L5.02802 8.19565L4.79957 8.00626L4.57117 8.19565L4.65841 7.88918L4.42998 7.69979H4.71233L4.79959 7.39331ZM6.48673 7.69979L6.39949 7.39331L6.31225 7.69979H6.02988L6.25833 7.88918L6.17104 8.19565L6.39949 8.00626L6.62792 8.19565L6.54066 7.88918L6.7691 7.69979H6.48673ZM7.99971 7.39331L8.08695 7.69979H8.3693L8.14087 7.88918L8.22812 8.19565L7.99971 8.00626L7.77126 8.19565L7.85853 7.88918L7.63008 7.69979H7.91245L7.99971 7.39331ZM0.886343 8.4751L0.799103 8.16865L0.711839 8.4751H0.429492L0.657918 8.66452L0.570678 8.97097L0.799079 8.78157L1.02753 8.97097L0.940264 8.66452L1.16871 8.4751H0.886343ZM2.39957 8.16865L2.48683 8.4751H2.7692L2.54075 8.66452L2.62802 8.97097L2.39957 8.78157L2.17117 8.97097L2.25841 8.66452L2.02998 8.4751H2.31233L2.39957 8.16865ZM4.08673 8.4751L3.99949 8.16865L3.91225 8.4751H3.62988L3.85831 8.66452L3.77107 8.97097L3.99949 8.78157L4.22792 8.97097L4.14066 8.66452L4.36911 8.4751H4.08673ZM5.59971 8.16865L5.68695 8.4751H5.9693L5.74087 8.66452L5.82811 8.97097L5.59971 8.78157L5.37126 8.97097L5.45853 8.66452L5.23008 8.4751H5.51245L5.59971 8.16865ZM7.28683 8.4751L7.19959 8.16865L7.11233 8.4751H6.82998L7.05841 8.66452L6.97117 8.97097L7.19957 8.78157L7.42802 8.97097L7.34075 8.66452L7.5692 8.4751H7.28683ZM8.79949 8.16865L8.88673 8.4751H9.16911L8.94065 8.66452L9.02792 8.97097L8.79949 8.78157L8.57104 8.97097L8.65833 8.66452L8.42988 8.4751H8.71225L8.79949 8.16865ZM1.68673 9.25047L1.59949 8.94399L1.51225 9.25047H1.22988L1.45831 9.43986L1.37107 9.74634L1.59949 9.55694L1.82794 9.74634L1.74065 9.43986L1.96911 9.25047H1.68673ZM3.19971 8.94399L3.28695 9.25047H3.5693L3.34087 9.43986L3.42811 9.74634L3.19971 9.55694L2.97126 9.74634L3.05853 9.43986L2.83008 9.25047H3.11245L3.19971 8.94399ZM4.88683 9.25047L4.79959 8.94399L4.71233 9.25047H4.42998L4.65841 9.43986L4.57117 9.74634L4.79957 9.55694L5.02802 9.74634L4.94075 9.43986L5.1692 9.25047H4.88683ZM6.39949 8.94399L6.48673 9.25047H6.7691L6.54066 9.43986L6.62792 9.74634L6.39949 9.55694L6.17104 9.74634L6.25833 9.43986L6.02988 9.25047H6.31225L6.39949 8.94399ZM8.08695 9.25047L7.99971 8.94399L7.91245 9.25047H7.63008L7.85853 9.43986L7.77126 9.74634L7.99971 9.55694L8.22812 9.74634L8.14087 9.43986L8.3693 9.25047H8.08695Z" fill="white"/>
<path fill-rule="evenodd" clip-rule="evenodd" d="M0.799055 9.71948L0.886294 10.0259H1.16867L0.940215 10.2153L1.02748 10.5218L0.79903 10.3324L0.570629 10.5218L0.657869 10.2153L0.429443 10.0259H0.71179L0.799055 9.71948ZM2.39957 9.71948L2.48683 10.0259H2.7692L2.54075 10.2153L2.62802 10.5218L2.39957 10.3324L2.17117 10.5218L2.25841 10.2153L2.02998 10.0259H2.31233L2.39957 9.71948ZM4.08673 10.0259L3.99949 9.71948L3.91225 10.0259H3.62988L3.85831 10.2153L3.77107 10.5218L3.99949 10.3324L4.22792 10.5218L4.14066 10.2153L4.36911 10.0259H4.08673ZM5.59942 9.71948L5.68666 10.0259H5.96901L5.74058 10.2153L5.82782 10.5218L5.59942 10.3324L5.37097 10.5218L5.45824 10.2153L5.22978 10.0259H5.51216L5.59942 9.71948ZM7.28683 10.0259L7.19959 9.71948L7.11233 10.0259H6.82998L7.05841 10.2153L6.97117 10.5218L7.19957 10.3324L7.42802 10.5218L7.34075 10.2153L7.5692 10.0259H7.28683ZM8.79949 9.71948L8.88673 10.0259H9.16911L8.94065 10.2153L9.02792 10.5218L8.79949 10.3324L8.57104 10.5218L8.65833 10.2153L8.42988 10.0259H8.71225L8.79949 9.71948ZM1.68673 10.8013L1.59949 10.4948L1.51225 10.8013H1.22988L1.45831 10.9907L1.37107 11.2972L1.59949 11.1078L1.82794 11.2972L1.74065 10.9907L1.96911 10.8013H1.68673ZM3.19971 10.4948L3.28695 10.8013H3.5693L3.34087 10.9907L3.42811 11.2972L3.19971 11.1078L2.97126 11.2972L3.05853 10.9907L2.83008 10.8013H3.11245L3.19971 10.4948ZM4.88683 10.8013L4.79959 10.4948L4.71233 10.8013H4.42998L4.65841 10.9907L4.57117 11.2972L4.79957 11.1078L5.02802 11.2972L4.94075 10.9907L5.1692 10.8013H4.88683ZM6.39949 10.4948L6.48673 10.8013H6.7691L6.54066 10.9907L6.62792 11.2972L6.39949 11.1078L6.17104 11.2972L6.25833 10.9907L6.02988 10.8013H6.31225L6.39949 10.4948ZM8.08695 10.8013L7.99971 10.4948L7.91245 10.8013H7.63008L7.85853 10.9907L7.77126 11.2972L7.99971 11.1078L8.22812 11.2972L8.14087 10.9907L8.3693 10.8013H8.08695Z" fill="white"/>
<path fill-rule="evenodd" clip-rule="evenodd" d="M0.886294 11.5766L0.799055 11.2701L0.71179 11.5766H0.429443L0.657869 11.766L0.570629 12.0725L0.79903 11.8831L1.02748 12.0725L0.940215 11.766L1.16867 11.5766H0.886294ZM2.48683 11.5766L2.39957 11.2702L2.31233 11.5766H2.02998L2.25841 11.766L2.17117 12.0725L2.39957 11.8831L2.62802 12.0725L2.54075 11.766L2.7692 11.5766H2.48683ZM3.99949 11.2702L4.08673 11.5766H4.36911L4.14066 11.766L4.22792 12.0725L3.99949 11.8831L3.77107 12.0725L3.85831 11.766L3.62988 11.5766H3.91225L3.99949 11.2702ZM5.68666 11.5766L5.59942 11.2702L5.51216 11.5766H5.22978L5.45824 11.766L5.37097 12.0725L5.59942 11.8831L5.82782 12.0725L5.74058 11.766L5.96901 11.5766H5.68666ZM7.19959 11.2702L7.28683 11.5766H7.5692L7.34075 11.766L7.42802 12.0725L7.19957 11.8831L6.97117 12.0725L7.05841 11.766L6.82998 11.5766H7.11233L7.19959 11.2702ZM8.88673 11.5766L8.79949 11.2702L8.71225 11.5766H8.42988L8.65833 11.766L8.57104 12.0725L8.79949 11.8831L9.02792 12.0725L8.94065 11.766L9.16911 11.5766H8.88673Z" fill="white"/>
</svg>
