<svg width="24" height="24" viewBox="0 0 24 24" fill="none" xmlns="http://www.w3.org/2000/svg">
<path fill-rule="evenodd" clip-rule="evenodd" d="M11.1688 3.82158C11.3543 3.46921 11.5874 3.25585 11.9794 3.25011C12.4073 3.24399 12.6582 3.489 12.8607 3.88978L12.8738 3.91635L13.0719 4.3444C13.213 4.6653 13.325 4.98898 13.4028 5.30677C13.6739 6.39583 13.2212 7.51949 12.0424 7.51946L11.9265 7.52066L11.8483 7.51826C10.7458 7.44504 10.338 6.35416 10.5944 5.31043C10.6891 4.92472 10.8329 4.53142 11.0143 4.15411C11.0177 4.14702 11.0293 4.12096 11.0443 4.08737C11.0725 4.02422 11.1126 3.93443 11.1323 3.89389L11.1688 3.82158ZM12.0353 4.1659L11.9947 4.09583L11.9225 4.23528L11.7294 4.65847C11.6069 4.93601 11.5088 5.21954 11.441 5.49567C11.288 6.1185 11.495 6.67231 11.8939 6.69906L11.9312 6.70023L12.0376 6.69903C12.4779 6.69903 12.7012 6.18676 12.5734 5.56772L12.5564 5.49295C12.476 5.16459 12.3518 4.82537 12.192 4.49055L12.0881 4.26714L12.0353 4.1659Z" fill="black"/>
<path d="M12.4333 7.10925V8.94222H11.5642V7.10925H12.4333Z" fill="black"/>
<path fill-rule="evenodd" clip-rule="evenodd" d="M7.4649 8.61011H16.5379C17.6767 8.61011 18.6069 9.48837 18.6069 10.5632C18.6069 10.6713 18.5975 10.7783 18.5789 10.8832L18.5697 10.9271L18.6176 10.9364C19.8056 11.1828 20.7055 12.1671 20.7484 13.3505L20.75 13.4443C20.75 15.0558 20.1014 16.0102 19.0026 16.3097C18.2545 16.5136 17.3147 16.3613 16.8426 16.077C16.7528 16.0233 16.6664 15.9585 16.5365 15.8523L16.2329 15.6054C15.8856 15.3352 15.6121 15.2025 15.3469 15.1975C15.0037 15.1912 14.8155 15.2875 14.4748 15.6009L14.2128 15.8411C13.6528 16.3324 13.1389 16.5577 12.2959 16.5577C11.306 16.5577 10.7356 16.3264 10.169 15.8329L9.90523 15.5999C9.66983 15.4018 9.51658 15.3356 9.24464 15.3265C8.80688 15.3127 8.62825 15.4035 8.2759 15.7445L8.12024 15.8934C7.6193 16.3561 7.17466 16.5577 6.38535 16.5577C4.30227 16.5577 3.25 15.2088 3.25 13.4419C3.25 12.2187 4.16795 11.1892 5.38589 10.9363L5.43269 10.9271L5.42369 10.8829C5.41132 10.813 5.40299 10.7422 5.39881 10.6708L5.39568 10.5632C5.39568 9.48839 6.32616 8.61011 7.4649 8.61011ZM16.5379 9.43048H7.46491C6.80612 9.43048 6.26475 9.94147 6.26475 10.5632C6.26475 10.7502 6.31358 10.93 6.40633 11.0924L6.75193 11.6973H5.96706C4.95209 11.6973 4.11908 12.4836 4.11908 13.4418C4.11908 14.8005 4.84982 15.7372 6.38535 15.7372C6.95047 15.7372 7.19323 15.6165 7.57849 15.2445L7.73288 15.0966C8.20232 14.6611 8.58731 14.4848 9.27454 14.5065C9.81685 14.5247 10.1515 14.6923 10.5656 15.0583L10.7583 15.2299C11.1713 15.5896 11.5354 15.7372 12.2959 15.7372C12.9268 15.7372 13.2486 15.5835 13.6959 15.1731L13.9539 14.9362C14.4053 14.5392 14.7784 14.3664 15.3641 14.3772C15.8716 14.3868 16.3008 14.595 16.7856 14.9722C16.7782 14.9664 17.1231 15.2485 17.2615 15.3514L17.3087 15.3845C17.5783 15.5468 18.2618 15.6576 18.7616 15.5214C19.4606 15.3309 19.8809 14.7124 19.8809 13.4434C19.883 12.483 19.0526 11.6973 18.0355 11.6973H17.2499L17.5964 11.0921C17.6891 10.9302 17.7378 10.7505 17.7378 10.5632C17.7378 9.94141 17.1967 9.43048 16.5379 9.43048Z" fill="black"/>
<path fill-rule="evenodd" clip-rule="evenodd" d="M13.9412 14.8922C14.3925 14.4952 14.7656 14.3225 15.351 14.3332L15.4589 14.3383C15.9203 14.3735 16.3224 14.5781 16.7728 14.9285C16.7623 14.9204 17.2245 15.2982 17.2948 15.3402C17.4589 15.4384 17.8811 15.5434 18.2686 15.5397L18.7925 15.5348L17.9882 19.8028C17.884 20.3516 17.3786 20.75 16.7882 20.75H7.19105C6.60177 20.75 6.09597 20.35 5.99116 19.802L5.19006 15.5383L5.80477 15.6438C5.99532 15.6765 6.17929 15.6933 6.37255 15.6933C6.93766 15.6933 7.18042 15.5725 7.56568 15.2006L7.72007 15.0526C8.18951 14.6171 8.5745 14.4409 9.26174 14.4626C9.80393 14.4807 10.1386 14.6484 10.5526 15.0143L10.6404 15.0927L10.8138 15.244C11.2 15.5616 11.5647 15.6933 12.2828 15.6933C12.9139 15.6933 13.2358 15.5396 13.683 15.1291C13.6994 15.1141 13.7406 15.0759 13.7792 15.0401L13.8056 15.0155L13.9412 14.8922ZM15.3338 15.1535L15.2628 15.1538C14.9633 15.1621 14.7784 15.2659 14.462 15.5569L14.1999 15.7972C13.6399 16.2884 13.1259 16.5137 12.2828 16.5137C11.293 16.5137 10.7227 16.2825 10.1561 15.789L9.89225 15.5559C9.6569 15.3578 9.50368 15.2916 9.23184 15.2825C8.79408 15.2687 8.61545 15.3595 8.2631 15.7005L8.10744 15.8494C7.6065 16.3122 7.16186 16.5137 6.37255 16.5137L6.25525 16.5112L6.84665 19.6575C6.87388 19.7999 6.99704 19.9082 7.14575 19.9268L7.19106 19.9296H16.7882C16.9582 19.9296 17.1029 19.8155 17.1327 19.6586L17.761 16.3237L17.7268 16.319C17.403 16.2691 17.1034 16.178 16.8956 16.07L16.8299 16.0333C16.7399 15.9796 16.6534 15.9146 16.5236 15.8085L16.2676 15.5991L16.1346 15.4968C15.8271 15.27 15.5771 15.1581 15.3338 15.1535Z" fill="black"/>
</svg>
