<svg width="24" height="24" viewBox="0 0 24 24" fill="none" xmlns="http://www.w3.org/2000/svg">
<path d="M19.7187 1.5699C19.6353 1.44305 19.3435 1.52761 19.2184 1.52761C19.0933 1.52761 18.8431 1.5699 18.8431 1.69675C18.8014 1.78131 18.8431 1.90816 18.8848 1.99273C18.9265 2.03501 18.9682 2.07729 19.0516 2.07729C19.2184 2.03501 19.3852 1.99273 19.5519 1.99273C19.677 1.99273 19.7187 1.90816 19.7187 1.86588C19.7604 1.73903 19.7604 1.65446 19.7187 1.5699Z" fill="black"/>
<path d="M13.7147 6.26338C13.7147 5.9674 13.4645 5.67141 13.1727 5.62913C13.0476 5.62913 11.7133 5.62913 11.213 5.62913C11.0879 5.62913 11.0462 5.58685 11.0462 5.46C11.0462 5.33315 11.0462 3.04987 11.0462 2.92302C11.0045 2.62704 10.8378 2.41562 10.5459 2.33105C10.4625 2.33105 10.3791 2.33105 10.2957 2.33105C9.37845 2.33105 8.50286 2.33105 7.58557 2.33105C7.16863 2.33105 6.87677 2.62704 6.87677 3.04987C6.87677 3.85324 6.87677 4.65662 6.87677 5.50228C6.87677 5.62913 6.83507 5.67141 6.70999 5.67141C6.66829 5.67141 5.45915 5.67141 4.83373 5.67141C4.54186 5.62913 4.25 5.92511 4.25 6.26338C4.25 8.88493 4.25 19.2443 4.25 21.8235C4.25 22.0772 4.37508 22.2464 4.54186 22.3732C4.62525 22.4155 4.70864 22.5001 4.83373 22.5001C7.58557 22.5001 10.3791 22.5001 13.131 22.5001C13.1727 22.5001 13.2144 22.5001 13.2561 22.4578C13.5479 22.3309 13.7147 22.0772 13.7147 21.7813C13.7147 21.5276 13.7147 7.27817 13.7147 6.47479C13.7147 6.43251 13.7147 6.34794 13.7147 6.26338ZM7.33541 3.09215C7.33541 2.88073 7.4188 2.79617 7.62727 2.79617C8.08591 2.79617 9.87878 2.79617 10.3374 2.79617C10.5459 2.79617 10.671 2.92302 10.6293 3.13443C10.6293 3.219 10.5876 3.219 10.5042 3.26128C10.254 3.30356 10.0039 3.38813 9.79539 3.55726C9.58692 3.7264 9.46184 3.93781 9.46184 4.19151C9.42014 4.61434 9.58692 4.86804 9.92048 5.07945C10.0873 5.2063 10.2957 5.29087 10.5042 5.29087C10.5459 5.29087 10.5459 5.33315 10.5876 5.33315C10.5876 5.41772 10.5876 5.50228 10.5876 5.58685C10.5876 5.58685 10.5459 5.62913 10.5042 5.62913C9.79539 5.62913 7.83574 5.62913 7.54388 5.62913C7.3771 5.62913 7.33541 5.58685 7.33541 5.41772C7.33541 4.65662 7.33541 3.85324 7.33541 3.09215ZM10.5876 4.74119C10.5876 4.78347 10.5876 4.82575 10.5042 4.82575C10.3374 4.78347 10.1706 4.74119 10.0456 4.61434C9.83709 4.40292 9.83709 4.06466 10.0873 3.89553C10.2123 3.81096 10.3791 3.76868 10.5459 3.7264C10.5876 3.68411 10.6293 3.76868 10.6293 3.81096C10.6293 3.98009 10.6293 4.14923 10.6293 4.27607C10.5876 4.44521 10.5876 4.61434 10.5876 4.74119ZM5.0422 6.09425C7.66896 6.09425 10.2957 6.09425 12.8808 6.09425C13.131 6.09425 13.2144 6.13653 13.2144 6.43251C13.2144 7.36274 13.2144 8.25068 13.2144 9.18091C13.2144 9.43461 13.2144 9.43461 12.9642 9.43461C11.63 9.43461 5.37576 9.43461 4.91711 9.43461C4.87542 9.43461 4.83373 9.43461 4.79203 9.43461C4.70864 9.43461 4.70864 9.39232 4.70864 9.30776C4.70864 9.26547 4.70864 9.22319 4.70864 9.18091C4.70864 8.29296 4.70864 7.36274 4.70864 6.47479C4.70864 6.13653 4.75034 6.09425 5.0422 6.09425ZM13.2144 21.6967C13.2144 21.9927 13.1727 22.035 12.8808 22.035C10.2957 22.035 7.66896 22.035 5.08389 22.035C5.0422 22.035 5.0005 22.035 5.0005 22.035C4.83373 22.035 4.70864 21.9504 4.70864 21.739C4.70864 21.4007 4.70864 19.3711 4.70864 18.6946C4.70864 18.5255 4.70864 18.5255 4.87542 18.5255C6.25134 18.5255 11.6717 18.5255 13.0059 18.5255C13.2144 18.5255 13.2144 18.5255 13.2144 18.7369C13.2144 19.7517 13.2144 20.7242 13.2144 21.6967ZM13.2144 17.9758C13.2144 18.0603 13.1727 18.1026 13.0893 18.1026C13.0476 18.1026 4.87542 18.1026 4.83373 18.1026C4.70864 18.1026 4.70864 18.0603 4.70864 17.9758C4.70864 17.9335 4.70864 10.0689 4.70864 9.98429C4.70864 9.89972 4.75034 9.89972 4.83373 9.89972C4.87542 9.89972 11.7133 9.89972 13.0893 9.89972C13.2561 9.89972 13.2561 9.89972 13.2561 10.0689C13.2144 10.2803 13.2144 17.8912 13.2144 17.9758Z" fill="black"/>
<path d="M17.8008 4.1492C17.9258 4.10691 18.0092 4.02235 18.0092 3.8955C18.0092 3.76865 17.9258 3.68408 17.7591 3.68408C17.5923 3.68408 17.4255 3.68408 17.3004 3.68408C17.1336 3.68408 16.9669 3.68408 16.8001 3.68408C16.6333 3.68408 16.5082 3.85321 16.5916 4.02235C16.6333 4.1492 16.7167 4.1492 16.8418 4.1492C17.1336 4.19148 17.7591 4.1492 17.8008 4.1492Z" fill="black"/>
<path d="M15.7577 4.02235C15.8411 3.85321 15.716 3.68408 15.5076 3.68408C15.3408 3.68408 14.7154 3.68408 14.5903 3.68408C14.4652 3.68408 14.3818 3.72637 14.3401 3.85321C14.2984 4.02235 14.4235 4.1492 14.5903 4.1492C14.8821 4.1492 15.174 4.1492 15.5076 4.1492C15.6326 4.1492 15.716 4.1492 15.7577 4.02235Z" fill="black"/>
<path d="M15.3825 2.7961C15.6743 2.75381 15.9662 2.66925 16.2581 2.62696C16.3415 2.58468 16.4248 2.50012 16.4248 2.41555C16.4248 2.24642 16.2998 2.16185 16.133 2.20413C15.8411 2.24642 15.5909 2.2887 15.2991 2.37327C15.174 2.41555 15.0906 2.5424 15.1323 2.62696C15.174 2.75381 15.2574 2.83838 15.3825 2.7961Z" fill="black"/>
<path d="M14.4235 4.86798C14.1733 4.8257 13.9231 4.74114 13.6313 4.69885C13.5479 4.69885 13.5062 4.69885 13.4228 4.74114C13.3394 4.78342 13.2977 4.86798 13.2977 4.99483C13.2977 5.0794 13.3394 5.16397 13.4645 5.16397C13.7564 5.20625 14.0065 5.29082 14.2984 5.3331C14.4652 5.37538 14.5486 5.24853 14.5486 5.0794C14.5903 4.95255 14.5486 4.86798 14.4235 4.86798Z" fill="black"/>
<path d="M18.0509 5.62902C17.9675 5.58673 17.8841 5.58673 17.8008 5.54445C17.5923 5.50217 17.3838 5.45989 17.217 5.4176C17.0086 5.4176 16.9252 5.50217 16.9252 5.6713C16.9252 5.79815 17.0503 5.84043 17.1336 5.88272C17.3838 5.925 17.6757 6.00957 17.9258 6.05185C18.0509 6.09413 18.176 6.00956 18.176 5.88272C18.2594 5.79815 18.176 5.6713 18.0509 5.62902Z" fill="black"/>
<path d="M16.2164 5.20623C15.9662 5.16395 15.6744 5.07939 15.4242 5.0371C15.2574 4.99482 15.1323 5.12167 15.1323 5.24852C15.1323 5.37537 15.2157 5.45993 15.3408 5.45993C15.591 5.50222 15.8828 5.58678 16.133 5.62907C16.2581 5.67135 16.3832 5.5445 16.4249 5.45993C16.4249 5.37537 16.3415 5.24852 16.2164 5.20623Z" fill="black"/>
<path d="M17.217 2.45778C17.5089 2.4155 17.8008 2.33093 18.0509 2.24636C18.176 2.20408 18.2177 2.11951 18.2177 1.99267C18.2177 1.9081 18.0926 1.82353 17.9675 1.78125C17.6757 1.86582 17.3838 1.9081 17.092 1.99267C16.9669 2.03495 16.9252 2.11951 16.9669 2.24636C17.0086 2.37321 17.092 2.45778 17.217 2.45778Z" fill="black"/>
<path d="M13.5063 3.13444C13.5896 3.17673 13.7981 3.13444 13.8815 3.13444C14.09 3.09216 14.2568 3.04988 14.4652 3.00759C14.5486 2.96531 14.5903 2.92303 14.5903 2.79618C14.5903 2.62705 14.4652 2.54248 14.2985 2.54248C14.0483 2.58476 13.8398 2.62705 13.5896 2.71161C13.548 2.71161 13.4646 2.7539 13.4229 2.7539C13.3395 2.79618 13.2978 2.92303 13.3395 2.96531C13.3395 3.04988 13.4229 3.13444 13.5063 3.13444Z" fill="black"/>
<path d="M19.0099 4.19148C19.0933 4.19148 19.1767 4.19148 19.2601 4.19148C19.3435 4.19148 19.4269 4.19148 19.5519 4.19148C19.6353 4.19148 19.7187 4.1492 19.7187 4.06463C19.7187 3.98006 19.7187 3.8955 19.7187 3.81093C19.7187 3.72637 19.6353 3.68408 19.5936 3.68408C19.3852 3.68408 19.1767 3.68408 19.0099 3.68408C18.9265 3.68408 18.8848 3.72637 18.8431 3.81093C18.8431 3.85321 18.8431 3.93778 18.8431 4.02235C18.8431 4.10691 18.8848 4.1492 19.0099 4.19148Z" fill="black"/>
<path d="M19.5937 5.92498C19.3852 5.88269 19.2184 5.84041 19.0099 5.79813C18.8432 5.75584 18.7598 5.92498 18.8015 6.05182C18.8015 6.13639 18.8432 6.22096 18.9682 6.26324C19.135 6.30552 19.3018 6.34781 19.5103 6.34781C19.5937 6.34781 19.677 6.34781 19.7187 6.22096C19.7187 6.17867 19.7604 5.96726 19.5937 5.92498Z" fill="black"/>
<path d="M12.6724 3.93775C12.6724 4.0646 12.7558 4.14917 12.8808 4.14917C13.0059 4.14917 13.3812 4.14917 13.4229 4.14917C13.5063 4.10689 13.5896 4.02232 13.5896 3.89547C13.5896 3.81091 13.548 3.72634 13.4229 3.68406C13.2561 3.64177 13.0476 3.64177 12.8808 3.68406C12.7558 3.72634 12.6724 3.81091 12.6724 3.93775Z" fill="black"/>
<path d="M12.0469 4.82576C12.2137 4.86804 12.3805 4.91032 12.5472 4.91032C12.6723 4.91032 12.7557 4.82576 12.7974 4.69891C12.8391 4.57206 12.7557 4.48749 12.6306 4.44521C12.5889 4.44521 12.2137 4.36064 12.0886 4.31836C11.9635 4.31836 11.8801 4.36064 11.8384 4.48749C11.8384 4.69891 11.9218 4.78347 12.0469 4.82576Z" fill="black"/>
<path d="M12.172 3.47265C12.3388 3.47265 12.5056 3.38809 12.6306 3.38809C12.7557 3.3458 12.7974 3.26124 12.7557 3.13439C12.714 3.00754 12.6306 2.92297 12.5056 2.92297C12.3388 2.96526 12.1303 3.00754 11.9635 3.04982C11.8801 3.04982 11.8384 3.13439 11.8384 3.21895C11.8801 3.43037 12.0052 3.47265 12.172 3.47265Z" fill="black"/>
</svg>
