<svg width="24" height="24" viewBox="0 0 24 24" fill="none" xmlns="http://www.w3.org/2000/svg">
<g clip-path="url(#clip0)">
<path d="M21.25 19.45C20.65 18.85 20.2 18.3 19.85 17.25L19.8 17.15L19.85 17.05C20.05 16.75 20.2 16.2 20.2 15.7C20.2 14.2 20.2 13.25 20.2 12.25C20.2 11.45 20.2 10.75 20.2 9.85005C20.1 8.45005 19.15 7.20005 17.75 6.55005C17.35 5.75005 16.85 5.15005 16.15 4.75005C15.5 4.35005 14.65 4.10005 13.75 4.05005H7.85C6.75 4.15005 5.7 4.60005 4.95 5.25005C4.15 5.95005 3.7 6.90005 3.6 7.85005C3.6 8.80005 3.6 9.50005 3.6 10.3C3.6 11.2 3.6 12.2 3.6 13.75C3.6 14.25 3.75 14.8 3.95 15.1L4 15.15V15.25C3.65 16.35 3.15 16.85 2.6 17.45L2.5 17.55C3.6 18.05 4.75 18 5.95 17.45L6.1 17.4C6.5 18.1 7.1 18.8 7.75 19.3C8.4 19.75 9.05 20.05 9.55 20.05H16.2C16.45 20.05 17.45 19.75 17.6 19.5L17.7 19.35L17.85 19.4C19.1 19.95 20.2 20 21.3 19.5L21.25 19.45ZM6.3 17C6.2 16.95 6.15 16.9 6.1 16.85C5 17.4 4.05 17.4 3.7 17.4H3.3V17.35L3.5 17.05C3.95 16.4 4.35 15.7 4.45 15.15C4.2 14.75 4.05 14.2 4.05 13.65C4.05 12.1 4.05 11.1 4.05 10.25V10.2C4.05 9.40005 4.05 8.75005 4.05 7.80005C4.45 6.05005 5.7 4.90005 7.85 4.50005H13.8C15.35 4.60005 16.5 5.30005 17.2 6.60005C17.25 6.75005 17.3 6.85005 17.35 6.95005C17.55 7.40005 17.7 7.85005 17.75 8.30005L17.85 13.5C17.7 14.85 16.85 15.9 16.35 16.35C15.65 17.05 14.8 17.5 14.25 17.5L7.6 17.55C7.4 17.55 6.9 17.35 6.5 17.15C6.45 17.05 6.4 17.05 6.3 17ZM20.1 19.4C19.7 19.4 18.8 19.4 17.7 18.85C17.35 19.15 16.5 19.55 16.2 19.55L9.55 19.5C9 19.5 8 18.95 7.1 17.95L7.05 17.9H7.1C7.35 18 7.55 18 7.6 18H14.25C15.75 18 18.2 15.8 18.3 13.3V8.25005C18.25 7.90005 18.15 7.60005 18.05 7.30005V7.25005L18.1 7.30005C18.95 7.90005 19.5 8.75005 19.7 9.80005C19.7 10.75 19.7 11.45 19.7 12.2C19.7 13.05 19.7 14.05 19.7 15.6C19.7 16.1 19.55 16.65 19.3 17.1C19.45 17.65 19.8 18.4 20.25 19L20.5 19.35H20.1V19.4Z" fill="black" stroke="black" stroke-width="0.25"/>
</g>
<defs>
<clipPath id="clip0">
<rect width="18.8" height="16" fill="white" transform="translate(2.5 4)"/>
</clipPath>
</defs>
</svg>
