<svg width="24" height="24" viewBox="0 0 24 24" fill="none" xmlns="http://www.w3.org/2000/svg">
<path d="M21.5721 7.8H16.2V2.42791C16.2 1.93953 15.7605 1.5 15.2721 1.5H8.72791C8.1907 1.5 7.8 1.93953 7.8 2.42791V7.8H2.42791C1.93953 7.8 1.5 8.23953 1.5 8.72791V15.2721C1.5 15.8093 1.93953 16.2 2.42791 16.2H7.8V21.5721C7.8 22.0605 8.23953 22.5 8.72791 22.5H15.2721C15.8093 22.5 16.2 22.0605 16.2 21.5721V16.2H21.5721C22.0605 16.2 22.5 15.7605 22.5 15.2721V8.72791C22.5 8.23953 22.0605 7.8 21.5721 7.8ZM22.0116 15.2721C22.0116 15.5163 21.8163 15.7605 21.5233 15.7605H16.1512H15.6628V19.2279V21.6209C15.6628 21.8651 15.4674 22.1093 15.1744 22.1093H8.72791C8.48372 22.1093 8.23953 21.914 8.23953 21.6209V19.2279V16.2488V15.7605H8.1907H7.75116H2.37907C2.13488 15.7605 1.8907 15.5651 1.8907 15.2721V8.72791C1.8907 8.48372 2.08605 8.23953 2.37907 8.23953H8.1907V7.75116V6.28605V2.37907C8.1907 2.13488 8.38605 1.8907 8.67907 1.8907H15.2233C15.4674 1.8907 15.7116 2.08605 15.7116 2.37907V6.28605V7.75116V8.23953H21.5233C21.7674 8.23953 22.0116 8.43488 22.0116 8.72791V15.2721Z" fill="#231F20"/>
</svg>
