<svg width="24" height="24" viewBox="0 0 24 24" fill="none" xmlns="http://www.w3.org/2000/svg">
<path fill-rule="evenodd" clip-rule="evenodd" d="M12 22C17.5228 22 22 17.5228 22 12C22 6.47715 17.5228 2 12 2C6.47715 2 2 6.47715 2 12C2 17.5228 6.47715 22 12 22ZM12 20.8889C16.9092 20.8889 20.8889 16.9092 20.8889 12C20.8889 7.09078 16.9092 3.11108 12 3.11108C7.09082 3.11108 3.11113 7.09078 3.11113 12C3.11113 16.9092 7.09082 20.8889 12 20.8889Z" fill="black"/>
<path fill-rule="evenodd" clip-rule="evenodd" d="M12.4003 13.9048H11.1488V13.2698C11.1488 13.0406 11.171 12.8333 11.2154 12.6481C11.2598 12.463 11.3241 12.2954 11.4084 12.1455C11.4928 11.9956 11.5948 11.8523 11.7146 11.7156C11.8345 11.5789 11.9698 11.44 12.1207 11.2989L12.6133 10.836C12.8085 10.6684 12.9705 10.4854 13.0992 10.287C13.2279 10.0886 13.2923 9.8351 13.2923 9.52645C13.2923 9.10317 13.1569 8.76587 12.8862 8.51455C12.6155 8.26323 12.2671 8.13757 11.8411 8.13757C11.3973 8.13757 11.0423 8.27866 10.7761 8.56085C10.5098 8.84303 10.3545 9.18695 10.3101 9.59259L9.03204 9.44709C9.0853 9.0679 9.19624 8.72619 9.36487 8.42196C9.53351 8.11772 9.7443 7.85979 9.99725 7.64815C10.2502 7.43651 10.5409 7.27557 10.8693 7.16534C11.1977 7.05511 11.5482 7 11.921 7C12.2938 7 12.6421 7.05291 12.9661 7.15873C13.29 7.26455 13.5763 7.42107 13.8248 7.62831C14.0733 7.83554 14.2686 8.09127 14.4106 8.3955C14.5526 8.69974 14.6236 9.05026 14.6236 9.44709C14.6236 9.72928 14.5925 9.97619 14.5304 10.1878C14.4683 10.3995 14.3817 10.5913 14.2708 10.7632C14.1598 10.9352 14.0245 11.0961 13.8647 11.246C13.705 11.3959 13.5319 11.5503 13.3455 11.709C13.168 11.8589 13.0171 11.9934 12.8929 12.1124C12.7686 12.2315 12.671 12.3527 12.6 12.4762C12.529 12.5996 12.4779 12.7363 12.4469 12.8862C12.4158 13.0362 12.4003 13.2213 12.4003 13.4418V13.9048ZM12.7331 15.7699C12.7331 15.9992 12.6487 16.202 12.4801 16.3784C12.3115 16.5548 12.0985 16.643 11.8411 16.643C11.5926 16.643 11.3818 16.557 11.2087 16.385C11.0356 16.2131 10.9491 16.0125 10.9491 15.7832C10.9491 15.5451 11.0334 15.3401 11.202 15.1681C11.3707 14.9961 11.5837 14.9102 11.8411 14.9102C12.0985 14.9102 12.3115 14.9939 12.4801 15.1615C12.6487 15.329 12.7331 15.5318 12.7331 15.7699Z" fill="black"/>
</svg>
