<svg width="24" height="24" viewBox="0 0 24 24" fill="none" xmlns="http://www.w3.org/2000/svg">
<path fill-rule="evenodd" clip-rule="evenodd" d="M11.9998 3.45005C7.27788 3.45005 3.44999 7.27799 3.44999 12C3.44999 16.7221 7.27788 20.5501 11.9998 20.5501C16.7221 20.5501 20.55 16.7221 20.55 12C20.55 7.278 16.7221 3.45005 11.9998 3.45005ZM2.54999 12C2.54999 6.78095 6.78081 2.55005 11.9998 2.55005C17.2192 2.55005 21.45 6.78094 21.45 12C21.45 17.2192 17.2192 21.4501 11.9998 21.4501C6.78081 21.4501 2.54999 17.2191 2.54999 12Z" fill="#231F20"/>
<path fill-rule="evenodd" clip-rule="evenodd" d="M11.55 7.17456H12.45V11.805L15.8532 14.9914L15.2381 15.6484L11.55 12.1953V7.17456Z" fill="#231F20"/>
</svg>
