<svg width="24" height="24" viewBox="0 0 24 24" fill="none" xmlns="http://www.w3.org/2000/svg">
<g clip-path="url(#clip0)">
<path fill-rule="evenodd" clip-rule="evenodd" d="M20.3601 20.6816C20.3601 21.0073 20.104 21.2803 19.8082 21.3015L12.449 21.3018V11.1863H20.3601V20.6816ZM3.64024 20.6816V11.1863H11.5513V21.3018L4.2232 21.3025C3.896 21.2803 3.64024 21.0073 3.64024 20.6816V20.6816ZM5.99711 4.22532C5.99711 3.38355 6.68009 2.6989 7.52024 2.6989C7.94139 2.6989 8.3336 2.86747 8.61008 3.15808L11.0309 5.71738H6.963L6.98657 5.65475C6.39468 5.43286 5.99711 4.85808 5.99711 4.22532V4.22532ZM15.3238 3.23431L15.3759 3.17347C15.6667 2.86747 16.0593 2.6989 16.4808 2.6989C17.3205 2.6989 18.0039 3.38355 18.0039 4.22532C18.0039 4.85808 17.6063 5.43286 17.0141 5.65475L17.0376 5.71738H12.9698L15.3238 3.23431ZM2.72866 10.2866C1.71883 10.2866 0.897258 9.46346 0.897258 8.45205C0.897258 7.43956 1.71883 6.61676 2.72866 6.61676H10.879L9.22589 8.36079L9.876 8.9803L12 6.73988L14.1239 8.9803L14.7744 8.36079L13.1209 6.61676H21.2716C22.2814 6.61676 23.1034 7.43956 23.1034 8.45205C23.1034 9.46346 22.2814 10.2866 21.2716 10.2866H2.72866ZM21.2717 5.71731H18.3772C18.7055 5.29858 18.9012 4.77748 18.9012 4.22525C18.9012 2.8878 17.8153 1.79944 16.4808 1.79944C15.8114 1.79944 15.1881 2.06714 14.7116 2.56855L12 5.43493L9.35453 2.64514L9.27416 2.55352C8.81265 2.06714 8.18932 1.79944 7.52027 1.79944C6.18539 1.79944 5.09948 2.8878 5.09948 4.22525C5.09948 4.77784 5.29523 5.29858 5.62315 5.71731H2.7287C1.22415 5.71731 0 6.94418 0 8.45199C0 9.9598 1.22415 11.1863 2.7287 11.1863H2.74299V20.6816C2.74299 21.4783 3.36632 22.145 4.19253 22.2005L19.8389 22.1991C20.6344 22.145 21.2577 21.4786 21.2577 20.6816V11.1863H21.2717C22.7769 11.1863 24 9.9598 24 8.45199C24 6.94418 22.7769 5.71731 21.2717 5.71731V5.71731Z" fill="black"/>
</g>
<defs>
<clipPath id="clip0">
<rect width="24" height="24" fill="white"/>
</clipPath>
</defs>
</svg>
