<svg width="24" height="24" viewBox="0 0 24 24" fill="none" xmlns="http://www.w3.org/2000/svg">
<path fill-rule="evenodd" clip-rule="evenodd" d="M21.7479 6.57904C21.6974 5.4247 20.7469 4.5 19.5829 4.5H4.41712L4.32063 4.50213C3.16904 4.55296 2.25 5.50919 2.25 6.67575V17.3243L2.25211 17.421C2.30264 18.5755 3.25305 19.5 4.41712 19.5H19.5829L19.6794 19.4979C20.831 19.447 21.75 18.491 21.75 17.3243V6.67575L21.7479 6.57904ZM4.22754 5.16174H19.7724L19.8493 5.16401C20.5361 5.2047 21.0852 5.78705 21.0852 6.49825V17.5017L21.083 17.5802C21.0429 18.2814 20.469 18.8382 19.7724 18.8382H4.22754L4.15067 18.8359C3.46374 18.7953 2.91476 18.2131 2.91476 17.5017V6.49825L2.917 6.41978C2.95711 5.71869 3.53106 5.16174 4.22754 5.16174Z" fill="black"/>
<path fill-rule="evenodd" clip-rule="evenodd" d="M12.2937 15.4551C9.734 15.4551 7.65088 13.382 7.65088 10.8339H8.48279C8.48279 12.9257 10.1921 14.6275 12.2937 14.6275C14.395 14.6275 16.1043 12.9257 16.1043 10.8339H16.936C16.936 13.382 14.8531 15.4551 12.2937 15.4551" fill="#231F20"/>
<path fill-rule="evenodd" clip-rule="evenodd" d="M16.4962 6.854C15.7916 6.854 15.2188 7.4243 15.2188 8.12539C15.2188 8.82675 15.7916 9.39704 16.4962 9.39704C17.2005 9.39704 17.7734 8.82675 17.7734 8.12539C17.7734 7.4243 17.2005 6.854 16.4962 6.854M16.4962 7.51996C16.8323 7.51996 17.1044 7.79112 17.1044 8.12542C17.1044 8.45998 16.8323 8.73115 16.4962 8.73115C16.1601 8.73115 15.8877 8.45998 15.8877 8.12542C15.8877 7.79112 16.1601 7.51996 16.4962 7.51996" fill="black"/>
<path fill-rule="evenodd" clip-rule="evenodd" d="M7.92929 6.854C7.22502 6.854 6.65186 7.4243 6.65186 8.12539C6.65186 8.82675 7.22502 9.39704 7.92929 9.39704C8.63356 9.39704 9.20646 8.82675 9.20646 8.12539C9.20646 7.4243 8.63356 6.854 7.92929 6.854M7.92931 7.51996C8.26539 7.51996 8.53752 7.79112 8.53752 8.12542C8.53752 8.45998 8.26539 8.73115 7.92931 8.73115C7.59323 8.73115 7.32083 8.45998 7.32083 8.12542C7.32083 7.79112 7.59323 7.51996 7.92931 7.51996" fill="black"/>
</svg>
