<svg width="24" height="24" viewBox="0 0 24 24" fill="none" xmlns="http://www.w3.org/2000/svg">
<g id="Gift">
<g id="icon">
<path id="Path" fill-rule="evenodd" clip-rule="evenodd" d="M19.6192 11.5238C19.853 11.5238 20.0474 11.6923 20.0877 11.9144L20.0954 12V21.5238C20.0954 21.7576 19.9269 21.952 19.7048 21.9923L19.6192 22H4.3811C4.14733 22 3.9529 21.8316 3.91258 21.6094L3.90491 21.5238V12C3.90491 11.737 4.1181 11.5238 4.3811 11.5238C4.61487 11.5238 4.8093 11.6923 4.84962 11.9144L4.85729 12V21.0476H19.143V12C19.143 11.7662 19.3115 11.5718 19.5336 11.5315L19.6192 11.5238Z" fill="black"/>
<path id="Rectangle" fill-rule="evenodd" clip-rule="evenodd" d="M21.5238 6.76189H2.47619C2.2132 6.76189 2 6.97508 2 7.23808V12C2 12.263 2.2132 12.4762 2.47619 12.4762H21.5238C21.7868 12.4762 22 12.263 22 12V7.23808C22 6.97508 21.7868 6.76189 21.5238 6.76189ZM21.0476 7.71428V11.5238H2.95237V7.71428H21.0476Z" fill="black"/>
<path id="Path_2" fill-rule="evenodd" clip-rule="evenodd" d="M12 6.76189C12.2338 6.76189 12.4282 6.93034 12.4685 7.15248L12.4762 7.23808V21.5238C12.4762 21.7868 12.263 22 12 22C11.7662 22 11.5718 21.8315 11.5315 21.6094L11.5238 21.5238V7.23808C11.5238 6.97508 11.737 6.76189 12 6.76189Z" fill="black"/>
<path id="Path_3" fill-rule="evenodd" clip-rule="evenodd" d="M7.7142 2C6.13624 2 4.85706 3.27919 4.85706 4.85714C4.85706 6.4351 6.13624 7.71429 7.7142 7.71429H11.9999C12.3004 7.71429 12.5258 7.43937 12.4669 7.14471L12.4216 6.94381C12.383 6.78677 12.3274 6.58533 12.253 6.35029C12.0675 5.76448 11.8271 5.17829 11.5243 4.62766C10.6306 3.00283 9.37711 2 7.7142 2ZM7.71424 2.95237C8.968 2.95237 9.9466 3.73525 10.6899 5.08662L10.8456 5.38559C11.0449 5.78962 11.2108 6.21359 11.3451 6.6378L11.3828 6.76189H7.71424C6.66227 6.76189 5.80948 5.9091 5.80948 4.85713C5.80948 3.80516 6.66227 2.95237 7.71424 2.95237Z" fill="black"/>
<path id="Path_4" fill-rule="evenodd" clip-rule="evenodd" d="M16.2857 2C14.6228 2 13.3693 3.00283 12.4756 4.62766C12.1728 5.17829 11.9325 5.76448 11.747 6.35029L11.6492 6.6763C11.5932 6.87504 11.5551 7.03478 11.5331 7.14471C11.4742 7.43937 11.6995 7.71429 12 7.71429H16.2857C17.8637 7.71429 19.1429 6.4351 19.1429 4.85714C19.1429 3.27919 17.8637 2 16.2857 2ZM16.2858 2.95237C17.3377 2.95237 18.1905 3.80516 18.1905 4.85713L18.1853 4.99929C18.1126 5.98487 17.2899 6.76189 16.2858 6.76189H12.6162L12.6549 6.6378C12.8228 6.10754 13.0401 5.57766 13.3101 5.08662C14.0534 3.73525 15.032 2.95237 16.2858 2.95237Z" fill="black"/>
</g>
</g>
</svg>
