<svg width="24" height="24" viewBox="0 0 24 24" fill="none" xmlns="http://www.w3.org/2000/svg">
<g id="Shipping">
<path id="icon" fill-rule="evenodd" clip-rule="evenodd" d="M23.3063 10.7834L22.2411 8.41979C21.8537 7.56239 20.9821 7.00624 19.9895 7.00624H18.2705V6.40374C18.2705 5.91711 17.8589 5.5 17.3263 5.5H5.31789C4.95474 5.5 4.68842 5.77807 4.68842 6.1025C4.68842 6.42692 4.97895 6.70499 5.31789 6.70499H16.9632V11.1542C16.9632 11.7103 17.4232 12.1506 18.0042 12.1506H22.1926V14.9545C22.1926 15.0704 22.0958 15.1631 21.9747 15.1631H21.2C20.7884 14.4911 20.0379 14.0508 19.1905 14.0508C18.3432 14.0508 17.5926 14.5143 17.1811 15.1631H10.7168C10.3053 14.4911 9.55474 14.0508 8.70737 14.0508C7.86 14.0508 7.10947 14.5143 6.69789 15.1631H4.47053C4.10737 15.1631 3.84105 15.4412 3.84105 15.7656C3.84105 16.1132 4.13158 16.3681 4.47053 16.3681H6.38316C6.43158 17.5499 7.44842 18.5 8.70737 18.5C9.96632 18.5 10.9832 17.5499 11.0316 16.3681H16.8663C16.9147 17.5499 17.9316 18.5 19.1905 18.5C20.4495 18.5 21.4663 17.5499 21.5147 16.3681H22.0232C22.8463 16.3681 23.5 15.7193 23.5 14.9545V11.7103C23.5 11.4091 23.4274 11.0847 23.3063 10.7834ZM9.77263 16.2754C9.77263 16.8316 9.28842 17.295 8.70737 17.295C8.12632 17.295 7.64211 16.8316 7.64211 16.2754C7.64211 15.7193 8.12632 15.2558 8.70737 15.2558C9.28842 15.2558 9.77263 15.7193 9.77263 16.2754ZM18.1253 16.2754C18.1253 16.8316 18.6095 17.295 19.1905 17.295C19.7716 17.295 20.2558 16.8316 20.2558 16.2754C20.2558 15.7193 19.7716 15.2558 19.1905 15.2558C18.6095 15.2558 18.1253 15.7193 18.1253 16.2754ZM18.2463 8.2344H20.1483C20.6573 8.2344 21.1395 8.51645 21.3271 8.97799L22.3451 11.2344H18.2463V8.2344ZM7.95684 9.23084H3.50211C3.16316 9.23084 2.87263 8.95276 2.87263 8.62834C2.87263 8.30392 3.13895 8.02585 3.50211 8.02585H7.95684C8.29579 8.02585 8.58632 8.28075 8.58632 8.62834C8.58632 8.95276 8.32 9.23084 7.95684 9.23084ZM2.31579 11.5481H6.77053C7.13368 11.5481 7.4 11.2701 7.4 10.9456C7.4 10.598 7.10947 10.3431 6.77053 10.3431H2.31579C1.95263 10.3431 1.68632 10.6212 1.68632 10.9456C1.68632 11.2701 1.97684 11.5481 2.31579 11.5481ZM5.60842 12.6604C5.94737 12.6604 6.23789 12.9153 6.23789 13.2629C6.23789 13.6105 5.94737 13.8886 5.58421 13.8654H1.12947C0.790526 13.8654 0.5 13.6105 0.5 13.2629C0.5 12.9385 0.766316 12.6604 1.12947 12.6604H5.60842Z" fill="black"/>
</g>
</svg>
