<svg width="24" height="24" viewBox="0 0 24 24" fill="none" xmlns="http://www.w3.org/2000/svg">
<g clip-path="url(#clip0)">
<path fill-rule="evenodd" clip-rule="evenodd" d="M14.929 9.23076H12.1184V6.34615C12.1184 6 11.8935 5.76923 11.5562 5.76923C11.219 5.76923 10.9941 6 10.9941 6.34615V9.23076H8.18347C7.84619 9.23076 7.62134 9.46153 7.62134 9.80769C7.62134 10.1538 7.84619 10.3846 8.18347 10.3846H10.9941V13.2692C10.9941 13.6154 11.219 13.8461 11.5562 13.8461C11.8935 13.8461 12.1184 13.6154 12.1184 13.2692V10.3846H14.929C15.2663 10.3846 15.4912 10.1538 15.4912 9.80769C15.4912 9.46153 15.2663 9.23076 14.929 9.23076Z" fill="#010101"/>
<path fill-rule="evenodd" clip-rule="evenodd" d="M17.2899 17.5385C19.5385 15.8077 21 12.9231 21 9.80769C21 4.38462 16.7278 0 11.4438 0C6.27219 0 2 4.38462 2 9.80769C2 15.2308 6.27219 19.6154 11.5562 19.6154C13.2426 19.6154 14.929 19.1538 16.2781 18.3462L19.3136 23.7692C19.426 24.1154 19.8757 24.2308 20.213 24C20.5503 23.8846 20.6627 23.4231 20.4379 23.1923L17.2899 17.5385ZM3.23669 9.80769C3.23669 5.07692 6.94675 1.26923 11.5562 1.26923C16.1657 1.26923 19.8757 5.07692 19.8757 9.80769C19.8757 14.5385 16.1657 18.3462 11.5562 18.3462C6.94675 18.3462 3.23669 14.5385 3.23669 9.80769Z" fill="#010101"/>
</g>
<defs>
<clipPath id="clip0">
<rect width="19" height="24" fill="white" transform="translate(2)"/>
</clipPath>
</defs>
</svg>
