<svg width="24" height="24" viewBox="0 0 24 24" fill="none" xmlns="http://www.w3.org/2000/svg">
<g id="Size=default, Rating=1/2">
<g id="Rectangle + Rectangle + Rectangle + Rectangle Mask">
<path id="Mask" fill-rule="evenodd" clip-rule="evenodd" d="M12 18.6811L19.416 23L17.448 14.86L24 9.38316L15.372 8.67684L12 1L8.628 8.67684L0 9.38316L6.552 14.86L4.584 23L12 18.6811Z" fill="#000001"/>
<mask id="mask0" style="mask-type:alpha" maskUnits="userSpaceOnUse" x="0" y="1" width="24" height="22">
<path id="Mask_2" fill-rule="evenodd" clip-rule="evenodd" d="M12 18.6811L19.416 23L17.448 14.86L24 9.38316L15.372 8.67684L12 1L8.628 8.67684L0 9.38316L6.552 14.86L4.584 23L12 18.6811Z" fill="white"/>
</mask>
<g mask="url(#mask0)">
<rect id="section 4" x="18" y="-1.09091" width="6" height="26.1818" fill="#D8D8D8"/>
<rect id="section 3" x="12" y="-1.09091" width="6" height="26.1818" fill="#D8D8D8"/>
<rect id="section 2" x="6" y="-1.09091" width="6" height="26.1818" fill="#2E2E2E"/>
<rect id="section 1" y="-1.09091" width="6" height="26.1818" fill="#2E2E2E"/>
</g>
</g>
</g>
</svg>
