<svg width="16" height="16" viewBox="0 0 16 16" fill="none" xmlns="http://www.w3.org/2000/svg">
<path fill-rule="evenodd" clip-rule="evenodd" d="M9.09691 15.7058C9.01603 15.8849 8.83774 16 8.64123 16C7.10999 16 5.85497 14.7763 5.85497 13.25L5.85497 10.75L2.04415 10.75C1.45432 10.7558 0.889429 10.5068 0.499452 10.0655C0.108443 9.62294 -0.0666946 9.03182 0.0232207 8.44883L1.07489 1.69894C1.07492 1.69875 1.07486 1.69913 1.07489 1.69894C1.22775 0.708808 2.09445 -0.00962951 3.09587 9.5193e-05L11.6896 9.59443e-05C11.6921 9.59445e-05 11.6947 0.000115018 11.6973 0.000154119L13.9758 0.000154318C15.0862 0.000154415 16 0.888072 16 2.00015L16 7.25011C16 8.36219 15.0862 9.2501 13.9758 9.2501L12.0124 9.2501L9.09691 15.7058ZM12.1896 8.2501L13.9758 8.2501C14.549 8.2501 15 7.79488 15 7.25011L15 2.00015C15 1.45537 14.549 1.00015 13.9758 1.00015L12.1896 1.00015L12.1896 8.2501ZM11.1896 1.0001L11.1896 8.64238L8.33029 14.9737C7.48693 14.8291 6.85497 14.1066 6.85497 13.25L6.85497 10.25C6.85497 9.97389 6.63111 9.75003 6.35497 9.75003L2.04155 9.75003L2.03598 9.75006C1.73258 9.75344 1.44507 9.62542 1.24883 9.40333C1.053 9.18169 0.967257 8.88855 1.01152 8.60136C1.01151 8.6014 1.01152 8.60133 1.01152 8.60136L2.0631 1.85206C2.13825 1.36434 2.57048 0.99431 3.08767 1.00006L11.1896 1.0001Z" fill="black"/>
</svg>
