<svg width="16" height="16" viewBox="0 0 16 16" fill="none" xmlns="http://www.w3.org/2000/svg">
<path d="M14.1236 8.30023C14.4154 8.30023 14.6952 8.18434 14.9015 7.97805C15.1077 7.77176 15.2236 7.49197 15.2236 7.20023L15.2236 1.60023C15.2236 1.30849 15.1077 1.0287 14.9015 0.822413C14.6952 0.616123 14.4154 0.500232 14.1236 0.500232L12.2236 0.500231L12.2236 8.30023L14.1236 8.30023Z" fill="#000001"/>
<path d="M1.59387 9.90021L6.12387 9.90021C6.25648 9.90021 6.38365 9.95289 6.47742 10.0467C6.57119 10.1404 6.62387 10.2676 6.62387 10.4002L6.62387 13.6002C6.62494 14.0496 6.78527 14.4841 7.07637 14.8264C7.36747 15.1688 7.7705 15.3969 8.21387 15.4702L11.2139 8.69021L11.2139 0.500215L2.72387 0.500214C2.45877 0.494917 2.20084 0.58643 1.99836 0.757618C1.79588 0.928806 1.66274 1.16793 1.62387 1.43021V1.43021L0.523867 8.63021C0.490936 8.7842 0.491764 8.9435 0.52629 9.09714C0.560815 9.25078 0.628221 9.39512 0.723868 9.52021C0.82958 9.64133 0.960338 9.73803 1.1071 9.80364C1.25386 9.86926 1.41312 9.9022 1.57387 9.90021L1.59387 9.90021Z" fill="#000001"/>
</svg>
