<svg width="16" height="16" viewBox="0 0 16 16" fill="none" xmlns="http://www.w3.org/2000/svg">
<path fill-rule="evenodd" clip-rule="evenodd" d="M6.90309 0.294208C6.98397 0.115111 7.16226 0 7.35877 0C8.89001 0 10.145 1.2237 10.145 2.74999V5.24997H13.9559C14.5457 5.24425 15.1106 5.49317 15.5005 5.93453C15.8916 6.37705 16.0667 6.96818 15.9768 7.55117L14.9251 14.3011C14.9251 14.3012 14.9251 14.3009 14.9251 14.3011C14.7722 15.2912 13.9056 16.0096 12.9041 15.9999H4.31042C4.30785 15.9999 4.30528 15.9999 4.30272 15.9998H2.02417C0.913823 15.9998 0 15.1119 0 13.9999V8.74989C0 7.63781 0.913823 6.7499 2.02417 6.7499H3.98763L6.90309 0.294208ZM3.81042 7.7499H2.02417C1.45097 7.7499 1 8.20512 1 8.74989V13.9999C1 14.5446 1.45097 14.9998 2.02417 14.9998H3.81042V7.7499ZM4.81042 14.9999V7.35762L7.66971 1.02632C8.51307 1.17091 9.14503 1.89344 9.14503 2.74999V5.74997C9.14503 6.02611 9.36889 6.24997 9.64503 6.24997H13.9584L13.964 6.24994C14.2674 6.24655 14.5549 6.37458 14.7512 6.59667C14.947 6.8183 15.0327 7.11145 14.9885 7.39864C14.9885 7.3986 14.9885 7.39867 14.9885 7.39864L13.9369 14.1479C13.8617 14.6357 13.4295 15.0057 12.9123 14.9999L4.81042 14.9999Z" fill="black"/>
</svg>
