<svg width="26" height="26" viewBox="0 0 26 26" fill="none" xmlns="http://www.w3.org/2000/svg">
<path d="M10.3678 16.6003H10.8678C10.8678 16.3242 10.644 16.1003 10.3678 16.1003V16.6003ZM14.0259 25.0003V25.5003C14.2224 25.5003 14.4007 25.3852 14.4816 25.2061L14.0259 25.0003ZM18.9033 14.2003L19.359 14.4061C19.3882 14.3415 19.4033 14.2713 19.4033 14.2003H18.9033ZM18.9033 1.00035H19.4033C19.4033 0.724203 19.1794 0.500345 18.9033 0.500345V1.00035ZM5.14903 1.00035L5.14347 1.50035H5.14903V1.00035ZM2.71033 3.04035L3.20437 3.11732L3.2045 3.11649L2.71033 3.04035ZM1.02763 13.8403L0.533593 13.7634L0.533475 13.7641L1.02763 13.8403ZM3.46633 16.6003V16.1003L3.46076 16.1004L3.46633 16.6003ZM18.9033 0.50044C18.6271 0.50044 18.4033 0.724298 18.4033 1.00044C18.4033 1.27658 18.6271 1.50044 18.9033 1.50044V0.50044ZM22.1589 1.00044V1.50052L22.1676 1.50036L22.1589 1.00044ZM25 3.40044H25.5C25.5 3.37767 25.4985 3.35492 25.4954 3.33236L25 3.40044ZM25 11.8004L25.4954 11.8685C25.4985 11.846 25.5 11.8232 25.5 11.8004H25ZM22.1589 14.2004L22.1676 13.7004H22.1589V14.2004ZM18.9033 13.7004C18.6271 13.7004 18.4033 13.9243 18.4033 14.2004C18.4033 14.4766 18.6271 14.7004 18.9033 14.7004V13.7004ZM9.86784 16.6003V21.4003H10.8678V16.6003H9.86784ZM9.86784 21.4003C9.86784 23.6722 11.737 25.5003 14.0259 25.5003V24.5003C12.2742 24.5003 10.8678 23.1049 10.8678 21.4003H9.86784ZM14.4816 25.2061L19.359 14.4061L18.4476 13.9946L13.5702 24.7946L14.4816 25.2061ZM19.4033 14.2003V1.00035H18.4033V14.2003H19.4033ZM18.9033 0.500345H5.14903V1.50035H18.9033V0.500345ZM5.15459 0.500376C3.69572 0.484145 2.43731 1.52907 2.21617 2.9642L3.2045 3.11649C3.34803 2.18504 4.17026 1.48949 5.14347 1.50031L5.15459 0.500376ZM2.21629 2.96337L0.533593 13.7634L1.52167 13.9173L3.20437 3.11732L2.21629 2.96337ZM0.533475 13.7641C0.403296 14.6082 0.656699 15.4646 1.22377 16.1064L1.97315 15.4443C1.60123 15.0233 1.43723 14.4648 1.52179 13.9166L0.533475 13.7641ZM1.22377 16.1064C1.79047 16.7478 2.61269 17.1099 3.4719 17.1003L3.46076 16.1004C2.88905 16.1067 2.34545 15.8656 1.97315 15.4443L1.22377 16.1064ZM3.46633 17.1003H10.3678V16.1003H3.46633V17.1003ZM18.9033 1.50044H22.1589V0.50044H18.9033V1.50044ZM22.1676 1.50036C23.3492 1.4798 24.3485 2.33212 24.5047 3.46852L25.4954 3.33236C25.2686 1.68212 23.8256 0.471357 22.1502 0.500516L22.1676 1.50036ZM24.5 3.40044V11.8004H25.5V3.40044H24.5ZM24.5047 11.7324C24.3485 12.8688 23.3492 13.7211 22.1676 13.7005L22.1502 14.7004C23.8256 14.7295 25.2686 13.5188 25.4954 11.8685L24.5047 11.7324ZM22.1589 13.7004H18.9033V14.7004H22.1589V13.7004Z" fill="black"/>
</svg>
