<svg width="16" height="16" viewBox="0 0 16 16" fill="none" xmlns="http://www.w3.org/2000/svg">
<path d="M1.6 7.66998C1.30826 7.66998 1.02847 7.78588 0.822183 7.99217C0.615893 8.19846 0.5 8.47825 0.5 8.76998V14.37C0.5 14.6617 0.615893 14.9415 0.822183 15.1478C1.02847 15.3541 1.30826 15.47 1.6 15.47H3.5V7.66998H1.6Z" fill="#000001"/>
<path d="M14.1298 6.07H9.59977C9.46716 6.07 9.33998 6.01732 9.24621 5.92355C9.15244 5.82979 9.09977 5.70261 9.09977 5.57V2.37C9.09869 1.92061 8.93836 1.48615 8.64726 1.14378C8.35616 0.801421 7.95313 0.57332 7.50977 0.5L4.50977 7.28V15.47H12.9998C13.2649 15.4753 13.5228 15.3838 13.7253 15.2126C13.9278 15.0414 14.0609 14.8023 14.0998 14.54V14.54L15.1998 7.34C15.2327 7.18601 15.2319 7.02671 15.1973 6.87307C15.1628 6.71943 15.0954 6.5751 14.9998 6.45C14.8941 6.32889 14.7633 6.23218 14.6165 6.16657C14.4698 6.10096 14.3105 6.06801 14.1498 6.07H14.1298Z" fill="#000001"/>
</svg>
