<svg width="26" height="26" viewBox="0 0 26 26" fill="none" xmlns="http://www.w3.org/2000/svg">
<path d="M15.6321 9.4H15.1321C15.1321 9.67614 15.356 9.9 15.6321 9.9V9.4ZM15.6321 4.6H16.1321H15.6321ZM11.9741 1V0.5C11.7776 0.5 11.5993 0.615111 11.5184 0.794208L11.9741 1ZM7.09672 11.8L6.64103 11.5942C6.61183 11.6589 6.59672 11.729 6.59672 11.8H7.09672ZM7.09672 25H6.59672C6.59672 25.2761 6.82058 25.5 7.09672 25.5V25ZM20.851 25L20.8565 24.5H20.851V25ZM23.2896 22.96L22.7956 22.883L22.7955 22.8839L23.2896 22.96ZM24.9723 12.16L25.4664 12.237L25.4665 12.2362L24.9723 12.16ZM22.5337 9.4V9.90003L22.5392 9.89997L22.5337 9.4ZM7.09674 25.4999C7.37288 25.4999 7.59674 25.2761 7.59674 24.9999C7.59674 24.7238 7.37288 24.4999 7.09674 24.4999V25.4999ZM7.09674 12.2999C7.37288 12.2999 7.59674 12.0761 7.59674 11.7999C7.59674 11.5238 7.37288 11.2999 7.09674 11.2999V12.2999ZM16.1321 9.4V4.6H15.1321V9.4H16.1321ZM16.1321 4.6C16.1321 2.32812 14.263 0.5 11.9741 0.5V1.5C13.7258 1.5 15.1321 2.89543 15.1321 4.6H16.1321ZM11.5184 0.794208L6.64103 11.5942L7.5524 12.0058L12.4298 1.20579L11.5184 0.794208ZM6.59672 11.8V25H7.59672V11.8H6.59672ZM7.09672 25.5H20.851V24.5H7.09672V25.5ZM20.8454 25.5C22.3043 25.5162 23.5627 24.4713 23.7838 23.0361L22.7955 22.8839C22.652 23.8153 21.8297 24.5109 20.8565 24.5L20.8454 25.5ZM23.7837 23.037L25.4664 12.237L24.4783 12.083L22.7956 22.883L23.7837 23.037ZM25.4665 12.2362C25.5967 11.3922 25.3433 10.5357 24.7762 9.89395L24.0268 10.5561C24.3988 10.977 24.5628 11.5355 24.4782 12.0838L25.4665 12.2362ZM24.7762 9.89395C24.2095 9.25259 23.3873 8.89045 22.5281 8.90003L22.5392 9.89997C23.1109 9.8936 23.6545 10.1347 24.0268 10.5561L24.7762 9.89395ZM22.5337 8.9H15.6321V9.9H22.5337V8.9ZM7.09674 24.4999H3.43869V25.4999H7.09674V24.4999ZM3.43869 24.4999C2.36041 24.4999 1.5 23.6418 1.5 22.5999H0.5C0.5 24.2091 1.82327 25.4999 3.43869 25.4999V24.4999ZM1.5 22.5999V14.1999H0.5V22.5999H1.5ZM1.5 14.1999C1.5 13.1581 2.36041 12.2999 3.43869 12.2999V11.2999C1.82327 11.2999 0.5 12.5908 0.5 14.1999H1.5ZM3.43869 12.2999H7.09674V11.2999H3.43869V12.2999Z" fill="black"/>
</svg>
