<svg width="24" height="24" viewBox="0 0 24 24" fill="none" xmlns="http://www.w3.org/2000/svg">
<path fill-rule="evenodd" clip-rule="evenodd" d="M12.0072 19.4553C12.0072 19.8766 11.7629 20.2594 11.3806 20.4381C11.2328 20.5077 11.0744 20.5414 10.9171 20.5414C10.6679 20.5414 10.421 20.456 10.2216 20.2913L4.26329 15.371H1.08988C0.488059 15.3715 0 14.8849 0 14.2851V9.95789C0 9.35789 0.488059 8.87152 1.08988 8.87152H4.26355L10.2219 3.95123C10.5474 3.68234 10.9989 3.62501 11.3809 3.80496C11.7629 3.98362 12.0075 4.36665 12.0075 4.78773L12.0072 19.4553ZM16.1957 17.7581C16.1691 17.7599 16.1436 17.7609 16.1173 17.7609C15.8294 17.7609 15.5518 17.6476 15.3468 17.4429L15.201 17.2972C14.8187 16.917 14.7738 16.3147 15.0958 15.8823C15.912 14.7856 16.3427 13.4856 16.3427 12.1219C16.3427 10.6551 15.8537 9.27923 14.9281 8.14299C14.5757 7.71111 14.6082 7.08387 15.0032 6.69055L15.1486 6.54531C15.3664 6.32834 15.6581 6.21009 15.9739 6.22886C16.2813 6.24428 16.5685 6.3885 16.7635 6.62603C18.0473 8.19157 18.7255 10.0923 18.7255 12.1221C18.7255 14.0126 18.1258 15.8121 16.9907 17.3252C16.8011 17.5774 16.5112 17.7357 16.1957 17.7581ZM20.7017 21.1147C20.5047 21.3468 20.2196 21.4861 19.9144 21.499C19.8995 21.4995 19.8843 21.5 19.8688 21.5C19.5801 21.5 19.3031 21.3864 19.098 21.182L18.9548 21.0393C18.5547 20.6409 18.5277 20.0036 18.8914 19.5722C20.6491 17.489 21.6175 14.8432 21.6175 12.1219C21.6175 9.29131 20.5808 6.56639 18.6989 4.44917C18.3174 4.01936 18.3368 3.36872 18.7428 2.96255L18.8857 2.81987C19.0977 2.60754 19.3732 2.49057 19.6892 2.5006C19.9893 2.50908 20.273 2.64121 20.4724 2.86486C22.7471 5.41704 24 8.70494 24 12.1219C24.0005 15.4095 22.8291 18.6034 20.7017 21.1147Z" fill="white"/>
</svg>
