<svg width="24" height="24" viewBox="0 0 24 24" fill="none" xmlns="http://www.w3.org/2000/svg">
<path fill-rule="evenodd" clip-rule="evenodd" d="M20.3709 3.15784H3.41454C2.35372 3.15784 1.47269 3.95095 1.39496 4.9759L0 23.3684H24L22.3887 4.95395C22.2998 3.93835 21.423 3.15784 20.3709 3.15784ZM20.3709 4.12037L20.5287 4.13202C20.9922 4.2011 21.3581 4.56973 21.3989 5.03538L22.9184 22.4061H1.06949L2.38573 5.04656C2.42533 4.52442 2.87416 4.12037 3.41458 4.12037H20.3709Z" fill="white"/>
<path fill-rule="evenodd" clip-rule="evenodd" d="M14.0526 3.15789C14.0526 1.38158 13.3578 0.789474 11.9684 0.789474C10.5789 0.789474 9.88415 1.38158 9.88415 3.15789H14.0526ZM15.0947 3.15789C15.0947 3.15789 9.91038 3.15789 9.62362 3.15789C9.38933 3.15789 8.84204 3.15789 8.84204 3.15789C8.84204 1.02039 9.85223 0 11.9684 0C14.0845 0 15.0947 1.02039 15.0947 3.15789Z" fill="white"/>
<path d="M6.79014 16.2106H7.45414V10.5466H6.00614L5.62214 11.1386H6.79014V16.2106ZM11.6849 15.8026C10.8929 15.8026 10.4049 14.9386 10.4049 13.3866C10.4049 11.8426 10.8929 10.9866 11.6849 10.9866C12.5169 10.9866 12.9649 11.8106 12.9649 13.4026C12.9649 14.9866 12.5169 15.8026 11.6849 15.8026ZM11.6929 16.3626C12.8929 16.3626 13.6689 15.2986 13.6689 13.3946C13.6689 11.4906 12.9009 10.4346 11.6769 10.4346C10.4849 10.4346 9.70089 11.5066 9.70089 13.3946C9.70089 15.2826 10.4849 16.3626 11.6929 16.3626ZM16.4036 15.8026C15.6116 15.8026 15.1236 14.9386 15.1236 13.3866C15.1236 11.8426 15.6116 10.9866 16.4036 10.9866C17.2356 10.9866 17.6836 11.8106 17.6836 13.4026C17.6836 14.9866 17.2356 15.8026 16.4036 15.8026ZM16.4116 16.3626C17.6116 16.3626 18.3876 15.2986 18.3876 13.3946C18.3876 11.4906 17.6196 10.4346 16.3956 10.4346C15.2036 10.4346 14.4196 11.5066 14.4196 13.3946C14.4196 15.2826 15.2036 16.3626 16.4116 16.3626Z" fill="white"/>
</svg>
