<svg width="24" height="24" viewBox="0 0 24 24" fill="none" xmlns="http://www.w3.org/2000/svg">
<path fill-rule="evenodd" clip-rule="evenodd" d="M5.92562 1C8.55138 1 10.3935 1.92335 11.516 3.49837C11.7033 3.76118 11.8655 4.03689 12.0034 4.31618C12.9218 2.54393 14.8402 1 17.5477 1C21.5177 1 23.1737 2.92717 23.8946 6.16628C24.3622 8.2673 23.2557 11.7841 20.944 14.7942C20.2961 15.6379 19.3831 16.648 18.2519 17.7931C17.9063 18.1429 17.5427 18.5029 17.1632 18.8715C16.1194 19.8851 15.0023 20.9192 13.8853 21.9193C13.4944 22.2693 13.1314 22.59 12.8055 22.8748C12.6096 23.046 12.4692 23.1674 12.3937 23.2321L11.9784 23.5882L11.5825 23.2098C11.5207 23.1508 11.4057 23.0406 11.2447 22.8858C10.9764 22.628 10.6775 22.34 10.3556 22.0286C9.43585 21.139 8.51603 20.241 7.65719 19.3908L7.441 19.1766C5.735 17.4835 4.52457 16.2299 3.98258 15.5702C3.84413 15.4017 3.28041 14.7321 3.30448 14.7609C3.00411 14.4019 2.7692 14.1121 2.53933 13.8127C0.887794 11.6612 0 9.5724 0 6.98311C0 3.58464 1.89248 1 5.92562 1ZM8.50845 18.4995C9.36355 19.3459 10.2801 20.2407 11.1967 21.1273C11.493 21.4139 11.7697 21.6806 12.0208 21.9221C12.3404 21.6428 12.6961 21.3284 13.0789 20.9857C14.1844 19.9959 15.2897 18.9727 16.3203 17.9719C16.6939 17.609 17.0515 17.255 17.3908 16.9115C18.4892 15.7997 19.3708 14.8242 19.982 14.0284C22.0867 11.2878 23.0798 8.13137 22.7036 6.44099C22.0947 3.70507 20.8386 2.24322 17.5477 2.24322C15.7573 2.24322 14.4667 2.97277 13.584 4.22017C12.9784 5.07591 12.611 6.18399 12.611 6.67029H11.3898C11.3898 6.05061 11.1133 5.05028 10.5276 4.22848C9.6387 2.98119 8.1664 2.24322 5.92562 2.24322C2.65776 2.24322 1.22116 4.20525 1.22116 6.9831C1.22116 9.25516 2.0033 11.0953 3.50152 13.0471C3.71915 13.3306 3.94392 13.6079 4.23409 13.9547C4.20546 13.9205 4.77527 14.5973 4.91928 14.7726C5.42419 15.3872 6.6203 16.6259 8.2934 18.2863L8.50845 18.4995Z" fill="black"/>
</svg>
