<svg width="24" height="24" viewBox="0 0 24 24" fill="none" xmlns="http://www.w3.org/2000/svg">
<path fill-rule="evenodd" clip-rule="evenodd" d="M0 3.47619C0 3.2132 0.213198 3 0.476191 3H23.5238C23.7868 3 24 3.2132 24 3.47619V4.2381C24 4.50109 23.7868 4.71429 23.5238 4.71429H0.47619C0.213197 4.71429 0 4.50109 0 4.2381V3.47619ZM0 12.0476C0 11.7846 0.213198 11.5714 0.476191 11.5714H23.5238C23.7868 11.5714 24 11.7846 24 12.0476V12.8095C24 13.0725 23.7868 13.2857 23.5238 13.2857H0.47619C0.213197 13.2857 0 13.0725 0 12.8095V12.0476ZM0.476191 20.1429C0.213198 20.1429 0 20.3561 0 20.619V21.381C0 21.6439 0.213197 21.8571 0.47619 21.8571H23.5238C23.7868 21.8571 24 21.6439 24 21.381V20.619C24 20.3561 23.7868 20.1429 23.5238 20.1429H0.476191Z" fill="black"/>
</svg>
