<svg width="31" height="31" viewBox="0 0 31 31" fill="none" xmlns="http://www.w3.org/2000/svg">
<path fill-rule="evenodd" clip-rule="evenodd" d="M26.5165 7.3689C26.2603 7.24085 25.4917 6.72866 24.2107 6.21646C22.8017 5.70427 20.5599 5 17.6777 5C13.0661 5 8.77479 5.89634 5.63636 7.49695C1.92149 9.35366 0 12.1707 0 15.5C0 22.4146 6.46901 26 18.7665 26C21.7769 26 24.4029 25.2317 26.5806 23.6951L30.2955 25.6799H31V17.7409H30.2955L30.2314 17.8049V17.8689C30.2314 17.9329 29.5909 19.7256 27.9256 21.5183C26.3884 23.1829 23.5702 25.1677 18.9587 25.1677C15.8843 25.1677 13.3864 24.0152 11.7211 21.9024C10.4401 20.2378 9.67149 17.9329 9.67149 15.628C9.67149 9.41768 14.4752 6.08841 18.9587 6.08841C22.0331 6.08841 24.7872 7.04878 26.9649 8.90549C28.8223 10.4421 29.8471 12.2348 30.2314 13.4512V13.5152H31V5.38415H30.2955L26.5165 7.3689Z" fill="black"/>
</svg>
