<svg xmlns="http://www.w3.org/2000/svg" xmlns:xlink="http://www.w3.org/1999/xlink" viewBox="0 0 360.71 151.8"><defs><clipPath id="a" transform="translate(-0.09)"><rect width="360.7" height="151.7" fill="none"/></clipPath></defs><g clip-path="url(#a)"><path d="M242.3,102.9V76.8H222.8C222.3,94.8,237.7,101.4,242.3,102.9Z" transform="translate(-0.09)" fill="#fff"/><path d="M276.4,102.9a14.11,14.11,0,0,0,2.7-1.2c6.9-18,16.9-24.6,17.6-25H276.8v26.1h-.4Z" transform="translate(-0.09)" fill="#fff"/><path d="M80.9,85.2l2.7-5.4a12.24,12.24,0,0,0-5.4,0Z" transform="translate(-0.09)" fill="#fff"/><path d="M99.7,81.4a86.87,86.87,0,0,1-1.9-16.1,48.86,48.86,0,0,1-10.4,1.2V76.9A58.37,58.37,0,0,1,99.7,81.4Z" transform="translate(-0.09)" fill="#fff"/><path d="M83.6,76.4v-10H78.2v10h5.4Z" transform="translate(-0.09)" fill="#fff"/><path d="M131.1,96c4.2-6.9,4.2-11.9,4.2-11.9,0-7.3-4.6-13.4-7.7-16.1-8.4-6.9-26.1-3.5-26.1-3.5a52.59,52.59,0,0,0,1.9,18.8C111.6,87.9,126.1,94.5,131.1,96Z" transform="translate(-0.09)" fill="#fff"/><path d="M111.6,104.8c-1.9-3.1-5.7-7.3-12.7-3.8,0,0-.4,6.1,2.7,8.4,1.1,1.1,4.6,5.4,3.4,8.4-.4,1.5-7.7,7.7-9.6,9.6-3.8,3.1-3.1,5-3.1,5,.8,3.5-1.9,9.6.4,12.3l.4.4c2.3,0,5.7-5.4,5.7-6.5,0-.8-2.3-3.8-2.3-4.2.4-.8.8-.4,1.5-1.5.4-.4.4-1.5.4-1.9.4-2.3,10.4-10.4,12.3-11.5,3.1-1.9.8-4.2.8-4.2C107.7,110.6,111.2,105.2,111.6,104.8Z" transform="translate(-0.09)" fill="#fff"/><path d="M74.8,80.2S62.1,82.1,53.3,90.9c-.8.8-1.1,0-1.1,0a3.4,3.4,0,0,1,.4-1.5c3.8-5,14.9-12.3,21.8-13.1V65.7c-2.7-.4-5.4-1.2-6.1-1.2-6.5,5.8-18.8,15-30.3,20.3-1.1,5.8,2.7,8.4,2.7,11.1a1.73,1.73,0,0,1-.8,1.5c-2.3,2.3-12.3,9.6-13.4,12.3-.8,1.9,1.5,15.4,1.5,20a7,7,0,0,0,2.7,5.4c1.2,1.5,6.1,7.7,8.4,7.7,1.5-.8,3.8-10-1.5-8.8-2.7.4-2.7,0-2.3-1.5a2.06,2.06,0,0,0-1.2-1.9c-3.4-1.5-4.2-18.4,0-20,14.9-5.8,25.7-10,26.4-16.5,4.6,6.1-6.1,11.5-6.5,11.5.8,2.7,2.7,7.3,2.3,9.6-.4,1.5.8,7.3.8,7.3,1.5,3.5,1.5,15.7,0,17.3a8.22,8.22,0,0,0-1.1,2.3c-1.2,1.5-3.8,3.8-4.2,6.9-.4,1.9,9.2,0,8.8-2.7,0-.8-.8-1.9,0-2.7.4-.8,1.2-.4,1.9-.8a3.37,3.37,0,0,0,1.2-3.1c-1.5-4.2-1.9-12.7-.8-16.5a34.13,34.13,0,0,0,.4-9.2c0-1.5,2.7-12.7,2.7-13.1a50.16,50.16,0,0,0,13.4,1.5V88.3Z" transform="translate(-0.09)" fill="#fff"/><path d="M107,97.9c-4.2-6.9-5.7-10-6.1-11.9-5.7-3.8-11.9-5.4-13.4-5.4-1.1,1.9-4.2,7.7-4.2,7.7v14.2C91.3,101.4,99.3,94.5,107,97.9Z" transform="translate(-0.09)" fill="#fff"/><path d="M134.6,97.5a40.76,40.76,0,0,0,8.4,1.1c2.3-21.9-3.5-26.5-11.1-29.2A21.08,21.08,0,0,1,134.6,97.5ZM12.7,58c-.4-.4-.4-1.9.8-3.5H11.2v-.4l-.8-5.8,5-.8a4.69,4.69,0,0,0-.4-1.9c-3.8,0-8,1.5-8.8,1.5-.8,5,1.5,6.5,1.5,6.5,1.9,1.9,3.1,8.4,3.5,8.8,1.1.8,3.8.4,5,.4C11.2,62.6,12.7,58,12.7,58Zm24.9-4.3c-.8.8-3.8,1.5-5.4,3.1,1.2,3.1-6.9,13.8-6.9,21.1v.4a69.64,69.64,0,0,1,11.5-9.6C38.4,64.5,39.1,56.8,37.6,53.7ZM11.5,67.2a2.52,2.52,0,0,0,.4,1.1c.8,2.7.8,3.8,3.4,3.8.4,0,5.7.4,5.4-3.1,0-.4,1.5-1.2,1.2-1.9,0-1.2-.4-.8-.4-.8C19.6,66.8,13.4,67.6,11.5,67.2ZM8.8,41.1C6.9,42.3,6.1,43,6.1,43.8c.4,0,1.5-.4,3.1-.8.8,0,1.5-.4,2.3-.4s1.9-.4,2.7-.4c-2.3-3.5-6.5-9.6-6.5-9.6v1.9A9.76,9.76,0,0,0,8.8,41.1ZM36.4,96.4c-1.9-4.2-3.8-8.4.4-23.8-3.4,2.7-9.2,8.1-10.7,10.8-1.5,4.6,3.1,8.8,3.4,11.1.4,3.5-18,8.8-18.8,9.2A5.37,5.37,0,0,0,8,107.9c0,1.5-3.8,11.9-3.8,12.7-.4,1.2-1.5,8.1-1.5,8.1a91,91,0,0,1,.4,9.2c8.4-1.9,5.4-8.4,5-8.4,0-.4.4-.4.8-.8a4.25,4.25,0,0,0,.4-3.1c-1.2-1.5-.8-2.3-.8-2.3,1.5-6.1,5-14.2,7.3-15.4.4-.4,8.8-1.5,11.5-1.9C28,104,36.8,96.8,36.4,96.4Zm64.4,18.4c-1.9-1.9-6.1-8.1-5.7-12.3a62.24,62.24,0,0,0-6.1,2.3c.4,5.4,5.7,7.7,5.7,11.9,0,2.3-6.1,6.9-8,8.8-3.8,3.1-3.1,5-3.1,5,1.2,2.7-1.5,8.1.4,11.5,0,.4.4.4.8.4,2.3,0,5.7-5,5.7-6.5,0-.4-3.8-3.8-2.3-3.8,2.3-.4,1.9-1.5,1.9-3.1,0-3.1,11.9-10,11.9-10.7A17.22,17.22,0,0,0,100.8,114.8Zm-58.6-4.2c.8,4.2,4.2,7.7,5,9.2,1.5,4.2,1.9,10.4,2.3,11.5.4,4.6-1.9,8.8-4.2,9.2-1.1.4-4.2,4.2-4.2,5,1.1,1.9,8,.8,8,.8,1.2-.4,1.5-3.1,1.5-3.1-1.2-3.1,1.5-3.5,1.9-3.5,2.7,0,1.9-3.8,1.9-3.8-.8-1.5-2.3-13.1-1.2-17.7.8-3.1-.8-9.6-1.1-11.9C49.5,107.5,47.2,108.7,42.2,110.6Z" transform="translate(-0.09)" fill="#fff"/><path d="M128.4,66.4a18.75,18.75,0,0,0,1.5,1.2c20.3.4,18,26.1,18,27.6L159.8,91C148.4,56.8,134.2,62.6,128.4,66.4Zm4.6,69.1c-.4-1.5-4.2-10.7-3.1-17.7a46.72,46.72,0,0,1-5.7-3.5,43,43,0,0,1-9.6-6.9,8.46,8.46,0,0,0-1.2,5c9.2,3.8,14.6,12.3,14.2,23.4,0,2.3-3.8,6.9-3.8,6.9-2.3,3.1-2.3,4.2-2.3,4.2a23.09,23.09,0,0,0,8.8-.4,3.19,3.19,0,0,0,0-2.7,2.22,2.22,0,0,1,.4-3.8C132.3,139,133.4,137.5,133,135.5ZM33.8,36.1c1.1-2.7.8-4.6.4-5-1.1-.8-5.7-3.5-7.3-5-.4,0,.4,3.5.8,4.2a4,4,0,0,0,1.9,2.3,23.53,23.53,0,0,0-3.1,1.9C27.2,34.6,30.7,33.4,33.8,36.1ZM23,55.3c1.2-.8,5.4-6.1,5.7-7.7l-3.4-1.9v-.4a67.68,67.68,0,0,1,3.4-6.1h.4l3.8,1.9L34,38.8c-1.9-1.9-6.5-2.3-8.4-2.3-1.2,1.9-3.1,5.4-3.1,7.3-.4,2.7-3.4,8.4-3.4,8.4Zm-6.5-.8c-.4-.4-.8.8-.8,1.5-.4.8.4.8.4,1.1a4.72,4.72,0,0,0,1.2,3.8,4.55,4.55,0,0,0,3.4,1.2,4.11,4.11,0,0,0,2.7-1.5c.4-.4.8.4,1.2,0s.4-.8,0-.8A18.85,18.85,0,0,1,16.5,54.5Zm45.6-3.1c.8,2.7,3.4,10.7,10.7,11.9l.4-.8c-8-6.9-3.8-35.3-28.7-37.6-8-.8-10.4,1.5-10.4,1.9,0,0,1.2,1.5,2.3,1.5C53.3,27.6,57.5,39.5,62.1,51.4Z" transform="translate(-0.09)" fill="#fff"/><path d="M54.8,44.2c-2.3-5.4-8.4-11.9-16.1-13.1.8,11.5-11.9,25-10.7,24.2,3.1-2.3,5-2.3,7.3-3.8A25,25,0,0,0,38.7,48c6.9,6.9.8,29.9,0,33,13-6.1,24.9-16.5,26.4-17.7C60.2,60.3,57.1,49.5,54.8,44.2Zm-50.9-2a10.09,10.09,0,0,1,2.7-3.1C5.4,38.3,2,36.8.5,36.8S1.9,40.3,3.9,42.2Zm269-3.4H245.7v64.9a47.94,47.94,0,0,0,13.8,1.9s8.8,0,13.4-1.9V38.8Zm-8.8,39.5c0,1.2-.4,1.5-.4,1.5H256a4,4,0,0,1-.4-1.5V77.1H264v1.2Zm5-4.2H249.6V42.6h19.5ZM230.4,53l.8-11.5H227l.8,11.5Z" transform="translate(-0.09)" fill="#fff"/><path d="M200.9,43l-1.5,6.9-9.6.8v4.6h8.8v.4s-5.7.8-6.9,1.1V58c-2.7.4-13,1.9-13.8,3.8s-5,10-5.4,11.5a13.37,13.37,0,0,1-3.8,4.6c-1.2.8-3.8,0-5-1.2-.4-.4-1.5-1.5-1.9-1.1s-.8.8-.8,1.1c-1.2-.8-1.9-1.9-3.1-2.7a2,2,0,0,0-1.2.4.55.55,0,0,0,0,.8l6.5,6.5c5.4,5.8,11.9,12.7,19.2,14.2-7.3,2.7-15.7,5.8-27.2,5.8-16.5-.4-31.8-5-49.1-15,8,23.4,30.7,26.5,33.3,34.6,1.5,5,1.5,13.1.8,16.1-.4,1.9-6.9,8.1-5.7,10,.4.8,4.6,1.2,6.1.8.8,0,1.2,0,1.5-.4s.8-2.3.4-2.7c0-.4-.8-.8-.8-.8-.8-1.2.8-2.3,1.5-2.3a2.3,2.3,0,0,0,2.3-2.7c-1.2-3.1-1.5-20.7-1.5-20.7.4-2.3,0-5-2.3-5.8-5.4-1.5-9.6-9.2-10-11.5a80.9,80.9,0,0,0,23.4,3.5c19.9,0,30.3-9.6,48.3-9.6,14.2,0,20.7,6.1,24.1,8.1a71,71,0,0,0,27.2,8.4l-.4,7.7c0,.4,0,.8-.4.8h-8v1.9l1.2,1.5h26.1c.4,0,1.2-1.5,1.2-1.5a1.4,1.4,0,0,0,.4-.8v-1.2H266c-.4,0-.4-.4-.4-.8l-.4-7.7c11.9-.8,19.5-4.6,19.9-5a52.5,52.5,0,0,1,8.8-17.7c3.8-5,11.9-15,30.7-15s.8,0,.8-1.2-.8-1.2-.8-1.2c-3.8,0-10.7.8-14.6,1.2h-3.4a4.59,4.59,0,0,1-3.4-4.6v-20h3.4l.4,8.4h1.2a2.41,2.41,0,0,1,2.3,1.9l.4,2.7h1.2l.4-2.7a2.41,2.41,0,0,1,2.3-1.9H316l1.5-19.6h-3.1a1.86,1.86,0,0,1-1.9-1.9,1.18,1.18,0,0,0-1.2-1.2c-.8,0-1.2,1.2-1.2,1.2a1.86,1.86,0,0,1-1.9,1.9h-3.1l.8,8.4h-3.1V33.4H304a1.4,1.4,0,0,0,.4-.8v-.8s-16.9-3.1-44.8-3.1c-27.2,0-44.5,3.5-44.5,3.5V33a1.4,1.4,0,0,0,.4.8h1.2V68c0,.4,0,5.4-1.2,6.9-.4.4-.4.4-.8.4-.8,0-.8-.4-.8-.8a51.15,51.15,0,0,1-2.7-6.5h1.9a1,1,0,0,0,0-1.6h-8.4c6.5-1.2,7.3-4.6,7.3-7.7.4-13.8-.4-17.7-1.1-21.9a28.68,28.68,0,0,0-1.5-3.8l-7.7,9.2Zm113.4-1.2-1.2,13.1h-4.6l-.8-13.1Zm-130.7,50c-.4.4-1.9.8-1.9,1.2a1.47,1.47,0,0,0,.4,1.2c-4.2-.8-8.4-3.8-12.6-7.7.4-.4,10-11.1,10.3-11.9,1.2,1.9,4.6,6.1,5.4,7.3C189.4,88.7,186.3,90.6,183.6,91.8Zm11.1-3.1c-.8-1.9-3.1-10-3.4-11.5-.8-1.9-3.1-6.9-3.8-7.3-.4,0-1.2.8-1.2.8s-2.7-1.9-1.5-3.8c1.5-1.9,9.6-.8,11.1-.8V81.8A13.48,13.48,0,0,1,194.7,88.7ZM226.6,38a1.47,1.47,0,0,0,1.5-1.5.8.8,0,1,1,1.6,0s0,1.5,1.9,1.5h2.3l-1.5,17.3h-.8a2.41,2.41,0,0,0-2.3,1.9l-.4,1.9h-1.2l-.4-1.9a2.41,2.41,0,0,0-2.3-1.9h-.8L222.7,38Zm35.2,81.8c0,.4,0,.8-.4.8h-5c-.4,0-.4-.4-.4-.8l-.4-7.7a17.72,17.72,0,0,0,6.5,0Zm20-15a57.33,57.33,0,0,1-22.6,4.6c-6.1,0-11.9-.4-17.3-2.3-5-1.5-23.8-9.2-23.8-31.1V73.7h23.4V34.9H276V73.3h23l3.5,2.7C286.4,86.4,281.8,104.8,281.8,104.8ZM186.7,51.1h0Z" transform="translate(-0.09)" fill="#fff"/><path d="M188.6,39.2c-3.1-3.8-9.2-6.9-17.2-10.4l-6.1-10v-.4C154.5,1.2,145.7,0,143.4,0H143a5,5,0,0,0-4.6,2.7c-1.2,2.7-.4,6.5,2.3,10.7,4.2,6.1,14.9,10.4,25.3,14.6a19.61,19.61,0,0,0,4.2,1.5l13,20.7h-.4c-.8,0-2.3,0-1.9.8.4,1.2,1.5,0,1.9,1.5.8,2.3,5.4,1.9,5.4,1.9l-1.5-4.2h-1.2L173.2,30.6c6.5,2.7,12.3,5,14.9,8.4l.4.4c.4,0,.4,0,.4-.4C189,39.5,189,39.5,188.6,39.2ZM166.4,26.9c-10-4.2-20.3-8.4-24.1-13.8-2.3-3.5-3.4-6.9-2.3-8.8.4-1.1,1.5-1.5,3.1-1.5h.4c4.2,0,12.3,4.6,20.3,17.7l5,7.7A7.18,7.18,0,0,0,166.4,26.9ZM18.4,46.1Zm7.3-15c-9.2-.4-13.4,4.2-13.4,4.2s3.1,3.5,3.8,4.6c1.9,2.7,1.5,5.4,1.5,7.3,1.9-2.7,1.2-7.3,4.2-12.3A8.28,8.28,0,0,1,26,31.8C25.7,31.5,25.7,31.5,25.7,31.1ZM201.6,41.8l.8-5,.8-.8-.4-2.3,5.4-2.3c-.4-.8-.4-.8.4-1.5l2.7-2.7c.8-3.5-4.2-5.8-7.3-5-1.1,0-3.8.4-5.4,0h-1.2l-.4.8c0,.4,2.3,2.7,3.1,3.8.8.8-1.9,3.1-.8,3.5,0,0,.8,0,.8.4v1.2l.4.4c0,.4,0,1.5.4,1.9a7.87,7.87,0,0,0,2.3.8v.4l-.8.4c-.4,0-1.2.8-.4,1.2l.8.8a2.64,2.64,0,0,0-1.2,2.3,7.86,7.86,0,0,0,.8,3.5Zm.8,58.4a25.7,25.7,0,0,0-.6,51.4h.6a25.7,25.7,0,0,0,0-51.4Zm1.9,21.5-.4.4-.4-18a22,22,0,0,1,13.4,5.8Zm-.4,8.1v-.4l13,12.7a19.52,19.52,0,0,1-13.4,5.4Zm20.4-5-18-.4,12.6-13.1A20.43,20.43,0,0,1,224.3,124.8Zm-5.8,15.3L206.2,127l18-.4a24.17,24.17,0,0,1-3.8,11.1A7.21,7.21,0,0,1,218.5,140.1ZM199,124l-18,.4a24.29,24.29,0,0,1,1.5-7.3,21.52,21.52,0,0,1,3.8-6.1l11.9,12.3Zm1.9,5.4.4,18a22.35,22.35,0,0,1-13.4-5.8Zm.4-7.3v.4l-13-12.7a19.52,19.52,0,0,1,13.4-5.4Zm-2.3,5-12.7,13.1a21.66,21.66,0,0,1-5.7-13.4ZM324.3,79.5a36,36,0,0,0-35.6,36.1,36.1,36.1,0,0,0,10,25l1.2,1.2.4.4a36.63,36.63,0,0,0,24.5,9.6,36,36,0,0,0,36-36v-.1C360.3,95.6,344.2,79.5,324.3,79.5Zm21.8,12.3L326.6,111l-.4.4V111l-.4-27.6A31.56,31.56,0,0,1,346.1,91.8Zm-20.3,28.8s0-.4.4,0l19.5,19.2a32.69,32.69,0,0,1-20.3,8.4C325.8,147.8,325.8,120.6,325.8,120.6Zm3.1-6.6,19.2-20a34.51,34.51,0,0,1,8.4,20.3Zm0,3.9,27.6-.4a33,33,0,0,1-8.4,20.3Zm-6.1-6.9s0,.8-.4.4L302.9,92.2a30.6,30.6,0,0,1,20.3-8.4Zm-.8,9.2a.39.39,0,0,1,.4.4l.4,27.3a34.62,34.62,0,0,1-20.3-8.4Zm-2.7-6.9.4.4c.4.4-.4.4-.4.4l-27.2.4c.4-7.7,3.1-15,8.4-20.3Zm-26.8,3.8,27.2.4c.4,0,.4,0,.4.4v.4l-19.2,19.6a32.21,32.21,0,0,1-8.4-20Z" transform="translate(-0.09)" fill="#fff"/></g></svg>