<svg width="89" height="60" viewBox="0 0 89 60" fill="none" xmlns="http://www.w3.org/2000/svg">
<path d="M75.7301 6.76798C74.9986 6.40277 72.8027 4.93846 69.1442 3.47587C65.1205 2.01271 58.7189 0 50.4866 0C37.3158 0 25.061 2.56111 16.0971 7.13435C5.48858 12.438 0 20.4871 0 29.9994C0 49.755 18.4762 60 53.5955 60C62.193 60 69.6926 57.8041 75.9122 53.4123L86.5224 59.0852H88.5334V36.4022H86.5224L86.3392 36.5854V36.7674C86.3392 36.9506 84.5097 42.0722 79.7544 47.1945C75.3643 51.9497 67.3147 57.6215 54.1456 57.6215C45.3649 57.6215 38.2306 54.3277 33.4753 48.2924C29.8162 43.5354 27.6221 36.9506 27.6221 30.3664C27.6221 12.6218 41.3412 3.11124 54.1456 3.11124C62.9246 3.11124 70.7905 5.8538 77.0107 11.1592C82.3155 15.5493 85.2418 20.6726 86.3398 24.1468V24.33H88.534V1.09795H86.523L75.7301 6.76798Z" fill="white"/>
</svg>
