<svg width="252" height="28" viewBox="0 0 252 28" fill="none" xmlns="http://www.w3.org/2000/svg">
<path d="M92.4525 4.59429C87.3838 1.70105 80.6814 0.0839844 73.5501 0.0839844C66.3329 0.0839844 59.631 1.70105 54.6476 4.59429C50.9531 6.80748 48.8047 10.2123 48.8047 14.0414C48.8047 17.8706 50.9531 21.2754 54.6476 23.488C59.7175 26.3818 66.4188 27.9989 73.5501 27.9989C80.7672 27.9989 87.4696 26.3818 92.4525 23.488C96.147 21.2754 98.2949 17.8711 98.2949 14.0414C98.2949 10.2118 96.1476 6.80748 92.4525 4.59429ZM73.4642 26.7233C68.9108 26.7233 61.2641 24.0836 61.2641 14.042C61.2641 5.27606 67.3641 1.3613 73.4642 1.3613C81.6267 1.3613 86.4384 6.12742 86.4384 14.042C86.5243 22.5522 82.228 26.7233 73.4642 26.7233Z" fill="black"/>
<path d="M251.318 1.78847V0.511719H230.697V1.78847H235.079V12.767H217.808V1.78847H222.276V0.511719H201.57V1.78847H206.037V26.3842H201.57V27.6609H222.276V26.3842H217.808V14.0438H235.079V26.3842H230.697V27.6609H251.318V26.3842H246.85V1.78847H251.318Z" fill="black"/>
<path d="M123.467 0.0839844H122.78L101.128 26.3824H96.1445V27.6592H108.603V26.3824H102.76L108.001 20.0849H127.419L133.262 26.4681H127.592V27.7448H153.453V26.383H147.697L123.467 0.0839844ZM109.032 18.7225L117.023 8.93502L126.216 18.7225H109.032Z" fill="black"/>
<path d="M35.5717 3.14905C35.2282 2.97946 34.1969 2.29769 32.4779 1.61706C30.5877 0.936433 27.5809 0 23.7141 0C17.5276 0 11.7712 1.19167 7.56075 3.31921C2.57789 5.78649 0 9.53166 0 13.9575C0 23.1494 8.67849 27.9155 25.1743 27.9155C29.2123 27.9155 32.735 26.894 35.6565 24.8504L40.6399 27.4901H41.5847V16.9364H40.6399L40.554 17.0214V17.1059C40.554 17.191 39.6945 19.5744 37.4613 21.9571C35.3994 24.1698 31.6184 26.8083 25.4325 26.8083C21.308 26.8083 17.9571 25.2758 15.7233 22.4682C14.0049 20.255 12.9742 17.1916 12.9742 14.1276C12.9742 5.87158 19.4184 1.44691 25.4325 1.44691C29.5564 1.44691 33.2509 2.72309 36.1724 5.19094C38.6644 7.2334 40.0387 9.61731 40.554 11.2338V11.3189H41.5847V0.509907H40.6399L35.5717 3.14905Z" fill="black"/>
<path d="M188.078 3.14905C187.735 2.97946 186.704 2.29769 184.986 1.61706C183.096 0.936433 180.088 0 176.222 0C170.035 0 164.279 1.19167 160.069 3.31921C155.085 5.78649 152.508 9.53166 152.508 13.9575C152.508 23.1494 161.186 27.9155 177.682 27.9155C181.72 27.9155 185.243 26.894 188.164 24.8504L193.148 27.4901H194.093V16.9364H193.148L193.062 17.0214V17.1059C193.062 17.191 192.202 19.5744 189.968 21.9571C187.906 24.1698 184.126 26.8083 177.94 26.8083C173.815 26.8083 170.464 25.2758 168.231 22.4682C166.512 20.255 165.481 17.1916 165.481 14.1276C165.481 5.87158 171.925 1.44691 177.94 1.44691C182.063 1.44691 185.758 2.72309 188.679 5.19094C191.171 7.2334 192.546 9.61731 193.062 11.2338V11.3189H194.093V0.509907H193.148L188.078 3.14905Z" fill="black"/>
</svg>
