<svg width="24" height="24" viewBox="0 0 24 24" fill="none" xmlns="http://www.w3.org/2000/svg">
<path fill-rule="evenodd" clip-rule="evenodd" d="M22.6667 10.6667H13.3333V1.33333C13.3333 0.533333 12.8 0 12 0C11.2 0 10.6667 0.533333 10.6667 1.33333V10.6667H1.33333C0.533333 10.6667 0 11.2 0 12C0 12.8 0.533333 13.3333 1.33333 13.3333H10.6667V22.6667C10.6667 23.4667 11.2 24 12 24C12.8 24 13.3333 23.4667 13.3333 22.6667V13.3333H22.6667C23.4667 13.3333 24 12.8 24 12C24 11.2 23.4667 10.6667 22.6667 10.6667Z" fill="#060707"/>
</svg>
