<svg xmlns="http://www.w3.org/2000/svg" viewBox="0 0 325.63 199.46"><path d="M316.5,9.42,275.36,154.29,222.13,9.42h-9.47v0L171.15,154,120.68,9.42a288.41,288.41,0,0,0-54.3-4.86h-.62C24,4.55,3.21,33.21,3.21,56.12c0,28.25,17.91,45.07,53.49,55.66,31.11,9.18,45.64,21.68,45.64,41,0,22.49-17.37,38.76-43.33,38.76-30.94,0-51.7-22.75-55.78-27v19.77C14,194.09,36.06,204,59.06,204,95,204,124,180.49,124,150.55c0-18.05-4.88-46.29-59.52-61.78-26-7.37-41.6-19.4-41.6-36,0-22.06,15.26-36.41,42.67-36.41,16.76,0,30.54.37,37.74,15.35l58.56,168.62h8.42L212.62,52.65,267,200.28h8.43L328.84,9.42Z" transform="translate(-3.21 -4.54)" fill="#231f20"/></svg>