<svg width="200" height="69" viewBox="0 0 200 69" fill="none" xmlns="http://www.w3.org/2000/svg">
<path d="M41.5823 12.2458C37.4236 11.123 35.2898 9.38108 35.2898 6.88256C35.2898 3.39273 37.6251 1.30894 41.536 1.30894C44.7417 1.30894 47.0749 3.63954 47.766 4.47913C47.766 3.83376 47.766 2.55112 47.766 2.04332C47.4275 1.79651 45.0781 0 41.5682 0C35.719 0 33.0896 4.23838 33.0896 7.24874C33.0896 10.947 35.4792 13.4394 40.3935 14.8697C45.1527 16.2556 47.2764 18.0945 47.2764 20.8358C47.2764 24.2488 44.6308 26.634 40.8429 26.634C36.5229 26.634 33.6275 23.4517 33.0352 22.8347C33.0352 23.4173 33.0352 24.5725 33.0352 25.2644C34.3932 26.5308 37.476 28.036 40.8489 28.036C45.6 28.036 49.6399 24.706 49.6399 20.6234C49.6399 17.9307 48.713 14.1697 41.5823 12.2458Z" fill="#231F20"/>
<path d="M148.617 0.6875V2.05916H156.481V27.5157H159.187V2.05916H166.967V0.6875H148.617Z" fill="#231F20"/>
<path d="M52.2734 2.05511H60.1376V27.5157H62.8415V2.05511H70.621V0.6875H52.2734V2.05511Z" fill="#231F20"/>
<path d="M138.577 15.0555C140.741 14.4648 144.059 12.4417 144.059 8.02121C144.059 6.30158 143.495 0.6875 136.231 0.6875H128.176V27.5157H130.89V15.4682H135.885L143.066 27.5157H146.008L138.577 15.0555ZM130.89 14.0864V2.04904L136.411 2.06118C139.326 2.06118 141.208 4.53138 141.208 8.35098C141.208 10.3518 139.512 14.0844 136.266 14.0844H130.89V14.0864Z" fill="#231F20"/>
<path d="M93.0224 18.1913C93.0224 23.7164 90.5683 26.5184 85.7285 26.5184C84.1811 26.5184 79.1298 25.9236 79.1298 18.2662V0.6875H76.4258V18.5555C76.4258 20.793 77.0967 28.0943 85.7446 28.0943C92.9036 28.0943 94.4067 22.9071 94.4067 18.5555V0.6875H93.0224V18.1913Z" fill="#231F20"/>
<path d="M110.492 0.179688H109.577L98.7852 27.5137H100.236L103.923 18.2236H115.702L119.768 27.5137H122.617L110.492 0.179688ZM104.473 16.8358L109.522 4.10853L115.094 16.8358H104.473Z" fill="#231F20"/>
<path d="M198.607 41.2908V63.7775L182.009 40.7891H181.094V68.119H182.486L182.484 45.8043L198.893 68.5257H199.999V41.2908H198.607Z" fill="#231F20"/>
<path d="M38.8672 68.1212H53.1024V66.7212H41.5752L41.5732 54.524H51.9619V53.1362H41.5732V42.6545H53.1024V41.293H38.8672V68.1212Z" fill="#231F20"/>
<path d="M25.2143 63.0756L17.5839 40.7852L16.5261 40.7872L10.3223 63.1909L2.82286 41.2909H0L9.28058 68.544H10.2296L16.4858 45.9299L24.2391 68.544H25.1841L32.6593 41.2909H31.2811L25.2143 63.0756Z" fill="#231F20"/>
<path d="M71.0859 42.6646H78.948V68.1212H81.654V42.6646H89.4335V41.293H71.0859V42.6646Z" fill="#231F20"/>
<path d="M63.788 41.293H61.082V68.1212H63.788V41.293Z" fill="#231F20"/>
<path d="M95.7388 41.293V42.6626H108.856L92.918 68.1212H112.404V66.7233H96.9135L112.835 41.293H95.7388Z" fill="#231F20"/>
<path d="M162.01 40.7891L151.219 68.1231H152.669L156.357 58.833H168.136L172.202 68.1231H175.051L162.927 40.7891H162.01ZM156.909 57.4432L161.96 44.7159L167.529 57.4432H156.909Z" fill="#231F20"/>
<path d="M133.096 64.4879L120.267 40.7812H119.324V68.1213H120.708V47.0913L132.179 68.1274H132.85L142.54 47.2208V68.1213H145.226V40.7812H144.039L133.096 64.4879Z" fill="#231F20"/>
</svg>
