<svg width="24" height="24" viewBox="0 0 24 24" fill="none" xmlns="http://www.w3.org/2000/svg">
<path fill-rule="evenodd" clip-rule="evenodd" d="M7.24528 2.71698H2.71698V7.24528C2.71698 7.99556 2.10876 8.60377 1.35849 8.60377C0.608217 8.60377 0 7.99556 0 7.24528V1.35849C0 0.608217 0.608217 0 1.35849 0H7.24528C7.99556 0 8.60377 0.608217 8.60377 1.35849C8.60377 2.10876 7.99556 2.71698 7.24528 2.71698ZM7.24528 21.283H2.71698V16.7547C2.71698 16.0044 2.10876 15.3962 1.35849 15.3962C0.608217 15.3962 0 16.0044 0 16.7547V22.6415C0 23.3918 0.608217 24 1.35849 24H7.24528C7.99556 24 8.60377 23.3918 8.60377 22.6415C8.60377 21.8912 7.99556 21.283 7.24528 21.283ZM21.283 2.71698H16.7547C16.0044 2.71698 15.3962 2.10876 15.3962 1.35849C15.3962 0.608217 16.0044 0 16.7547 0H22.6415C23.3918 0 24 0.608217 24 1.35849V7.24528C24 7.99556 23.3918 8.60377 22.6415 8.60377C21.8912 8.60377 21.283 7.99556 21.283 7.24528V2.71698ZM16.7547 21.283H21.283V16.7547C21.283 16.0044 21.8912 15.3962 22.6415 15.3962C23.3918 15.3962 24 16.0044 24 16.7547V22.6415C24 23.3918 23.3918 24 22.6415 24H16.7547C16.0044 24 15.3962 23.3918 15.3962 22.6415C15.3962 21.8912 16.0044 21.283 16.7547 21.283Z" fill="white"/>
</svg>
