<svg width="24" height="24" viewBox="0 0 24 24" fill="none" xmlns="http://www.w3.org/2000/svg">
<path fill-rule="evenodd" clip-rule="evenodd" d="M14.4001 2.34783C14.4001 3.64449 13.3256 4.69565 12.0001 4.69565C10.6746 4.69565 9.6001 3.64449 9.6001 2.34783C9.6001 1.05116 10.6746 0 12.0001 0C13.3256 0 14.4001 1.05116 14.4001 2.34783ZM14.4001 12C14.4001 13.2966 13.3256 14.3478 12.0001 14.3478C10.6746 14.3478 9.6001 13.2966 9.6001 12C9.6001 10.7033 10.6746 9.65215 12.0001 9.65215C13.3256 9.65215 14.4001 10.7033 14.4001 12ZM12.0001 24C13.3256 24 14.4001 22.9489 14.4001 21.6522C14.4001 20.3555 13.3256 19.3044 12.0001 19.3044C10.6746 19.3044 9.6001 20.3555 9.6001 21.6522C9.6001 22.9489 10.6746 24 12.0001 24Z" fill="white"/>
</svg>
