<svg width="16" height="16" viewBox="0 0 16 16" fill="none" xmlns="http://www.w3.org/2000/svg">
<g id="Info/filled">
<path id="icon" fill-rule="evenodd" clip-rule="evenodd" d="M8 16C12.4183 16 16 12.4183 16 8C16 3.58172 12.4183 0 8 0C3.58172 0 0 3.58172 0 8C0 12.4183 3.58172 16 8 16ZM8.69397 5.86413C8.98491 5.86413 9.23366 5.77355 9.44019 5.59238C9.64673 5.41122 9.75 5.19196 9.75 4.9346C9.75 4.67725 9.64673 4.45714 9.44019 4.27429C9.23366 4.09143 8.98491 4 8.69397 4C8.40302 4 8.15338 4.09143 7.94504 4.27429C7.73671 4.45714 7.63254 4.67725 7.63254 4.9346C7.63254 5.19196 7.73671 5.41122 7.94504 5.59238C8.15338 5.77355 8.40302 5.86413 8.69397 5.86413ZM7.92888 12C8.20905 12 8.4551 11.9653 8.66703 11.8959C8.87895 11.8265 9.16272 11.7257 9.51832 11.5937L9.63685 11.1365C9.57579 11.1636 9.47701 11.1949 9.34052 11.2305C9.20402 11.266 9.0819 11.2838 8.97414 11.2838C8.74425 11.2838 8.58261 11.2483 8.48922 11.1771C8.39583 11.106 8.34914 10.9723 8.34914 10.7759C8.34914 10.698 8.36351 10.5829 8.39224 10.4305C8.42098 10.2781 8.4533 10.1426 8.48922 10.0241L8.93103 8.54603C8.97414 8.41058 9.00377 8.26159 9.01994 8.09905C9.0361 7.93651 9.04418 7.82307 9.04418 7.75873C9.04418 7.4472 8.92834 7.19407 8.69666 6.99936C8.46498 6.80466 8.13542 6.7073 7.70797 6.7073C7.47091 6.7073 7.21947 6.74709 6.95366 6.82667C6.68786 6.90624 6.40948 7.0019 6.11853 7.11365L6 7.57079C6.08621 7.54032 6.18948 7.50815 6.30981 7.47429C6.43014 7.44042 6.54777 7.42349 6.66272 7.42349C6.89619 7.42349 7.05424 7.46074 7.13685 7.53524C7.21947 7.60974 7.26078 7.7418 7.26078 7.93143C7.26078 8.0364 7.24731 8.15238 7.22037 8.27937C7.19343 8.40635 7.1602 8.54095 7.12069 8.68317L6.67888 10.1663C6.63937 10.3221 6.61063 10.4618 6.59267 10.5854C6.57471 10.709 6.56573 10.8301 6.56573 10.9486C6.56573 11.2533 6.68517 11.5048 6.92403 11.7029C7.1629 11.901 7.49784 12 7.92888 12Z" fill="#575757"/>
</g>
</svg>
