<svg width="48" height="48" viewBox="0 0 48 48" fill="none" xmlns="http://www.w3.org/2000/svg">
<path d="M21.0545 39.8564C20.6181 39.5317 20.0727 39.4235 19.4181 39.4235C18.7636 39.4235 18.2181 39.5317 17.7818 39.8564C17.4545 40.0729 17.2363 40.3976 17.2363 40.7223C17.2363 41.047 17.4545 41.3717 17.7818 41.5882C18.2181 41.9129 18.7636 42.0211 19.4181 42.0211C20.0727 42.0211 20.6181 41.9129 21.0545 41.5882C21.3818 41.3717 21.6 41.047 21.6 40.7223C21.4909 40.3976 21.3818 40.0729 21.0545 39.8564ZM19.4181 41.9129C18.9818 41.9129 18.3272 41.6964 18.3272 40.7223C18.3272 39.8564 18.8727 39.5317 19.4181 39.5317C20.0727 39.5317 20.5091 39.9647 20.5091 40.7223C20.5091 41.48 20.1818 41.9129 19.4181 41.9129Z" fill="black"/>
<path d="M34.6908 39.5317V39.4235H32.9454V39.5317H33.2726V40.6141H31.7454V39.5317H32.1817V39.4235H30.4363V39.5317H30.7636V41.8047H30.4363V41.9129H32.1817V41.8047H31.7454V40.7223H33.2726V41.8047H32.9454V41.9129H34.6908V41.8047H34.2545V39.5317H34.6908Z" fill="black"/>
<path d="M24.1091 42.0211H26.2909V41.9129H25.8546L23.7818 39.4235L21.8182 41.9129H21.3818V42.0211H22.4727V41.9129H21.9273L22.3637 41.2635H24L24.5455 41.9129L24.1091 42.0211ZM22.4727 41.1553L23.2364 40.1811L24.1091 41.1553H22.4727Z" fill="black"/>
<path d="M15.2729 42.0211C15.6002 42.0211 15.9274 41.9129 16.1456 41.6964L16.582 41.9129H16.6911V41.047H16.582C16.582 41.047 16.4729 41.2635 16.3638 41.48C16.1456 41.6964 15.8183 41.9129 15.2729 42.0211C14.9456 41.9129 14.6183 41.8047 14.4002 41.48C14.2911 41.2635 14.182 41.047 14.182 40.7223C14.182 39.9647 14.7274 39.5317 15.2729 39.5317C15.6002 39.5317 15.9274 39.64 16.2547 39.8564C16.4729 40.0729 16.582 40.2894 16.582 40.3976H16.6911V39.4235H16.582L16.1456 39.64C16.1456 39.64 16.0365 39.5317 15.9274 39.5317C15.8183 39.4235 15.4911 39.4235 15.1638 39.4235C14.6183 39.4235 14.182 39.5317 13.7456 39.7482C13.3092 39.9647 13.0911 40.2894 13.0911 40.7223C13.0911 41.5882 13.8547 42.0211 15.2729 42.0211Z" fill="black"/>
<path d="M28.3635 39.4235C28.6907 39.4235 29.018 39.5317 29.3453 39.7482C29.5635 39.9647 29.6726 40.1812 29.6726 40.2894H29.7816V39.3153H29.6726L29.2362 39.5317C29.2362 39.5317 29.1271 39.4235 29.018 39.4235C28.9089 39.3153 28.5816 39.3153 28.2544 39.3153C27.7089 39.3153 27.2726 39.4235 26.8362 39.64C26.3998 39.8565 26.1816 40.1812 26.1816 40.6141C26.1816 41.48 26.9453 41.9129 28.3635 41.9129C28.6907 41.9129 29.018 41.8047 29.2362 41.5882L29.6726 41.8047H29.7816V40.8306H29.6726C29.6726 40.8306 29.5635 41.047 29.4544 41.2635C29.2362 41.48 28.9089 41.6965 28.3635 41.6965C28.0362 41.6965 27.7089 41.5882 27.4907 41.2635C27.3816 41.047 27.2725 40.7223 27.2725 40.5059C27.2725 39.8565 27.818 39.4235 28.3635 39.4235Z" fill="black"/>
<path d="M14.1817 23.1882C14.509 23.1882 14.7271 22.9718 14.7271 22.6471V11.2824C14.7271 6.19529 18.8726 2.08235 23.9999 2.08235C29.1271 2.08235 33.2726 6.19529 33.2726 11.2824V22.6471C33.2726 22.9718 33.4908 23.1882 33.818 23.1882C34.1453 23.1882 34.3635 22.9718 34.3635 22.6471V11.2824C34.2544 5.54588 29.6726 1 23.9999 1C18.3271 1 13.6362 5.54588 13.6362 11.2824V22.6471C13.6362 22.9718 13.8544 23.1882 14.1817 23.1882Z" fill="black"/>
<path d="M31.6365 14.5293H16.3638V15.6117H31.6365V14.5293Z" fill="black"/>
<path d="M36 14.5293V15.6117H46.9091V45.9176H1.09091V15.6117H12V14.5293H0V45.9176C0 46.567 0.436364 46.9999 1.09091 46.9999H46.9091C47.5636 46.9999 48 46.567 48 45.9176V14.5293H36Z" fill="black"/>
</svg>
