<svg width="48" height="48" viewBox="0 0 48 48" fill="none" xmlns="http://www.w3.org/2000/svg">
<path fill-rule="evenodd" clip-rule="evenodd" d="M47.9948 11.1283C47.8704 8.28093 45.5307 6 42.6655 6H5.33446L5.09695 6.00524C2.26224 6.13064 0 8.48934 0 11.3668V37.6332L0.00520002 37.8717C0.129566 40.7195 2.46906 43 5.33446 43H42.6655L42.9031 42.9948C45.738 42.8694 48 40.5111 48 37.6332V11.3668L47.9948 11.1283ZM4.86793 7.6323H43.1323L43.3215 7.6379C45.0122 7.73827 46.3638 9.17473 46.3638 10.929V38.0709L46.3582 38.2645C46.2595 39.9942 44.847 41.3676 43.1323 41.3676H4.86793L4.67871 41.362C2.98779 41.2617 1.63647 39.8256 1.63647 38.0709V10.929L1.64199 10.7355C1.74071 9.00611 3.15351 7.6323 4.86793 7.6323Z" fill="black"/>
<path fill-rule="evenodd" clip-rule="evenodd" d="M24.7229 33.0227C18.4221 33.0227 13.2944 27.9089 13.2944 21.6236H15.3422C15.3422 26.7834 19.5497 30.9813 24.7229 30.9813C29.8954 30.9813 34.1029 26.7834 34.1029 21.6236H36.15C36.15 27.9089 31.023 33.0227 24.7229 33.0227Z" fill="#231F20"/>
<path fill-rule="evenodd" clip-rule="evenodd" d="M35.0675 11.8066C33.3333 11.8066 31.9231 13.2134 31.9231 14.9427C31.9231 16.6727 33.3333 18.0795 35.0675 18.0795C36.8011 18.0795 38.2113 16.6727 38.2113 14.9427C38.2113 13.2134 36.8011 11.8066 35.0675 11.8066ZM35.0676 13.4492C35.8949 13.4492 36.5648 14.1181 36.5648 14.9427C36.5648 15.7679 35.8949 16.4368 35.0676 16.4368C34.2403 16.4368 33.5698 15.7679 33.5698 14.9427C33.5698 14.1181 34.2403 13.4492 35.0676 13.4492Z" fill="black"/>
<path fill-rule="evenodd" clip-rule="evenodd" d="M13.9799 11.8066C12.2463 11.8066 10.8354 13.2134 10.8354 14.9427C10.8354 16.6727 12.2463 18.0795 13.9799 18.0795C15.7135 18.0795 17.1237 16.6727 17.1237 14.9427C17.1237 13.2134 15.7135 11.8066 13.9799 11.8066ZM13.9797 13.4492C14.807 13.4492 15.4769 14.1181 15.4769 14.9427C15.4769 15.7679 14.807 16.4368 13.9797 16.4368C13.1525 16.4368 12.4819 15.7679 12.4819 14.9427C12.4819 14.1181 13.1525 13.4492 13.9797 13.4492Z" fill="black"/>
</svg>
