<svg width="16" height="16" viewBox="0 0 16 16" fill="none" xmlns="http://www.w3.org/2000/svg">
<path fill-rule="evenodd" clip-rule="evenodd" d="M8 0C12.4183 0 16 3.58172 16 8C16 12.4183 12.4183 16 8 16C3.58172 16 0 12.4183 0 8C0 3.58172 3.58172 0 8 0ZM8 1C4.13401 1 1 4.13401 1 8C1 11.866 4.13401 15 8 15C11.866 15 15 11.866 15 8C15 4.13401 11.866 1 8 1Z" fill="#DD191F"/>
<path fill-rule="evenodd" clip-rule="evenodd" d="M8.836 10.048V4H7.228V10.048H8.836ZM8.032 12.664C8.608 12.664 9.064 12.232 9.064 11.632C9.064 11.032 8.596 10.6 8.032 10.6C7.468 10.6 7 11.032 7 11.632C7 12.232 7.456 12.664 8.032 12.664Z" fill="#DD191F"/>
</svg>
