<svg width="98" height="60" viewBox="0 0 98 60" fill="none" xmlns="http://www.w3.org/2000/svg">
<path d="M0.086745 48.1621C0.548018 48.631 0.987668 49.1144 1.46336 49.5689C4.16613 52.1085 7.20044 54.1142 10.7537 55.2613C14.2637 56.4012 17.8169 56.6393 21.3846 55.586C24.736 54.5976 27.3307 52.6279 28.7721 49.3741C30.0046 46.5965 30.1992 43.7322 29.046 40.8608C28.2316 38.8407 26.7397 37.3761 24.9738 36.164C22.8044 34.6778 20.3972 33.6966 17.925 32.8525C15.7484 32.1094 13.5429 31.4312 11.4023 30.5943C8.89417 29.6203 6.5806 28.2712 4.58415 26.4314C1.84535 23.9207 0.367833 20.7968 0.0651229 17.1028C-0.36732 11.6774 1.85976 7.43517 5.96797 4.09477C8.58425 1.97366 11.6474 0.833735 14.9556 0.314278C17.4133 -0.0680999 19.8926 -0.0464557 22.3576 0.0906232C25.0964 0.249346 27.8352 0.487431 30.574 0.761589C32.0515 0.913097 33.5146 1.2089 34.9849 1.43255C35.2011 1.46863 35.3092 1.5552 35.3813 1.76443C40.3328 15.9774 45.2843 30.1758 50.2429 44.3743C50.2934 44.5186 50.3511 44.6629 50.4375 44.8866C50.524 44.6052 50.5961 44.396 50.661 44.1795C54.6394 30.3129 58.6179 16.4463 62.5964 2.57969C62.6324 2.46425 62.6685 2.34882 62.6973 2.23338C62.9063 1.49749 62.9063 1.49749 63.6559 1.49749C64.2325 1.49749 64.8091 1.51913 65.3857 1.49027C65.6812 1.47584 65.7965 1.59128 65.8902 1.85822C67.656 6.68484 69.429 11.5043 71.1948 16.3237C74.6544 25.7388 78.1139 35.1612 81.5662 44.5764C81.6023 44.6846 81.6527 44.7856 81.7392 44.9876C81.9626 44.2012 82.1645 43.5158 82.3591 42.8304C85.8907 30.3923 89.4151 17.9614 92.9395 5.52328C93.2927 4.28957 93.6386 3.05586 93.9846 1.81493C94.0494 1.58406 94.1287 1.48306 94.3954 1.49027C95.5125 1.5047 96.6297 1.49749 97.7901 1.49749C97.682 1.89429 97.5882 2.26224 97.4874 2.63019C94.5828 13.0193 91.6782 23.4085 88.7736 33.8048C86.4745 42.0224 84.1753 50.2399 81.8834 58.4574C81.7969 58.7749 81.6816 58.8831 81.3572 58.8686C80.7806 58.8398 80.204 58.8398 79.6275 58.8686C79.3031 58.8831 79.1734 58.7604 79.0653 58.4718C77.2202 53.436 75.3679 48.4001 73.5156 43.3715C70.0344 33.9131 66.5533 24.4546 63.0649 14.9889C63.0216 14.8663 62.9712 14.7509 62.8847 14.5272C62.6108 15.4723 62.3658 16.3164 62.1207 17.1606C58.5026 29.7718 54.8917 42.3831 51.2736 54.9944C50.9348 56.1848 50.5817 57.368 50.2574 58.5584C50.1925 58.7893 50.0916 58.8614 49.861 58.8614C49.2267 58.847 48.5852 58.847 47.951 58.8614C47.6987 58.8686 47.5906 58.7749 47.5113 58.5512C45.9762 54.107 44.4338 49.6627 42.8914 45.2185C39.3742 35.0674 35.8498 24.9091 32.3254 14.7509C31.6479 12.7885 30.956 10.8333 30.2857 8.87089C29.4713 6.51169 27.8784 4.96053 25.5 4.21742C24.2531 3.82783 22.963 3.69075 21.6657 3.64025C19.8926 3.56089 18.1124 3.51038 16.3394 3.71961C13.8312 4.0082 11.4744 4.72966 9.48518 6.36018C7.33738 8.11335 6.27789 10.4365 5.97518 13.1492C5.78779 14.8591 5.95356 16.504 6.78241 18.048C7.5608 19.4981 8.68516 20.6308 10.0041 21.5904C12.0654 23.0838 14.379 24.0722 16.7863 24.8586C18.7106 25.4935 20.6638 26.0491 22.5594 26.7489C25.4495 27.8094 28.1523 29.2235 30.5379 31.2075C33.4425 33.6173 35.3525 36.6258 36.0011 40.3846C36.9093 45.6441 35.7273 50.2904 31.9146 54.1286C29.3992 56.6609 26.3505 58.277 22.927 59.1933C18.2422 60.4414 13.5862 60.1889 8.97345 58.7965C5.90311 57.873 3.04177 56.5311 0.511981 54.511C0.137197 54.2152 -0.00695104 53.9049 0.000256346 53.4216C0.0290859 51.69 0.0146712 49.9585 0.0146712 48.227C0.0290859 48.2053 0.0579155 48.1837 0.086745 48.1621Z" fill="black"/>
</svg>
