<svg width="320" height="26" viewBox="0 0 320 26" fill="none" xmlns="http://www.w3.org/2000/svg">
<path d="M121.946 0.609606V2.24024H115.009V24.8567H112.178V2.24024H105.164V0.609606H121.946ZM17.5742 0.609606V2.23935H24.5913V24.8576H27.4199V2.23935H34.3565V0.609606H17.5742ZM102.995 24.8576H99.894L93.483 14.1545H89.3529V24.8576H86.5181V0.609606H93.9095C100.58 0.609606 101.1 5.75631 101.1 7.33386C101.1 10.9428 98.5811 12.9928 96.3169 13.7051L102.995 24.8576ZM93.9422 12.5168C96.7 12.5168 98.144 9.33432 98.144 7.62937C98.144 4.35838 96.5452 2.24732 94.0696 2.24732L89.3529 2.23758V12.5177H93.9422V12.5168ZM54.339 0.609606V16.3647C54.339 21.1389 52.2182 23.5579 48.0386 23.5579C42.7698 23.5579 42.361 18.1059 42.361 16.4319V0.609606H39.5342V16.6903C39.5342 17.7786 39.7005 19.8879 40.825 21.7795C42.2469 24.1639 44.6773 25.3717 48.0536 25.3717C51.6714 25.3717 55.9838 23.8684 55.9838 16.6903V0.609606H54.339ZM81.6749 24.8576H78.679L75.0533 16.6018H64.8209L61.5322 24.8576H59.7936L69.5845 0.161913H70.6736L81.6749 24.8576ZM74.3295 14.957L69.6854 4.392L65.4774 14.957H74.3295ZM7.88684 10.8862C4.21327 9.89704 2.42515 8.40531 2.42515 6.3208C2.42515 3.35239 4.43181 1.57578 7.7904 1.57578C10.834 1.57578 13.0079 4.01509 13.5547 4.76272V1.9173C12.5637 1.15551 10.5296 0 7.81871 0C2.46054 0 0.0495471 3.88856 0.0495471 6.64993C0.0495471 10.0386 2.22873 12.3178 6.7154 13.6157C10.857 14.819 12.7035 16.3912 12.7035 18.7191C12.7035 21.6291 10.4306 23.6632 7.17106 23.6632C5.51212 23.6632 2.82065 23.0996 0 19.9808V22.743C1.35281 24.0472 4.28848 25.3195 7.17637 25.3195C11.5383 25.3195 15.226 22.2104 15.226 18.5271C15.2269 17.1247 15.2269 12.8575 7.88684 10.8862ZM186.487 2.2305V0.609606H173.379V24.8576H186.487V23.196H176.207L176.205 12.7787H185.468V11.1304H176.205V2.2305H186.487ZM193.606 24.8576H196.429V0.609606H193.606V24.8576ZM202.941 0.609606V2.24024H209.954V24.8567H212.783V2.24024H219.722V0.609606H202.941ZM241.177 0.609606H225.344V2.23935H236.877L222.659 24.8576H240.622V23.2013H226.977L241.177 0.609606ZM268.92 0.15218L259.275 20.9584L247.968 0.15218H246.794V24.8567H248.442V6.77645L258.346 24.8611H259.199L267.502 7.01888V24.8576H270.313V0.15218H268.92ZM297.443 24.8576H294.445L290.821 16.6018H280.587L277.3 24.8576H275.562L285.351 0.161913H286.439L297.443 24.8576ZM290.098 14.957L285.457 4.392L281.245 14.957H290.098ZM318.342 0.609606V20.1524L303.849 0.161028H302.72V24.8567H304.378V5.46434L318.7 25.2186H320V0.609606H318.342ZM166.247 0.608722L160.972 19.472L154.333 0.161913H153.088L147.686 19.5702L141.167 0.608722H138.212L146.632 25.2372H147.78L153.229 5.6351L159.976 25.2372H161.124L167.905 0.608722H166.247V0.608722Z" fill="black"/>
</svg>
