<svg xmlns="http://www.w3.org/2000/svg" viewBox="0 0 991.55 78.79"><path d="M46.75,57.83c0,11.45-11.37,20.79-24.75,20.79-9.49,0-18.18-4.22-22-7.77V64c1.67,1.73,9.82,10.66,22,10.66C32.66,74.69,40.1,68,40.1,58.43c0-7.69-6-12.84-19.38-16.73C6.88,37.69.16,30.7.16,20.33.16,11.89,7.57,0,24,0A29.76,29.76,0,0,1,41.48,5.73v6.83C39.53,10.21,33,3.67,23.94,3.67c-11,0-17.58,5.84-17.58,15.63,0,7,6,11.89,17.71,15C44.14,39.74,46.75,50.29,46.75,57.83ZM325.43,1.93V5.77h22.14V77.15h7.62V5.77h21.9V1.93ZM54.17,5.76H76.31V77.15h7.61V5.76h21.9V1.93H54.17Zm243,36.46,20.92,34.94H309.8L289.58,43.38H275.52V77.16h-7.64V1.93h22.68c20.45,0,22,15.74,22,20.57C312.59,34.89,303.25,40.57,297.16,42.22Zm-6.1-36.43-15.55,0V39.51h15.14c9.14,0,13.92-10.47,13.92-16.08C304.57,12.71,299.27,5.79,291.06,5.79ZM168.91,51c0,15.5-6.91,23.35-20.54,23.35-4.36,0-18.58-1.67-18.58-23.14V1.93h-7.62V52c0,6.28,1.89,26.75,26.24,26.75,20.16,0,24.39-14.55,24.39-26.75V1.93h-3.9V51Zm83.32,26.15h-8l-11.45-26H199.6L189.22,77.16h-4.08L215.51.51h2.58ZM231.05,47.21,215.37,11.52,201.14,47.21ZM537.86,77.16h40.08V73.23H545.49V39h29.25V35.14H545.48V5.74h32.46V1.93H537.86ZM628.57,5.77h22.14V77.16h7.62V5.77h21.9V1.93H628.57V5.77ZM698,1.93V5.77h36.93L690.05,77.16h54.86V73.24H701.3L746.13,1.93ZM803.17,67,767.05.49h-2.66V77.16h3.9v-59l32.3,59h1.89l27.28-58.62V77.16h7.56V.49H834ZM921.29,77.16h-8l-11.45-26H868.66L858.28,77.16h-4.09L884.58.51h2.58ZM900.11,47.21,884.43,11.52,870.21,47.21ZM987.62,1.93V65L940.88.52h-2.57V77.16h3.92V14.59l46.2,63.71h3.12V1.93Zm-471.12,0L499.42,63,477.94.51h-3L457.49,63.33,436.38,1.92h-7.95l26.13,76.42h2.67l17.62-63.41,21.83,63.41h2.66L520.39,1.92Z" fill="#fff"/><rect x="600.3" y="1.91" width="7.62" height="75.23" fill="#fff"/></svg>