<svg xmlns="http://www.w3.org/2000/svg" viewBox="0 0 991.55 78.79"><path d="M50.71,59.42c0,11.45-11.37,20.79-24.75,20.79-9.49,0-18.18-4.22-22-7.77V65.62c1.67,1.73,9.82,10.66,22,10.66,10.67,0,18.11-6.68,18.11-16.26,0-7.69-6-12.84-19.38-16.73-13.84-4-20.56-11-20.56-21.37C4.12,13.48,11.53,1.59,28,1.59A29.76,29.76,0,0,1,45.44,7.32v6.83C43.49,11.8,36.92,5.26,27.9,5.26c-11,0-17.58,5.84-17.58,15.63,0,7,6,11.89,17.71,15C48.1,41.33,50.71,51.88,50.71,59.42ZM329.39,3.52V7.36h22.14V78.74h7.62V7.36h21.9V3.52ZM58.13,7.35H80.27V78.74h7.61V7.35h21.9V3.52H58.13Zm243,36.46L322,78.75h-8.28L293.54,45H279.48V78.75h-7.64V3.52h22.68c20.45,0,22,15.74,22,20.57C316.55,36.48,307.21,42.16,301.12,43.81ZM295,7.38l-15.55,0V41.1h15.14c9.14,0,13.92-10.47,13.92-16.08C308.53,14.3,303.23,7.38,295,7.38ZM172.87,52.6C172.87,68.1,166,76,152.33,76c-4.36,0-18.58-1.67-18.58-23.14V3.52h-7.62V53.63c0,6.28,1.89,26.75,26.24,26.75,20.16,0,24.39-14.55,24.39-26.75V3.52h-3.9V52.6Zm83.32,26.15h-8l-11.45-26H203.56L193.18,78.75H189.1L219.47,2.1h2.58ZM235,48.8,219.33,13.11,205.1,48.8Zm306.81,30H581.9V74.82H549.45V40.62h29.25V36.73H549.44V7.33H581.9V3.52H541.82Zm62.54,0H612V3.52h-7.62ZM632.53,7.36h22.14V78.75h7.62V7.36h21.9V3.52H632.53V7.36ZM702,3.52V7.36h36.93L694,78.75h54.86V74.83H705.26L750.09,3.52Zm105.18,65L771,2.08h-2.66V78.75h3.9v-59l32.3,59h1.89l27.28-58.62V78.75h7.56V2.08h-3.34ZM925.25,78.75h-8l-11.45-26H872.62L862.24,78.75h-4.09L888.54,2.1h2.58ZM904.07,48.8,888.39,13.11,874.17,48.8ZM991.58,3.52v63L944.84,2.11h-2.57V78.75h3.92V16.18l46.2,63.71h3.12V3.52Zm-471.12,0L503.38,64.6,481.9,2.1h-3L461.45,64.92,440.34,3.51h-7.95l26.13,76.42h2.67l17.62-63.41,21.83,63.41h2.66L524.35,3.51Z" transform="translate(-3.96 -1.59)" fill="#fff"/></svg>