<svg xmlns="http://www.w3.org/2000/svg" viewBox="0 0 992.61 338.81"><path d="M209.76,62.94c-20.64-5.55-31.23-14.16-31.23-26.51,0-17.25,11.59-27.55,31-27.55,15.91,0,27.49,11.52,30.92,15.67v-12a52.43,52.43,0,0,0-30.76-10.1c-29,0-42.08,21-42.08,35.83,0,18.28,11.86,30.6,36.25,37.67C227.48,82.76,238,91.85,238,105.4c0,16.87-13.13,28.66-31.93,28.66-21.44,0-35.81-15.73-38.75-18.78v12c6.74,6.26,22,13.7,38.78,13.7,23.58,0,43.63-16.46,43.63-36.64C249.75,91,245.15,72.45,209.76,62.94Z" transform="translate(-3.39 -2.41)" fill="#231f20"/><polygon points="737.59 3.39 737.59 10.17 776.62 10.17 776.62 136 790.05 136 790.05 10.17 828.66 10.17 828.66 3.39 737.59 3.39" fill="#231f20"/><polygon points="259.44 10.15 298.47 10.15 298.47 136 311.89 136 311.89 10.15 350.5 10.15 350.5 3.39 259.44 3.39 259.44 10.15" fill="#231f20"/><path d="M691.15,76.83c10.74-2.92,27.21-12.92,27.21-34.77,0-8.5-2.8-36.25-38.85-36.25h-40V138.42H653V78.87h24.79l35.64,59.55H728ZM653,72V12.54l27.4.06c14.47,0,23.81,12.21,23.81,31.09,0,9.89-8.42,28.34-24.53,28.34H653Z" transform="translate(-3.39 -2.41)" fill="#231f20"/><path d="M465.07,92.32c0,27.31-12.18,41.16-36.2,41.16-7.68,0-32.75-2.94-32.75-40.79V5.8H382.7V94.12c0,11.06,3.33,47.15,46.25,47.15,35.53,0,43-25.64,43-47.15V5.8h-6.87Z" transform="translate(-3.39 -2.41)" fill="#231f20"/><path d="M551.77,3.3h-4.54L493.67,138.41h7.2l18.3-45.92h58.46l20.18,45.92H612ZM521.9,85.63,547,22.72l27.65,62.91Z" transform="translate(-3.39 -2.41)" fill="#231f20"/><polygon points="985.7 204.1 985.7 315.25 903.32 201.62 898.78 201.62 898.78 336.71 905.69 336.71 905.68 226.41 987.12 338.72 992.61 338.72 992.61 204.1 985.7 204.1" fill="#231f20"/><polygon points="192.9 336.71 263.55 336.71 263.55 329.79 206.34 329.79 206.33 269.5 257.89 269.5 257.89 262.64 206.33 262.64 206.33 210.83 263.55 210.83 263.55 204.1 192.9 204.1 192.9 336.71" fill="#231f20"/><polygon points="125.14 311.78 87.27 201.6 82.02 201.61 51.23 312.35 14.01 204.1 0 204.1 46.06 338.81 50.77 338.81 81.82 227.03 120.3 338.81 124.99 338.81 162.09 204.1 155.25 204.1 125.14 311.78" fill="#231f20"/><polygon points="352.8 210.88 391.82 210.88 391.82 336.71 405.25 336.71 405.25 210.88 443.86 210.88 443.86 204.1 352.8 204.1 352.8 210.88" fill="#231f20"/><rect x="303.15" y="204.11" width="13.43" height="132.61" fill="#231f20"/><polygon points="475.16 204.1 475.16 210.87 540.26 210.87 461.16 336.71 557.87 336.71 557.87 329.8 480.99 329.8 560.01 204.1 475.16 204.1" fill="#231f20"/><path d="M807.45,204,753.89,339.13h7.2l18.3-45.92h58.46L858,339.13h14.14L812,204Zm-25.32,82.32,25.07-62.91,27.64,62.91Z" transform="translate(-3.39 -2.41)" fill="#231f20"/><polygon points="660.56 318.75 596.89 201.57 592.21 201.57 592.21 336.71 599.08 336.71 599.08 232.76 656.01 336.74 659.34 336.74 707.43 233.4 707.43 336.71 720.76 336.71 720.76 201.57 714.87 201.57 660.56 318.75" fill="#231f20"/></svg>