<svg width="131" height="39" viewBox="0 0 131 39" fill="none" xmlns="http://www.w3.org/2000/svg">
<g clip-path="url(#clip0)">
<path d="M48.1138 2.3745C45.0825 0.738316 41.6773 -0.0800507 38.2335 9.31323e-07C34.7999 -0.0743321 31.4059 0.743847 28.3833 2.3745C27.4896 2.85125 26.7389 3.55737 26.2085 4.42028C25.678 5.28319 25.3868 6.27179 25.3649 7.28449C25.3882 8.29821 25.6798 9.28763 26.21 10.1519C26.7403 11.0162 27.4902 11.7245 28.3833 12.2045C31.4055 13.8361 34.7998 14.6543 38.2335 14.579C41.6639 14.6535 45.0547 13.8352 48.0736 12.2045C48.9674 11.7253 49.7179 11.0172 50.2482 10.1528C50.7786 9.28829 51.0698 8.29844 51.092 7.28449C51.0741 6.27583 50.789 5.28998 50.2658 4.42744C49.7426 3.56489 49 2.85651 48.1138 2.3745ZM38.2335 14.086C35.8389 14.086 31.8042 12.6674 31.8042 7.33479C31.8042 2.67634 35.0339 0.593626 38.2335 0.593626C42.5197 0.593626 45.0753 3.11905 45.0753 7.33479C45.1155 11.8323 42.8819 14.086 38.2335 14.086Z" fill="black"/>
<path d="M131 0.754614V0.211296H120.345V0.754614H122.669V6.66068H113.503V0.754614H115.827V0.251542L115.817 0.211296H105.182V0.754614H107.496V13.8446H105.182V14.3778H115.827V13.8446H113.503V7.204H122.669V13.8446H120.345V14.3778H130.96H131V13.8446H128.676V0.754614H131Z" fill="black"/>
<path d="M64.3932 0H64.0612L52.7119 13.8445H50.1563V14.3778H56.5353V13.8445H53.4162L56.2636 10.3834H66.4558L69.6453 13.8546H66.6269V14.3879H80.0086V13.8546H76.9902L64.3932 0ZM66.0031 9.81997H56.6862L60.9925 4.50753L66.0031 9.81997Z" fill="black"/>
<path d="M21.129 8.89435C20.7593 9.84524 20.2054 10.7137 19.4991 11.45C18.6923 12.3114 17.7119 12.9918 16.6227 13.4462C15.5335 13.9006 14.3602 14.1187 13.1805 14.0861C12.1989 14.1276 11.2215 13.9348 10.3292 13.5237C9.43691 13.1125 8.65533 12.4948 8.04916 11.7216C7.10551 10.4393 6.60091 8.88667 6.61037 7.29458C6.57766 6.4145 6.72386 5.53694 7.04013 4.715C7.35641 3.89306 7.83617 3.14384 8.45039 2.51269C9.06461 1.88155 9.80051 1.38159 10.6135 1.04309C11.4266 0.704588 12.2998 0.53458 13.1805 0.543355C15.2446 0.52066 17.2493 1.23407 18.835 2.55564C19.861 3.37105 20.6525 4.4438 21.129 5.66463H21.5516V0.211327H21.129L18.4929 1.64005C17.984 1.31068 17.4409 1.03742 16.873 0.825076C15.4202 0.274591 13.8789 -0.00503869 12.3253 3.69926e-05C9.42958 -0.0704809 6.55605 0.521432 3.92396 1.73061C1.3583 3.01847 0 4.95027 0 7.28452C0 12.0738 4.51759 14.5891 13.0799 14.5891C15.0269 14.6434 16.9405 14.076 18.5432 12.9692L21.1592 14.3778H21.5717V8.89435H21.129Z" fill="black"/>
<path d="M92.7363 0.543318C94.8007 0.518853 96.806 1.23248 98.3909 2.55561C99.4203 3.38615 100.209 4.47695 100.675 5.7149H101.107V0.211291H100.705L98.0488 1.64002C97.5412 1.30821 96.9978 1.03481 96.4289 0.825039C94.9761 0.274555 93.4347 -0.00507536 91.8811 3.20841e-07C88.9956 -0.0659106 86.1329 0.525896 83.51 1.73057C80.9443 3.0285 79.586 4.95023 79.586 7.28449C79.586 12.0637 84.1036 14.5891 92.6659 14.5891C94.6158 14.642 96.5323 14.0748 98.1393 12.9692L100.745 14.3778H101.168V8.89432H100.735C100.372 9.84607 99.8209 10.7151 99.1153 11.4499C98.3013 12.3186 97.3111 13.0032 96.2109 13.4578C95.1107 13.9125 93.9261 14.1267 92.7363 14.086C91.7623 14.1303 90.7916 13.9437 89.9034 13.5416C89.0151 13.1394 88.2345 12.533 87.6251 11.7719C86.6815 10.4896 86.1769 8.93694 86.1863 7.34485C86.1467 6.46235 86.2871 5.58102 86.599 4.75451C86.9109 3.92801 87.3878 3.17364 88.0006 2.53733C88.6133 1.90103 89.3492 1.39609 90.1634 1.05329C90.9775 0.710479 91.853 0.536968 92.7363 0.543318Z" fill="black"/>
<path d="M26.3308 32.0155C26.2724 30.4375 26.8196 28.8969 27.8601 27.7092C28.5193 27.0173 29.3222 26.4785 30.2123 26.1308C31.1024 25.7831 32.058 25.635 33.0116 25.6969C33.9652 25.635 34.9208 25.7831 35.8109 26.1308C36.701 26.4785 37.5039 27.0173 38.1631 27.7092C39.2036 28.8969 39.7508 30.4375 39.6924 32.0155C39.7493 33.5963 39.2025 35.1395 38.1631 36.3319C37.5027 37.0221 36.6995 37.5599 35.8098 37.9074C34.92 38.255 33.965 38.4041 33.0116 38.3442C32.0582 38.4041 31.1032 38.255 30.2134 37.9074C29.3236 37.5599 28.5205 37.0221 27.8601 36.3319C26.8207 35.1395 26.2739 33.5963 26.3308 32.0155ZM37.9115 32.0155C37.9487 31.3528 37.8411 30.69 37.5961 30.0732C37.3511 29.4563 36.9746 28.9003 36.4929 28.4437C35.5254 27.6191 34.2816 27.1913 33.0116 27.2464C31.7416 27.1913 30.4978 27.6191 29.5303 28.4437C29.0486 28.9003 28.6721 29.4563 28.4271 30.0732C28.1821 30.69 28.0744 31.3528 28.1117 32.0155C28.0744 32.6782 28.1821 33.341 28.4271 33.9579C28.6721 34.5747 29.0486 35.1308 29.5303 35.5873C30.4978 36.4119 31.7416 36.8397 33.0116 36.7846C34.2816 36.8397 35.5254 36.4119 36.4929 35.5873C36.9746 35.1308 37.3511 34.5747 37.5961 33.9579C37.8411 33.341 37.9487 32.6782 37.9115 32.0155Z" fill="black"/>
<path d="M42.8618 33.4845V25.9988H44.6527V33.6958C44.6527 35.755 45.8701 36.7846 48.305 36.7846C50.7399 36.7846 51.9573 35.755 51.9573 33.6958V25.9988H53.7482V33.4845C53.7482 36.7142 51.9271 38.3341 48.305 38.3341C44.6829 38.3341 42.8618 36.7142 42.8618 33.4845Z" fill="black"/>
<path d="M60.8315 38.0323V27.5482H56.2837V25.9988H67.1702V27.5482H62.6224V38.0323H60.8315Z" fill="black"/>
<path d="M69.8063 38.0323V25.9585H71.5972V36.4828H78.9018V38.0323H69.8063Z" fill="black"/>
<path d="M81.6184 38.0323V25.9585H91.2875V27.508H83.3993V30.9993H91.046V32.5488H83.3993V36.4426H91.4485V38.0323H81.6184Z" fill="black"/>
<path d="M98.3406 38.0323V27.5482H93.7928V25.9988H104.639V27.5482H100.131V38.0323H98.3406Z" fill="black"/>
</g>
<defs>
<clipPath id="clip0">
<rect width="131" height="38.3341" fill="white"/>
</clipPath>
</defs>
</svg>
