<svg width="24" height="24" viewBox="0 0 24 24" fill="none" xmlns="http://www.w3.org/2000/svg">
<path fill-rule="evenodd" clip-rule="evenodd" d="M21.411 3.24329C21.9452 3.24329 22.4059 3.67682 22.4403 4.21659L23.7027 24H1L2.26238 4.21659C2.29668 3.67905 2.76198 3.24329 3.29172 3.24329H21.411ZM21.4111 4.21622H3.29181C3.28051 4.21622 3.25905 4.2329 3.24553 4.25135L3.23347 4.2785L2.03663 23.027H22.665L21.4694 4.2785C21.4682 4.25979 21.4517 4.23835 21.4348 4.22613L21.4111 4.21622Z" fill="white"/>
<path fill-rule="evenodd" clip-rule="evenodd" d="M14.4917 3.24324C14.4917 1.41892 13.7782 0.810811 12.3512 0.810811C10.9241 0.810811 10.2106 1.41892 10.2106 3.24324H14.4917ZM15.562 3.24324C15.562 3.24324 10.2376 3.24324 9.94308 3.24324C9.70246 3.24324 9.14038 3.24324 9.14038 3.24324C9.14038 1.04797 10.1779 0 12.3512 0C14.5245 0 15.562 1.04797 15.562 3.24324Z" fill="white"/>
<path d="M12.2732 7.8457C13.1782 7.8457 13.8325 8.21842 14.2361 8.96387C14.5486 9.54004 14.7049 10.3294 14.7049 11.332C14.7049 12.2826 14.5633 13.0687 14.2801 13.6904C13.8699 14.5824 13.1993 15.0283 12.2683 15.0283C11.4285 15.0283 10.8035 14.6637 10.3933 13.9346C10.0515 13.3258 9.88064 12.5088 9.88064 11.4834C9.88064 10.6891 9.98318 10.0072 10.1883 9.4375C10.5724 8.3763 11.2674 7.8457 12.2732 7.8457ZM12.2635 14.2275C12.7192 14.2275 13.0821 14.0257 13.3523 13.6221C13.6225 13.2184 13.7576 12.4665 13.7576 11.3662C13.7576 10.5719 13.6599 9.91927 13.4646 9.4082C13.2693 8.89388 12.8901 8.63672 12.3269 8.63672C11.8094 8.63672 11.4301 8.88086 11.1892 9.36914C10.9516 9.85417 10.8328 10.5703 10.8328 11.5176C10.8328 12.2305 10.9093 12.8034 11.0623 13.2363C11.2967 13.8971 11.697 14.2275 12.2635 14.2275Z" fill="white"/>
</svg>
