<svg width="24" height="24" viewBox="0 0 24 24" fill="none" xmlns="http://www.w3.org/2000/svg">
<path fill-rule="evenodd" clip-rule="evenodd" d="M20.3709 3.15784H3.41454C2.35372 3.15784 1.47269 3.95095 1.39496 4.9759L0 23.3684H24L22.3887 4.95395C22.2998 3.93835 21.423 3.15784 20.3709 3.15784ZM20.3709 4.12037L20.5287 4.13202C20.9922 4.2011 21.3581 4.56973 21.3989 5.03538L22.9184 22.4061H1.06949L2.38573 5.04656C2.42533 4.52442 2.87416 4.12037 3.41458 4.12037H20.3709Z" fill="black"/>
<path fill-rule="evenodd" clip-rule="evenodd" d="M14.0526 3.15789C14.0526 1.38158 13.3578 0.789474 11.9684 0.789474C10.5789 0.789474 9.88415 1.38158 9.88415 3.15789H14.0526ZM15.0947 3.15789C15.0947 3.15789 9.91038 3.15789 9.62362 3.15789C9.38933 3.15789 8.84204 3.15789 8.84204 3.15789C8.84204 1.02039 9.85223 0 11.9684 0C14.0845 0 15.0947 1.02039 15.0947 3.15789Z" fill="black"/>
<path d="M5.7702 11.2496V10.7106C6.27801 10.6611 6.63218 10.5791 6.8327 10.4645C7.03322 10.3473 7.18296 10.0726 7.28192 9.64026H7.83661V15.2106H7.08661V11.2496H5.7702ZM11.6218 9.61682C12.3457 9.61682 12.8692 9.915 13.1921 10.5114C13.4421 10.9723 13.5671 11.6038 13.5671 12.4059C13.5671 13.1663 13.4538 13.7952 13.2272 14.2926C12.8991 15.0061 12.3626 15.3629 11.6179 15.3629C10.946 15.3629 10.446 15.0712 10.1179 14.4879C9.84442 14.0009 9.7077 13.3473 9.7077 12.527C9.7077 11.8916 9.78973 11.346 9.95379 10.8903C10.2611 10.0413 10.8171 9.61682 11.6218 9.61682ZM11.6139 14.7223C11.9785 14.7223 12.2689 14.5608 12.485 14.2379C12.7012 13.915 12.8093 13.3134 12.8093 12.4332C12.8093 11.7978 12.7311 11.2757 12.5749 10.8668C12.4186 10.4554 12.1153 10.2496 11.6647 10.2496C11.2507 10.2496 10.9473 10.4449 10.7546 10.8356C10.5645 11.2236 10.4694 11.7965 10.4694 12.5543C10.4694 13.1246 10.5306 13.583 10.653 13.9293C10.8405 14.458 11.1608 14.7223 11.6139 14.7223ZM16.0749 9.61682C16.7988 9.61682 17.3223 9.915 17.6452 10.5114C17.8952 10.9723 18.0202 11.6038 18.0202 12.4059C18.0202 13.1663 17.9069 13.7952 17.6804 14.2926C17.3522 15.0061 16.8158 15.3629 16.071 15.3629C15.3991 15.3629 14.8991 15.0712 14.571 14.4879C14.2975 14.0009 14.1608 13.3473 14.1608 12.527C14.1608 11.8916 14.2429 11.346 14.4069 10.8903C14.7142 10.0413 15.2702 9.61682 16.0749 9.61682ZM16.0671 14.7223C16.4317 14.7223 16.722 14.5608 16.9382 14.2379C17.1543 13.915 17.2624 13.3134 17.2624 12.4332C17.2624 11.7978 17.1843 11.2757 17.028 10.8668C16.8718 10.4554 16.5684 10.2496 16.1179 10.2496C15.7038 10.2496 15.4004 10.4449 15.2077 10.8356C15.0176 11.2236 14.9225 11.7965 14.9225 12.5543C14.9225 13.1246 14.9837 13.583 15.1061 13.9293C15.2936 14.458 15.6139 14.7223 16.0671 14.7223Z" fill="#575757"/>
</svg>
