<svg width="48" height="48" viewBox="0 0 48 48" fill="none" xmlns="http://www.w3.org/2000/svg">
<path fill-rule="evenodd" clip-rule="evenodd" d="M47.6634 24C47.6634 10.9308 37.0687 0.336121 23.9996 0.336121C10.9304 0.336121 0.335693 10.9308 0.335693 24C0.335693 29.3903 2.14457 34.5079 5.41435 38.6497L6.2587 39.7192L7.10293 38.6496C11.1592 33.5103 17.3265 30.4538 23.9996 30.4538C30.6734 30.4538 36.8403 33.5109 40.8942 38.6514L41.7384 39.7218L42.5831 38.6518C45.8543 34.5082 47.6634 29.3907 47.6634 24ZM45.5125 24.0001C45.5125 28.1865 44.3142 32.1879 42.1122 35.6133L41.6876 36.2488L41.2041 35.7205C36.7872 31.0383 30.6184 28.3026 23.9999 28.3026C17.137 28.3026 10.7568 31.2442 6.31084 36.2471C3.83995 32.687 2.4873 28.4478 2.4873 24.0001C2.4873 12.119 12.1188 2.48745 23.9999 2.48745C35.881 2.48745 45.5125 12.119 45.5125 24.0001Z" fill="black"/>
<path fill-rule="evenodd" clip-rule="evenodd" d="M48 24C48 10.7452 37.2548 0 24 0C10.7452 0 0 10.7452 0 24C0 37.2548 10.7452 48 24 48C37.2548 48 48 37.2548 48 24ZM2.82393 23.9999C2.82393 12.3044 12.305 2.82341 24.0004 2.82341C35.6958 2.82341 45.1769 12.3044 45.1769 23.9999C45.1769 35.6953 35.6958 45.1764 24.0004 45.1764C12.305 45.1764 2.82393 35.6953 2.82393 23.9999Z" fill="black"/>
<path fill-rule="evenodd" clip-rule="evenodd" d="M35.0928 19.6975C35.0928 13.5713 30.1266 8.60507 24.0004 8.60507C17.8742 8.60507 12.908 13.5713 12.908 19.6975C12.908 25.8237 17.8742 30.7899 24.0004 30.7899C30.1266 30.7899 35.0928 25.8237 35.0928 19.6975ZM15.7318 19.6974C15.7318 15.1306 19.434 11.4285 24.0007 11.4285C28.5675 11.4285 32.2697 15.1306 32.2697 19.6974C32.2697 24.2642 28.5675 27.9663 24.0007 27.9663C19.434 27.9663 15.7318 24.2642 15.7318 19.6974Z" fill="black"/>
</svg>
