<svg width="48" height="48" viewBox="0 0 48 48" fill="none" xmlns="http://www.w3.org/2000/svg">
<path d="M47.6057 18.3232C47.4939 18.0984 47.1587 17.3115 46.9352 16.5246C46.7117 15.9625 46.4882 15.2881 46.3764 15.1756C46.3764 15.0632 46.2647 14.726 46.1529 14.3888C45.9294 13.6019 45.5942 12.4778 45.2589 11.9157C44.8119 11.0164 44.2532 10.3419 43.5827 9.44262C42.9122 8.65574 41.5712 7.98126 40.5654 7.53162C39.4479 7.08197 37.9951 6.63232 36.6541 6.74473C35.5366 6.85714 34.6426 7.30679 33.9721 7.75644C33.7486 7.75644 33.5251 7.86885 33.3016 7.98126C33.0781 8.09368 32.9664 8.20609 32.8546 8.20609C32.8546 8.09368 32.8546 7.98126 32.9664 7.86885C33.0781 7.4192 33.3016 6.40749 33.4134 5.5082C33.5251 4.49649 33.1899 3.25995 32.7429 2.58548C32.2959 1.79859 31.8489 1.34895 30.5079 0.674473C29.1669 0 27.4906 0 27.0436 0C26.8201 0 26.7083 0 26.5966 0C26.1496 0 25.1438 0.112412 24.1381 0.112412C23.4676 0.112412 22.9088 0.112412 22.6853 0.224824C22.4618 0.224824 22.1266 0.224824 21.7913 0.224824H21.5678C21.0091 0.224824 20.2268 0.112412 19.5563 0.224824C18.3271 0.337237 17.2096 0.674473 15.9803 1.46136C14.8628 2.13583 14.3041 2.8103 13.41 3.7096C12.6278 4.6089 11.9573 5.5082 11.5103 6.63232C11.0633 7.64403 11.2868 8.99297 11.3985 9.55504C11.3985 9.66745 11.5103 9.89227 11.5103 10.2295C11.622 10.4543 11.622 10.904 11.7338 11.2412C11.622 10.904 11.175 10.6792 10.9515 10.4543C10.3928 10.1171 9.05178 9.55503 8.71653 9.44262C8.49303 9.44262 8.04603 9.2178 7.15203 9.2178C5.36402 9.44262 4.80527 10.1171 3.91126 11.1288L3.68776 11.3536C2.68201 12.3653 2.01151 14.8384 1.67626 16.2998L1.56451 16.637C1.45276 17.1991 1.22925 17.8735 1.00575 18.548C0.782253 19.2225 0.558752 19.897 0.447002 20.459C0.11175 21.6956 0 23.1569 0 24.3934C0.11175 25.7424 0.447002 26.8665 1.341 28.5527C2.12326 29.9016 2.79376 30.5761 3.35251 31.0258L3.46426 31.1382C4.02301 31.5878 5.36402 31.9251 6.70502 32.2623C6.92853 32.2623 7.04028 32.3747 7.15203 32.3747H7.37553C7.26378 32.4871 7.15203 32.5995 6.92853 32.8244C6.36977 33.274 5.69927 33.9485 4.91702 35.0726C4.35827 35.8595 4.13477 36.8712 4.24652 37.8829C4.24652 38.5574 4.80527 39.7939 5.58752 40.8056C6.48152 41.9297 7.71078 42.7166 8.15778 43.0539C8.82828 43.5035 10.6163 44.74 11.0633 44.9649L11.175 45.0773C12.1808 45.8642 13.41 46.7635 13.9688 46.9883L14.0806 47.1007C14.7511 47.4379 15.6451 47.8876 17.2096 48C17.4331 48 17.6566 48 17.9918 48C19.2211 48 20.1151 47.7752 20.8973 47.5504C21.9031 47.3255 22.6853 46.9883 23.2441 46.6511C24.0263 46.2014 24.6968 45.5269 24.9203 45.0773C25.3673 44.5152 25.9261 42.9415 25.9261 42.7166V42.6042C25.9261 42.7166 26.0378 42.829 26.0378 42.9415C26.1496 43.1663 26.2613 43.3911 26.2613 43.6159C26.5966 44.4028 27.0436 45.0773 27.4906 45.6393C28.1611 46.3138 28.7199 46.7635 29.5021 47.1007C30.2844 47.3255 31.2901 47.4379 32.1841 47.3255C33.0781 47.2131 33.8604 46.7635 34.7544 46.3138C35.6484 45.8642 36.6541 44.9649 37.7716 43.9532C38.5539 43.1663 39.3361 42.6042 40.3419 41.9297C41.3477 41.2553 42.0182 40.6932 42.9122 39.4567C43.6944 38.445 44.1414 37.096 44.3649 35.4098C44.5884 33.9485 44.4767 32.4871 44.2532 31.5878C44.1414 30.8009 43.6944 30.0141 43.0239 29.3396C42.8004 29.0023 42.4652 28.6651 42.1299 28.3279C41.9064 28.103 41.7947 27.9906 41.5712 27.7658C41.6829 27.7658 42.0182 27.6534 42.3534 27.6534C43.3592 27.541 44.3649 27.2037 44.9237 26.9789L45.0354 26.8665C45.9294 26.3044 46.3764 26.0796 47.0469 24.9555C47.8292 23.8314 47.8292 22.4824 47.8292 21.3583C48.2762 20.2342 47.7174 18.548 47.6057 18.3232ZM46.7117 24.3934C46.1529 25.2927 45.9294 25.4052 45.0354 25.9672L44.9237 26.0796C44.5884 26.3045 43.6944 26.5293 42.6887 26.6417C41.9064 26.7541 41.4594 26.8665 41.2359 26.9789C41.0124 27.0913 40.9007 27.3162 40.9007 27.541C40.9007 27.7658 40.9007 27.9906 41.1241 28.3279C41.2359 28.4403 41.4594 28.7775 41.7947 29.1148C42.1299 29.452 42.4652 29.7892 42.6887 30.0141C43.2474 30.6885 43.5827 31.2506 43.6944 31.8126C43.8062 32.5995 43.9179 33.9485 43.8062 35.2974C43.5827 36.8712 43.1357 37.9953 42.4652 38.8946C41.5712 40.0187 41.0124 40.5808 40.1184 41.1429C39.1126 41.8173 38.2186 42.4918 37.4364 43.2787C36.7659 43.8407 35.5366 45.0773 34.6426 45.5269C33.8604 45.9766 33.1899 46.3138 32.4076 46.4262C31.6254 46.5386 30.8431 46.4262 30.1726 46.2014C29.5021 45.9766 29.0551 45.6393 28.4964 45.0773C28.0494 44.6276 27.7141 43.9532 27.3789 43.2787C27.2671 43.0539 27.2671 42.829 27.1553 42.7166C27.0436 42.3794 26.9318 42.0422 26.8201 41.8173C26.7083 41.5925 26.5966 41.3677 26.2613 41.3677C26.0378 41.3677 25.9261 41.3677 25.7026 41.4801C25.3673 41.7049 25.0321 42.6042 25.0321 42.6042C24.9203 42.9415 24.4733 44.2904 24.1381 44.74C23.6911 45.3021 23.2441 45.7518 22.7971 45.9766C22.3501 46.2014 21.5678 46.5386 20.5621 46.7635C19.6681 46.9883 18.7741 47.2131 17.3213 47.1007C15.9803 46.9883 15.0863 46.6511 14.5276 46.3138L14.4158 46.089C13.8571 45.8642 12.2925 44.6276 11.8455 44.2904L11.7338 44.178C11.2868 43.8407 9.38703 42.6042 8.82828 42.1546C8.49303 41.9297 7.26378 41.1429 6.48152 40.1311C5.81102 39.2318 5.36402 38.2201 5.36402 37.7705C5.25227 36.8712 5.47577 36.1967 5.92277 35.5222C6.59327 34.5105 7.26378 33.9485 7.71078 33.4988C8.49303 32.9368 8.71653 32.4871 8.71653 32.0375C8.71653 31.8126 8.60478 31.363 7.82253 31.2506H7.59903C7.37553 31.2506 7.37553 31.1382 7.15203 31.1382C6.48152 31.0258 4.69352 30.5761 4.35827 30.2389L4.24652 30.1265C3.79951 29.6768 3.12901 29.1148 2.45851 27.8782C1.67626 26.4169 1.341 25.2927 1.22925 24.1686C1.1175 23.0445 1.341 21.6955 1.56451 20.5714C1.67626 20.0094 1.89976 19.3349 2.12326 18.6604C2.34676 17.9859 2.57026 17.3115 2.68201 16.637L2.79376 16.2998C3.12901 15.0632 3.79951 12.7026 4.58177 11.8033L4.80527 11.5785C5.58752 10.6792 6.03452 10.2295 7.48728 10.1171C7.48728 10.1171 7.48728 10.1171 7.59903 10.1171C8.26953 10.1171 8.60478 10.2295 8.71653 10.2295C8.82828 10.2295 10.1693 10.7916 10.6163 11.1288C11.9573 12.0281 12.1808 12.0281 12.2925 12.0281C12.4043 12.0281 12.6278 12.0281 12.8513 11.8033C12.963 11.6909 13.0748 11.466 13.0748 11.1288C13.0748 10.904 12.963 10.3419 12.7395 9.55504C12.7395 9.33021 12.6278 9.10539 12.6278 8.99297C12.516 8.65574 12.4043 7.4192 12.6278 6.63232C13.0748 5.62061 13.6336 4.83372 14.3041 3.93443C15.0863 3.03513 15.6451 2.47307 16.6508 1.79859C17.6566 1.12412 18.6623 0.786885 19.6681 0.674473C20.3386 0.674473 21.0091 0.674473 21.5678 0.674473H21.7913C22.2383 0.674473 22.5736 0.674473 22.7971 0.674473C23.0206 0.674473 23.5793 0.674473 24.1381 0.674473C25.1438 0.674473 26.1496 0.562061 26.5966 0.562061C26.7083 0.562061 26.8201 0.562061 26.9319 0.562061C27.8259 0.562061 29.0551 0.674473 30.0609 1.12412C31.2901 2.24824 31.5136 2.58548 31.8489 3.14754C32.1841 3.7096 32.4076 4.6089 32.4076 5.39578C32.2959 6.29508 32.0724 7.19438 31.9606 7.75644C31.8489 8.3185 31.7371 8.99297 32.1841 9.2178L32.2959 9.33021C32.6311 9.44262 32.9664 9.33021 33.7486 8.88056C33.9721 8.76815 34.0839 8.65574 34.3074 8.54333C34.9779 8.20609 35.6484 7.75644 36.5424 7.64403C37.7716 7.53162 39.2244 8.09368 39.8949 8.3185C40.7889 8.65574 42.0182 9.33021 42.5769 10.0047C43.2474 10.7916 43.8062 11.3536 44.1414 12.1405C44.3649 12.7026 44.7002 13.7143 44.9237 14.5012C45.0354 14.9508 45.1472 15.2881 45.2589 15.4005C45.3707 15.6253 45.5942 16.1874 45.8177 16.7494C46.1529 17.5363 46.4882 18.3232 46.4882 18.4356C46.5999 18.7728 47.0469 20.2342 47.1587 21.1335C47.2704 22.2576 47.2704 23.4941 46.7117 24.3934Z" fill="#060707"/>
<path d="M37.101 20.0094C37.101 20.1218 37.2127 20.1218 37.4362 20.1218C37.995 20.1218 39.2242 19.6721 40.5652 19.1101C42.3533 18.2108 43.6943 17.199 43.5825 16.8618C43.4708 16.5246 41.9063 16.8618 40.1182 17.7611C38.2185 18.7728 36.8775 19.6721 37.101 20.0094Z" fill="#060707"/>
<path d="M35.3132 17.3115C35.3132 17.3115 35.4249 17.4239 35.5367 17.4239C36.0954 17.4239 37.3247 16.8618 38.6657 15.8501C40.3419 14.726 41.4594 13.6019 41.2359 13.2646C41.0124 12.9274 39.4479 13.6019 37.8834 14.726C36.2072 15.7377 34.9779 16.9742 35.3132 17.3115Z" fill="#060707"/>
<path d="M33.4132 14.3887C33.8602 14.3887 34.866 13.6018 35.9835 12.5901C37.2127 11.3535 37.995 10.117 37.7715 9.77977C37.548 9.55494 36.3187 10.3418 35.0895 11.5784C33.8602 12.8149 33.078 14.0514 33.3015 14.2763C33.3015 14.3887 33.4132 14.3887 33.4132 14.3887Z" fill="#060707"/>
<path d="M31.4019 24.281C31.4019 24.9555 31.9606 25.5176 32.6311 25.5176C33.3016 25.5176 33.8604 24.9555 33.8604 24.281C33.8604 23.6066 33.3016 23.0445 32.6311 23.0445C31.9606 23.1569 31.5136 23.6066 31.4019 24.281Z" fill="#060707"/>
<path d="M31.5136 21.1335C31.7371 21.1335 31.9606 21.1335 32.1841 20.9087C32.7429 20.5714 32.9664 19.7846 32.6311 19.2225C32.2959 18.6604 31.5136 18.4356 30.9549 18.7728C30.3961 19.1101 30.1726 19.897 30.5079 20.459C30.7314 20.9087 31.1784 21.1335 31.5136 21.1335Z" fill="#060707"/>
<path d="M30.8433 29.6767C31.0668 29.7892 31.1786 29.7892 31.4021 29.7892C31.8491 29.7892 32.1843 29.5643 32.4078 29.2271C32.7431 28.665 32.5196 27.8781 31.9608 27.5409C31.4021 27.2037 30.6198 27.4285 30.2845 27.9906C30.1728 28.5526 30.2845 29.3395 30.8433 29.6767Z" fill="#060707"/>
<path d="M27.4908 16.2999C27.1555 16.8619 27.379 17.6488 27.9378 17.986C28.1613 18.0984 28.273 18.0985 28.4965 18.0985C28.9435 18.0985 29.2788 17.8736 29.5023 17.5364C29.8375 16.9743 29.614 16.1874 29.0553 15.8502C28.6083 15.513 27.826 15.7378 27.4908 16.2999Z" fill="#060707"/>
<path d="M27.4907 12.0281C27.8259 12.0281 28.3847 10.5668 28.8317 8.88059C29.2787 7.08199 29.2787 5.50822 28.9434 5.50822C28.6082 5.50822 28.0494 6.85717 27.6024 8.65576C27.1554 10.4544 27.1554 12.0281 27.4907 12.0281Z" fill="#060707"/>
<path d="M24.3615 11.9156C24.6968 11.9156 25.032 10.2295 24.9203 8.31846C24.8085 6.29504 24.3615 4.72127 24.0263 4.72127C23.691 4.72127 23.4675 6.40745 23.4675 8.31846C23.5793 10.3419 24.0263 11.9156 24.3615 11.9156Z" fill="#060707"/>
<path d="M24.3616 17.0866C25.0321 17.0866 25.5908 16.5246 25.5908 15.8501C25.5908 15.1756 25.0321 14.6136 24.3616 14.6136C23.6911 14.6136 23.1323 15.1756 23.1323 15.8501C23.1323 16.5246 23.6911 17.0866 24.3616 17.0866Z" fill="#060707"/>
<path d="M21.1207 12.7026C21.5677 12.5902 21.4559 10.904 21.1207 8.993C20.6737 7.08199 20.1149 5.50822 19.6679 5.62063C19.3327 5.73304 19.3327 7.41923 19.6679 9.33023C20.1149 11.2412 20.6737 12.7026 21.1207 12.7026Z" fill="#060707"/>
<path d="M20.227 18.6604C20.4505 18.6604 20.674 18.5479 20.8975 18.4355C21.4562 18.0983 21.6797 17.3114 21.3445 16.7493C21.0092 16.1873 20.227 15.9625 19.6682 16.2997C19.1095 16.6369 18.886 17.4238 19.2212 17.9859C19.4447 18.4355 19.8917 18.6604 20.227 18.6604Z" fill="#060707"/>
<path d="M15.9803 19.5597C15.645 20.1218 15.8685 20.9087 16.4273 21.2459C16.6508 21.3583 16.7625 21.3583 16.986 21.3583C17.433 21.3583 17.7683 21.1335 17.9918 20.7963C18.327 20.2342 18.1035 19.4473 17.5448 19.1101C17.0978 18.7728 16.3155 18.8852 15.9803 19.5597Z" fill="#060707"/>
<path d="M16.7625 27.541C16.2037 27.8782 15.9802 28.6651 16.3155 29.2272C16.539 29.5644 16.8742 29.7892 17.3212 29.7892C17.5447 29.7892 17.7682 29.7892 17.9917 29.5644C18.5505 29.2272 18.774 28.4403 18.4387 27.8782C18.1035 27.4286 17.3212 27.2038 16.7625 27.541Z" fill="#060707"/>
<path d="M17.5447 13.4895C17.6564 13.4895 17.6564 13.4895 17.5447 13.4895C17.9917 13.3771 17.6564 11.9157 16.9859 10.2296C16.3154 8.65579 15.5332 7.41925 15.0862 7.64408C14.7509 7.75649 14.9744 9.21785 15.6449 10.7916C16.4272 12.3654 17.2094 13.4895 17.5447 13.4895Z" fill="#060707"/>
<path d="M15.8684 25.6299C16.5389 25.6299 17.0977 25.0679 17.0977 24.3934C17.0977 23.7189 16.5389 23.1569 15.8684 23.1569C15.1979 23.1569 14.6392 23.7189 14.6392 24.3934C14.6392 25.0679 15.1979 25.6299 15.8684 25.6299Z" fill="#060707"/>
<path d="M10.5045 16.4122C11.7337 17.0867 12.963 17.5363 13.41 17.5363C13.5217 17.5363 13.6335 17.5363 13.6335 17.4239C13.7452 17.0867 12.6277 16.1874 11.0632 15.2881C9.49871 14.3888 8.04596 13.9391 7.93421 14.164C7.82246 14.6136 8.93996 15.5129 10.5045 16.4122Z" fill="#060707"/>
<path d="M8.94016 20.3466C10.0577 20.5714 11.0634 20.7963 11.7339 20.7963C12.2927 20.7963 12.6279 20.6839 12.6279 20.5714C12.7397 20.2342 11.2869 19.5597 9.38716 19.1101C7.4874 18.6604 5.81115 18.548 5.6994 18.9977C5.58765 19.1101 7.0404 19.7846 8.94016 20.3466Z" fill="#060707"/>
<path d="M10.0575 24.281C11.3985 24.281 12.2925 24.0562 12.2925 23.8313C12.2925 23.4941 10.728 23.0445 8.82821 22.8196C6.8167 22.7072 5.2522 22.8196 5.2522 23.2693C5.2522 23.6065 6.8167 24.0562 8.71646 24.281C9.16346 24.281 9.61046 24.281 10.0575 24.281Z" fill="#060707"/>
<path d="M11.9572 27.4286C11.9572 27.0914 10.5044 26.8666 8.71643 27.0914C7.04017 27.3162 5.58741 27.7659 5.69916 28.1031C5.69916 28.3279 6.48142 28.5528 7.48717 28.5528C7.93417 28.5528 8.38117 28.5528 8.93993 28.4403C10.6162 28.2155 12.0689 27.7659 11.9572 27.4286Z" fill="#060707"/>
<path d="M14.0805 32.9368C13.857 32.712 12.6278 33.6113 11.3985 34.8478C10.0575 36.1968 9.16351 37.4333 9.38701 37.5457C9.38701 37.5457 9.38701 37.5457 9.49876 37.5457C9.83401 37.5457 10.9515 36.7589 12.069 35.5223C13.41 34.3982 14.304 33.1617 14.0805 32.9368Z" fill="#060707"/>
<path d="M16.2039 34.6229C15.8687 34.3981 14.8629 35.6346 13.8572 37.4332C12.8514 39.1194 12.1809 40.6932 12.5162 40.918C12.5162 40.918 12.5162 40.918 12.6279 40.918C12.9632 40.918 13.9689 39.6815 14.9747 38.1077C15.8687 36.4215 16.5392 34.8477 16.2039 34.6229Z" fill="#060707"/>
<path d="M16.8743 38.8947C16.092 40.6933 15.645 42.267 15.9803 42.3795C16.3155 42.3795 17.2095 41.0305 17.9918 39.2319C18.7741 37.4333 19.2211 35.8595 18.8858 35.7471C18.6623 35.7471 17.7683 37.0961 16.8743 38.8947Z" fill="#060707"/>
<path d="M21.009 32.3747C21.3443 31.8126 21.1208 31.0257 20.562 30.6885C20.0033 30.3513 19.221 30.5761 18.8858 31.1382C18.5505 31.7002 18.774 32.4871 19.3328 32.8243C19.5563 32.9368 19.7798 32.9368 19.8915 32.9368C20.3385 32.9368 20.7855 32.7119 21.009 32.3747Z" fill="#060707"/>
<path d="M21.9032 36.9836C21.5679 36.9836 21.0091 38.2201 20.5621 39.9063C20.1151 41.5925 20.1151 43.0539 20.4504 43.0539C20.7856 43.0539 21.3444 41.7049 21.7914 40.1312C22.1267 38.445 22.2384 36.9836 21.9032 36.9836Z" fill="#060707"/>
<path d="M24.1379 31.7002C23.4674 31.7002 22.9087 32.2623 22.9087 32.9367C22.9087 33.6112 23.4674 34.1733 24.1379 34.1733C24.8084 34.1733 25.3672 33.6112 25.3672 32.9367C25.3672 32.2623 24.8084 31.7002 24.1379 31.7002Z" fill="#060707"/>
<path d="M29.3904 21.3583C28.6081 20.0094 27.3788 19.1101 25.8143 18.6604C24.2498 18.3232 22.6853 18.548 21.3443 19.3349C18.5506 21.0211 17.6566 24.6183 19.2211 27.4286C20.2268 29.2272 22.1266 30.2389 24.1381 30.2389C25.1438 30.2389 26.2613 29.9016 27.1553 29.3396C30.0609 27.7658 30.9549 24.0562 29.3904 21.3583ZM26.8201 28.6651C26.0378 29.1147 25.1438 29.3396 24.2498 29.3396C22.4618 29.3396 20.8973 28.4403 20.1151 26.9789C18.7741 24.6183 19.5563 21.5831 21.9031 20.1218C22.6853 19.6721 23.5793 19.4473 24.4733 19.4473C24.9203 19.4473 25.2556 19.4473 25.7026 19.5597C26.9318 19.8969 28.0494 20.6838 28.7199 21.8079C29.9491 24.1686 29.1669 27.2037 26.8201 28.6651Z" fill="#060707"/>
<path d="M29.614 31.0258C29.2788 30.4637 28.4965 30.2389 27.9378 30.5761C27.379 30.9134 27.1555 31.7003 27.4908 32.2623C27.7143 32.5996 28.0495 32.8244 28.4965 32.8244C28.72 32.8244 28.9435 32.712 29.167 32.5996C29.7258 32.3747 29.9493 31.5879 29.614 31.0258Z" fill="#060707"/>
<path d="M29.614 37.4333C29.2788 37.5457 29.7258 39.1195 30.3963 40.8057C31.0668 42.3794 31.9608 43.616 32.296 43.616C32.296 43.616 32.296 43.616 32.4078 43.616C32.743 43.5036 32.296 41.9298 31.6255 40.2436C30.8433 38.5574 29.9493 37.3209 29.614 37.4333Z" fill="#060707"/>
<path d="M32.1841 35.6346C31.8489 35.8595 32.6311 37.3208 33.9721 38.7822C35.0896 40.1311 36.2071 41.1428 36.6541 41.1428H36.7659C37.1011 40.918 36.3189 39.4567 34.9779 37.9953C33.7486 36.4215 32.5194 35.4098 32.1841 35.6346Z" fill="#060707"/>
<path d="M37.5483 34.9601C36.0955 33.6112 34.6428 32.8243 34.4193 33.1615C34.1958 33.4988 35.2015 34.7353 36.6543 36.0842C37.8835 37.2084 39.1128 37.8828 39.5598 37.8828C39.6715 37.8828 39.6715 37.8828 39.7833 37.7704C40.0068 37.5456 39.001 36.1967 37.5483 34.9601Z" fill="#060707"/>
<path d="M36.7661 30.3512C36.5426 30.6885 37.6601 31.7002 39.1129 32.487C40.2304 33.1615 41.3479 33.4988 41.9066 33.4988C42.0184 33.4988 42.1301 33.4988 42.2419 33.3863C42.4654 33.0491 41.3479 32.0374 39.8951 31.2505C38.2189 30.4636 36.8778 30.014 36.7661 30.3512Z" fill="#060707"/>
<path d="M41.2361 21.808C39.4481 22.1453 37.9954 22.7073 38.1071 23.0446C38.1071 23.157 38.5541 23.2694 39.1129 23.2694C39.6716 23.2694 40.5656 23.157 41.4596 23.0446C43.2476 22.7073 44.7004 22.1453 44.5886 21.808C44.5886 21.4708 43.0241 21.4708 41.2361 21.808Z" fill="#060707"/>
</svg>
