<svg width="48" height="50" viewBox="0 0 48 50" fill="none" xmlns="http://www.w3.org/2000/svg">
<path d="M13.2 19V11.8369C13.2 5.87628 17.9515 1 23.7579 1H24.2412C30.0484 1 34.8 5.87628 34.8 11.8369V19" stroke="black" stroke-width="1.8"/>
<path fill-rule="evenodd" clip-rule="evenodd" d="M38.7293 49H9.27073C7.46432 49 6 47.4835 6 45.6129V21.1863C6 19.3164 7.46432 17.8 9.27073 17.8H38.7293C40.5357 17.8 42 19.3164 42 21.1863V45.6129C42 47.4835 40.5357 49 38.7293 49Z" stroke="black" stroke-width="1.8"/>
<path fill-rule="evenodd" clip-rule="evenodd" d="M27.5999 31.5794C27.5999 29.9335 26.2571 28.6 24.5999 28.6C22.9434 28.6 21.5999 29.9335 21.5999 31.5794C21.5999 32.5305 22.0506 33.3755 22.7493 33.9215V39.5544C22.7493 40.1295 23.223 40.6 23.8021 40.6H25.3976C25.9767 40.6 26.4512 40.1295 26.4512 39.5544V33.9215C27.1499 33.3755 27.5999 32.5305 27.5999 31.5794Z" stroke="black" stroke-width="1.8"/>
</svg>
