<svg width="24" height="24" viewBox="0 0 24 24" fill="none" xmlns="http://www.w3.org/2000/svg">
<path fill-rule="evenodd" clip-rule="evenodd" d="M12.8335 0C12.4106 0 12.0646 0.359158 12.0646 0.798129C12.0646 0.798129 12.0345 16.3615 12.0345 16.4334C12.0345 17.862 10.7895 19.0678 9.32092 19.0678C7.89848 19.0678 6.74396 17.8694 6.74396 16.3928C6.74396 14.9163 7.89848 13.7194 9.32092 13.7194C9.39012 13.7194 9.45145 13.7286 9.52065 13.7366L9.63628 13.7521C9.85157 13.7841 10.074 13.7121 10.2355 13.5604C10.4046 13.4088 10.4968 13.1933 10.4968 12.9618V9.60873C10.4968 9.18572 10.1819 8.83454 9.77444 8.8106L9.69785 8.80281C9.57483 8.79483 9.45163 8.78722 9.32092 8.78722C5.28428 8.78722 2 12.2027 2 16.3928C2 20.583 5.28428 24 9.32092 24C13.3652 24 16.6478 20.583 16.6478 16.3928V9.22681C17.9396 10.2883 19.6471 10.8143 21.3002 10.6547C21.7 10.6148 22 10.2714 22 9.86438V6.13718C22 5.71417 21.6835 5.37097 21.2837 5.33905C18.8771 5.15548 16.9406 3.21677 16.6869 0.718629C16.6484 0.311583 16.3176 0 15.9255 0H12.8335Z" fill="black"/>
</svg>
