<svg width="24" height="24" viewBox="0 0 24 24" fill="none" xmlns="http://www.w3.org/2000/svg">
<path fill-rule="evenodd" clip-rule="evenodd" d="M13.3733 6.76067C15.0019 7.07843 16.2753 8.35183 16.593 9.98046C16.6327 10.1837 16.5001 10.3807 16.2968 10.4203C16.0935 10.46 15.8966 10.3274 15.8569 10.1241C15.5976 8.79515 14.5586 7.75607 13.2296 7.49679C13.0264 7.45713 12.8937 7.2602 12.9334 7.05692C12.9697 6.87059 13.1383 6.74361 13.3227 6.75429L13.3733 6.76067Z" fill="black"/>
<path fill-rule="evenodd" clip-rule="evenodd" d="M13.3428 3.79555C16.6104 4.15855 19.1911 6.73594 19.5582 10.0031C19.5813 10.2089 19.4332 10.3945 19.2274 10.4176C19.0216 10.4407 18.836 10.2926 18.8129 10.0868C18.4849 7.16794 16.1793 4.86527 13.26 4.54097C13.0542 4.5181 12.9059 4.33269 12.9287 4.12685C12.9497 3.93817 13.1072 3.7978 13.2919 3.79333L13.3428 3.79555Z" fill="black"/>
<path fill-rule="evenodd" clip-rule="evenodd" d="M8.33538 4.70761L6.11862 4.70759C5.59743 4.70817 5.10087 4.92753 4.74979 5.31213C4.39869 5.69676 4.22541 6.21124 4.27228 6.72991C4.52202 9.08209 5.32037 11.3367 6.60324 13.317C7.76735 15.149 9.32291 16.7046 11.1577 17.8705C13.1261 19.147 15.3698 19.9452 17.7057 20.199C18.2327 20.2467 18.7487 20.0722 19.1336 19.719C19.5186 19.3659 19.7368 18.8668 19.7347 18.3444L19.7347 16.1255C19.7579 15.1931 19.0718 14.3833 18.139 14.2517C17.4531 14.1612 16.783 13.9943 16.1379 13.7536L16.0358 13.7185C15.385 13.5162 14.6707 13.6875 14.1815 14.1713L13.4444 14.9078L13.2659 14.7983C11.801 13.8795 10.5628 12.6413 9.64407 11.1764L9.53444 10.9968L10.2695 10.2623C10.7547 9.77165 10.9261 9.05733 10.7235 8.40584L10.6884 8.30353C10.4481 7.65937 10.2811 6.9892 10.1911 6.30666C10.0603 5.38114 9.26659 4.69854 8.33538 4.70761ZM6.11905 5.45749L8.34269 5.45747C8.89749 5.45207 9.37036 5.85874 9.448 6.40808C9.54495 7.14325 9.72561 7.86848 9.98607 8.56648C10.1382 8.97123 10.0411 9.42657 9.7377 9.73339L8.79921 10.6719C8.67984 10.7912 8.65494 10.9757 8.73839 11.1224C9.82537 13.034 11.4082 14.6168 13.3198 15.7038C13.4666 15.7873 13.651 15.7624 13.7704 15.643L14.7103 14.703C15.0157 14.4011 15.471 14.304 15.8749 14.4558C16.5737 14.7166 17.299 14.8973 18.0376 14.9947C18.59 15.0726 18.9987 15.555 18.9848 16.1161L18.9847 18.3458C18.9859 18.6585 18.8559 18.9559 18.6266 19.1663C18.3973 19.3766 18.0899 19.4806 17.7799 19.4526C15.5675 19.2121 13.4358 18.4538 11.5628 17.2392C9.81808 16.1305 8.34131 14.6537 7.23448 12.9119C6.01388 11.0277 5.25539 8.88564 5.01866 6.65646C4.99131 6.35332 5.09455 6.04681 5.30372 5.81767C5.51288 5.58854 5.80874 5.45784 6.11905 5.45749Z" fill="black"/>
</svg>
