<svg width="24" height="24" viewBox="0 0 24 24" fill="none" xmlns="http://www.w3.org/2000/svg">
<path fill-rule="evenodd" clip-rule="evenodd" d="M20.7083 3.75H3.29167C1.77288 3.75 1 4.52288 1 6.04167V17.9583C1 19.4771 1.77288 20.25 3.29167 20.25H20.7083C22.2271 20.25 23 19.4771 23 17.9583V6.04167C23 4.52288 22.2271 3.75 20.7083 3.75ZM2.925 4.66667H21.075C21.6319 4.66667 22.0833 5.1357 22.0833 5.71429V18.2857C22.0833 18.8643 21.6319 19.3333 21.075 19.3333H2.925C2.36811 19.3333 1.91667 18.8643 1.91667 18.2857V5.71429C1.91667 5.1357 2.36811 4.66667 2.925 4.66667Z" fill="#000001"/>
<path fill-rule="evenodd" clip-rule="evenodd" d="M22.0833 9.25C22.5896 9.25 23 9.4552 23 9.70833C23 9.94338 22.6461 10.1371 22.1902 10.1636L22.0833 10.1667H1.91667C1.41041 10.1667 1 9.96146 1 9.70833C1 9.47328 1.35387 9.27956 1.80976 9.25308L1.91667 9.25H22.0833Z" fill="#000001"/>
</svg>
