<svg width="24" height="25" viewBox="0 0 24 25" fill="none" xmlns="http://www.w3.org/2000/svg">
<path fill-rule="evenodd" clip-rule="evenodd" d="M18.8 5.7251H5.20003C4.05792 5.7251 3.12503 6.65799 3.12503 7.8001V18.0001C3.12503 19.1422 4.05792 20.0751 5.20003 20.0751H18.8C19.9421 20.0751 20.875 19.1422 20.875 18.0001V7.8001C20.875 6.65799 19.9421 5.7251 18.8 5.7251ZM5.19999 6.47503H18.8C19.5279 6.47503 20.125 7.07214 20.125 7.80003V18C20.125 18.7279 19.5279 19.325 18.8 19.325H5.19999C4.47209 19.325 3.87499 18.7279 3.87499 18V7.80003C3.87499 7.07214 4.47209 6.47503 5.19999 6.47503Z" fill="black"/>
<path fill-rule="evenodd" clip-rule="evenodd" d="M20.285 7.49275C20.4546 7.37398 20.6884 7.41524 20.8072 7.58491C20.9152 7.73915 20.8909 7.94642 20.7581 8.07206L20.715 8.10717L12.215 14.0572C12.1021 14.1363 11.9564 14.1461 11.8352 14.0868L11.785 14.0572L3.28495 8.10717C3.11528 7.9884 3.07402 7.75458 3.19279 7.58491C3.30076 7.43067 3.50382 7.38254 3.66732 7.4643L3.71505 7.49275L12 13.292L20.285 7.49275Z" fill="black"/>
</svg>
