<svg width="24" height="25" viewBox="0 0 24 25" fill="none" xmlns="http://www.w3.org/2000/svg">
<path fill-rule="evenodd" clip-rule="evenodd" d="M10.75 2.71789L3.75 6.71789C2.97729 7.16401 2.50092 7.98814 2.5 8.88039L2.5 16.8809C2.50092 17.7737 2.97729 18.5978 3.75 19.0439L10.7519 23.045C11.5235 23.4905 12.4765 23.4905 13.25 23.0439L20.2481 19.045C21.0227 18.5978 21.4991 17.7737 21.5 16.8814V8.8809C21.4991 7.98814 21.0227 7.16401 20.25 6.71789L13.2481 2.71678C12.4765 2.27131 11.5235 2.27131 10.75 2.71789ZM12.75 3.58391L19.7519 7.58502C20.2136 7.85159 20.4995 8.34606 20.5 8.88141V16.8809C20.4995 17.4157 20.2136 17.9102 19.75 18.1779L12.7519 22.1768C12.2859 22.4458 11.7141 22.4458 11.25 22.1779L4.24807 18.1768C3.78637 17.9102 3.50055 17.4157 3.5 16.8804L3.5 8.8809C3.50055 8.34606 3.78637 7.85159 4.24807 7.58502L11.2481 3.58502C11.7141 3.31596 12.2859 3.31596 12.75 3.58391Z" fill="black"/>
<path fill-rule="evenodd" clip-rule="evenodd" d="M20.4796 7.4081C20.7186 7.26983 21.0245 7.35151 21.1628 7.59054C21.2857 7.80301 21.2348 8.06829 21.0541 8.22173L20.9803 8.27371L12.2503 13.3237C12.1213 13.3984 11.9672 13.4108 11.8297 13.361L11.7496 13.3237L3.01962 8.27371C2.78059 8.13544 2.69891 7.82957 2.83718 7.59054C2.96008 7.37807 3.21541 7.28992 3.43851 7.37007L3.52034 7.4081L12 12.3129L20.4796 7.4081Z" fill="black"/>
<path fill-rule="evenodd" clip-rule="evenodd" d="M12 12.3809C12.2455 12.3809 12.4496 12.5577 12.4919 12.791L12.5 12.8809V22.9609C12.5 23.237 12.2761 23.4609 12 23.4609C11.7545 23.4609 11.5504 23.284 11.5081 23.0507L11.5 22.9609V12.8809C11.5 12.6047 11.7239 12.3809 12 12.3809Z" fill="black"/>
</svg>
