<svg width="24" height="24" viewBox="0 0 24 24" fill="none" xmlns="http://www.w3.org/2000/svg">
<path fill-rule="evenodd" clip-rule="evenodd" d="M10.5526 0.381524L2.44737 4.93602C1.55265 5.44398 1.00106 6.38236 1 7.39829L1 16.5079C1.00106 17.5244 1.55265 18.4627 2.44737 18.9707L10.5549 23.5265C11.4483 24.0337 12.5517 24.0337 13.4474 23.5252L21.5504 18.972C22.4473 18.4627 22.9989 17.5244 23 16.5084V7.39887C22.9989 6.38236 22.4473 5.44398 21.5526 4.93602L13.4451 0.380262C12.5517 -0.126964 11.4483 -0.126964 10.5526 0.381524ZM12.8685 1.36764L20.976 5.92339C21.5106 6.22691 21.8415 6.78993 21.8422 7.3995V16.5079C21.8415 17.1169 21.5106 17.6799 20.9737 17.9847L12.8707 22.5379C12.3311 22.8443 11.669 22.8443 11.1316 22.5392L3.02413 17.9834C2.48954 17.6799 2.15858 17.1169 2.15794 16.5073L2.15794 7.39891C2.15858 6.78994 2.48954 6.22691 3.02413 5.92339L11.1294 1.3689C11.669 1.06255 12.3311 1.06255 12.8685 1.36764Z" fill="black"/>
<path fill-rule="evenodd" clip-rule="evenodd" d="M21.8185 5.72193C22.0953 5.56449 22.4494 5.6575 22.6095 5.92966C22.7518 6.17159 22.6929 6.47364 22.4837 6.64835L22.3983 6.70753L12.2899 12.4576C12.1404 12.5426 11.962 12.5568 11.8028 12.5001L11.7101 12.4576L1.60165 6.70753C1.32488 6.55009 1.2303 6.20183 1.3904 5.92966C1.53272 5.68774 1.82836 5.58737 2.08668 5.67863L2.18144 5.72193L12 11.3067L21.8185 5.72193Z" fill="black"/>
<path fill-rule="evenodd" clip-rule="evenodd" d="M11.9998 11.3841C12.2841 11.3841 12.5204 11.5855 12.5695 11.8511L12.5788 11.9534V23.4307C12.5788 23.7452 12.3196 24 11.9998 24C11.7156 24 11.4792 23.7986 11.4302 23.5331L11.4209 23.4307V11.9534C11.4209 11.639 11.6801 11.3841 11.9998 11.3841Z" fill="black"/>
</svg>
