<svg width="24" height="24" viewBox="0 0 24 24" fill="none" xmlns="http://www.w3.org/2000/svg">
<path fill-rule="evenodd" clip-rule="evenodd" d="M16.4619 2.5H7.53814C6.4125 2.5 5.5 3.39927 5.5 4.50857V19.4914C5.5 20.6007 6.4125 21.5 7.53814 21.5H16.4619C17.5875 21.5 18.5 20.6007 18.5 19.4914V4.50857C18.5 3.39927 17.5875 2.5 16.4619 2.5ZM7.53819 3.25992H16.4619C17.1616 3.25992 17.7289 3.81893 17.7289 4.50849V19.4914C17.7289 20.1809 17.1616 20.7399 16.4619 20.7399H7.53819C6.83847 20.7399 6.27124 20.1809 6.27124 19.4914V4.50849C6.27124 3.81893 6.83847 3.25992 7.53819 3.25992Z" fill="black"/>
<path fill-rule="evenodd" clip-rule="evenodd" d="M17.839 14.9133V15.6733H6.27124V14.9133H17.839Z" fill="black"/>
<ellipse cx="12.1653" cy="18.0076" rx="0.661017" ry="0.651429" fill="black"/>
</svg>
