<svg xmlns="http://www.w3.org/2000/svg" viewBox="0 0 20.11 20.11"><path d="M17.93.26A.48.48,0,0,0,17.5,0H2.61a.47.47,0,0,0-.43.26h0L.07,4.49A.89.89,0,0,0,0,4.77v1A3.59,3.59,0,0,0,.92,8.19l.14.17V19.63a.49.49,0,0,0,.48.48h17a.48.48,0,0,0,.48-.48V8.36l.15-.17a3.64,3.64,0,0,0,.92-2.39v-1A.89.89,0,0,0,20,4.49L17.93.26ZM1,5.8V5.21H6.38V5.8A2.71,2.71,0,0,1,1,5.8ZM11.7,18.56v.59H8.4V15.37a1.65,1.65,0,1,1,3.3,0ZM18.09,9.9v9.25H12.66V15.37a2.61,2.61,0,0,0-5.21,0v3.78H2v-10l.74.21a4.08,4.08,0,0,0,.91.13A3.67,3.67,0,0,0,6.42,8.2l.44-.52.45.52a3.6,3.6,0,0,0,5.49,0l.45-.52.44.53a3.53,3.53,0,0,0,3.65,1.13l.75-.21ZM7.34,5.8V5.21h5.43V5.8a2.72,2.72,0,0,1-5.43,0Zm11.81,0a2.71,2.71,0,0,1-2.71,2.71h0A2.71,2.71,0,0,1,13.72,5.8V5.21h5.43ZM17.91,4.26H1.25l.43-.85L2.74,1.28,2.9,1H17.2l.17.32,1.06,2.13.42.85Z"/></svg>