<svg width="24" height="24" viewBox="0 0 24 24" fill="none" xmlns="http://www.w3.org/2000/svg">
<path d="M19.885 2.20504C19.8444 2.1262 19.7827 2.06017 19.7068 2.01428C19.6309 1.96838 19.5437 1.94442 19.455 1.94504H4.56501C4.47608 1.94325 4.38847 1.96673 4.31235 2.01275C4.23623 2.05878 4.17474 2.12546 4.13501 2.20504V2.20504L2.02501 6.43504C1.9866 6.52394 1.96296 6.61852 1.95501 6.71504V7.71504C1.95001 8.60806 2.27803 9.47088 2.87501 10.135L3.01501 10.305V21.575C3.01757 21.7015 3.06896 21.8222 3.15843 21.9116C3.2479 22.0011 3.36851 22.0525 3.49501 22.055H20.495C20.6223 22.055 20.7444 22.0045 20.8344 21.9145C20.9244 21.8244 20.975 21.7023 20.975 21.575V10.305L21.125 10.135C21.7111 9.47612 22.038 8.62685 22.045 7.74504V6.74504C22.0342 6.63709 22.0037 6.53202 21.955 6.43504L19.885 2.20504ZM2.95501 7.74504V7.15504H8.33501V7.74504C8.25475 8.40198 7.93687 9.00684 7.44133 9.44553C6.94578 9.88422 6.30684 10.1264 5.64501 10.1264C4.98319 10.1264 4.34424 9.88422 3.8487 9.44553C3.35315 9.00684 3.03527 8.40198 2.95501 7.74504V7.74504ZM13.655 20.505V21.095H10.355V17.315C10.355 16.8774 10.5289 16.4578 10.8383 16.1483C11.1477 15.8389 11.5674 15.665 12.005 15.665C12.4426 15.665 12.8623 15.8389 13.1717 16.1483C13.4812 16.4578 13.655 16.8774 13.655 17.315V20.505ZM20.045 11.845V21.095H14.615V17.315C14.5739 16.6521 14.2816 16.0297 13.7976 15.5747C13.3135 15.1198 12.6743 14.8665 12.01 14.8665C11.3458 14.8665 10.7065 15.1198 10.2225 15.5747C9.73845 16.0297 9.44611 16.6521 9.40501 17.315V21.095H3.95501V11.095L4.69501 11.305C4.99248 11.3825 5.29775 11.4261 5.60501 11.435C6.1323 11.4316 6.65265 11.3146 7.13065 11.092C7.60865 10.8694 8.03307 10.5464 8.37501 10.145L8.81501 9.62504L9.26501 10.145C9.60297 10.5433 10.0235 10.8633 10.4976 11.0828C10.9716 11.3022 11.4877 11.4159 12.01 11.4159C12.5324 11.4159 13.0485 11.3022 13.5225 11.0828C13.9965 10.8633 14.4171 10.5433 14.755 10.145L15.205 9.62504L15.645 10.155C16.0808 10.6738 16.6567 11.0562 17.3039 11.2566C17.9511 11.4569 18.6423 11.4668 19.295 11.285L20.045 11.075V11.845ZM9.29501 7.74504V7.15504H14.725V7.74504C14.683 8.43662 14.3787 9.08611 13.8741 9.56095C13.3696 10.0358 12.7029 10.3002 12.01 10.3002C11.3172 10.3002 10.6504 10.0358 10.1459 9.56095C9.64133 9.08611 9.337 8.43662 9.29501 7.74504V7.74504ZM21.105 7.74504C21.105 8.46378 20.8195 9.15308 20.3113 9.6613C19.803 10.1695 19.1138 10.455 18.395 10.455V10.455C18.0383 10.4564 17.6848 10.3872 17.3549 10.2516C17.0249 10.116 16.725 9.91662 16.4723 9.66485C16.2196 9.41307 16.0191 9.11387 15.8823 8.78443C15.7454 8.45498 15.675 8.10177 15.675 7.74504V7.15504H21.105V7.74504ZM19.865 6.20504H3.20501L3.63501 5.35504L4.69501 3.22504L4.85501 2.94504H19.155L19.325 3.26504L20.385 5.39504L20.805 6.24504L19.865 6.20504Z" fill="black"/>
</svg>
