<svg width="24" height="24" viewBox="0 0 24 24" fill="none" xmlns="http://www.w3.org/2000/svg">
<path d="M0.206748 0.206748C0.451783 -0.0382867 0.832147 -0.0655128 1.10725 0.12507L1.20502 0.206748L12 11.0019L22.795 0.206748C23.0706 -0.0689161 23.5176 -0.0689161 23.7933 0.206748C24.0383 0.451783 24.0655 0.832147 23.8749 1.10725L23.7933 1.20502L12.9981 12L23.7933 22.795L23.8749 22.8927C24.0655 23.1679 24.0383 23.5482 23.7933 23.7933C23.5482 24.0383 23.1679 24.0655 22.8927 23.8749L22.795 23.7933L12 12.9981L1.20502 23.7933C0.929352 24.0689 0.482412 24.0689 0.206748 23.7933C-0.0382867 23.5482 -0.0655128 23.1679 0.12507 22.8927L0.206748 22.795L11.0019 12L0.206748 1.20502L0.12507 1.10725C-0.0655128 0.832147 -0.0382867 0.451783 0.206748 0.206748Z" fill="black"/>
</svg>
