<svg width="48" height="48" viewBox="0 0 48 48" fill="none" xmlns="http://www.w3.org/2000/svg">
<g clip-path="url(#clip0)">
<path d="M41.6879 30.1446C37.3479 30.1446 33.876 33.6045 33.876 37.9294C33.876 42.2543 37.3479 45.7142 41.6879 45.7142C46.0279 45.7142 49.4998 42.2543 49.4998 37.9294C49.4998 33.6045 46.0279 30.1446 41.6879 30.1446ZM41.6879 44.8492C37.8687 44.8492 34.744 41.7353 34.744 37.9294C34.744 34.1235 37.8687 31.0096 41.6879 31.0096C45.5071 31.0096 48.6319 34.1235 48.6319 37.9294C48.6319 41.7353 45.5939 44.8492 41.6879 44.8492Z" fill="black"/>
<path d="M45.9412 34.9886C45.8544 34.9886 45.6808 34.9886 45.594 35.0751L40.0389 40.6109L37.6953 38.2755C37.5217 38.1025 37.2613 38.1025 37.0877 38.2755C36.9141 38.4485 36.9141 38.708 37.0877 38.881L40.0389 41.8219L46.2016 35.6805C46.3752 35.5075 46.3752 35.248 46.2016 35.0751C46.2016 34.9886 46.028 34.9886 45.9412 34.9886Z" fill="black"/>
<path d="M18.2523 35.767C17.9051 35.5075 17.4711 35.421 16.9503 35.421C16.4295 35.421 15.9955 35.5075 15.6484 35.767C15.388 35.94 15.2144 36.1995 15.2144 36.459C15.2144 36.7185 15.388 36.978 15.6484 37.151C15.9955 37.4105 16.4295 37.497 16.9503 37.497C17.4711 37.497 17.9051 37.4105 18.2523 37.151C18.5127 36.978 18.6863 36.7185 18.6863 36.459C18.5995 36.1995 18.5127 35.94 18.2523 35.767ZM16.9503 37.4105C16.6031 37.4105 16.0823 37.2375 16.0823 36.459C16.0823 35.767 16.5163 35.5075 16.9503 35.5075C17.4711 35.5075 17.8183 35.8535 17.8183 36.459C17.8183 37.0645 17.5579 37.4105 16.9503 37.4105Z" fill="black"/>
<path d="M29.1022 35.5075V35.421H27.7134V35.5075H27.9738V36.3725H26.7586V35.5075H27.1058V35.421H25.717V35.5075H25.9774V37.324H25.717V37.4105H27.1058V37.324H26.7586V36.459H27.9738V37.324H27.7134V37.4105H29.1022V37.324H28.755V35.5075H29.1022Z" fill="black"/>
<path d="M20.6827 37.497H22.4187V37.4105H22.0715L20.4223 35.421L18.8599 37.4105H18.5127V37.497H19.3807V37.4105H18.9467L19.2939 36.8915H20.5959L21.0299 37.4105L20.6827 37.497ZM19.3807 36.805L19.9883 36.0265L20.6827 36.805H19.3807Z" fill="black"/>
<path d="M13.6518 37.497C13.9122 37.497 14.1726 37.4105 14.3462 37.2375L14.6933 37.4105H14.7801V36.7185H14.6933C14.6933 36.7185 14.6065 36.8915 14.5197 37.0645C14.3462 37.2375 14.0858 37.4105 13.6518 37.497C13.3914 37.4105 13.131 37.324 12.9574 37.0645C12.8706 36.8915 12.7838 36.7185 12.7838 36.459C12.7838 35.8535 13.2178 35.5075 13.6518 35.5075C13.9122 35.5075 14.1726 35.594 14.433 35.767C14.6065 35.94 14.6933 36.113 14.6933 36.1995H14.7801V35.421H14.6933L14.3462 35.594C14.3462 35.594 14.2594 35.5075 14.1726 35.5075C14.0858 35.421 13.8254 35.421 13.565 35.421C13.131 35.421 12.7838 35.5075 12.4366 35.6805C12.0894 35.8535 11.9158 36.113 11.9158 36.459C11.9158 37.151 12.5234 37.497 13.6518 37.497Z" fill="black"/>
<path d="M24.0678 35.421C24.3282 35.421 24.5886 35.5075 24.849 35.6805C25.0226 35.8535 25.1094 36.0265 25.1094 36.113H25.1962V35.3345H25.1094L24.7622 35.5075C24.7622 35.5075 24.6754 35.421 24.5886 35.421C24.5018 35.3345 24.2414 35.3345 23.981 35.3345C23.547 35.3345 23.1998 35.421 22.8526 35.594C22.5054 35.767 22.3318 36.0265 22.3318 36.3725C22.3318 37.0645 22.9394 37.4105 24.0678 37.4105C24.3282 37.4105 24.5886 37.324 24.7622 37.151L25.1094 37.324H25.1962V36.5455H25.1094C25.1094 36.5455 25.0226 36.7185 24.9358 36.8915C24.7622 37.0645 24.5018 37.2375 24.0678 37.2375C23.8074 37.2375 23.547 37.151 23.3734 36.8915C23.2866 36.7185 23.1998 36.459 23.1998 36.286C23.1998 35.767 23.6338 35.421 24.0678 35.421Z" fill="black"/>
<path d="M12.7841 22.4463C13.0445 22.4463 13.2181 22.2734 13.2181 22.0139V12.9316C13.2181 8.86618 16.5165 5.57926 20.596 5.57926C24.6756 5.57926 27.974 8.86618 27.974 12.9316V22.0139C27.974 22.2734 28.1476 22.4463 28.408 22.4463C28.6684 22.4463 28.842 22.2734 28.842 22.0139V12.9316C28.7552 8.34719 25.1096 4.71428 20.596 4.71428C16.0825 4.71428 12.3501 8.34719 12.3501 12.9316V22.0139C12.3501 22.2734 12.5237 22.4463 12.7841 22.4463Z" fill="black"/>
<path d="M26.6717 15.5265H14.5198V16.3914H26.6717V15.5265Z" fill="black"/>
<path d="M2.36799 40.6108V16.3914H11.0479V15.5265H1.5V40.6108C1.5 41.1298 1.8472 41.4758 2.36799 41.4758H33.0081V40.6108C22.679 40.6108 2.36799 40.6108 2.36799 40.6108Z" fill="black"/>
<path d="M38.8237 28.9336H39.6917V15.5265H30.1438V16.3914H38.8237V28.9336Z" fill="black"/>
</g>
<defs>
<clipPath id="clip0">
<rect width="48" height="48" fill="white"/>
</clipPath>
</defs>
</svg>
