<svg width="48" height="48" viewBox="0 0 48 48" fill="none" xmlns="http://www.w3.org/2000/svg">
<g clip-path="url(#clip0)">
<path d="M41.6429 0.159763C41.4523 -0.130178 40.7852 0.0631164 40.4992 0.0631164C40.2133 0.0631164 39.6415 0.159763 39.6415 0.449704C39.5462 0.642998 39.6415 0.932939 39.7368 1.12623C39.8321 1.22288 39.9274 1.31953 40.118 1.31953C40.4992 1.22288 40.8805 1.12623 41.2617 1.12623C41.5476 1.12623 41.6429 0.932939 41.6429 0.836292C41.7382 0.546351 41.7382 0.353057 41.6429 0.159763Z" fill="black"/>
<path d="M27.9192 10.8876C27.9192 10.2111 27.3474 9.53452 26.6803 9.43788C26.3944 9.43788 23.3447 9.43788 22.2011 9.43788C21.9152 9.43788 21.8199 9.34123 21.8199 9.05129C21.8199 8.76135 21.8199 3.54241 21.8199 3.25247C21.7246 2.57594 21.3434 2.09271 20.6763 1.89941C20.4857 1.89941 20.2951 1.89941 20.1045 1.89941C18.0078 1.89941 16.0065 1.89941 13.9098 1.89941C12.9568 1.89941 12.2897 2.57594 12.2897 3.54241C12.2897 5.3787 12.2897 7.215 12.2897 9.14793C12.2897 9.43788 12.1944 9.53452 11.9085 9.53452C11.8132 9.53452 9.04941 9.53452 7.61987 9.53452C6.95276 9.43788 6.28564 10.1144 6.28564 10.8876C6.28564 16.8797 6.28564 40.5582 6.28564 46.4537C6.28564 47.0335 6.57155 47.4201 6.95276 47.7101C7.14336 47.8067 7.33397 48 7.61987 48C13.9098 48 20.2951 48 26.585 48C26.6803 48 26.7756 48 26.8709 47.9034C27.538 47.6134 27.9192 47.0335 27.9192 46.357C27.9192 45.7771 27.9192 13.2071 27.9192 11.3708C27.9192 11.2742 27.9192 11.0809 27.9192 10.8876ZM13.338 3.63906C13.338 3.15582 13.5286 2.96253 14.0051 2.96253C15.0534 2.96253 19.1514 2.96253 20.1998 2.96253C20.6763 2.96253 20.9622 3.25247 20.8669 3.73571C20.8669 3.929 20.7716 3.929 20.581 4.02565C20.0092 4.12229 19.4373 4.31559 18.9608 4.70218C18.4843 5.08876 18.1984 5.572 18.1984 6.15188C18.1031 7.11835 18.4843 7.69823 19.2467 8.18147C19.6279 8.47141 20.1045 8.6647 20.581 8.6647C20.6763 8.6647 20.6763 8.76135 20.7716 8.76135C20.7716 8.95464 20.7716 9.14793 20.7716 9.34123C20.7716 9.34123 20.6763 9.43788 20.581 9.43788C18.9608 9.43788 14.4816 9.43788 13.8145 9.43788C13.4333 9.43788 13.338 9.34123 13.338 8.95464C13.338 7.215 13.338 5.3787 13.338 3.63906ZM20.7716 7.40829C20.7716 7.50494 20.7716 7.60158 20.581 7.60158C20.1998 7.50494 19.8185 7.40829 19.5326 7.11835C19.0561 6.63511 19.0561 5.86194 19.6279 5.47535C19.9139 5.28206 20.2951 5.18541 20.6763 5.08876C20.7716 4.99212 20.8669 5.18541 20.8669 5.28206C20.8669 5.66864 20.8669 6.05523 20.8669 6.34517C20.7716 6.73176 20.7716 7.11835 20.7716 7.40829ZM8.09639 10.501C14.1004 10.501 20.1045 10.501 26.0132 10.501C26.585 10.501 26.7756 10.5976 26.7756 11.2742C26.7756 13.4004 26.7756 15.43 26.7756 17.5562C26.7756 18.1361 26.7756 18.1361 26.2038 18.1361C23.1541 18.1361 8.8588 18.1361 7.81048 18.1361C7.71518 18.1361 7.61987 18.1361 7.52457 18.1361C7.33397 18.1361 7.33397 18.0395 7.33397 17.8462C7.33397 17.7495 7.33397 17.6529 7.33397 17.5562C7.33397 15.5266 7.33397 13.4004 7.33397 11.3708C7.33397 10.5976 7.42927 10.501 8.09639 10.501ZM26.7756 46.1637C26.7756 46.8402 26.6803 46.9369 26.0132 46.9369C20.1045 46.9369 14.1004 46.9369 8.19169 46.9369C8.09639 46.9369 8.00108 46.9369 8.00108 46.9369C7.61987 46.9369 7.33397 46.7436 7.33397 46.2604C7.33397 45.4872 7.33397 40.8481 7.33397 39.3018C7.33397 38.9152 7.33397 38.9152 7.71518 38.9152C10.8601 38.9152 23.2494 38.9152 26.2991 38.9152C26.7756 38.9152 26.7756 38.9152 26.7756 39.3984C26.7756 41.718 26.7756 43.9408 26.7756 46.1637ZM26.7756 37.6588C26.7756 37.8521 26.6803 37.9487 26.4897 37.9487C26.3944 37.9487 7.71518 37.9487 7.61987 37.9487C7.33397 37.9487 7.33397 37.8521 7.33397 37.6588C7.33397 37.5621 7.33397 19.5858 7.33397 19.3925C7.33397 19.1992 7.42927 19.1992 7.61987 19.1992C7.71518 19.1992 23.3447 19.1992 26.4897 19.1992C26.8709 19.1992 26.8709 19.1992 26.8709 19.5858C26.7756 20.069 26.7756 37.4655 26.7756 37.6588Z" fill="black"/>
<path d="M37.2588 6.05517C37.5447 5.95852 37.7353 5.76523 37.7353 5.47528C37.7353 5.18534 37.5447 4.99205 37.1635 4.99205C36.7822 4.99205 36.401 4.99205 36.1151 4.99205C35.7339 4.99205 35.3527 4.99205 34.9715 4.99205C34.5903 4.99205 34.3044 5.37864 34.495 5.76523C34.5903 6.05517 34.7809 6.05517 35.0668 6.05517C35.7339 6.15181 37.1635 6.05517 37.2588 6.05517Z" fill="black"/>
<path d="M32.5891 5.76523C32.7797 5.37864 32.4938 4.99205 32.0173 4.99205C31.636 4.99205 30.2065 4.99205 29.9206 4.99205C29.6347 4.99205 29.4441 5.0887 29.3488 5.37864C29.2535 5.76523 29.5394 6.05517 29.9206 6.05517C30.5877 6.05517 31.2548 6.05517 32.0173 6.05517C32.3032 6.05517 32.4938 6.05517 32.5891 5.76523Z" fill="black"/>
<path d="M31.7314 2.96251C32.3985 2.86586 33.0656 2.67257 33.7327 2.57592C33.9233 2.47927 34.1139 2.28598 34.1139 2.09269C34.1139 1.7061 33.828 1.51281 33.4468 1.60945C32.7797 1.7061 32.2079 1.80275 31.5408 1.99604C31.2549 2.09269 31.0643 2.38263 31.1596 2.57592C31.2549 2.86586 31.4455 3.05916 31.7314 2.96251Z" fill="black"/>
<path d="M29.5392 7.69825C28.9674 7.6016 28.3956 7.40831 27.7285 7.31166C27.5379 7.31166 27.4426 7.31166 27.252 7.40831C27.0614 7.50495 26.9661 7.69825 26.9661 7.98819C26.9661 8.18148 27.0614 8.37478 27.3473 8.37478C28.0144 8.47142 28.5862 8.66472 29.2533 8.76137C29.6345 8.85801 29.8251 8.56807 29.8251 8.18148C29.9204 7.89154 29.8251 7.69825 29.5392 7.69825Z" fill="black"/>
<path d="M37.8307 9.43775C37.6401 9.3411 37.4495 9.3411 37.2589 9.24445C36.7824 9.14781 36.3059 9.05116 35.9247 8.95451C35.4482 8.95451 35.2576 9.14781 35.2576 9.53439C35.2576 9.82434 35.5435 9.92098 35.7341 10.0176C36.3059 10.1143 36.973 10.3076 37.5448 10.4042C37.8307 10.5009 38.1166 10.3076 38.1166 10.0176C38.3072 9.82434 38.1166 9.5344 37.8307 9.43775Z" fill="black"/>
<path d="M33.6373 8.47139C33.0655 8.37474 32.3984 8.18145 31.8265 8.0848C31.4453 7.98815 31.1594 8.27809 31.1594 8.56803C31.1594 8.85797 31.35 9.05127 31.6359 9.05127C32.2077 9.14792 32.8749 9.34121 33.4467 9.43786C33.7326 9.5345 34.0185 9.24456 34.1138 9.05127C34.1138 8.85797 33.9232 8.56803 33.6373 8.47139Z" fill="black"/>
<path d="M35.9247 2.18934C36.5918 2.09269 37.2589 1.8994 37.8307 1.70611C38.1166 1.60946 38.2119 1.41617 38.2119 1.12622C38.2119 0.932931 37.926 0.739637 37.6401 0.64299C36.973 0.836284 36.3059 0.932931 35.6388 1.12622C35.3529 1.22287 35.2576 1.41617 35.3529 1.70611C35.4482 1.99605 35.6388 2.18934 35.9247 2.18934Z" fill="black"/>
<path d="M27.4428 3.73573C27.6334 3.83238 28.1099 3.73573 28.3005 3.73573C28.777 3.63909 29.1582 3.54244 29.6347 3.44579C29.8253 3.34914 29.9206 3.2525 29.9206 2.96256C29.9206 2.57597 29.6347 2.38268 29.2535 2.38268C28.6817 2.47932 28.2052 2.57597 27.6334 2.76926C27.5381 2.76926 27.3475 2.86591 27.2522 2.86591C27.0616 2.96256 26.9663 3.2525 27.0616 3.34914C27.0616 3.54244 27.2522 3.73573 27.4428 3.73573Z" fill="black"/>
<path d="M40.0226 6.15181C40.2132 6.15181 40.4038 6.15181 40.5944 6.15181C40.785 6.15181 40.9756 6.15181 41.2615 6.15181C41.4521 6.15181 41.6427 6.05517 41.6427 5.86187C41.6427 5.66858 41.6427 5.47529 41.6427 5.28199C41.6427 5.0887 41.4521 4.99205 41.3568 4.99205C40.8803 4.99205 40.4038 4.99205 40.0226 4.99205C39.832 4.99205 39.7367 5.0887 39.6414 5.28199C39.6414 5.37864 39.6414 5.57193 39.6414 5.76523C39.6414 5.95852 39.7367 6.05517 40.0226 6.15181Z" fill="black"/>
<path d="M41.3568 10.1144C40.8802 10.0177 40.499 9.92108 40.0225 9.82443C39.6413 9.72779 39.4507 10.1144 39.546 10.4043C39.546 10.5976 39.6413 10.7909 39.9272 10.8875C40.3084 10.9842 40.6896 11.0808 41.1661 11.0808C41.3568 11.0808 41.5474 11.0808 41.6427 10.7909C41.6427 10.6943 41.738 10.211 41.3568 10.1144Z" fill="black"/>
<path d="M25.5369 5.57201C25.5369 5.86196 25.7275 6.05525 26.0134 6.05525C26.2993 6.05525 27.157 6.05525 27.2523 6.05525C27.4429 5.9586 27.6335 5.76531 27.6335 5.47537C27.6335 5.28207 27.5382 5.08878 27.2523 4.99213C26.8711 4.89549 26.3946 4.89549 26.0134 4.99213C25.7275 5.08878 25.5369 5.28207 25.5369 5.57201Z" fill="black"/>
<path d="M24.1071 7.60158C24.4883 7.69823 24.8695 7.79488 25.2508 7.79488C25.5367 7.79488 25.7273 7.60158 25.8226 7.31164C25.9179 7.0217 25.7273 6.82841 25.4414 6.73176C25.3461 6.73176 24.4883 6.53847 24.2024 6.44182C23.9165 6.44182 23.7259 6.53847 23.6306 6.82841C23.6306 7.31164 23.8212 7.50493 24.1071 7.60158Z" fill="black"/>
<path d="M24.393 4.50893C24.7742 4.50893 25.1554 4.31563 25.4414 4.31563C25.7273 4.21899 25.8226 4.02569 25.7273 3.73575C25.632 3.44581 25.4414 3.25252 25.1554 3.25252C24.7742 3.34916 24.2977 3.44581 23.9165 3.54246C23.7259 3.54246 23.6306 3.73575 23.6306 3.92905C23.7259 4.41228 24.0118 4.50893 24.393 4.50893Z" fill="black"/>
</g>
<defs>
<clipPath id="clip0">
<rect width="48" height="48" fill="white"/>
</clipPath>
</defs>
</svg>
