<svg width="48" height="48" viewBox="0 0 48 48" fill="none" xmlns="http://www.w3.org/2000/svg">
<path d="M47.8723 43.4468C46.3404 41.9149 45.1915 40.5106 44.2979 37.8298L44.1702 37.5745L44.2979 37.3191C44.8085 36.5532 45.1915 35.1489 45.1915 33.8723C45.1915 30.0426 45.1915 27.617 45.1915 25.0638C45.1915 23.0213 45.1915 21.234 45.1915 18.9362C44.9362 15.3617 42.5106 12.1702 38.9362 10.5106C37.9149 8.46808 36.6383 6.93617 34.8511 5.91489C33.1915 4.89361 31.0213 4.25531 28.7234 4.12766H13.6596C10.8511 4.38297 8.17021 5.53191 6.25532 7.19149C4.21277 8.97872 3.06383 11.4043 2.80851 13.8298C2.80851 16.2553 2.80851 18.0426 2.80851 20.0851C2.80851 22.383 2.80851 24.9362 2.80851 28.8936C2.80851 30.1702 3.19149 31.5745 3.70213 32.3404L3.82979 32.4681V32.7234C2.93617 35.5319 1.65957 36.8085 0.255319 38.3404L0 38.5957C2.80851 39.8723 5.74468 39.7447 8.80851 38.3404L9.19149 38.2128C10.2128 40 11.7447 41.7872 13.4043 43.0638C15.0638 44.2128 16.7234 44.9787 18 44.9787H34.9787C35.617 44.9787 38.1702 44.2128 38.5532 43.5745L38.8085 43.1915L39.1915 43.3191C42.383 44.7234 45.1915 44.8511 48 43.5745L47.8723 43.4468ZM9.70213 37.1915C9.44681 37.0638 9.31915 36.9362 9.19149 36.8085C6.38298 38.2128 3.95745 38.2128 3.06383 38.2128H2.04255V38.0851L2.55319 37.3191C3.70213 35.6596 4.7234 33.8723 4.97872 32.4681C4.34043 31.4468 3.95745 30.0426 3.95745 28.6383C3.95745 24.6808 3.95745 22.1277 3.95745 19.9574V19.8298C3.95745 17.7872 3.95745 16.1277 3.95745 13.7021C4.97872 9.23404 8.17021 6.29787 13.6596 5.27659H28.8511C32.8085 5.53191 35.7447 7.31914 37.5319 10.6383C37.6596 11.0213 37.7872 11.2766 37.9149 11.5319C38.4255 12.6808 38.8085 13.8298 38.9362 14.9787L39.1915 28.2553C38.8085 31.7021 36.6383 34.383 35.3617 35.5319C33.5745 37.3191 31.4043 38.4681 30 38.4681L13.0213 38.5957C12.5106 38.5957 11.234 38.0851 10.2128 37.5745C10.0851 37.3191 9.95745 37.3191 9.70213 37.1915ZM44.9362 43.3191C43.9149 43.3191 41.617 43.3192 38.8085 41.9149C37.9149 42.6809 35.7447 43.7021 34.9787 43.7021L18 43.5745C16.5957 43.5745 14.0426 42.1702 11.7447 39.617L11.617 39.4894H11.7447C12.383 39.7447 12.8936 39.7447 13.0213 39.7447H30C33.8298 39.7447 40.0851 34.1277 40.3404 27.7447V14.8511C40.2128 13.9574 39.9575 13.1915 39.7021 12.4255V12.2979L39.8298 12.4255C42 13.9574 43.4043 16.1277 43.9149 18.8085C43.9149 21.234 43.9149 23.0213 43.9149 24.9362C43.9149 27.1064 43.9149 29.6596 43.9149 33.617C43.9149 34.8936 43.5319 36.2979 42.8936 37.4468C43.2766 38.8511 44.1702 40.766 45.3192 42.2979L45.9575 43.1915H44.9362V43.3191Z" fill="black"/>
</svg>
