<svg width="48" height="48" viewBox="0 0 48 48" fill="none" xmlns="http://www.w3.org/2000/svg">
<path d="M45.8791 14.4H33.6V2.12093C33.6 1.00465 32.5954 0 31.4791 0H16.5209C15.293 0 14.4 1.00465 14.4 2.12093V14.4H2.12093C1.00465 14.4 0 15.4047 0 16.5209V31.4791C0 32.707 1.00465 33.6 2.12093 33.6H14.4V45.8791C14.4 46.9953 15.4047 48 16.5209 48H31.4791C32.707 48 33.6 46.9953 33.6 45.8791V33.6H45.8791C46.9953 33.6 48 32.5954 48 31.4791V16.5209C48 15.4047 46.9953 14.4 45.8791 14.4ZM46.8837 31.4791C46.8837 32.0372 46.4372 32.5954 45.7674 32.5954H33.4884H32.3721V40.5209V45.9907C32.3721 46.5488 31.9256 47.107 31.2558 47.107H16.5209C15.9628 47.107 15.4047 46.6605 15.4047 45.9907V40.5209V33.7116V32.5954H15.293H14.2884H2.0093C1.45116 32.5954 0.893023 32.1488 0.893023 31.4791V16.5209C0.893023 15.9628 1.33953 15.4047 2.0093 15.4047H15.293V14.2884V10.9395V2.0093C15.293 1.45116 15.7395 0.893023 16.4093 0.893023H31.3674C31.9256 0.893023 32.4837 1.33953 32.4837 2.0093V10.9395V14.2884V15.4047H45.7674C46.3256 15.4047 46.8837 15.8512 46.8837 16.5209V31.4791Z" fill="#231F20"/>
</svg>
