<svg width="48" height="48" viewBox="0 0 48 48" fill="none" xmlns="http://www.w3.org/2000/svg">
<path fill-rule="evenodd" clip-rule="evenodd" d="M40.7202 41.022C40.7202 41.6605 40.208 42.1959 39.6165 42.2373L24.8981 42.238V22.4047H40.7202V41.022ZM7.2806 41.022V22.4047H23.1027V42.238L8.44652 42.2394C7.79212 42.1959 7.2806 41.6605 7.2806 41.022ZM11.9941 8.75625C11.9941 7.10581 13.3601 5.76343 15.0404 5.76343C15.8827 5.76343 16.6671 6.09394 17.2201 6.66373L22.0617 11.6817H13.9259L13.9731 11.5589C12.7893 11.1238 11.9941 9.99689 11.9941 8.75625ZM30.6474 6.8132L30.7517 6.69391C31.3333 6.09394 32.1184 5.76343 32.9614 5.76343C34.641 5.76343 36.0077 7.10581 36.0077 8.75625C36.0077 9.99689 35.2125 11.1238 34.028 11.5589L34.0752 11.6817H25.9395L30.6474 6.8132ZM5.45739 20.6406C3.43775 20.6406 1.7946 19.0267 1.7946 17.0436C1.7946 15.0585 3.43775 13.4452 5.45739 13.4452H21.7582L18.4519 16.8647L19.7521 18.0794L24 13.6866L28.2479 18.0794L29.5488 16.8647L26.2418 13.4452H42.5433C44.563 13.4452 46.2068 15.0585 46.2068 17.0436C46.2068 19.0267 44.563 20.6406 42.5433 20.6406H5.45739ZM42.5433 11.6817H36.7544C37.411 10.8607 37.8025 9.83899 37.8025 8.75624C37.8025 6.13392 35.6306 4 32.9616 4C31.6228 4 30.3761 4.52488 29.4231 5.50799L24 11.128L18.7091 5.65816L18.5483 5.47852C17.6253 4.52488 16.3786 4 15.0405 4C12.3708 4 10.199 6.13392 10.199 8.75624C10.199 9.83969 10.5905 10.8607 11.2463 11.6817H5.4574C2.44829 11.6817 0 14.0872 0 17.0435C0 19.9999 2.44829 22.4046 5.4574 22.4046H5.48598V41.0219C5.48598 42.5839 6.73263 43.8912 8.38507 44L39.6778 43.9972C41.2688 43.8912 42.5154 42.5846 42.5154 41.0219V22.4046H42.5433C45.5539 22.4046 48 19.9999 48 17.0435C48 14.0872 45.5539 11.6817 42.5433 11.6817Z" fill="black"/>
</svg>
