<svg width="48" height="48" viewBox="0 0 48 48" fill="none" xmlns="http://www.w3.org/2000/svg">
<path fill-rule="evenodd" clip-rule="evenodd" d="M44.16 14H8.88004C8.37604 14 8.04004 14.3333 8.04004 14.8333V38.1667C8.04004 38.6667 8.37604 39 8.88004 39H44.16C44.664 39 45 38.6667 45 38.1667V14.8333C45 14.3333 44.664 14 44.16 14ZM44.16 38.1667H8.88004V14.8333H44.16V38.1667Z" fill="#010101"/>
<path fill-rule="evenodd" clip-rule="evenodd" d="M21.732 27.3333C22.068 27.5833 22.488 27.6667 22.992 27.6667C23.496 27.6667 23.916 27.5833 24.252 27.3333C24.504 27.1667 24.672 26.9167 24.672 26.6667C24.672 26.4167 24.504 26.1667 24.252 26C23.916 25.75 23.496 25.6667 22.992 25.6667C22.488 25.6667 22.068 25.75 21.732 26C21.48 26.1667 21.312 26.4167 21.312 26.6667C21.312 26.9167 21.48 27.1667 21.732 27.3333ZM22.992 25.75C23.496 25.75 23.832 26.0833 23.832 26.6667C23.832 27.25 23.58 27.5833 22.992 27.5833C22.656 27.5833 22.152 27.4167 22.152 26.6667C22.152 26 22.572 25.75 22.992 25.75Z" fill="#010101"/>
<path fill-rule="evenodd" clip-rule="evenodd" d="M32.8201 27.5H32.4841V26.6667H33.6601V27.5H33.4081V27.5833H34.7521V27.5H34.4161V25.75H34.7521V25.6667H33.4081V25.75H33.6601V26.5833H32.4841V25.75H32.8201V25.6667H31.4761V25.75H31.7281V27.5H31.4761V27.5833H32.8201V27.5Z" fill="#010101"/>
<path fill-rule="evenodd" clip-rule="evenodd" d="M24.5039 27.6667H25.3439V27.5833H24.9239L25.2599 27.0833H26.5199L26.9399 27.5833H26.5199V27.6667H28.1999V27.5833H27.8639L26.3519 25.6667L24.8399 27.5833L24.5039 27.6667ZM25.9319 26.25L26.6039 27H25.4279L25.9319 26.25Z" fill="#010101"/>
<path fill-rule="evenodd" clip-rule="evenodd" d="M19.8001 27.6667C20.0521 27.6667 20.3041 27.5833 20.4721 27.4167L20.8081 27.5833H20.8921V26.8333H20.8081C20.8081 26.8333 20.7241 27 20.6401 27.1667C20.4721 27.4167 20.2201 27.5833 19.8001 27.6667C19.5481 27.5833 19.2961 27.5 19.1281 27.25C19.0441 27.0833 18.9601 26.8333 18.9601 26.6667C18.9601 26.0833 19.3801 25.75 19.8001 25.75C20.0521 25.75 20.3041 25.8333 20.5561 26C20.7241 26.1667 20.8081 26.3333 20.8081 26.4167H20.8921V25.6667H20.8081L20.4721 25.8333C20.4721 25.8333 20.3881 25.75 20.3041 25.75C20.2201 25.6667 19.9681 25.6667 19.7161 25.6667C19.2961 25.6667 18.9601 25.75 18.6241 25.9167C18.2881 26.0833 18.1201 26.3333 18.1201 26.6667C18.1201 27.3333 18.7081 27.6667 19.8001 27.6667Z" fill="#010101"/>
<path fill-rule="evenodd" clip-rule="evenodd" d="M29.88 27.5833C30.132 27.5833 30.384 27.5 30.552 27.3333L30.888 27.5H30.972V26.75H30.888C30.888 26.75 30.804 26.9167 30.72 27.0833C30.552 27.3333 30.3 27.5833 29.88 27.5833C29.628 27.5 29.376 27.4167 29.208 27.1667C29.124 27 29.04 26.75 29.04 26.5833C29.04 26 29.46 25.6667 29.88 25.6667C30.132 25.6667 30.384 25.75 30.636 25.9167C30.804 26.0833 30.888 26.25 30.888 26.3333H30.972V25.6667H30.888L30.552 25.8333C30.552 25.8333 30.468 25.75 30.384 25.75C30.3 25.6667 30.048 25.6667 29.796 25.6667C29.376 25.6667 29.04 25.75 28.704 25.9167C28.368 26.0833 28.2 26.3333 28.2 26.6667C28.2 27.25 28.788 27.5833 29.88 27.5833Z" fill="#010101"/>
<path fill-rule="evenodd" clip-rule="evenodd" d="M3.84 9.83333H39.12C39.12 9.83333 39.12 10.8333 39.12 12.4167H39.96V9.83333C39.96 9.33333 39.624 9 39.12 9H3.84C3.336 9 3 9.33333 3 9.83333V33.1667C3 33.6667 3.336 34 3.84 34H6.36V33.1667C4.764 33.1667 3.84 33.1667 3.84 33.1667V9.83333Z" fill="#010101"/>
</svg>
