<svg width="48" height="49" viewBox="0 0 48 49" fill="none" xmlns="http://www.w3.org/2000/svg">
<mask id="mask0" mask-type="alpha" maskUnits="userSpaceOnUse" x="0" y="0" width="48" height="49">
<path fill-rule="evenodd" clip-rule="evenodd" d="M0 0H48V48.0025H0V0Z" fill="white"/>
</mask>
<g mask="url(#mask0)">
<path fill-rule="evenodd" clip-rule="evenodd" d="M43.2509 -0.000183105H43.248C25.7632 0.0205361 25.4028 0.0908335 25.1875 0.133012C24.1671 0.331324 23.2399 0.824886 22.5036 1.56042L1.7718 22.2922C-0.590927 24.655 -0.590927 28.4998 1.7718 30.8626L17.1373 46.2281C18.2821 47.3728 19.8034 48.0026 21.4225 48.0026C23.0408 48.0026 24.5629 47.3728 25.7077 46.2281L46.4395 25.4963C47.3903 24.5454 47.9283 23.286 47.9594 21.9415C47.9609 21.9082 47.9623 21.8749 47.9623 21.8423V21.7883L48.0001 4.7534C48.0001 2.1302 45.8697 -0.000183105 43.2509 -0.000183105ZM43.2503 1.84961C44.8523 1.84961 46.1502 3.14752 46.1502 4.74956L46.1125 21.8081V21.8274V21.8422L46.111 21.8407C46.1051 22.6909 45.7803 23.5397 45.1313 24.1879L24.3995 44.9197C23.5774 45.7411 22.5 46.1525 21.4226 46.1525C20.3452 46.1525 19.2678 45.7411 18.4457 44.9197L3.08017 29.5542C1.43595 27.9099 1.43595 25.2446 3.08017 23.6004L23.812 2.86855C24.3026 2.37795 24.9071 2.0716 25.5398 1.94877H25.5405C25.9423 1.87033 43.2503 1.84961 43.2503 1.84961Z" fill="black"/>
</g>
<path fill-rule="evenodd" clip-rule="evenodd" d="M32.2839 25.0262C31.3678 25.9423 29.8825 25.9423 28.9663 25.0262C28.0493 24.11 28.0493 22.6248 28.9663 21.7078C29.8825 20.7917 31.3678 20.7917 32.2839 21.7078C33.2001 22.6248 33.2001 24.11 32.2839 25.0262Z" stroke="black" stroke-width="1.35" stroke-linejoin="round"/>
<path fill-rule="evenodd" clip-rule="evenodd" d="M20.5525 25.0261C19.6363 25.9423 18.151 25.9423 17.2349 25.0261C16.3179 24.11 16.3179 22.6247 17.2349 21.7085C18.151 20.7915 19.6363 20.7915 20.5525 21.7085C21.4687 22.6247 21.4687 24.11 20.5525 25.0261Z" stroke="black" stroke-width="1.35" stroke-linejoin="round"/>
<path d="M24.6819 17.6249V29.0166" stroke="black" stroke-width="1.8"/>
<path fill-rule="evenodd" clip-rule="evenodd" d="M42.1321 9.18907C41.2159 10.1052 39.7306 10.1052 38.8144 9.18907C37.8975 8.2729 37.8975 6.78759 38.8144 5.87142C39.7306 4.95444 41.2159 4.95444 42.1321 5.87142C43.0483 6.78759 43.0483 8.2729 42.1321 9.18907Z" stroke="black" stroke-width="1.35" stroke-linejoin="round"/>
</svg>
