<svg width="48" height="48" viewBox="0 0 48 48" fill="none" xmlns="http://www.w3.org/2000/svg">
<path d="M34.6543 14.8037C34.2057 15.2523 34.2057 15.9252 34.6543 16.3738C35.1029 16.8224 35.7758 16.8224 36.2244 16.3738C36.673 15.9252 36.673 15.2523 36.2244 14.8037C35.7758 14.3551 35.1029 14.3551 34.6543 14.8037Z" fill="#231F20"/>
<path d="M34.6543 8.52338C34.2057 8.97198 34.2057 9.64488 34.6543 10.0935C35.1029 10.5421 35.7758 10.5421 36.2244 10.0935C36.673 9.64488 36.673 8.97198 36.2244 8.52338C35.7758 8.07479 35.1029 8.07479 34.6543 8.52338Z" fill="#231F20"/>
<path d="M37.7942 11.6635C37.3456 12.1121 37.3456 12.785 37.7942 13.2336C38.2428 13.6822 38.9157 13.6822 39.3643 13.2336C39.8129 12.785 39.8129 12.1121 39.3643 11.6635C38.9157 11.2149 38.2428 11.2149 37.7942 11.6635Z" fill="#231F20"/>
<path d="M31.5139 11.6635C31.0653 12.1121 31.0653 12.785 31.5139 13.2336C31.9625 13.6822 32.6354 13.6822 33.084 13.2336C33.5326 12.785 33.5326 12.1121 33.084 11.6635C32.6354 11.2149 31.9625 11.2149 31.5139 11.6635Z" fill="#231F20"/>
<path d="M8.52346 34.6542C8.07486 35.1028 8.07486 35.7757 8.52346 36.2243C8.97206 36.6729 9.64496 36.6729 10.0936 36.2243C10.5422 35.7757 10.5422 35.1028 10.0936 34.6542C9.64496 34.2056 8.97206 34.2056 8.52346 34.6542Z" fill="#231F20"/>
<path d="M11.6634 37.7945C11.2148 38.2431 11.2148 38.916 11.6634 39.3646C12.112 39.8132 12.7848 39.8132 13.2334 39.3646C13.682 38.916 13.682 38.2431 13.2334 37.7945C12.7848 37.3459 12.112 37.3459 11.6634 37.7945Z" fill="#231F20"/>
<path d="M11.6634 31.514C11.2148 31.9626 11.2148 32.6355 11.6634 33.0841C12.112 33.5327 12.7848 33.5327 13.2334 33.0841C13.682 32.6355 13.682 31.9626 13.2334 31.514C12.7848 31.0654 12.112 31.0654 11.6634 31.514Z" fill="#231F20"/>
<path d="M14.8037 34.6542C14.3551 35.1028 14.3551 35.7757 14.8037 36.2243C15.2523 36.6729 15.9252 36.6729 16.3738 36.2243C16.8224 35.7757 16.8224 35.1028 16.3738 34.6542C15.9252 34.2056 15.2523 34.2056 14.8037 34.6542Z" fill="#231F20"/>
<path d="M31.5139 36.2243C31.9625 36.6729 32.6354 36.6729 33.084 36.2243C33.5326 35.7757 33.5326 35.1028 33.084 34.6542C32.6354 34.2056 31.9625 34.2056 31.5139 34.6542C31.0653 35.1028 31.0653 35.7757 31.5139 36.2243Z" fill="#231F20"/>
<path d="M36.2244 39.3646C36.673 38.916 36.673 38.2431 36.2244 37.7945C35.7758 37.3459 35.1029 37.3459 34.6543 37.7945C34.2057 38.2431 34.2057 38.916 34.6543 39.3646C35.1029 39.8132 35.7758 39.8132 36.2244 39.3646Z" fill="#231F20"/>
<path d="M36.2244 33.0841C36.673 32.6355 36.673 31.9626 36.2244 31.514C35.7758 31.0654 35.1029 31.0654 34.6543 31.514C34.2057 31.9626 34.2057 32.6355 34.6543 33.0841C35.1029 33.5327 35.7758 33.5327 36.2244 33.0841Z" fill="#231F20"/>
<path d="M47.3271 33.0841L38.243 24L37.4579 24.785L46.5421 33.8692C46.9907 34.3178 46.9907 34.9907 46.5421 35.4393L35.4393 46.5421C34.9907 46.9907 34.3178 46.9907 33.8692 46.5421L24.785 37.4579L38.243 24L47.3271 14.9159C48.2243 14.0187 48.2243 12.6729 47.3271 11.7757L36.2243 0.672897C35.3271 -0.224299 33.9813 -0.224299 33.0841 0.672897L24 9.75701L14.9159 0.672897C14.0187 -0.224299 12.6729 -0.224299 11.7757 0.672897L0.672897 11.7757C-0.224299 12.6729 -0.224299 14.0187 0.672897 14.9159L9.75701 24L0.672897 33.0841C-0.224299 33.9813 -0.224299 35.3271 0.672897 36.2243L11.7757 47.3271C12.6729 48.2243 14.0187 48.2243 14.9159 47.3271L24 38.243L33.0841 47.3271C33.9813 48.2243 35.3271 48.2243 36.2243 47.3271L47.3271 36.2243C48.2243 35.3271 48.2243 33.9813 47.3271 33.0841ZM1.34579 14.0187C0.897196 13.5701 0.897196 12.8972 1.34579 12.4486L12.4486 1.34579C12.8972 0.897196 13.5701 0.897196 14.0187 1.34579L23.1028 10.4299L10.4299 23.1028L1.34579 14.0187ZM14.0187 46.5421C13.5701 46.9907 12.8972 46.9907 12.4486 46.5421L1.34579 35.4393C0.897196 34.9907 0.897196 34.3178 1.34579 33.8692L33.8692 1.34579C34.3178 0.897196 34.9907 0.897196 35.4393 1.34579L46.5421 12.4486C46.9907 12.8972 46.9907 13.5701 46.5421 14.0187L14.0187 46.5421Z" fill="#231F20"/>
<path d="M39.3643 36.2243C39.8129 35.7757 39.8129 35.1028 39.3643 34.6542C38.9157 34.2056 38.2428 34.2056 37.7942 34.6542C37.3456 35.1028 37.3456 35.7757 37.7942 36.2243C38.2428 36.6729 38.9157 36.6729 39.3643 36.2243Z" fill="#231F20"/>
<path d="M16.3738 11.6635C15.9252 11.2149 15.2523 11.2149 14.8037 11.6635C14.3551 12.1121 14.3551 12.785 14.8037 13.2336C15.2523 13.6822 15.9252 13.6822 16.3738 13.2336C16.8224 12.785 16.8224 12.1121 16.3738 11.6635Z" fill="#231F20"/>
<path d="M8.52346 11.6635C8.07486 12.1121 8.07486 12.785 8.52346 13.2336C8.97206 13.6822 9.64496 13.6822 10.0936 13.2336C10.5422 12.785 10.5422 12.1121 10.0936 11.6635C9.64496 11.2149 8.97206 11.2149 8.52346 11.6635Z" fill="#231F20"/>
<path d="M11.6634 8.52338C11.2148 8.97198 11.2148 9.64488 11.6634 10.0935C12.112 10.5421 12.7848 10.5421 13.2334 10.0935C13.682 9.64488 13.682 8.97198 13.2334 8.52338C12.7848 8.07479 12.112 8.07479 11.6634 8.52338Z" fill="#231F20"/>
<path d="M11.6634 14.8037C11.2148 15.2523 11.2148 15.9252 11.6634 16.3738C12.112 16.8224 12.7848 16.8224 13.2334 16.3738C13.682 15.9252 13.682 15.2523 13.2334 14.8037C12.7848 14.3551 12.112 14.3551 11.6634 14.8037Z" fill="#231F20"/>
</svg>
