<svg width="24" height="24" viewBox="0 0 24 24" fill="none" xmlns="http://www.w3.org/2000/svg">
<path fill-rule="evenodd" clip-rule="evenodd" d="M21.1428 11.4286C21.4233 11.4286 21.6566 11.6307 21.705 11.8973L21.7142 12V23.4286C21.7142 23.7091 21.5121 23.9424 21.2455 23.9908L21.1428 24H2.85707C2.57655 24 2.34323 23.7979 2.29485 23.5313L2.28564 23.4286V12C2.28564 11.6844 2.54148 11.4286 2.85707 11.4286C3.1376 11.4286 3.37091 11.6307 3.4193 11.8973L3.4285 12V22.8572H20.5714V12C20.5714 11.7195 20.7735 11.4862 21.0401 11.4378L21.1428 11.4286Z" fill="black"/>
<path fill-rule="evenodd" clip-rule="evenodd" d="M23.4286 5.71429H0.571429C0.255837 5.71429 0 5.97013 0 6.28572V12C0 12.3156 0.255837 12.5714 0.571429 12.5714H23.4286C23.7442 12.5714 24 12.3156 24 12V6.28572C24 5.97013 23.7442 5.71429 23.4286 5.71429ZM22.8571 6.85714V11.4286H1.14282V6.85714H22.8571Z" fill="black"/>
<path fill-rule="evenodd" clip-rule="evenodd" d="M12.0001 5.71429C12.2807 5.71429 12.514 5.91644 12.5624 6.18301L12.5716 6.28572V23.4286C12.5716 23.7442 12.3157 24 12.0001 24C11.7196 24 11.4863 23.7979 11.4379 23.5313L11.4287 23.4286V6.28572C11.4287 5.97013 11.6845 5.71429 12.0001 5.71429Z" fill="black"/>
<path fill-rule="evenodd" clip-rule="evenodd" d="M6.85704 0C4.96349 0 3.42847 1.53502 3.42847 3.42857C3.42847 5.32212 4.96349 6.85714 6.85704 6.85714H11.9999C12.3605 6.85714 12.6309 6.52724 12.5602 6.17365L12.5059 5.93257C12.4596 5.74413 12.3929 5.50239 12.3036 5.22035C12.081 4.51737 11.7926 3.81394 11.4292 3.15319C10.3568 1.2034 8.85253 0 6.85704 0ZM6.857 1.14286C8.36151 1.14286 9.53583 2.08231 10.4277 3.70395L10.6146 4.06273C10.8537 4.54756 11.0528 5.05632 11.214 5.56537L11.2593 5.71429H6.857C5.59464 5.71429 4.57129 4.69094 4.57129 3.42857C4.57129 2.16621 5.59464 1.14286 6.857 1.14286Z" fill="black"/>
<path fill-rule="evenodd" clip-rule="evenodd" d="M17.1429 0C15.1475 0 13.6432 1.2034 12.5708 3.15319C12.2074 3.81394 11.919 4.51737 11.6964 5.22035L11.5791 5.61156C11.5119 5.85005 11.4661 6.04174 11.4398 6.17365C11.369 6.52724 11.6395 6.85714 12.0001 6.85714H17.1429C19.0365 6.85714 20.5715 5.32212 20.5715 3.42857C20.5715 1.53502 19.0365 0 17.1429 0ZM17.1429 1.14286C18.4053 1.14286 19.4286 2.16621 19.4286 3.42857L19.4224 3.59916C19.3351 4.78185 18.3479 5.71429 17.1429 5.71429H12.7395L12.7859 5.56537C12.9874 4.92906 13.2481 4.2932 13.5722 3.70395C14.4641 2.08231 15.6384 1.14286 17.1429 1.14286Z" fill="black"/>
</svg>
