<svg width="24" height="24" viewBox="0 0 24 24" fill="none" xmlns="http://www.w3.org/2000/svg">
<path fill-rule="evenodd" clip-rule="evenodd" d="M23.7979 10.7305L22.6863 8.26414C22.2821 7.36947 21.3726 6.78913 20.3369 6.78913H18.5432V6.16044C18.5432 5.65265 18.1137 5.21741 17.5579 5.21741H5.02738C4.64843 5.21741 4.37054 5.50757 4.37054 5.8461C4.37054 6.18462 4.6737 6.47479 5.02738 6.47479H17.179V11.1174C17.179 11.6978 17.659 12.1572 18.2653 12.1572H22.6358V15.083C22.6358 15.2039 22.5347 15.3006 22.4084 15.3006H21.6C21.1705 14.5994 20.3874 14.14 19.5032 14.14C18.619 14.14 17.8358 14.6236 17.4063 15.3006H10.6611C10.2316 14.5994 9.44843 14.14 8.56422 14.14C7.68001 14.14 6.89685 14.6236 6.46738 15.3006H4.14317C3.76422 15.3006 3.48633 15.5908 3.48633 15.9293C3.48633 16.292 3.78949 16.558 4.14317 16.558H6.13896C6.18949 17.7912 7.25054 18.7826 8.56422 18.7826C9.87791 18.7826 10.939 17.7912 10.9895 16.558H17.0779C17.1284 17.7912 18.1895 18.7826 19.5032 18.7826C20.8169 18.7826 21.8779 17.7912 21.9284 16.558H22.459C23.3179 16.558 24 15.881 24 15.083V11.6978C24 11.3834 23.9242 11.0449 23.7979 10.7305ZM8.56419 17.5252C7.95788 17.5252 7.45262 17.0416 7.45262 16.4613C7.45262 15.881 7.95788 15.3974 8.56419 15.3974C9.17051 15.3974 9.67577 15.881 9.67577 16.4613C9.67577 17.0416 9.17051 17.5252 8.56419 17.5252ZM18.3916 16.4613C18.3916 17.0416 18.8968 17.5252 19.5031 17.5252C20.1095 17.5252 20.6147 17.0416 20.6147 16.4613C20.6147 15.881 20.1095 15.3974 19.5031 15.3974C18.8968 15.3974 18.3916 15.881 18.3916 16.4613ZM18.5179 8.07067H20.5026C21.0338 8.07067 21.5369 8.36498 21.7326 8.84659L22.7949 11.2011H18.5179V8.07067ZM7.78098 9.11043H3.13256C2.77887 9.11043 2.47571 8.82026 2.47571 8.48173C2.47571 8.14321 2.75361 7.85304 3.13256 7.85304H7.78098C8.13466 7.85304 8.43782 8.11903 8.43782 8.48173C8.43782 8.82026 8.15992 9.11043 7.78098 9.11043ZM1.8947 11.5285H6.54312C6.92207 11.5285 7.19996 11.2383 7.19996 10.8998C7.19996 10.5371 6.8968 10.2711 6.54312 10.2711H1.8947C1.51575 10.2711 1.23786 10.5613 1.23786 10.8998C1.23786 11.2383 1.54101 11.5285 1.8947 11.5285ZM5.33053 12.6891C5.68421 12.6891 5.98737 12.9551 5.98737 13.3178C5.98737 13.6805 5.68421 13.9707 5.30526 13.9465H0.656842C0.303158 13.9465 0 13.6805 0 13.3178C0 12.9793 0.277895 12.6891 0.656842 12.6891H5.33053Z" fill="black"/>
</svg>
