<svg width="48" height="48" viewBox="0 0 48 48" fill="none" xmlns="http://www.w3.org/2000/svg">
<path fill-rule="evenodd" clip-rule="evenodd" d="M27.9548 9.3164C32.5956 10.2069 36.2242 13.7758 37.1296 18.3402C37.2426 18.9099 36.8647 19.4618 36.2854 19.573C35.7062 19.6841 35.145 19.3124 35.032 18.7427C34.2932 15.0182 31.3324 12.1061 27.5455 11.3795C26.9663 11.2683 26.5884 10.7164 26.7014 10.1467C26.805 9.62445 27.2851 9.26858 27.8106 9.29851L27.9548 9.3164Z" fill="black"/>
<path fill-rule="evenodd" clip-rule="evenodd" d="M27.868 1.00621C37.179 2.02356 44.5326 9.24695 45.5787 18.4034C45.6446 18.9802 45.2226 19.5003 44.6361 19.5651C44.0497 19.63 43.5208 19.2149 43.4549 18.6381C42.5203 10.4577 35.9506 4.00422 27.6321 3.09531C27.0455 3.03122 26.6229 2.51161 26.688 1.93472C26.7478 1.4059 27.1967 1.01253 27.7229 1L27.868 1.00621Z" fill="black"/>
<path fill-rule="evenodd" clip-rule="evenodd" d="M13.5993 3.5622L7.28266 3.56215C5.79752 3.56378 4.38256 4.17856 3.38216 5.25644C2.38168 6.33439 1.88792 7.77629 2.02147 9.2299C2.73311 15.8221 5.00803 22.141 8.66359 27.691C11.9807 32.8253 16.4133 37.1849 21.6415 40.4524C27.2505 44.03 33.6441 46.267 40.3 46.9783C41.8018 47.112 43.2721 46.6229 44.369 45.6332C45.4659 44.6434 46.0877 43.2447 46.0817 41.7806L46.0817 35.562C46.148 32.9487 44.1929 30.6793 41.5349 30.3105C39.5804 30.0569 37.6708 29.589 35.8328 28.9145L35.5416 28.8162C33.6873 28.2492 31.652 28.7293 30.2579 30.0853L28.1576 32.1493L27.649 31.8422C23.4748 29.2674 19.9464 25.7971 17.3285 21.6916L17.0161 21.1883L19.1106 19.1299C20.4933 17.7547 20.9816 15.7527 20.4044 13.9269L20.3043 13.6401C19.6194 11.8348 19.1437 9.9566 18.8872 8.04371C18.5145 5.44983 16.2528 3.53677 13.5993 3.5622ZM7.28401 5.66406L13.6203 5.66401C15.2012 5.64886 16.5486 6.78861 16.7699 8.32818C17.0461 10.3886 17.5609 12.4211 18.3031 14.3773C18.7367 15.5117 18.46 16.7878 17.5954 17.6477L14.9212 20.2779C14.581 20.6124 14.5101 21.1293 14.7478 21.5405C17.8452 26.8981 22.3555 31.3341 27.8027 34.3805C28.2209 34.6143 28.7463 34.5446 29.0865 34.21L31.7649 31.5757C32.635 30.7295 33.9325 30.4573 35.0834 30.8828C37.0748 31.6137 39.1413 32.12 41.246 32.393C42.82 32.6115 43.9847 33.9635 43.945 35.5359L43.9447 41.7848C43.9483 42.6613 43.5779 43.4946 42.9244 44.0842C42.2709 44.6739 41.395 44.9652 40.5118 44.8867C34.2074 44.2128 28.133 42.0875 22.7961 38.6835C17.8244 35.5763 13.6164 31.4375 10.4625 26.5558C6.98435 21.2752 4.823 15.2718 4.14845 9.02429C4.07052 8.1747 4.36468 7.31569 4.96071 6.6735C5.55673 6.03133 6.3998 5.66503 7.28401 5.66406Z" fill="black"/>
</svg>
