<svg width="48" height="48" viewBox="0 0 48 48" fill="none" xmlns="http://www.w3.org/2000/svg">
<path fill-rule="evenodd" clip-rule="evenodd" d="M35.6931 0H13.149C10.3053 0 8 2.27184 8 5.07429V42.9257C8 45.7282 10.3053 48 13.149 48H35.6931C38.5368 48 40.8421 45.7282 40.8421 42.9257V5.07429C40.8421 2.27184 38.5368 0 35.6931 0ZM13.1491 1.91987H35.6933C37.461 1.91987 38.894 3.33209 38.894 5.07416V42.9256C38.894 44.6676 37.461 46.0799 35.6933 46.0799H13.1491C11.3814 46.0799 9.9484 44.6676 9.9484 42.9256V5.07416C9.9484 3.33209 11.3814 1.91987 13.1491 1.91987Z" fill="black"/>
<path fill-rule="evenodd" clip-rule="evenodd" d="M39.1724 31.36V33.28H9.94849V31.36H39.1724Z" fill="black"/>
<ellipse cx="24.8386" cy="39.1772" rx="1.66994" ry="1.64572" fill="black"/>
</svg>
