<svg width="24" height="24" viewBox="0 0 24 24" fill="none" xmlns="http://www.w3.org/2000/svg">
<path fill-rule="evenodd" clip-rule="evenodd" d="M24 6C23.9861 5.81556 23.9434 5.63444 23.8734 5.46324L21.4734 0.66324C21.2701 0.256711 20.8545 -5.27171e-05 20.4 0H3.6C3.14546 -5.27171e-05 2.72991 0.256711 2.5266 0.66324L0.1266 5.46324C0.0566447 5.63446 0.0139274 5.81557 0 6V7.2C0.00442465 8.35818 0.431081 9.475 1.2 10.3411V22.8C1.20191 23.462 1.73805 23.9981 2.4 24H21.6C22.2619 23.9981 22.7981 23.462 22.8 22.8V10.3411C23.5689 9.475 23.9956 8.35818 24 7.2V6ZM19.2 9.6C17.8751 9.59868 16.8013 8.52493 16.8 7.2H21.6C21.5987 8.52493 20.5249 9.59868 19.2 9.6ZM4.8 9.6C6.12548 9.6 7.2 8.52548 7.2 7.2H2.4C2.4 8.52548 3.47452 9.6 4.8 9.6ZM14.4 7.2C14.4 8.52548 13.3255 9.6 12 9.6C10.6745 9.6 9.6 8.52548 9.6 7.2H14.4ZM19.6581 2.40007H4.3418L3.1418 4.80007H20.8581L19.6581 2.40007ZM10.8 21.6V18C10.8 17.3373 11.3373 16.8 12 16.8C12.6627 16.8 13.2 17.3373 13.2 18V21.6H10.8ZM15.6 18V21.6H20.4V11.8291C18.6466 12.3186 16.769 11.7366 15.6 10.3411C14.7003 11.3939 13.3848 12 12 12C10.6152 12 9.29973 11.3939 8.4 10.3411C7.49747 11.3902 6.18383 11.9955 4.8 12C4.39436 11.9947 3.99108 11.9375 3.6 11.8296V21.6H8.4V18C8.4 16.0118 10.0118 14.4 12 14.4C13.9882 14.4 15.6 16.0118 15.6 18Z" fill="black"/>
</svg>
