<svg width="100" height="42" viewBox="0 0 100 42" fill="none" xmlns="http://www.w3.org/2000/svg">
<path fill-rule="evenodd" clip-rule="evenodd" d="M66.8981 28.488V21.2995H61.4991C61.3933 26.268 65.6278 28.0651 66.8981 28.488Z" fill="black"/>
<path fill-rule="evenodd" clip-rule="evenodd" d="M76.3199 28.488C76.5316 28.3823 76.7433 28.3823 77.0609 28.1709C78.9664 23.2024 81.7189 21.4053 81.9306 21.2995C80.2368 21.2995 77.6961 21.2995 76.4257 21.2995V28.488H76.3199Z" fill="black"/>
<path fill-rule="evenodd" clip-rule="evenodd" d="M22.3301 23.6252L23.0711 22.1452C22.6477 22.0395 22.1183 22.0395 21.589 22.1452L22.3301 23.6252Z" fill="black"/>
<path fill-rule="evenodd" clip-rule="evenodd" d="M27.5173 22.5681C27.1997 21.0881 26.988 19.1853 26.988 18.1282C25.5059 18.4453 24.3414 18.4453 24.1297 18.4453V21.2995C25.5059 21.7224 26.247 21.9338 27.5173 22.5681Z" fill="black"/>
<path fill-rule="evenodd" clip-rule="evenodd" d="M23.0711 21.1938V18.4453C22.8594 18.4453 21.8008 18.4453 21.589 18.4453V21.1938C21.589 21.1938 21.9066 21.1938 22.3301 21.1938C22.7535 21.1938 23.0711 21.1938 23.0711 21.1938Z" fill="black"/>
<path fill-rule="evenodd" clip-rule="evenodd" d="M36.198 26.5852C37.3625 24.6823 37.3625 23.3081 37.3625 23.3081C37.3625 21.2995 36.0922 19.6081 35.2453 18.8681C32.9163 16.9653 28.0466 17.9167 28.0466 17.9167C27.9408 18.6567 27.9408 20.9824 28.5759 23.0967C30.7991 24.3652 34.8218 26.1623 36.198 26.5852Z" fill="black"/>
<path fill-rule="evenodd" clip-rule="evenodd" d="M30.7991 29.0166C30.2697 28.1709 29.2111 27.008 27.3056 27.9594C27.3056 27.9594 27.1997 29.6508 28.0466 30.2851C28.3642 30.6023 29.317 31.7651 28.9994 32.6108C28.8935 33.0336 26.8821 34.725 26.3528 35.2536C25.2942 36.0993 25.5059 36.6279 25.5059 36.6279C25.7177 37.5793 24.9766 39.2707 25.6118 40.0107C25.7177 40.1164 25.7177 40.1164 25.7177 40.1164C26.3528 40.1164 27.3056 38.6364 27.3056 38.3193C27.3056 38.1079 26.6704 37.2622 26.6704 37.1564C26.7763 36.945 26.8821 37.0507 27.0939 36.7336C27.1997 36.6279 27.1997 36.3107 27.1997 36.205C27.3056 35.5707 30.058 33.3508 30.5873 33.0336C31.4342 32.5051 30.7991 31.8708 30.7991 31.8708C29.7404 30.6023 30.6932 29.1223 30.7991 29.0166Z" fill="black"/>
<path fill-rule="evenodd" clip-rule="evenodd" d="M20.6363 22.251C20.6363 22.251 17.1428 22.7795 14.708 25.2109C14.4962 25.4223 14.3904 25.2109 14.3904 25.2109C14.3904 25.2109 14.3904 24.9995 14.4962 24.7881C15.5549 23.4138 18.6249 21.4053 20.5304 21.1938V18.2339C19.7894 18.1282 19.0483 17.9167 18.8366 17.9167C17.0369 19.5024 13.6493 22.0395 10.4735 23.5195C10.1559 25.1052 11.2145 25.8452 11.2145 26.5852C11.2145 26.7966 11.1086 26.9023 11.0028 27.008C10.3676 27.6423 7.61519 29.6508 7.2976 30.3908C7.08588 30.9194 7.72105 34.6193 7.72105 35.8879C7.72105 36.8393 8.46209 37.3679 8.46209 37.3679C8.77968 37.7907 10.1559 39.4821 10.7911 39.4821C11.2145 39.2707 11.8497 36.7336 10.3676 37.0507C9.62658 37.1564 9.62658 37.0507 9.73244 36.6279C9.73244 36.4164 9.62658 36.205 9.41485 36.0993C8.46209 35.6765 8.25037 31.0251 9.41485 30.6023C13.5435 29.0166 16.5076 27.8537 16.7194 26.0566C17.9897 27.748 15.0256 29.228 14.9197 29.228C15.1314 29.968 15.6607 31.2365 15.5549 31.8708C15.449 32.2937 15.7666 33.8793 15.7666 33.8793C16.19 34.8308 16.19 38.2136 15.7666 38.6364C15.6607 38.7421 15.5549 39.0593 15.449 39.2707C15.1314 39.6935 14.3904 40.3278 14.2845 41.1735C14.1787 41.7021 16.8252 41.1735 16.7194 40.4335C16.7194 40.2221 16.5076 39.905 16.7194 39.6935C16.8252 39.4821 17.0369 39.5878 17.2487 39.4821C17.4604 39.2707 17.6721 38.9536 17.5663 38.6364C17.1428 37.4736 17.0369 35.1479 17.3545 34.0908C17.4604 33.7736 17.5663 32.0822 17.4604 31.5537C17.4604 31.1308 18.2014 28.0651 18.2014 27.9594C19.0483 28.1709 20.107 28.3823 21.9066 28.3823C21.9066 27.4309 21.9066 27.1137 21.9066 24.4709L20.6363 22.251Z" fill="black"/>
<path fill-rule="evenodd" clip-rule="evenodd" d="M29.5287 27.1137C28.3642 25.2109 27.9408 24.3652 27.8349 23.8366C26.247 22.7795 24.5532 22.3567 24.1297 22.3567C23.8121 22.8852 22.9652 24.4709 22.9652 24.4709C22.9652 27.1137 22.9652 27.4309 22.9652 28.3823C25.1884 28.0652 27.4115 26.1623 29.5287 27.1137Z" fill="black"/>
<path fill-rule="evenodd" clip-rule="evenodd" d="M37.1508 27.008C37.9977 27.2195 38.4211 27.2194 39.4798 27.3252C40.1149 21.2995 38.527 20.031 36.4098 19.291C37.2567 19.9253 39.7974 23.2024 37.1508 27.008Z" fill="black"/>
<path fill-rule="evenodd" clip-rule="evenodd" d="M3.48656 16.1196C3.3807 16.0139 3.3807 15.5911 3.69829 15.1682C3.59242 15.1682 3.06311 15.1682 3.06311 15.1682C3.06311 15.1682 3.06311 15.1682 3.06311 15.0625L2.85139 13.4768L4.2276 13.2654C4.2276 13.2654 4.2276 12.9482 4.12174 12.7368C3.06311 12.7368 1.89863 13.1597 1.6869 13.1597C1.47518 14.5339 2.11035 14.9568 2.11035 14.9568C2.63966 15.4853 2.95725 17.2825 3.06311 17.3882C3.3807 17.5996 4.12174 17.4939 4.43932 17.4939C3.06311 17.3882 3.48656 16.1196 3.48656 16.1196Z" fill="black"/>
<path fill-rule="evenodd" clip-rule="evenodd" d="M10.3676 14.9568C10.1559 15.1682 9.30899 15.3796 8.88554 15.8025C9.20313 16.6482 6.98002 19.6081 6.98002 21.6167C6.98002 21.7224 6.98002 21.6167 6.98002 21.7224C7.40347 21.1938 9.41485 19.5024 10.1559 19.0796C10.5793 17.9167 10.7911 15.8025 10.3676 14.9568Z" fill="black"/>
<path fill-rule="evenodd" clip-rule="evenodd" d="M3.16897 18.6567C3.16897 18.6567 3.16897 18.7624 3.27483 18.9739C3.48656 19.7138 3.48656 20.031 4.22759 20.031C4.33345 20.031 5.81553 20.1367 5.70967 19.1853C5.70967 19.0796 6.13311 18.8681 6.02725 18.6567C6.02725 18.3396 5.92139 18.4453 5.92139 18.4453C5.39208 18.551 3.69828 18.7624 3.16897 18.6567Z" fill="black"/>
<path fill-rule="evenodd" clip-rule="evenodd" d="M2.42793 11.4683C1.89862 11.7854 1.6869 11.9968 1.6869 12.2082C1.79276 12.2082 2.11035 12.1025 2.5338 11.9968C2.74552 11.9968 2.95725 11.8911 3.16897 11.8911C3.3807 11.8911 3.69828 11.7854 3.91001 11.7854C3.27483 10.834 2.11035 9.14258 2.11035 9.14258C2.11035 9.14258 2.11035 9.24829 2.11035 9.67114C1.89862 10.6226 2.42793 11.4683 2.42793 11.4683Z" fill="black"/>
<path fill-rule="evenodd" clip-rule="evenodd" d="M10.05 26.6909C9.52072 25.528 8.9914 24.3652 10.1559 20.1367C9.20313 20.8767 7.61519 22.3567 7.19174 23.0967C6.76829 24.3652 8.03864 25.528 8.14451 26.1623C8.25037 27.1137 3.16897 28.5937 2.95725 28.6994C2.5338 28.9108 2.21621 29.4394 2.21621 29.8623C2.21621 30.2851 1.15759 33.1394 1.15759 33.3508C1.05173 33.6679 0.734138 35.5707 0.734138 35.5707C0.840001 36.205 0.840001 38.1078 0.840001 38.1078C3.16897 37.5793 2.32207 35.7822 2.21621 35.7822C2.21621 35.6765 2.32207 35.6765 2.42794 35.5707C2.5338 35.3593 2.63966 34.9365 2.5338 34.725C2.21621 34.3022 2.32207 34.0908 2.32207 34.0908C2.74552 32.3994 3.69829 30.1794 4.33346 29.8623C4.43932 29.7565 6.76829 29.4394 7.50933 29.3337C7.72106 28.8051 10.1559 26.7966 10.05 26.6909Z" fill="black"/>
<path fill-rule="evenodd" clip-rule="evenodd" d="M27.8349 31.7651C27.3056 31.2365 26.1411 29.5451 26.247 28.3823C25.5059 28.5937 24.5532 29.0166 24.5532 29.0166C24.659 30.4965 26.1411 31.1308 26.1411 32.2937C26.1411 32.9279 24.4473 34.1965 23.918 34.725C22.8594 35.5707 23.0711 36.0993 23.0711 36.0993C23.3887 36.8393 22.6476 38.3193 23.177 39.2707C23.177 39.3764 23.2828 39.3764 23.3887 39.3764C24.0239 39.3764 24.9766 38.0021 24.9766 37.5793C24.9766 37.4736 23.918 36.5222 24.3414 36.5222C24.9766 36.4164 24.8708 36.0993 24.8708 35.6765C24.8708 34.8308 28.1525 32.9279 28.1525 32.7165C28.0466 32.2937 27.9408 31.9765 27.8349 31.7651Z" fill="black"/>
<path fill-rule="evenodd" clip-rule="evenodd" d="M11.638 30.6023C11.8497 31.7651 12.8024 32.7165 13.0142 33.1394C13.4376 34.3022 13.5435 35.9936 13.6493 36.3107C13.7552 37.5793 13.12 38.7421 12.4849 38.8478C12.1673 38.9536 11.3204 40.0107 11.3204 40.2221C11.638 40.7507 13.5435 40.4335 13.5435 40.4335C13.8611 40.3278 13.9669 39.5878 13.9669 39.5878C13.6493 38.7421 14.3904 38.6364 14.4962 38.6364C15.2373 38.6364 15.0256 37.5793 15.0256 37.5793C14.8138 37.1564 14.3904 33.9851 14.708 32.7165C14.9197 31.8708 14.4962 30.0737 14.3904 29.4394C13.6493 29.7566 13.0142 30.0737 11.638 30.6023Z" fill="black"/>
<path fill-rule="evenodd" clip-rule="evenodd" d="M35.457 18.4453C35.5629 18.551 35.8804 18.7624 35.8804 18.7624C41.4912 18.8681 40.856 25.9509 40.856 26.3737L44.1377 25.2109C40.9618 15.8025 37.0449 17.3882 35.457 18.4453Z" fill="black"/>
<path fill-rule="evenodd" clip-rule="evenodd" d="M36.7273 37.4736C36.6215 37.0507 35.5629 34.5136 35.8804 32.6108C35.6687 32.5051 34.716 31.9765 34.2925 31.6594C33.6573 31.3422 32.4928 30.6023 31.6459 29.7566C31.6459 29.7566 31.2225 30.3908 31.3284 31.1308C33.8691 32.1879 35.3511 34.5136 35.2453 37.5793C35.2453 38.2136 34.1866 39.4821 34.1866 39.4821C33.5515 40.3278 33.5515 40.645 33.5515 40.645C34.716 40.8564 35.9863 40.5392 35.9863 40.5392C36.0922 40.4335 36.0922 39.905 35.9863 39.7993C35.3511 39.165 36.0922 38.7421 36.0922 38.7421C36.5156 38.425 36.8332 38.0021 36.7273 37.4736Z" fill="black"/>
<path fill-rule="evenodd" clip-rule="evenodd" d="M9.30899 10.094C9.62658 9.35401 9.52072 8.82544 9.41486 8.71973C9.09727 8.50831 7.82692 7.76832 7.40347 7.34547C7.29761 7.34547 7.50933 8.29688 7.61519 8.50831C7.82692 9.03687 8.14451 9.14258 8.14451 9.14258C8.14451 9.14258 7.50933 9.45972 7.29761 9.67115C7.50933 9.67115 8.46209 9.35401 9.30899 10.094Z" fill="black"/>
<path fill-rule="evenodd" clip-rule="evenodd" d="M6.34484 15.3796C6.66243 15.1682 7.82691 13.6882 7.93278 13.2654L6.98001 12.7368C6.98001 12.7368 6.98001 12.7368 6.98001 12.6311C7.50933 11.574 7.93278 10.9397 7.93278 10.9397C7.93278 10.9397 7.93278 10.9397 8.03864 10.9397L9.09726 11.4683C9.30899 11.0454 9.30899 11.0454 9.41485 10.834C8.88554 10.3054 7.61519 10.1997 7.08588 10.1997C6.76829 10.7283 6.23898 11.6797 6.23898 12.2082C6.13312 12.9482 5.28622 14.5339 5.28622 14.5339L6.34484 15.3796Z" fill="black"/>
<path fill-rule="evenodd" clip-rule="evenodd" d="M4.54518 15.1682C4.43932 15.0625 4.33346 15.3796 4.33346 15.591C4.2276 15.8025 4.43932 15.8025 4.43932 15.9082C4.43932 16.2253 4.43932 16.6482 4.75691 16.9653C4.96863 17.1767 5.28622 17.2825 5.70967 17.2825C5.81553 17.2825 6.23898 17.1767 6.45071 16.8596C6.55657 16.7539 6.66243 16.9653 6.76829 16.8596C6.87416 16.7539 6.87416 16.6482 6.76829 16.6482C6.13312 16.4368 5.18036 15.9082 4.54518 15.1682Z" fill="black"/>
<path fill-rule="evenodd" clip-rule="evenodd" d="M17.1428 14.3225C17.3545 15.0625 18.0956 17.2825 20.1069 17.5996L20.2128 17.3882C17.9897 15.4853 19.1542 7.6626 12.2731 7.02833C10.05 6.8169 9.41485 7.45118 9.41485 7.55689C9.41485 7.55689 9.73244 7.97974 10.05 7.97974C14.708 7.76832 15.8725 11.0454 17.1428 14.3225Z" fill="black"/>
<path fill-rule="evenodd" clip-rule="evenodd" d="M15.1314 12.314C14.4962 10.834 12.8024 9.03686 10.6852 8.71973C10.8969 11.8911 7.40346 15.5911 7.72105 15.3796C8.56795 14.7453 9.09726 14.7453 9.73244 14.3225C10.05 14.1111 10.6852 13.3711 10.6852 13.3711C12.5907 15.2739 10.8969 21.6167 10.6852 22.4624C14.2845 20.771 17.5663 17.9167 17.9897 17.5996C16.6135 16.7539 15.7666 13.7939 15.1314 12.314Z" fill="black"/>
<path fill-rule="evenodd" clip-rule="evenodd" d="M1.05172 11.7854C1.15758 11.574 1.58103 11.0454 1.79276 10.9397C1.47517 10.7283 0.52241 10.3054 0.0989609 10.3054C0.0989609 10.3054 0.52241 11.2568 1.05172 11.7854Z" fill="black"/>
<path fill-rule="evenodd" clip-rule="evenodd" d="M75.3671 10.834H67.8509V28.6994C69.0154 29.0166 70.1799 29.228 71.6619 29.228C71.6619 29.228 74.0968 29.228 75.3671 28.6994C75.3671 24.4709 75.3671 10.834 75.3671 10.834ZM72.9323 21.7224C72.9323 22.0395 72.8264 22.1452 72.8264 22.1452H71.7678H70.7092C70.7092 22.1452 70.6033 21.9338 70.6033 21.7224C70.6033 21.6167 70.6033 21.4053 70.6033 21.4053H72.9323V21.7224ZM74.3085 20.5596C74.3085 20.5596 73.2499 20.5596 71.5561 20.5596C69.9681 20.5596 68.9095 20.5596 68.9095 20.5596V11.8911H74.3085V20.5596Z" fill="black"/>
<path fill-rule="evenodd" clip-rule="evenodd" d="M63.6164 14.7454L63.8281 11.574H62.6636L62.8754 14.7454H63.6164Z" fill="black"/>
<path fill-rule="evenodd" clip-rule="evenodd" d="M55.465 11.9968L55.0415 13.8997L52.395 14.1111V15.3796H54.8298V15.4853C54.8298 15.4853 53.2419 15.6968 52.9243 15.8025C52.9243 15.8025 52.9243 16.0139 52.9243 16.1196C52.1833 16.2253 49.325 16.6482 49.1132 17.1767C48.9015 17.7053 47.737 19.9253 47.6312 20.3481C47.4194 20.8767 46.7843 21.511 46.5725 21.6167C46.255 21.8281 45.5139 21.6167 45.1963 21.2995C45.0905 21.1938 44.7729 20.8767 44.667 20.9824C44.5612 21.0881 44.4553 21.1938 44.4553 21.2995C44.1377 21.0881 43.926 20.771 43.6084 20.5596C43.6084 20.5596 43.3967 20.5596 43.2908 20.6653C43.1849 20.771 43.2908 20.8767 43.2908 20.8767C43.8201 21.4053 44.4553 22.0395 45.0905 22.6738C46.5725 24.2595 48.3722 26.1623 50.3836 26.5852C48.3722 27.3252 46.0432 28.1709 42.8674 28.1709C38.3153 28.0652 34.0808 26.7966 29.317 24.0481C31.5401 30.4965 37.786 31.3422 38.527 33.5622C38.9505 34.9365 38.9505 37.1564 38.7387 38.0021C38.6329 38.5307 36.8332 40.2221 37.1508 40.7507C37.2567 40.9621 38.4211 41.0678 38.8446 40.9621C39.0563 40.9621 39.1622 40.9621 39.268 40.8564C39.3739 40.7507 39.4798 40.2221 39.3739 40.1164C39.3739 40.0107 39.1622 39.905 39.1622 39.905C38.9505 39.5878 39.3739 39.2707 39.5856 39.2707C40.0091 39.2707 40.3267 38.8478 40.2208 38.5307C39.9032 37.685 39.7974 32.8222 39.7974 32.8222C39.9032 32.1879 39.7974 31.448 39.1622 31.2365C37.6801 30.8137 36.5156 28.6994 36.4098 28.0652C37.4684 28.3823 39.7974 29.0166 42.8674 29.0166C48.3722 29.0166 51.2305 26.3737 56.206 26.3737C60.1229 26.3737 61.9226 28.0652 62.8754 28.5937C64.8867 29.6508 67.2157 30.6023 70.3916 30.9194L70.2857 33.0336C70.2857 33.1394 70.2857 33.2451 70.1799 33.2451H67.9567C67.9567 33.2451 67.9567 33.3508 67.9567 33.5622C67.9567 33.6679 67.9567 33.7736 67.9567 33.7736L68.2743 34.1965C69.1212 34.1965 74.7319 34.1965 75.473 34.1965C75.5788 34.1965 75.7906 33.7736 75.7906 33.7736C75.7906 33.7736 75.8964 33.6679 75.8964 33.5622C75.8964 33.3508 75.8964 33.2451 75.8964 33.2451H73.4616C73.3557 33.2451 73.3557 33.1394 73.3557 33.0336L73.2499 30.9194C76.5316 30.708 78.6488 29.6508 78.7547 29.5451C78.7547 29.5451 79.284 27.2194 81.1895 24.6823C82.2482 23.3081 84.4713 20.5596 89.6585 20.5596C89.6585 20.5596 89.8703 20.5596 89.8703 20.2424C89.8703 19.9253 89.6585 19.9253 89.6585 19.9253C88.5999 19.9253 86.6944 20.1367 85.6358 20.2424C85.2123 20.2424 84.8947 20.2424 84.683 20.2424C84.1537 20.1367 83.7302 19.6081 83.7302 18.9739C83.7302 18.8681 83.7302 14.9568 83.7302 13.4768H84.683L84.7889 15.8025H85.1065C85.6358 15.8025 85.7416 16.331 85.7416 16.331L85.8475 17.071H86.1651L86.2709 16.331C86.2709 16.331 86.3768 15.8025 86.9061 15.8025H87.2237L87.6471 10.4111H86.8003C86.2709 10.4111 86.2709 9.88257 86.2709 9.88257C86.2709 9.88257 86.2709 9.56543 85.9534 9.56543C85.7416 9.56543 85.6358 9.88257 85.6358 9.88257C85.6358 9.88257 85.6358 10.4111 85.1065 10.4111H84.2596L84.4713 12.7368H83.6244C83.6244 12.5254 83.6244 9.35401 83.6244 9.35401H83.942C83.942 9.35401 84.0478 9.2483 84.0478 9.14258C84.0478 9.03687 84.0478 8.93116 84.0478 8.93116C84.0478 8.93116 79.3899 8.08546 71.6619 8.08546C64.1457 8.08546 59.3819 9.03687 59.3819 9.03687C59.3819 9.03687 59.3819 9.14258 59.3819 9.2483C59.3819 9.35401 59.4878 9.45972 59.4878 9.45972H59.8053V18.8681C59.8053 18.9739 59.8053 20.3481 59.4878 20.771C59.3819 20.8767 59.3819 20.8767 59.276 20.8767C59.0643 20.8767 59.0643 20.771 59.0643 20.6653C58.8526 20.2424 58.3233 18.9739 58.3233 18.8681H58.8526C58.8526 18.8681 58.9584 18.7624 58.9584 18.6567C58.9584 18.551 58.8526 18.4453 58.8526 18.4453H56.5236C58.3233 18.1282 58.535 17.1767 58.535 16.331C58.6409 12.5254 58.4291 11.4683 58.2174 10.3054C58.1115 9.88257 57.794 9.2483 57.794 9.2483L55.6767 11.7854L55.465 11.9968ZM86.8003 11.6797L86.4827 15.2739H85.2123L85.0006 11.6797H86.8003ZM50.7012 25.4223C50.5953 25.528 50.1719 25.6338 50.1719 25.7395C50.1719 25.8452 50.1719 25.9509 50.2777 26.0566C49.1132 25.8452 47.9488 24.9995 46.7843 23.9424C46.8901 23.8366 49.5367 20.8767 49.6426 20.6653C49.9601 21.1938 50.9129 22.3567 51.1246 22.6738C52.2891 24.5766 51.4422 25.1052 50.7012 25.4223ZM53.7712 24.5766C53.5595 24.0481 52.9243 21.8281 52.8184 21.4053C52.6067 20.8767 51.9715 19.5024 51.7598 19.3967C51.6539 19.3967 51.4422 19.6081 51.4422 19.6081C51.4422 19.6081 50.7012 19.0796 51.0188 18.551C51.4422 18.0224 53.6653 18.3396 54.0888 18.3396V22.6738C54.0888 22.7795 54.1946 23.7309 53.7712 24.5766ZM62.5578 10.6226C62.9812 10.6226 62.9812 10.1997 62.9812 10.1997C62.9812 10.1997 62.9812 9.98828 63.1929 9.98828C63.4047 9.98828 63.4047 10.1997 63.4047 10.1997C63.4047 10.1997 63.4047 10.6226 63.934 10.6226H64.5691L64.1457 15.3796H63.934C63.4047 15.3796 63.2988 15.9082 63.2988 15.9082L63.1929 16.4368H62.8754L62.7695 15.9082C62.7695 15.9082 62.6636 15.3796 62.1343 15.3796H61.9226L61.4991 10.6226H62.5578ZM72.2971 33.1394C72.2971 33.2451 72.2971 33.3508 72.1912 33.3508H70.815C70.7092 33.3508 70.7092 33.2451 70.7092 33.1394L70.6033 31.0251C71.0268 31.1308 72.0854 31.1308 72.403 31.0251L72.2971 33.1394ZM77.8019 29.0166C77.8019 29.0166 75.1554 30.2851 71.5561 30.2851C69.8623 30.2851 68.2743 30.1794 66.7923 29.6508C65.416 29.228 60.2288 27.1137 60.2288 21.0881V20.4538H66.6864V9.77686H76.214V20.3481H82.5658L83.5185 21.0881C79.0723 23.9424 77.8019 29.0166 77.8019 29.0166Z" fill="black"/>
<path fill-rule="evenodd" clip-rule="evenodd" d="M52.0774 10.9397C51.2305 9.88257 49.5367 9.03687 47.3136 8.08546L45.6198 5.33693C45.6198 5.33693 45.6198 5.33693 45.6198 5.23121C42.6556 0.474144 40.2208 0.157005 39.5856 0.157005H39.4798C38.8446 0.157005 38.4211 0.474143 38.2094 0.896994C37.8918 1.63698 38.1036 2.69411 38.8446 3.85695C40.0091 5.54835 42.9732 6.71119 45.8315 7.87403C46.255 8.08546 46.6784 8.19117 46.996 8.29688L50.5953 14.0054H50.4895C50.2777 14.0054 49.8543 14.0054 49.9601 14.2168C50.066 14.5339 50.3836 14.2168 50.4895 14.6396C50.7012 15.2739 51.9715 15.1682 51.9715 15.1682L51.5481 14.0054H51.2305L47.8429 8.61402C49.6426 9.35401 51.2305 9.98828 51.9715 10.9397L52.0774 11.0454C52.1833 11.0454 52.1833 11.0454 52.1833 10.9397C52.1833 11.0454 52.1833 11.0454 52.0774 10.9397ZM45.9374 7.55689C43.185 6.39405 40.3267 5.23121 39.268 3.75124C38.6329 2.79982 38.3153 1.84841 38.6329 1.31984C38.7387 1.00271 39.0563 0.896994 39.4798 0.896994C39.4798 0.896994 39.4798 0.896994 39.5856 0.896994C40.7501 0.896994 42.9732 2.16555 45.1963 5.75978L46.5725 7.87403C46.3608 7.6626 46.1491 7.6626 45.9374 7.55689Z" fill="black"/>
<path fill-rule="evenodd" clip-rule="evenodd" d="M7.08588 8.71973C4.54519 8.61402 3.3807 9.88257 3.3807 9.88257C3.3807 9.88257 4.2276 10.834 4.43932 11.1511C4.96863 11.8911 4.86277 12.6311 4.86277 13.1597C5.39208 12.4197 5.18036 11.1511 6.02726 9.77686C6.34485 9.354 6.7683 9.03687 7.19174 8.93115C7.08588 8.82544 7.08588 8.82544 7.08588 8.71973Z" fill="black"/>
<path fill-rule="evenodd" clip-rule="evenodd" d="M55.6767 11.6797L55.8884 10.3054L56.1002 10.094L55.9943 9.45972L57.4764 8.82544C57.3705 8.61402 57.3705 8.61402 57.5822 8.40259C57.6881 8.29688 58.2174 7.76831 58.3233 7.6626C58.535 6.71119 57.1588 6.07691 56.3119 6.28834C55.9943 6.28834 55.2533 6.39405 54.8298 6.28834C54.724 6.28834 54.5122 6.28834 54.5122 6.28834L54.4064 6.49976C54.4064 6.60548 55.0415 7.23975 55.2533 7.55689C55.465 7.76831 54.724 8.40259 55.0415 8.5083C55.0415 8.5083 55.2533 8.5083 55.2533 8.61402C55.2533 8.61402 55.2533 8.82544 55.2533 8.93115L55.3591 9.03687C55.3591 9.14258 55.3591 9.45972 55.465 9.56543C55.5709 9.67114 56.1002 9.77686 56.1002 9.77686C56.1002 9.77686 56.1002 9.77686 56.1002 9.88257L55.8884 9.98828C55.7826 9.98828 55.5709 10.1997 55.7826 10.3054C55.8884 10.4111 55.9943 10.5168 55.9943 10.5168C55.8884 10.6226 55.6767 10.7283 55.6767 11.1511C55.6767 11.574 55.7826 11.8911 55.8884 12.1025L55.6767 11.6797Z" fill="black"/>
<path fill-rule="evenodd" clip-rule="evenodd" d="M55.8884 27.748C51.9715 27.748 48.7957 30.9194 48.7957 34.8308C48.7957 38.7421 51.9715 41.9135 55.8884 41.9135C59.8053 41.9135 62.9812 38.7421 62.9812 34.8308C62.9812 30.9194 59.8053 27.748 55.8884 27.748ZM56.4177 33.6679L56.3119 33.7736L56.206 28.8051C57.5822 28.9108 58.8526 29.4394 59.9112 30.3908L56.4177 33.6679ZM56.3119 35.8879V35.7822L59.9112 39.2707C58.8526 40.2221 57.5822 40.7507 56.206 40.7507L56.3119 35.8879ZM61.9226 34.5136L56.9471 34.4079L60.4405 30.8137C61.3933 31.8708 61.9226 33.1394 61.9226 34.5136ZM60.3347 38.7421L56.9471 35.1479L61.9226 35.0422C61.8167 36.0993 61.4991 37.1564 60.864 38.1079C60.7581 38.3193 60.5464 38.5307 60.3347 38.7421ZM54.9357 34.3022L49.9601 34.4079C49.9601 33.6679 50.1719 33.0336 50.3836 32.3994C50.5953 31.7651 51.0188 31.2365 51.4422 30.708L54.724 34.0908L54.9357 34.3022ZM55.465 35.7822C55.465 35.7822 55.465 35.6765 55.465 35.7822L55.5709 40.7507C54.1946 40.645 52.9243 40.1164 51.8657 39.165L55.465 35.7822ZM55.5709 33.7736V33.8793L51.9715 30.3908C53.0302 29.4394 54.3005 28.9108 55.6767 28.9108L55.5709 33.7736ZM54.9357 35.1479C55.0415 35.1479 54.9357 35.1479 54.9357 35.1479L51.4422 38.7421C50.4895 37.685 49.9601 36.4164 49.8543 35.0422L54.9357 35.1479Z" fill="black"/>
<path fill-rule="evenodd" clip-rule="evenodd" d="M89.5527 22.0395C86.9061 22.0395 84.4713 23.0967 82.5658 24.9995C80.6602 26.9023 79.7075 29.3337 79.7075 31.9765C79.7075 34.5136 80.6602 36.945 82.4599 38.8478C82.5658 38.9536 82.6716 39.0593 82.7775 39.165L82.8833 39.2707C84.7889 40.9621 87.1178 41.9135 89.6585 41.9135C95.1634 41.9135 99.6096 37.4736 99.6096 31.9765C99.5037 26.4795 95.0575 22.0395 89.5527 22.0395ZM95.5868 25.4223L90.1878 30.708L90.082 30.8137V30.708L89.9761 23.0967C92.0934 23.2024 94.1048 24.0481 95.5868 25.4223ZM89.9761 33.3508C89.9761 33.3508 89.9761 33.2451 90.082 33.3508L95.481 38.6364C93.893 40.0107 91.9875 40.8564 89.8703 40.9621C89.9761 40.8564 89.9761 33.3508 89.9761 33.3508ZM90.823 31.5537L96.1161 26.0566C97.4924 27.6423 98.3393 29.6508 98.4451 31.6594L90.823 31.5537ZM90.823 32.6108L98.4451 32.5051C98.3393 34.6193 97.4924 36.5222 96.1161 38.1079L90.823 32.6108ZM89.1292 30.708C89.1292 30.708 89.1292 30.9194 89.0234 30.8137L83.6244 25.528C85.2123 24.0481 87.1178 23.3081 89.2351 23.2024L89.1292 30.708ZM88.9175 33.2451C88.9175 33.2451 89.0234 33.2451 89.0234 33.3508L89.1292 40.8564C87.1178 40.7507 85.1065 39.905 83.5185 38.5307L88.9175 33.2451ZM88.1765 31.3422L88.2823 31.448C88.3882 31.5537 88.1765 31.5537 88.1765 31.5537L80.6602 31.6594C80.7661 29.5451 81.5071 27.5366 82.9892 26.0566L88.1765 31.3422ZM80.7661 32.3994L88.2823 32.5051C88.3882 32.5051 88.3882 32.5051 88.3882 32.6108V32.7165L83.0951 38.1079C81.7189 36.6279 80.872 34.6193 80.7661 32.6108V32.3994Z" fill="black"/>
</svg>
