<svg width="114" height="13" viewBox="0 0 114 13" fill="none" xmlns="http://www.w3.org/2000/svg">
<path fill-rule="evenodd" clip-rule="evenodd" d="M41.9364 2.10239C39.6369 0.778662 36.5969 0.0389328 33.3621 0.0389328C30.0882 0.0389328 27.0482 0.778662 24.7877 2.10239C23.1118 3.11465 22.1374 4.67197 22.1374 6.42396C22.1374 8.17595 23.1118 9.73327 24.7877 10.7455C27.0872 12.0693 30.1272 12.809 33.3621 12.809C36.6359 12.809 39.6759 12.0693 41.9364 10.7455C43.6123 9.73327 44.5867 8.17595 44.5867 6.42396C44.5867 4.67197 43.6123 3.11465 41.9364 2.10239ZM33.3231 12.225C31.2574 12.225 27.7887 11.0181 27.7887 6.42396C27.7887 2.41385 30.5559 0.622931 33.3231 0.622931C37.0256 0.622931 39.2082 2.80318 39.2082 6.42396C39.2472 10.3173 37.2985 12.225 33.3231 12.225Z" fill="black"/>
<path fill-rule="evenodd" clip-rule="evenodd" d="M114 0.817595V0.233599H104.646V0.817595H106.634V5.83996H98.8V0.817595H100.827V0.311465V0.233599H91.4339V0.817595H93.4605V12.0693H91.4339V12.6533H100.827V12.0693H98.8V6.42396H106.634V12.0693H104.646V12.6533H113.922H114V12.0693H111.973V0.817595H114Z" fill="black"/>
<path fill-rule="evenodd" clip-rule="evenodd" d="M56.0062 0.0389328H55.6944L45.8728 12.0693H43.6123V12.6533H49.2636V12.0693H46.6133L48.9908 9.18821H57.799L60.4492 12.1082H57.8769V12.6922H69.6082V12.0693H66.9969L56.0062 0.0389328ZM49.4585 8.56528L53.0831 4.08798L57.2533 8.56528H49.4585Z" fill="black"/>
<path fill-rule="evenodd" clip-rule="evenodd" d="M16.1354 1.44052C15.9795 1.36266 15.5118 1.05119 14.7323 0.739729C13.8749 0.428264 12.5108 0 10.7569 0C7.95077 0 5.33949 0.545063 3.42974 1.51839C1.16923 2.64745 0 4.36051 0 6.38503C0 10.5898 3.93641 12.7701 11.4195 12.7701C13.2513 12.7701 14.8492 12.3029 16.1744 11.3685L18.4349 12.5754H18.8636V7.74769H18.4349L18.3959 7.78662V7.82555C18.3959 7.86449 18.0062 8.95461 16.9928 10.0447C16.0574 11.057 14.3426 12.2639 11.5364 12.2639C9.66564 12.2639 8.14564 11.5631 7.13231 10.2783C6.35282 9.26608 5.88513 7.86449 5.88513 6.46289C5.88513 2.68638 8.8082 0.661863 11.5364 0.661863C13.4072 0.661863 15.0831 1.24586 16.4082 2.37492C17.5385 3.30931 18.1621 4.39944 18.3959 5.13917V5.1781H18.8636V0.233599H18.4349L16.1354 1.44052Z" fill="black"/>
<path fill-rule="evenodd" clip-rule="evenodd" d="M85.3149 1.44052C85.159 1.36266 84.6913 1.05119 83.9118 0.739729C83.0544 0.428264 81.6903 0 79.9364 0C77.1303 0 74.519 0.545063 72.6092 1.51839C70.3487 2.64745 69.1795 4.36051 69.1795 6.38503C69.1795 10.5898 73.1159 12.7701 80.599 12.7701C82.4308 12.7701 84.0287 12.3029 85.3538 11.3685L87.6144 12.5754H88.0431V7.74769H87.6144L87.5754 7.78662V7.82555C87.5754 7.86449 87.1856 8.95461 86.1723 10.0447C85.2369 11.057 83.522 12.2639 80.7159 12.2639C78.8451 12.2639 77.3251 11.5631 76.3118 10.2783C75.5323 9.26608 75.0646 7.86449 75.0646 6.46289C75.0646 2.68638 77.9877 0.661863 80.7159 0.661863C82.5867 0.661863 84.2626 1.24586 85.5877 2.37492C86.7179 3.30931 87.3415 4.39944 87.5754 5.13917V5.1781H88.0431V0.233599H87.6144L85.3149 1.44052Z" fill="black"/>
</svg>
