<svg xmlns="http://www.w3.org/2000/svg" viewBox="0 0 1246.4 80.6"><path d="M259.8,13.7C245.6,5.4,226.8.9,206.6.9s-39,4.6-53.2,12.8c-10.4,6.1-16.3,15.8-16.3,26.5s5.9,20.4,16.3,26.5c14.1,8.3,33,12.9,53.2,12.9s39-4.6,53.2-12.9c10.4-6.1,16.3-15.8,16.3-26.5s-5.9-20.4-16.3-26.5M206.7,76.6c-12.9,0-34.7-7.7-34.7-36.5,0-25.2,17.4-36.4,34.7-36.4,23.2,0,37,13.6,37,36.4-.1,24.6-12.2,36.5-37,36.5"/><polygon points="707.4 4.9 707.4 1.9 649.9 1.9 649.9 4.9 662.4 4.9 662.4 36.8 612.9 36.8 612.9 4.9 625.4 4.9 625.4 2.2 625.4 1.9 568 1.9 568 4.9 580.5 4.9 580.5 75.6 568 75.6 568 78.5 625.4 78.5 625.4 75.6 612.9 75.6 612.9 39.7 662.4 39.7 662.4 75.6 649.9 75.6 649.9 78.5 707.2 78.5 707.4 78.5 707.4 75.6 694.8 75.6 694.8 4.9 707.4 4.9"/><path d="M347.5.9h0L345.7.8l-61,74.7H270.9v2.9h34.5V75.5H288.5l15.4-18.7H359l17.2,18.7H359.7v2.9h72.2V75.5h-16Zm8.6,53h-50l23.3-28.7Z"/><path d="M114.1,48.8l-.1.2a39.7,39.7,0,0,1-8.8,13.8c-5.9,6.3-16.6,13.8-34.1,13.8-11.8,0-21.3-4.3-27.6-12.5a40,40,0,0,1-7.8-23.9C35.8,16.5,54,3.7,71.2,3.7a47.13,47.13,0,0,1,30.5,10.6c7,5.8,10.9,12.6,12.3,17.1l.1.2h2.3V1.9h-2.1L99.9,9.7a49.66,49.66,0,0,0-8.7-4.4A68.52,68.52,0,0,0,66.6.8C49.2.8,33.1,4.1,21.2,10.1,7.3,17.2,0,27.6,0,40.2,0,66,24.4,79.6,70.5,79.6c11.4,0,21.4-3,29.5-8.8l14.1,7.6h2.3V48.8Z"/><path d="M500.8,3.7a47.13,47.13,0,0,1,30.5,10.6c7,5.8,10.9,12.6,12.3,17.1v.2h2.3V1.9h-2.1L529.4,9.6a49.66,49.66,0,0,0-8.7-4.4A69,69,0,0,0,496.1.7C478.7.7,462.6,4,450.7,10c-13.8,7-21.2,17.4-21.2,30,0,25.8,24.4,39.4,70.5,39.4,11.4,0,21.4-3,29.5-8.8l14.1,7.6h2.3V48.8h-2.3l-.1.2a39.7,39.7,0,0,1-8.8,13.8c-5.9,6.3-16.6,13.8-34.1,13.8-11.8,0-21.3-4.3-27.6-12.5a40,40,0,0,1-7.8-23.9c.2-23.7,18.4-36.5,35.6-36.5"/><path d="M762.9,40.2c0-11,3.3-20.2,9.8-27.5C780.2,4.3,791.2,0,805.5,0s25.2,4.3,32.8,12.8c6.5,7.3,9.8,16.5,9.8,27.5s-3.3,20.2-9.8,27.5c-7.6,8.5-18.5,12.8-32.8,12.8s-25.2-4.2-32.8-12.8c-6.5-7.4-9.8-16.6-9.8-27.6m73.8,0c0-9.7-3-17.3-9-22.7-5.6-5.1-13.1-7.6-22.2-7.6s-16.6,2.5-22.2,7.6c-6,5.4-9,13-9,22.7s3,17.3,9,22.7c5.6,5.1,13.1,7.6,22.2,7.6s16.6-2.5,22.2-7.6c6-5.4,9-12.9,9-22.7"/><path d="M865.1,49.6V1.9h11.4v49c0,13.1,7.8,19.6,23.3,19.6s23.3-6.5,23.3-19.6V1.9h11.4V49.5c0,20.6-11.6,30.9-34.6,30.9q-34.8.15-34.8-30.8"/><polygon points="976.5 78.5 976.5 11.8 947.5 11.8 947.5 1.9 1016.8 1.9 1016.8 11.8 987.9 11.8 987.9 78.5 976.5 78.5"/><polygon points="1030.6 78.5 1030.6 1.9 1041.9 1.9 1041.9 68.7 1088.5 68.7 1088.5 78.5 1030.6 78.5"/><polygon points="1102.6 78.5 1102.6 1.9 1164.2 1.9 1164.2 11.8 1114 11.8 1114 34 1162.7 34 1162.7 43.9 1114 43.9 1114 68.7 1165.3 68.7 1165.3 78.5 1102.6 78.5"/><polygon points="1206.1 78.5 1206.1 11.8 1177.1 11.8 1177.1 1.9 1246.4 1.9 1246.4 11.8 1217.4 11.8 1217.4 78.5 1206.1 78.5"/></svg>