<svg xmlns="http://www.w3.org/2000/svg" viewBox="0 0 1159 317.1"><path d="M274.8,267.9c0-13.5,4-24.6,11.9-33.6,9.3-10.4,22.6-15.6,40.1-15.6s30.8,5.2,40.1,15.6c8,8.9,11.9,20.1,11.9,33.6s-4,24.6-11.9,33.6c-9.3,10.4-22.6,15.6-40.1,15.6s-30.8-5.2-40.1-15.6c-8-8.9-11.9-20.1-11.9-33.6m90.1,0c0-11.9-3.7-21.1-11-27.8-6.9-6.2-15.9-9.3-27.1-9.3s-20.2,3.1-27.1,9.3c-7.3,6.6-11,15.9-11,27.8s3.7,21.1,11,27.8c6.9,6.2,15.9,9.3,27.1,9.3s20.2-3.1,27.1-9.3c7.4-6.6,11-15.9,11-27.8" fill="#fff"/><path d="M403.5,279.3V221.1h13.9V281c0,16,9.5,24,28.4,24s28.4-8,28.4-24V221.1h13.9v58.2c0,25.2-14.1,37.7-42.3,37.7s-42.3-12.5-42.3-37.7" fill="#fff"/><polygon points="543.3 314.7 543.3 233.2 507.9 233.2 507.9 221.1 592.6 221.1 592.6 233.2 557.2 233.2 557.2 314.7 543.3 314.7" fill="#fff"/><polygon points="613.2 314.7 613.2 221.1 627 221.1 627 302.7 683.9 302.7 683.9 314.7 613.2 314.7" fill="#fff"/><polygon points="705 314.7 705 221.1 780.3 221.1 780.3 233.2 718.9 233.2 718.9 260.3 778.4 260.3 778.4 272.4 718.9 272.4 718.9 302.7 781.6 302.7 781.6 314.7 705 314.7" fill="#fff"/><polygon points="835.2 314.7 835.2 233.2 799.8 233.2 799.8 221.1 884.5 221.1 884.5 233.2 849.1 233.2 849.1 314.7 835.2 314.7" fill="#fff"/><path d="M425.7,21.1C402.5,7.5,371.6,0,338.6,0s-64,7.5-87.1,21.1c-17,10-26.7,25.9-26.7,43.4s9.7,33.4,26.7,43.4c23.1,13.6,54.1,21.1,87.1,21.1s64-7.5,87.1-21.1c17-10.1,26.7-25.9,26.7-43.4s-9.7-33.4-26.7-43.4M338.6,124.2c-21.1,0-56.8-12.6-56.8-59.7,0-41.2,28.5-59.7,56.8-59.7,37.9,0,60.6,22.3,60.6,59.7,0,40.2-19.9,59.7-60.6,59.7" fill="#fff"/><polygon points="1159 6.7 1159 1.9 1064.8 1.9 1064.8 6.7 1085.3 6.7 1085.3 58.9 1004.2 58.9 1004.2 6.6 1024.7 6.7 1024.7 2.3 1024.7 1.9 930.5 1.9 930.5 6.7 951.1 6.7 951.1 122.4 930.5 122.4 930.5 127.2 1024.7 127.2 1024.7 122.4 1004.2 122.4 1004.2 63.7 1085.3 63.7 1085.3 122.4 1064.8 122.4 1064.8 127.2 1158.6 127.2 1159 127.2 1159 122.4 1138.4 122.4 1138.4 6.7 1159 6.7" fill="#fff"/><path d="M569.3.1l-.1-.1h-2.8l-100,122.4H443.8v4.8h56.5v-4.8H472.6l25.2-30.6H588l28.1,30.7h-27v4.8H707.4v-4.8H681.2ZM583.5,87h-82l38.1-47Z" fill="#fff"/><path d="M186.9,78.7l-.1.3c0,.1-3.8,11.4-14.4,22.6-9.7,10.3-27.3,22.6-55.8,22.6-19.3,0-34.9-7.1-45.2-20.5C63.3,93.2,58.6,78.9,58.6,64.6c0-38.8,29.9-59.8,58-59.8,19.1,0,36.3,6,50,17.4,11.4,9.5,17.9,20.7,20.2,28l.1.3h3.8V1.9h-3.5L163.6,14.6a74.61,74.61,0,0,0-14.3-7.2A110.12,110.12,0,0,0,109,0C80.5,0,54.1,5.4,34.7,15.3,12,26.8,0,43.8,0,64.5c0,42.3,40,64.6,115.5,64.6,18.8,0,35-4.8,48.4-14.4L187,127.2l3.7.1V78.7Z" fill="#fff"/><path d="M820.5,4.8c19.1,0,36.3,6,50,17.4,11.4,9.5,17.9,20.7,20.2,28l.1.3h3.8V1.9h-3.5L867.5,14.6a74.61,74.61,0,0,0-14.3-7.2A110.57,110.57,0,0,0,812.9,0C784.4,0,758,5.4,738.6,15.3c-22.7,11.5-34.7,28.5-34.7,49.2,0,42.3,40,64.6,115.6,64.6,18.8,0,35-4.8,48.4-14.4L891,127.2l3.7.1V78.7h-3.8l-.1.3c0,.1-3.8,11.4-14.4,22.6-9.7,10.3-27.3,22.6-55.8,22.6-19.3,0-34.9-7.1-45.2-20.5-8.1-10.5-12.8-24.8-12.8-39.1-.1-38.9,29.8-59.8,57.9-59.8" fill="#fff"/></svg>