<svg width="230" height="15" viewBox="0 0 230 15" fill="none" xmlns="http://www.w3.org/2000/svg">
<g clip-path="url(#clip0)">
<path d="M48.0141 2.46999C44.9891 0.83719 41.5909 0.0205183 38.1543 0.100404C34.7278 0.0262251 31.3408 0.842709 28.3245 2.46999C27.4327 2.94575 26.6835 3.6504 26.1542 4.51153C25.6248 5.37265 25.3342 6.3592 25.3123 7.3698C25.3342 8.38039 25.6248 9.36694 26.1542 10.2281C26.6835 11.0892 27.4327 11.7938 28.3245 12.2696C31.3377 13.906 34.7263 14.7264 38.1543 14.6492C41.5789 14.7251 44.964 13.9048 47.974 12.2696C48.8658 11.7938 49.615 11.0892 50.1443 10.2281C50.6737 9.36694 50.9643 8.38039 50.9862 7.3698C50.9693 6.36301 50.6852 5.37878 50.163 4.51785C49.6408 3.65691 48.8992 2.95018 48.0141 2.46999ZM38.1543 14.107C35.7646 14.107 31.7383 12.6813 31.7383 7.3698C31.7785 2.721 35.0015 0.632556 38.1543 0.632556C42.4316 0.632556 44.9819 3.15275 44.9819 7.3698C45.022 11.8981 42.793 14.107 38.1543 14.107Z" fill="black"/>
<path d="M130.729 0.843408V0.301216H120.096V0.843408H122.415V6.74728H113.268V0.843408H115.587V0.351419L115.577 0.301216H104.964V0.843408H107.274V13.9062H104.964V14.4484H115.587V13.9062H113.268V7.28947H122.415V13.9062H120.096V14.4484H130.688H130.729V13.9062H128.409V0.843408H130.729Z" fill="black"/>
<path d="M64.2598 0.110443H63.9285L52.6027 13.9062H50.0524V14.4484H56.4181V13.9062H53.3055L56.147 10.4523H66.3182L69.501 13.9163H66.4888V14.4585H79.8428V13.9163H76.8307L64.2598 0.110443ZM65.8663 9.91007H56.5687L60.8661 4.60863L65.8663 9.91007Z" fill="black"/>
<path d="M21.0853 8.96587V9.03615C20.7179 9.98888 20.165 10.8592 19.4587 11.5965C18.6476 12.4403 17.6677 13.1036 16.5829 13.543C15.4982 13.9825 14.3329 14.1882 13.1632 14.1468C12.1818 14.1916 11.2039 14.0007 10.3113 13.5902C9.41866 13.1797 8.63729 12.5615 8.03248 11.7873C7.09676 10.5095 6.60007 8.96309 6.61676 7.37945C6.58424 6.50243 6.72949 5.62789 7.04377 4.80847C7.35805 3.98905 7.83486 3.24168 8.4455 2.61133C9.05615 1.98098 9.78801 1.48069 10.597 1.14057C11.4061 0.800439 12.2756 0.627505 13.1532 0.632171C15.2129 0.610402 17.2131 1.32223 18.796 2.64029C19.8252 3.45301 20.616 4.52832 21.0853 5.75288H21.507V0.300831H21.0853L18.4546 1.73664C17.9467 1.40794 17.4047 1.13526 16.8381 0.923348C15.3897 0.369093 13.8506 0.0898746 12.2997 0.100019C9.41114 0.0300309 6.54438 0.617115 3.91583 1.81696C1.35548 3.12224 0 5.01991 0 7.36941C0 12.1387 4.50823 14.6589 13.0528 14.6589C14.9878 14.7117 16.8897 14.1492 18.4847 13.0524L21.0953 14.4581H21.507V8.96587H21.0853Z" fill="black"/>
<path d="M92.5442 0.632555C94.6042 0.609025 96.605 1.32106 98.187 2.64068C99.2183 3.46571 100.006 4.55544 100.466 5.79342H100.898V0.301215H100.496L97.8456 1.73702C97.3391 1.4059 96.7969 1.13307 96.2291 0.923732C94.7807 0.369477 93.2416 0.0902586 91.6908 0.100403C88.8123 0.0349862 85.9563 0.621966 83.337 1.81735C80.7766 3.12262 79.4211 5.04038 79.4211 7.3698C79.4211 12.1391 83.9294 14.6593 92.4739 14.6593C94.4017 14.7043 96.2949 14.1424 97.8858 13.0528L100.486 14.4585H100.908V8.96625H100.476V9.03654C100.115 9.99014 99.5655 10.861 98.8597 11.5969C98.0471 12.4415 97.0655 13.1052 95.979 13.5446C94.8925 13.9841 93.7255 14.1894 92.5542 14.1472C91.5812 14.1918 90.6114 14.0048 89.7247 13.6016C88.838 13.1984 88.0596 12.5905 87.4536 11.8278C86.512 10.5519 86.0084 9.00569 86.0178 7.42C85.9798 6.54053 86.1206 5.66248 86.4317 4.83901C86.7429 4.01554 87.2179 3.26378 87.8281 2.62923C88.4382 1.99469 89.1708 1.49055 89.9814 1.14735C90.7921 0.804148 91.6639 0.629016 92.5442 0.632555Z" fill="black"/>
<path d="M140.99 7.40996C140.935 5.56976 141.577 3.77657 142.787 2.38966C144.435 0.88896 146.583 0.0571938 148.812 0.0571938C151.04 0.0571938 153.189 0.88896 154.836 2.38966C156.043 3.7786 156.685 5.57039 156.633 7.40996C156.687 9.24985 156.045 11.0423 154.836 12.4303C153.189 13.931 151.04 14.7627 148.812 14.7627C146.583 14.7627 144.435 13.931 142.787 12.4303C141.574 11.0449 140.932 9.25064 140.99 7.40996ZM154.575 7.40996C154.62 6.63354 154.496 5.85659 154.209 5.1334C153.923 4.41021 153.483 3.75823 152.918 3.22303C151.751 2.31275 150.312 1.81841 148.832 1.81841C147.351 1.81841 145.913 2.31275 144.745 3.22303C144.177 3.75606 143.734 4.40742 143.446 5.13097C143.158 5.85452 143.032 6.63255 143.079 7.40996C143.034 8.18715 143.161 8.96456 143.449 9.6878C143.737 10.411 144.179 11.0626 144.745 11.5969C145.915 12.5022 147.353 12.9935 148.832 12.9935C150.311 12.9935 151.748 12.5022 152.918 11.5969C153.49 11.065 153.939 10.4149 154.234 9.69176C154.529 8.96866 154.662 8.18997 154.625 7.40996H154.575Z" fill="black"/>
<path d="M159.806 9.1269V0.351418H161.905V9.38796C161.905 11.7977 163.334 13.0026 166.192 13.0026C169.044 13.0026 170.479 11.7977 170.479 9.38796V0.351418H172.568V9.1269C172.568 12.9089 170.443 14.8032 166.192 14.8099C161.941 14.8166 159.813 12.9222 159.806 9.1269Z" fill="black"/>
<path d="M180.309 14.4585V2.16877H174.978V0.351418H187.759V2.16877H182.428V14.4585H180.309Z" fill="black"/>
<path d="M190.269 14.4585V0.351418H192.358V12.6411H200.932V14.4585H190.269Z" fill="black"/>
<path d="M203.533 14.4585V0.351418H214.869V2.16877H205.631V6.26533H214.598V8.08268H205.631V12.6411H215.07V14.4585H203.533Z" fill="black"/>
<path d="M222.58 14.4585V2.16877H217.248V0.351418H230V2.16877H224.668V14.4585H222.58Z" fill="black"/>
</g>
<defs>
<clipPath id="clip0">
<rect width="230" height="14.8099" fill="white"/>
</clipPath>
</defs>
</svg>
