<svg width="48" height="48" viewBox="0 0 48 48" fill="none" xmlns="http://www.w3.org/2000/svg">
<path fill-rule="evenodd" clip-rule="evenodd" d="M21.7202 1.56777C22.229 0.601264 22.8682 0.016045 23.9435 0.000307337C25.1172 -0.0164802 25.8054 0.655531 26.3609 1.75484C26.3713 1.77538 26.3834 1.80005 26.3968 1.8277L26.94 3.00179C27.327 3.88196 27.6343 4.76977 27.8478 5.64143C28.5914 8.62857 27.3496 11.7106 24.1163 11.7105L23.7983 11.7138L23.5839 11.7072C20.5598 11.5064 19.4414 8.51428 20.1447 5.65147C20.4044 4.59351 20.7988 3.51474 21.2964 2.47984C21.3057 2.46039 21.3377 2.38893 21.3788 2.29679C21.4561 2.12358 21.5661 1.87729 21.62 1.7661L21.7202 1.56777ZM24.0969 2.51226L23.9855 2.32006L23.7875 2.70256L23.258 3.8633C22.9219 4.62458 22.6527 5.40226 22.4668 6.15964C22.0471 7.86796 22.6149 9.387 23.7092 9.46037L23.8114 9.46357L24.1032 9.46027C25.3108 9.46027 25.9233 8.05519 25.5729 6.35726L25.5262 6.15217C25.3057 5.25153 24.9651 4.32111 24.5267 3.40274L24.2418 2.78997L24.0969 2.51226Z" fill="black"/>
<path d="M25.1884 10.5854V15.6129H22.8047V10.5854H25.1884Z" fill="black"/>
<path fill-rule="evenodd" clip-rule="evenodd" d="M11.5609 14.7019H36.4469C39.5702 14.7019 42.1218 17.1109 42.1218 20.059C42.1218 20.3556 42.0959 20.6489 42.045 20.9367L42.0196 21.0571L42.151 21.0825C45.4096 21.7585 47.8779 24.4583 47.9956 27.7041L48 27.9614C48 32.3816 46.2209 34.9994 43.2072 35.8207C41.1551 36.38 38.5775 35.9623 37.2826 35.1826C37.0362 35.0354 36.7992 34.8574 36.443 34.5662L35.6102 33.8889C34.6577 33.1478 33.9075 32.784 33.18 32.7701C32.2387 32.7528 31.7226 33.0171 30.788 33.8767L30.0694 34.5356C28.5333 35.8831 27.1238 36.5009 24.8116 36.5009C22.0964 36.5009 20.532 35.8667 18.9778 34.5131L18.2543 33.8739C17.6087 33.3305 17.1883 33.149 16.4424 33.1241C15.2417 33.0861 14.7518 33.3353 13.7853 34.2705L13.3584 34.679C11.9844 35.9482 10.7648 36.5009 8.59982 36.5009C2.88623 36.5009 0 32.8012 0 27.9548C0 24.5998 2.5178 21.7759 5.85843 21.0825L5.9868 21.0571L5.96212 20.9359C5.92819 20.7442 5.90535 20.55 5.89389 20.3541L5.88528 20.059C5.88528 17.1109 8.43746 14.7019 11.5609 14.7019ZM36.4471 16.9522H11.5611C9.75409 16.9522 8.26921 18.3538 8.26921 20.059C8.26921 20.572 8.40313 21.0653 8.65753 21.5106L9.60547 23.1698H7.45269C4.66874 23.1698 2.38393 25.3265 2.38393 27.9547C2.38393 31.6814 4.38824 34.2506 8.6 34.2506C10.15 34.2506 10.8159 33.9194 11.8726 32.8993L12.2961 32.4935C13.5837 31.2989 14.6396 30.8156 16.5246 30.8751C18.0121 30.9248 18.93 31.3847 20.0658 32.3885L20.5944 32.8592C21.7271 33.8457 22.7259 34.2506 24.8118 34.2506C26.5422 34.2506 27.4249 33.8292 28.6517 32.7033L29.3595 32.0535C30.5975 30.9647 31.6209 30.4907 33.2274 30.5203C34.6194 30.5467 35.7967 31.1178 37.1265 32.1525C37.106 32.1365 38.0521 32.9101 38.4317 33.1925L38.5611 33.2833C39.3005 33.7285 41.1755 34.0323 42.5462 33.6587C44.4635 33.1362 45.6164 31.4397 45.6164 27.9591C45.6221 25.3248 43.3445 23.1698 40.5547 23.1698H38.4L39.3504 21.5097C39.6045 21.0658 39.7382 20.5729 39.7382 20.059C39.7382 18.3536 38.2538 16.9522 36.4471 16.9522Z" fill="black"/>
<path fill-rule="evenodd" clip-rule="evenodd" d="M29.3244 31.9329C30.5623 30.8442 31.5856 30.3703 33.1913 30.3998L33.4872 30.4138C34.7529 30.5102 35.8558 31.0713 37.091 32.0326C37.0623 32.0103 38.3301 33.0466 38.5229 33.1617C38.9729 33.431 40.131 33.7191 41.1937 33.709L42.6308 33.6955L40.4249 45.4021C40.139 46.9073 38.7528 48 37.1334 48H10.8097C9.1934 48 7.80606 46.903 7.51859 45.4L5.32129 33.7052L7.00734 33.9946C7.53 34.0843 8.03459 34.1302 8.56467 34.1302C10.1147 34.1302 10.7806 33.799 11.8373 32.7789L12.2607 32.373C13.5483 31.1785 14.6043 30.6951 16.4893 30.7547C17.9765 30.8044 18.8943 31.2642 20.0299 32.2679C20.0436 32.28 20.0871 32.3189 20.1441 32.3698C20.1819 32.4036 20.2256 32.4427 20.2706 32.4829L20.7464 32.8978C21.8057 33.769 22.8061 34.1302 24.7757 34.1302C26.5065 34.1302 27.3895 33.7087 28.6163 32.5828C28.6614 32.5415 28.7744 32.4365 28.8805 32.338L28.9525 32.2712L29.3244 31.9329ZM33.1442 32.6496L32.9494 32.6503C32.1278 32.673 31.6208 32.9579 30.753 33.756L30.0341 34.4151C28.498 35.7625 27.0882 36.3804 24.7758 36.3804C22.0609 36.3804 20.4965 35.7461 18.9423 34.3925L18.2187 33.7532C17.5732 33.2099 17.1529 33.0284 16.4073 33.0035C15.2066 32.9656 14.7167 33.2147 13.7502 34.15L13.3233 34.5584C11.9493 35.8276 10.7297 36.3804 8.56472 36.3804L8.24297 36.3735L9.86511 45.0035C9.93978 45.3939 10.2776 45.6911 10.6855 45.742L10.8098 45.7497H37.1335C37.5995 45.7497 37.9965 45.4367 38.0783 45.0063L39.8015 35.8593L39.7078 35.8464C38.8196 35.7094 37.9978 35.4597 37.428 35.1633L37.2477 35.0628C37.0009 34.9155 36.7637 34.7373 36.4075 34.4461L35.7054 33.8717L35.3406 33.5913C34.4971 32.9691 33.8114 32.6622 33.1442 32.6496Z" fill="black"/>
</svg>
