<svg width="48" height="48" viewBox="0 0 48 48" fill="none" xmlns="http://www.w3.org/2000/svg">
<path d="M12.8965 36.5406H17.0354H28.3364H33.5172" stroke="black" stroke-width="1.62" stroke-linecap="round"/>
<path d="M40.6961 36.1486H44.5983C45.9243 36.1486 47 35.0929 47 33.7905V27.6272C47 26.5221 46.7818 25.6044 46.05 24.7121C45.5498 24.1023 41.3459 19.5555 39.3279 17.6541C38.1453 16.4656 36.5244 15.7956 34.8315 15.7956H29.3667V11.0925C29.3667 10.2129 29.092 9.5 28.1962 9.5H2.62189C1.72606 9.5 1 10.2129 1 11.0925V34.5557C1 35.4353 1.72606 36.1486 2.62189 36.1486H5.84362" stroke="black" stroke-width="1.62" stroke-linecap="round"/>
<path fill-rule="evenodd" clip-rule="evenodd" d="M35.1755 17.338H32.8579C32.3463 17.338 31.9312 17.7426 31.9312 18.2414V22.6866C31.9312 23.1954 32.3542 23.6082 32.8761 23.6082H40.828C41.3658 23.6082 41.648 22.9848 41.2856 22.5979L37.1639 18.1932C36.6541 17.6485 35.9321 17.338 35.1755 17.338ZM35.1753 18.4746C35.603 18.4746 36.0139 18.6514 36.3021 18.9593L39.588 22.4709H33.0969V18.4746H35.1753Z" fill="black"/>
<path fill-rule="evenodd" clip-rule="evenodd" d="M39.8619 35.365C39.8619 37.0965 38.4419 38.5 36.6895 38.5C34.9375 38.5 33.5171 37.0965 33.5171 35.365C33.5171 33.6335 34.9375 32.2297 36.6895 32.2297C38.4419 32.2297 39.8619 33.6335 39.8619 35.365Z" stroke="black" stroke-width="1.62"/>
<path fill-rule="evenodd" clip-rule="evenodd" d="M12.1036 35.365C12.1036 37.0965 10.6832 38.5 8.9312 38.5C7.17923 38.5 5.75879 37.0965 5.75879 35.365C5.75879 33.6335 7.17923 32.2297 8.9312 32.2297C10.6832 32.2297 12.1036 33.6335 12.1036 35.365Z" stroke="black" stroke-width="1.62"/>
<path d="M29.3667 10.2577V36.7757" stroke="black" stroke-width="1.62"/>
</svg>
