<svg width="96" height="96" viewBox="0 0 96 96" fill="none" xmlns="http://www.w3.org/2000/svg">
<path d="M89.4911 20.4239L78.1334 62.7465L63.438 20.4239H60.8236V20.4239L49.361 62.6501L35.4276 20.4239C30.4853 19.4495 25.4668 18.9731 20.4396 19.0012H20.2684C8.73405 19.0012 3 27.3769 3 34.0698C3 42.3228 7.94448 47.2367 17.7672 50.3304C26.3558 53.0123 30.3699 56.6641 30.3699 62.3083C30.3699 68.8785 25.5718 73.6317 18.4049 73.6317C9.86319 73.6317 4.13466 66.9854 3 65.7438V71.5195C5.96227 74.3825 12.0635 77.2776 18.4104 77.2776C28.3491 77.2776 36.3331 70.4123 36.3331 61.6655C36.3331 56.3895 34.9886 48.1394 19.9012 43.6141C12.7233 41.461 8.41656 37.9495 8.41656 33.097C8.41656 26.6524 12.6294 22.4572 20.1966 22.4572C24.8236 22.4572 28.6279 22.5682 30.6184 26.9445L46.7853 76.2025H49.1043L60.8126 33.0532L75.8282 76.1821H78.1555L92.8979 20.4239H89.4911Z" fill="black"/>
</svg>
