<svg width="314" height="25" viewBox="0 0 314 25" fill="none" xmlns="http://www.w3.org/2000/svg">
<mask id="mask0" mask-type="alpha" maskUnits="userSpaceOnUse" x="0" y="0" width="314" height="25">
<path fill-rule="evenodd" clip-rule="evenodd" d="M0 0H314V25H0V0Z" fill="white"/>
</mask>
<g mask="url(#mask0)">
<path fill-rule="evenodd" clip-rule="evenodd" d="M163.129 0.598502L157.954 19.189L151.439 0.157104H150.216L144.916 19.2835L138.519 0.598502H135.619L143.881 24.8645H145.007L150.354 5.55086L156.976 24.8645H158.102L164.758 0.598502H163.129ZM312.375 0.599427V19.8574L298.153 0.159302H297.047V24.4918H298.67L298.669 5.38293L312.724 24.847H314V0.599427H312.375ZM284.657 14.7369L280.104 4.32684L275.972 14.7369H284.657ZM291.865 24.4918H288.926L285.368 16.3597H275.329L272.102 24.4918H270.395L280.002 0.15741H281.073L291.865 24.4918ZM263.875 0.150452L254.412 20.6538L243.319 0.150452H242.168V24.4912H243.786V6.67537L253.503 24.4969H254.34L262.489 6.91324V24.4912H265.245V0.150452H263.875ZM236.655 0.599792H221.12V2.20574H232.437L218.488 24.4918H236.113V22.8614H222.72L236.655 0.599792ZM199.135 0.599792V2.20733H206.017V24.4918H208.791V2.20733H215.601V0.599792H199.135ZM189.973 24.4934H192.747V0.601074H189.973V24.4934ZM182.99 2.19938V0.599792H170.126V24.4918H182.99V22.8579H172.901L172.899 12.5891H181.991V10.9663H172.899V2.19843L182.99 2.19938ZM7.73649 10.7258C4.13204 9.75208 2.38017 8.28129 2.38017 6.22758C2.38017 3.30062 4.34738 1.55284 7.64307 1.55284C10.631 1.55284 12.7635 3.95413 13.2999 4.69096V1.88802C12.3271 1.1372 10.3311 0 7.67252 0C2.41374 0 0.0484521 3.83011 0.0484521 6.55036C0.0484521 9.89041 2.18731 12.1368 6.58695 13.4175C10.6522 14.5998 12.4648 16.1501 12.4648 18.4433C12.4648 21.3117 10.2332 23.3142 7.03758 23.3142C5.40668 23.3142 2.7662 22.7625 0 19.6873V22.4082C1.32562 23.693 4.20836 24.9491 7.04201 24.9491C11.3229 24.9491 14.9391 21.8841 14.9391 18.2557C14.9391 16.8749 14.9391 12.6705 7.73649 10.7258ZM72.9343 14.7369L68.3785 4.32684L64.2484 14.7369H72.9343ZM80.1413 24.4918H77.2031L73.644 16.3597H63.6046L60.3773 24.4918H58.6713L68.2772 0.15741H69.3482L80.1413 24.4918ZM53.3181 0.599792V16.1253C53.3181 20.8277 51.2385 23.2115 47.1369 23.2115C41.9671 23.2115 41.5655 17.8385 41.5655 16.1915V0.599792H38.7917V16.4449C38.7917 17.5189 38.9564 19.598 40.0603 21.4596C41.4537 23.8088 43.8396 25 47.1514 25C50.703 25 54.9361 23.5159 54.9361 16.4449V0.599792H53.3181ZM92.1795 12.3311C94.8862 12.3311 96.3024 9.19618 96.3024 7.51614C96.3024 4.29438 94.7339 2.21269 92.3068 2.21269L87.677 2.20251V12.3311H92.1795ZM101.064 24.4928H98.0188L91.7301 13.9476H87.6769V24.4934H84.8959V0.601074H92.1491C98.6952 0.601074 99.2038 5.6711 99.2038 7.22458C99.2038 10.7818 96.7327 12.8028 94.5115 13.5043L101.064 24.4928ZM17.2448 0.599792V2.20479H24.1282V24.4918H26.9017V2.20479H33.7106V0.599792H17.2448ZM119.66 0.600464V2.20737H112.851V24.4919H110.076V2.20737H103.193V0.600464H119.66V0.600464Z" fill="black"/>
</g>
</svg>
