<svg width="61" height="24" viewBox="0 0 61 24" fill="none" xmlns="http://www.w3.org/2000/svg">
<path fill-rule="evenodd" clip-rule="evenodd" d="M4.92934 13.5234C3.30539 13.5234 1.42275 14.2994 0.402395 15.1042L1.33653 17.0587C2.15569 16.3114 3.47784 15.679 4.67066 15.679C5.80599 15.679 6.42395 16.0527 6.42395 16.8144C6.42395 17.3317 6.00719 17.5904 5.23114 17.691C2.2994 18.0647 0 18.8695 0 21.1257C0 22.9078 1.27904 24 3.26228 24C4.68503 24 5.9497 23.2096 6.55329 22.1749V23.7126H9.1976V17.2599C9.1976 14.6012 7.34371 13.5234 4.92934 13.5234ZM3.93772 21.9305C3.19042 21.9305 2.81677 21.5713 2.81677 20.9677C2.81677 19.8467 4.06707 19.4731 6.3521 19.2287C6.36647 20.7234 5.34611 21.9305 3.93772 21.9305V21.9305ZM34.1317 15.4778V13.8108H31.4874V23.7126H34.3186V18.9413C34.3186 16.6707 35.6838 16.0096 36.6467 16.0096C37.0204 16.0096 37.5233 16.1246 37.8539 16.3689L38.3713 13.7533C37.9401 13.5665 37.4802 13.5234 37.1066 13.5234C35.6551 13.5234 34.7353 14.1701 34.1317 15.4778V15.4778ZM51.5066 13.5234C50.012 13.5234 48.891 14.4144 48.3018 15.2623C47.7557 14.1557 46.6204 13.5234 45.2407 13.5234C43.7461 13.5234 42.7114 14.3569 42.2227 15.3054V13.8108H39.4922V23.7126H42.3234V18.6108C42.3234 16.7856 43.2862 15.909 44.1772 15.909C44.982 15.909 45.7293 16.4263 45.7293 17.7772V23.7126H48.5748V18.6108C48.5748 16.7569 49.509 15.909 50.4431 15.909C51.1904 15.909 51.9808 16.4551 51.9808 17.7629V23.7126H54.812V16.8719C54.812 14.6443 53.3174 13.5234 51.5066 13.5234V13.5234ZM19.2 13.0778V13.8108H14.903V12.8048C14.903 11.497 15.6503 11.1234 16.297 11.1234C16.6707 11.1234 17.1593 11.2096 17.5617 11.4395L18.4383 9.44192C17.921 9.14012 17.0731 8.86707 15.9377 8.86707C14.1269 8.86707 12.0719 9.88743 12.0719 13.0922V13.8251H10.4335V16.0096H12.0719V23.7126H14.903V15.9952H19.2V23.7126H22.0311V15.9952H24.6036V13.8108H22.0311V12.8048C22.0311 11.497 22.7784 11.1234 23.4251 11.1234C24.1437 11.1234 24.6898 11.4395 24.6898 11.4395L25.5665 9.44192C25.5665 9.44192 24.6754 8.86707 23.0659 8.86707C21.2695 8.85269 19.2 9.87305 19.2 13.0778V13.0778ZM26.285 13.8108H29.1162V23.7126H26.285V13.8108Z" fill="#060809"/>
<path fill-rule="evenodd" clip-rule="evenodd" d="M42.7832 0C35.1377 0 28.3258 5.30299 26.4 12.1293H29.1737C30.7832 7.04192 36.2587 2.58683 42.7832 2.58683C50.7162 2.58683 57.5569 8.62275 57.5569 18.0216C57.5569 20.1341 57.2838 22.0311 56.7665 23.7126H59.4539L59.4826 23.6263C59.9281 21.8874 60.1437 20.0048 60.1437 18.0216C60.1437 7.54491 52.5126 0 42.7832 0Z" fill="black"/>
</svg>
