<svg width="36" height="24" viewBox="0 0 36 24" fill="none" xmlns="http://www.w3.org/2000/svg">
<path fill-rule="evenodd" clip-rule="evenodd" d="M0 2C0 0.89543 0.895431 0 2 0H33C34.1046 0 35 0.895431 35 2V22C35 23.1046 34.1046 24 33 24H2C0.89543 24 0 23.1046 0 22V2Z" fill="#016FD0"/>
<path fill-rule="evenodd" clip-rule="evenodd" d="M7.40002 18.1514V12.7978H13.0986L13.71 13.5907L14.3416 12.7978H35.0261V17.7822C35.0261 17.7822 34.4852 18.1461 33.8595 18.1514H22.4061L21.7168 17.3075V18.1514H19.4579V16.7108C19.4579 16.7108 19.1494 16.9119 18.4823 16.9119H17.7134V18.1514H14.2933L13.6828 17.3416L13.0629 18.1514H7.40002Z" fill="white"/>
<path fill-rule="evenodd" clip-rule="evenodd" d="M8.08936 17.4658V13.4572H11.3769V14.3538H9.10744V15.0395H11.3239V15.8834H9.10744V16.5955H11.3769V17.4658H8.08936Z" fill="#016FD0"/>
<path fill-rule="evenodd" clip-rule="evenodd" d="M24.1984 17.4658V13.4572H27.4859V14.3538H25.2164V15.0395H27.4223V15.8834H25.2164V16.5955H27.4859V17.4658H24.1984Z" fill="#016FD0"/>
<path fill-rule="evenodd" clip-rule="evenodd" d="M11.5045 17.4658L13.1052 15.4862L11.4664 13.4572H12.7357L13.7117 14.7115L14.691 13.4572H15.9105L14.2933 15.4615L15.8969 17.4658H14.6278L13.6802 16.2312L12.7555 17.4658H11.5045Z" fill="#016FD0"/>
<path fill-rule="evenodd" clip-rule="evenodd" d="M16.0166 17.4664V13.4578H18.242C19.1551 13.4578 19.6886 14.0432 19.6886 14.8061C19.6886 15.727 19.0084 16.2006 18.1111 16.2006H17.0506V17.4664H16.0166ZM18.1674 14.3644H17.0506V15.2874H18.1641C18.4584 15.2874 18.6645 15.0934 18.6645 14.8259C18.6645 14.5411 18.4573 14.3644 18.1674 14.3644Z" fill="#016FD0"/>
<path fill-rule="evenodd" clip-rule="evenodd" d="M20.126 17.4658V13.4572H22.368C23.1109 13.4572 23.7765 13.9141 23.7765 14.7576C23.7765 15.4788 23.2153 15.9432 22.6712 15.9889L23.9969 17.4658H22.7657L21.5577 16.0416H21.1335V17.4658H20.126ZM22.2852 14.3538H21.1335V15.1977H22.3001C22.502 15.1977 22.7624 15.0421 22.7624 14.7758C22.7624 14.5688 22.5614 14.3538 22.2852 14.3538Z" fill="#016FD0"/>
<path fill-rule="evenodd" clip-rule="evenodd" d="M27.9526 17.4658V16.5955H29.9688C30.2672 16.5955 30.3964 16.4351 30.3964 16.2592C30.3964 16.0907 30.2676 15.9203 29.9688 15.9203H29.0577C28.2657 15.9203 27.8246 15.4404 27.8246 14.7197C27.8246 14.077 28.2286 13.4572 29.4055 13.4572H31.3674L30.9432 14.3591H29.2464C28.922 14.3591 28.8222 14.5284 28.8222 14.6901C28.8222 14.8562 28.9456 15.0395 29.1934 15.0395H30.1478C31.0307 15.0395 31.4138 15.5376 31.4138 16.19C31.4138 16.8913 30.9869 17.4658 30.0997 17.4658H27.9526Z" fill="#016FD0"/>
<path fill-rule="evenodd" clip-rule="evenodd" d="M31.6502 17.4658V16.5955H33.6665C33.9648 16.5955 34.094 16.4351 34.094 16.2592C34.094 16.0907 33.9652 15.9203 33.6665 15.9203H32.7553C31.9634 15.9203 31.5223 15.4404 31.5223 14.7197C31.5223 14.077 31.9262 13.4572 33.1031 13.4572H35.065L34.6408 14.3591H32.944C32.6197 14.3591 32.5198 14.5284 32.5198 14.6901C32.5198 14.8562 32.6432 15.0395 32.891 15.0395H33.8454C34.7283 15.0395 35.1114 15.5376 35.1114 16.19C35.1114 16.8913 34.6845 17.4658 33.7974 17.4658H31.6502Z" fill="#016FD0"/>
<path fill-rule="evenodd" clip-rule="evenodd" d="M0.0343628 8.76287L1.31942 5.78279H3.54178L4.27107 7.45211V5.78279H7.03367L7.46782 6.98933L7.8887 5.78279H20.2899V6.38936C20.2899 6.38936 20.9419 5.78279 22.0133 5.78279L26.037 5.79678L26.7537 7.44425V5.78279H29.0656L29.7019 6.72913V5.78279H32.035V11.1364H29.7019L29.0921 10.187V11.1364H25.6954L25.3538 10.2925H24.4407L24.1047 11.1364H21.8012C20.8793 11.1364 20.2899 10.5422 20.2899 10.5422V11.1364H16.8168L16.1275 10.2925V11.1364H3.21255L2.8712 10.2925H1.96097L1.62204 11.1364H0.0343628L0.0343628 8.76287Z" fill="white"/>
<path fill-rule="evenodd" clip-rule="evenodd" d="M0.0410156 10.4514L1.77427 6.44278H3.0883L4.8199 10.4514H3.66661L3.34845 9.64868H1.48926L1.16946 10.4514H0.0410156ZM2.98225 8.77839L2.41554 7.3757L1.84718 8.77839H2.98225Z" fill="#016FD0"/>
<path fill-rule="evenodd" clip-rule="evenodd" d="M4.93921 10.4507V6.44209L6.54278 6.44802L7.47548 9.03251L8.38584 6.44209H9.97659V10.4507H8.96912V7.49699L7.90117 10.4507H7.01761L5.94669 7.49699V10.4507H4.93921Z" fill="#016FD0"/>
<path fill-rule="evenodd" clip-rule="evenodd" d="M10.6659 10.4507V6.44209H13.9534V7.33876H11.684V8.02444H13.9004V8.86835H11.684V9.58041H13.9534V10.4507H10.6659Z" fill="#016FD0"/>
<path fill-rule="evenodd" clip-rule="evenodd" d="M14.5367 10.4514V6.44278H16.7787C17.5216 6.44278 18.1872 6.89972 18.1872 7.74327C18.1872 8.46439 17.626 8.92886 17.0819 8.97453L18.4076 10.4514H17.1764L15.9684 9.02727H15.5442V10.4514H14.5367ZM16.6959 7.33944H15.5442V8.18336H16.7108C16.9127 8.18336 17.1731 8.02771 17.1731 7.7614C17.1731 7.5544 16.9721 7.33944 16.6959 7.33944Z" fill="#016FD0"/>
<path fill-rule="evenodd" clip-rule="evenodd" d="M19.6271 10.4507H18.5984V6.44209H19.6271V10.4507Z" fill="#016FD0"/>
<path fill-rule="evenodd" clip-rule="evenodd" d="M22.0663 10.4507H21.8442C20.7699 10.4507 20.1176 9.60876 20.1176 8.46288C20.1176 7.28869 20.7626 6.44209 22.1193 6.44209H23.2328V7.3915H22.0786C21.5279 7.3915 21.1383 7.81903 21.1383 8.47277C21.1383 9.24908 21.5837 9.57513 22.2254 9.57513H22.4905L22.0663 10.4507Z" fill="#016FD0"/>
<path fill-rule="evenodd" clip-rule="evenodd" d="M22.5253 10.4514L24.2585 6.44278H25.5726L27.3042 10.4514H26.1509L25.8327 9.64868H23.9735L23.6537 10.4514H22.5253ZM25.4665 8.77839L24.8998 7.3757L24.3314 8.77839H25.4665Z" fill="#016FD0"/>
<path fill-rule="evenodd" clip-rule="evenodd" d="M27.4218 10.4507V6.44209H28.7027L30.3382 8.96066V6.44209H31.3457V10.4507H30.1062L28.4293 7.8662V10.4507H27.4218Z" fill="#016FD0"/>
</svg>
