<svg width="58" height="24" viewBox="0 0 58 24" fill="none" xmlns="http://www.w3.org/2000/svg">
<g clip-path="url(#clip0)">
<path d="M10.6803 3.0942C9.99521 3.90485 8.89911 4.54424 7.80301 4.4529C7.666 3.3568 8.20263 2.1922 8.8306 1.47288C9.51566 0.639391 10.7145 0.0456708 11.685 0C11.7992 1.14177 11.3539 2.2607 10.6803 3.0942ZM11.6736 4.66984C10.0865 4.5785 8.72784 5.57184 7.97427 5.57184C7.20929 5.57184 6.0561 4.71551 4.80015 4.73834C3.16742 4.76118 1.64887 5.68601 0.815377 7.1589C-0.897277 10.1047 0.370087 14.4662 2.02565 16.8639C2.83631 18.0514 3.80681 19.353 5.0856 19.3073C6.29587 19.2617 6.77542 18.5195 8.23688 18.5195C9.70976 18.5195 10.1322 19.3073 11.411 19.2845C12.7355 19.2617 13.5689 18.0971 14.3796 16.9096C15.3044 15.5623 15.6812 14.2493 15.7041 14.1808C15.6812 14.1579 13.1465 13.1874 13.1237 10.2645C13.1008 7.82112 15.1218 6.65652 15.2131 6.58801C14.0713 4.89819 12.2902 4.71551 11.6736 4.66984ZM20.842 1.35871V19.1589H23.6051V13.0733H27.43C30.9238 13.0733 33.3787 10.6755 33.3787 7.20457C33.3787 3.73359 30.9695 1.35871 27.5214 1.35871H20.842V1.35871ZM23.6051 3.68792H26.7906C29.1884 3.68792 30.5585 4.9667 30.5585 7.21598C30.5585 9.46527 29.1884 10.7555 26.7792 10.7555H23.6051V3.68792V3.68792ZM38.4253 19.2959C40.1608 19.2959 41.7707 18.4167 42.5014 17.0238H42.5585V19.1589H45.116V10.2988C45.116 7.72978 43.0609 6.07422 39.8982 6.07422C36.9638 6.07422 34.7944 7.75262 34.7145 10.059H37.2036C37.4091 8.96289 38.4253 8.24358 39.8182 8.24358C41.5081 8.24358 42.4557 9.0314 42.4557 10.4814V11.4634L39.0076 11.6689C35.7992 11.863 34.0637 13.176 34.0637 15.4596C34.0637 17.7659 35.8563 19.2959 38.4253 19.2959ZM39.1674 17.1836C37.6945 17.1836 36.7583 16.4757 36.7583 15.3911C36.7583 14.2721 37.6603 13.6213 39.3844 13.5186L42.4557 13.3245V14.3292C42.4557 15.9962 41.0399 17.1836 39.1674 17.1836ZM48.5299 24C51.2245 24 52.4919 22.9724 53.5994 19.8554L58.4519 6.24548H55.6432L52.3891 16.7612H52.332L49.078 6.24548H46.1893L50.8706 19.2046L50.6194 19.9924C50.1969 21.3283 49.5119 21.8421 48.2902 21.8421C48.0732 21.8421 47.6508 21.8192 47.4795 21.7964V23.9315C47.6394 23.9772 48.3244 24 48.5299 24Z" fill="black"/>
</g>
<defs>
<clipPath id="clip0">
<rect width="58" height="24" fill="white"/>
</clipPath>
</defs>
</svg>
