<svg width="36" height="24" viewBox="0 0 36 24" fill="none" xmlns="http://www.w3.org/2000/svg">
<path fill-rule="evenodd" clip-rule="evenodd" d="M7.69929 19.9264C7.74424 19.7032 7.75545 19.6475 7.98758 19.6475H8.4978V21.3284C8.4978 21.5764 8.41158 21.5924 8.24002 21.5924H8.18047V21.6866C8.23485 21.6866 8.30856 21.6843 8.39012 21.6818L8.39022 21.6818L8.39023 21.6818H8.39024H8.39024C8.49127 21.6786 8.60432 21.6751 8.70758 21.6751C8.79788 21.6751 8.90324 21.6785 9.00009 21.6816C9.08247 21.6842 9.15868 21.6866 9.21425 21.6866V21.5924H9.15469C9.00625 21.5924 8.89691 21.564 8.89691 21.3222V19.6475H9.40713C9.61691 19.6475 9.63202 19.8333 9.63825 19.9506L9.73158 19.9151C9.73158 19.8297 9.73158 19.7453 9.7378 19.66C9.74507 19.5902 9.75531 19.521 9.7656 19.4515L9.77247 19.4049L9.6978 19.3924C9.69069 19.4866 9.61336 19.4902 9.52891 19.4902H7.9218L7.91308 19.4902C7.83285 19.4903 7.75915 19.4904 7.73513 19.3986H7.66047C7.66047 19.4902 7.65425 19.5782 7.6418 19.6671C7.63544 19.7261 7.62643 19.784 7.61749 19.8415L7.61749 19.8415L7.61749 19.8415L7.61748 19.8415L7.61748 19.8416C7.61269 19.8724 7.60792 19.9031 7.60358 19.9337H7.6978L7.69929 19.9264ZM3.9458 21.5924H3.98847C4.10047 21.5924 4.21958 21.5764 4.21958 21.4129V19.764C4.21958 19.6004 4.10047 19.5844 3.98847 19.5844H3.9458V19.4902C4.00261 19.4902 4.07415 19.4929 4.14998 19.4959C4.23552 19.4991 4.32651 19.5026 4.40802 19.5026C4.48638 19.5026 4.57296 19.4994 4.65838 19.4963L4.65838 19.4963C4.74157 19.4932 4.82366 19.4902 4.89602 19.4902V19.5844H4.85158C4.74047 19.5844 4.62225 19.6004 4.62225 19.764V21.4129C4.62225 21.5764 4.74047 21.5924 4.85247 21.5924H4.89602V21.6866C4.82201 21.6866 4.73861 21.6838 4.65448 21.6809L4.65446 21.6809C4.56885 21.678 4.48247 21.6751 4.40447 21.6751C4.32354 21.6751 4.23366 21.6783 4.14904 21.6814L4.14903 21.6814L4.14901 21.6814C4.07377 21.6841 4.0027 21.6866 3.9458 21.6866V21.5924ZM7.03469 21.0671L7.04091 21.06V19.8804C7.04091 19.6226 6.86313 19.5844 6.7698 19.5844H6.70136V19.4902C6.7748 19.4902 6.84735 19.4933 6.9198 19.4964C6.99202 19.4995 7.06413 19.5026 7.13691 19.5026C7.20102 19.5026 7.26536 19.4995 7.32958 19.4964C7.39358 19.4933 7.45747 19.4902 7.52091 19.4902V19.5844H7.47469C7.34313 19.5844 7.19647 19.6102 7.19647 19.9844V21.4155C7.19647 21.5266 7.20002 21.6369 7.21513 21.7346H7.09691L5.49247 19.9275V21.2244C5.49247 21.4982 5.5458 21.5924 5.7858 21.5924H5.83913V21.6875C5.77147 21.6875 5.70425 21.6842 5.63714 21.6808C5.57025 21.6775 5.50347 21.6742 5.43647 21.6742C5.36681 21.6742 5.29627 21.6775 5.22562 21.6808H5.22561H5.22561H5.22561H5.22561H5.22561H5.22561H5.2256H5.2256H5.2256H5.2256H5.2256H5.22559H5.22559H5.22559H5.22559H5.22559H5.22559H5.22558H5.22558C5.15469 21.6842 5.08369 21.6875 5.01336 21.6875V21.5924H5.05691C5.27202 21.5924 5.33691 21.4449 5.33691 21.1933V19.868C5.33763 19.7927 5.30811 19.7203 5.25497 19.667C5.20183 19.6137 5.12951 19.5839 5.05425 19.5844H5.01247V19.4902C5.07169 19.4902 5.13181 19.4933 5.19181 19.4964C5.25158 19.4995 5.31124 19.5026 5.3698 19.5026C5.41702 19.5026 5.46313 19.4995 5.50913 19.4964C5.55491 19.4933 5.60058 19.4902 5.64713 19.4902L7.0338 21.0671H7.03469ZM9.87113 21.5924H9.91558C10.0276 21.5924 10.1467 21.5764 10.1467 21.4129V19.764C10.1467 19.6004 10.0276 19.5844 9.91558 19.5844H9.87113V19.4902C9.95879 19.4902 10.0749 19.4928 10.2002 19.4957C10.3468 19.499 10.5058 19.5026 10.6462 19.5026C10.7844 19.5026 10.9398 19.4992 11.0869 19.4959C11.219 19.493 11.3444 19.4902 11.4445 19.4902C11.4382 19.6253 11.4418 19.8333 11.4507 19.972L11.3565 19.9969C11.3414 19.7924 11.3049 19.6289 10.9769 19.6289H10.5449V20.4529H10.9147C11.1014 20.4529 11.1422 20.3462 11.1609 20.1755H11.2542C11.2423 20.4177 11.2423 20.6604 11.2542 20.9026L11.1609 20.9222L11.1605 20.9179C11.143 20.731 11.1317 20.6111 10.9182 20.6111H10.5449V21.3435C10.5449 21.548 10.7254 21.548 10.9245 21.548C11.2978 21.548 11.4631 21.5231 11.5565 21.1649L11.6436 21.1862C11.6022 21.3517 11.5669 21.5186 11.5378 21.6866C11.4462 21.6866 11.3216 21.6842 11.1865 21.6816C11.0267 21.6785 10.8522 21.6751 10.7005 21.6751C10.544 21.6751 10.3598 21.6787 10.1965 21.6818L10.1964 21.6818L10.1962 21.6818C10.0664 21.6844 9.94986 21.6866 9.87113 21.6866V21.5924ZM11.8427 19.5844C11.9396 19.5844 12.064 19.5942 12.064 19.8235H12.0649V21.4235C12.0649 21.5391 11.9582 21.5924 11.8427 21.5924H11.7867V21.6866C11.8653 21.6866 11.9416 21.6837 12.0171 21.6808C12.0911 21.6779 12.1643 21.6751 12.2382 21.6751C12.3271 21.6751 12.4165 21.678 12.5058 21.6809C12.5951 21.6837 12.6845 21.6866 12.7734 21.6866V21.5924H12.7174C12.5751 21.5924 12.4631 21.5835 12.4631 21.3409V20.6671H12.6685C12.8603 21.0215 13.0765 21.3622 13.3156 21.6866C13.364 21.6866 13.4131 21.6837 13.4622 21.6809C13.5114 21.678 13.5605 21.6751 13.6089 21.6751C13.6604 21.6751 13.7107 21.678 13.7611 21.6808C13.8118 21.6837 13.8626 21.6866 13.9147 21.6866V21.5924C13.7609 21.5729 13.6996 21.5364 13.6125 21.404L13.0791 20.5977C13.3254 20.5 13.512 20.3275 13.512 20.044C13.512 19.5969 13.1627 19.4902 12.7716 19.4902C12.6914 19.4902 12.6148 19.4931 12.5359 19.4961C12.452 19.4993 12.3655 19.5026 12.2694 19.5026C12.1596 19.5026 12.0484 19.4985 11.9548 19.4949C11.887 19.4924 11.8285 19.4902 11.7867 19.4902V19.5844H11.8427ZM12.4631 20.5533H12.6151C12.9262 20.5533 13.0951 20.4342 13.0951 20.0626C13.0951 19.7826 12.9174 19.604 12.64 19.604C12.5727 19.604 12.5332 19.6086 12.4997 19.6125C12.4867 19.614 12.4747 19.6154 12.4622 19.6164V20.5533H12.4631ZM16.0338 21.06L16.0285 21.0671L14.6418 19.4902C14.5955 19.4902 14.5494 19.4933 14.5034 19.4964C14.4576 19.4995 14.4119 19.5026 14.3662 19.5026C14.3066 19.5026 14.2462 19.4995 14.186 19.4964C14.126 19.4933 14.0661 19.4902 14.0071 19.4902V19.5844H14.0471C14.1227 19.5835 14.1955 19.613 14.249 19.6663C14.3025 19.7197 14.3323 19.7924 14.3316 19.868V21.1933C14.3316 21.4449 14.2658 21.5924 14.0507 21.5924H14.0071V21.6875C14.0768 21.6875 14.1476 21.6842 14.2185 21.6809C14.2896 21.6775 14.3608 21.6742 14.4311 21.6742C14.4984 21.6742 14.5656 21.6775 14.6327 21.6809C14.6996 21.6842 14.7664 21.6875 14.8329 21.6875V21.5924H14.7805C14.5405 21.5924 14.4871 21.4982 14.4871 21.2244V19.9275L16.0916 21.7346H16.2089C16.1938 21.6369 16.1911 21.5266 16.1911 21.4155V19.9844C16.1911 19.6102 16.3369 19.5844 16.4676 19.5844H16.5147V19.4902C16.4507 19.4902 16.3869 19.4933 16.3231 19.4964C16.2594 19.4995 16.1956 19.5026 16.1316 19.5026C16.0581 19.5026 15.9856 19.4995 15.9131 19.4964C15.8409 19.4933 15.7688 19.4902 15.696 19.4902V19.5844H15.7636C15.8569 19.5844 16.0338 19.6226 16.0338 19.8804V21.06ZM16.9847 21.3328L16.9847 21.3328C16.9638 21.3943 16.9467 21.4443 16.9467 21.4822C16.9467 21.5773 17.0782 21.5924 17.1805 21.5924H17.216V21.6875C16.9784 21.6716 16.7399 21.6716 16.5022 21.6875L16.5014 21.5924H16.52C16.6418 21.5924 16.7449 21.5204 16.7911 21.388L17.2889 19.9435L17.2965 19.922L17.2965 19.922C17.3365 19.8082 17.3878 19.6627 17.4045 19.5524C17.5033 19.5173 17.5983 19.4724 17.688 19.4182C17.6969 19.4146 17.704 19.412 17.7129 19.412C17.7227 19.412 17.728 19.412 17.7351 19.4209L17.7405 19.4367L17.7405 19.4367V19.4367C17.7477 19.4577 17.7551 19.4794 17.7636 19.5L18.3369 21.1462L18.3605 21.216L18.3606 21.2161C18.3901 21.3037 18.4198 21.392 18.4507 21.4671C18.4889 21.5551 18.5547 21.5924 18.6569 21.5924H18.6756V21.6875C18.3765 21.6714 18.0768 21.6714 17.7778 21.6875V21.5924H17.8134C17.8845 21.5924 18.0062 21.58 18.0062 21.5017C18.0062 21.4609 17.9787 21.3755 17.944 21.2742L17.8222 20.9097H17.1147L17.016 21.2369C17.0057 21.2713 16.9948 21.3033 16.9848 21.3327L16.9847 21.3328L16.9847 21.3328ZM17.464 19.8431H17.4702L17.7565 20.7337H17.1742L17.464 19.8431ZM18.8125 19.6475C18.5815 19.6475 18.57 19.7035 18.5238 19.9282L18.5227 19.9337H18.4294C18.4338 19.9025 18.4385 19.8713 18.4433 19.84C18.452 19.783 18.4607 19.7256 18.4676 19.6671C18.4791 19.5782 18.4854 19.4902 18.4854 19.3986H18.5609C18.5841 19.4904 18.6577 19.4903 18.7388 19.4902L18.7476 19.4902H20.3547C20.4382 19.4902 20.5156 19.4866 20.5227 19.3924L20.5965 19.4049L20.5889 19.4599C20.5797 19.5266 20.5706 19.593 20.5636 19.66C20.5565 19.7453 20.5565 19.8297 20.5565 19.9151L20.4631 19.9506C20.4578 19.8333 20.4418 19.6475 20.2329 19.6475H19.7236V21.3222C19.7236 21.564 19.832 21.5924 19.9814 21.5924H20.0409V21.6866C19.985 21.6866 19.9088 21.6842 19.8265 21.6816L19.8264 21.6816C19.7294 21.6785 19.6238 21.6751 19.5325 21.6751C19.429 21.6751 19.3161 21.6786 19.2153 21.6818L19.2153 21.6818C19.1342 21.6843 19.061 21.6866 19.0071 21.6866V21.5924H19.0658C19.2374 21.5924 19.3236 21.5764 19.3236 21.3284V19.6475H18.8134H18.8125ZM20.7565 21.5924H20.712V21.6866C20.7695 21.6866 20.8405 21.6841 20.9156 21.6813C20.9998 21.6783 21.089 21.6751 21.1698 21.6751C21.2489 21.6751 21.3358 21.678 21.4216 21.681L21.4216 21.681C21.5055 21.6838 21.5884 21.6866 21.6622 21.6866V21.5924H21.6187C21.5067 21.5924 21.3876 21.5764 21.3876 21.4129V19.764C21.3876 19.6004 21.5067 19.5844 21.6187 19.5844H21.6622V19.4902C21.5901 19.4902 21.5083 19.4932 21.4251 19.4963C21.3392 19.4994 21.252 19.5026 21.1725 19.5026C21.0923 19.5026 21.0024 19.4992 20.9175 19.4959C20.8415 19.493 20.7695 19.4902 20.712 19.4902V19.5844H20.7565C20.8685 19.5844 20.9858 19.6004 20.9858 19.764V21.4129C20.9858 21.5764 20.8685 21.5924 20.7565 21.5924ZM22.9049 19.4431C23.5689 19.4431 24.0978 19.8591 24.0978 20.5284C24.0978 21.2529 23.5831 21.7337 22.92 21.7337C22.2596 21.7337 21.7556 21.2804 21.7556 20.604C21.7556 19.9497 22.2569 19.4431 22.9049 19.4431ZM23.6614 20.5977C23.6614 21.0573 23.5556 21.5951 22.9511 21.5951V21.596C22.4471 21.596 22.1911 21.0573 22.1911 20.4937C22.1911 20.0724 22.3538 19.5817 22.8987 19.5817C23.416 19.5817 23.6614 20.1382 23.6614 20.5977ZM26.1965 21.0671L26.2036 21.06V19.8804C26.2036 19.6226 26.0249 19.5844 25.9316 19.5844H25.864V19.4902C25.9368 19.4902 26.0089 19.4933 26.0811 19.4964C26.1536 19.4995 26.2261 19.5026 26.2996 19.5026C26.3635 19.5026 26.4271 19.4995 26.4909 19.4964C26.5549 19.4933 26.619 19.4902 26.6836 19.4902V19.5844H26.6356C26.5049 19.5844 26.3582 19.6102 26.3582 19.9844V21.4155C26.3582 21.5266 26.3618 21.6369 26.3778 21.7346H26.2587L24.6551 19.9275V21.2244C24.6551 21.4982 24.7085 21.5924 24.9476 21.5924H25.0009V21.6875C24.9338 21.6875 24.8669 21.6842 24.8 21.6809C24.7331 21.6775 24.6662 21.6742 24.5991 21.6742C24.5288 21.6742 24.4576 21.6775 24.3865 21.6809C24.3156 21.6842 24.2448 21.6875 24.1751 21.6875V21.5924H24.2187C24.4338 21.5924 24.4987 21.4449 24.4987 21.1933V19.868C24.4997 19.7925 24.4701 19.7198 24.4167 19.6664C24.3633 19.613 24.2906 19.5834 24.2151 19.5844H24.1751V19.4902C24.2342 19.4902 24.2942 19.4933 24.3542 19.4964C24.4142 19.4995 24.4742 19.5026 24.5334 19.5026C24.58 19.5026 24.6258 19.4995 24.6716 19.4964C24.7174 19.4933 24.7631 19.4902 24.8098 19.4902L26.1965 21.0671ZM27.15 21.3412L27.15 21.3412C27.1607 21.3095 27.1724 21.2747 27.1831 21.2369L27.2836 20.9097H27.9902L28.112 21.2742C28.1467 21.3755 28.1742 21.4609 28.1742 21.5017C28.1742 21.58 28.0525 21.5924 27.9814 21.5924H27.9467V21.6875C28.2457 21.6715 28.5454 21.6715 28.8445 21.6875V21.5924H28.8249C28.7227 21.5924 28.6569 21.5551 28.6196 21.4671C28.5861 21.3893 28.5551 21.2973 28.5245 21.2065L28.504 21.1462L27.9307 19.5L27.9031 19.4209C27.8969 19.412 27.8907 19.412 27.8818 19.412C27.8724 19.412 27.8663 19.4144 27.858 19.4177L27.8569 19.4182C27.7671 19.4723 27.6721 19.5172 27.5734 19.5524C27.5566 19.6579 27.5089 19.7956 27.4704 19.907L27.4578 19.9435L26.9582 21.388C26.9129 21.5204 26.8098 21.5924 26.688 21.5924H26.6702L26.6711 21.6875C26.9085 21.6715 27.1467 21.6715 27.384 21.6875V21.5924H27.3485C27.2462 21.5924 27.1147 21.5773 27.1147 21.4822C27.1147 21.4461 27.1306 21.3988 27.15 21.3412L27.15 21.3412ZM27.6382 19.8431H27.6329L27.3422 20.7337H27.9254L27.6382 19.8431ZM29.8151 21.5551C29.7147 21.5417 29.6285 21.5044 29.6285 21.3782V19.7551C29.6285 19.588 29.7218 19.5844 29.84 19.5844H29.9182V19.4902C29.8388 19.4902 29.7605 19.4933 29.682 19.4964C29.6034 19.4995 29.5246 19.5026 29.4445 19.5026C29.3622 19.5026 29.2805 19.4995 29.1987 19.4964C29.1169 19.4933 29.0351 19.4902 28.9529 19.4902V19.5844H28.9956C29.1076 19.5844 29.2302 19.6004 29.2302 19.764V21.3817C29.2302 21.5764 29.1076 21.5924 28.9956 21.5924H28.9529V21.6866C29.0898 21.6866 29.2267 21.6837 29.3636 21.6809C29.5005 21.678 29.6374 21.6751 29.7742 21.6751C29.9118 21.6751 30.0494 21.678 30.1867 21.6809L30.1867 21.6809C30.3236 21.6838 30.4602 21.6866 30.5965 21.6866C30.6107 21.6199 30.6255 21.5538 30.6403 21.4878C30.6653 21.3762 30.6902 21.2649 30.712 21.1515H30.6222C30.6034 21.2321 30.5706 21.3088 30.5254 21.3782C30.4527 21.4729 30.3451 21.5344 30.2267 21.5489C30.0827 21.564 29.9422 21.564 29.8151 21.5551ZM30.6747 19.4013C30.8614 19.4013 31.0027 19.5471 31.0027 19.7329C31.0027 19.9195 30.8622 20.0635 30.6738 20.0635C30.5861 20.0648 30.5016 20.0302 30.4399 19.9678C30.3781 19.9054 30.3445 19.8206 30.3467 19.7329C30.3467 19.5462 30.4862 19.4013 30.6738 19.4013H30.6747ZM30.9334 19.7329C30.9349 19.8781 30.8199 19.9978 30.6747 20.0022H30.6738C30.5283 19.9983 30.4127 19.8784 30.4142 19.7329C30.4127 19.5873 30.5283 19.4674 30.6738 19.4635C30.8198 19.4664 30.9358 19.5869 30.9334 19.7329ZM30.5111 19.908V19.892L30.5224 19.8903C30.5525 19.8858 30.5582 19.885 30.5582 19.8626V19.6164C30.5582 19.5817 30.5556 19.5702 30.5129 19.572V19.5551H30.68C30.7387 19.5551 30.7911 19.5826 30.7911 19.644C30.7911 19.6929 30.7591 19.7293 30.7138 19.7435L30.7671 19.8191C30.7938 19.8546 30.8214 19.8857 30.84 19.8973V19.908H30.776C30.7543 19.908 30.7347 19.8763 30.7046 19.8274L30.7046 19.8274C30.6916 19.8064 30.6766 19.7822 30.6587 19.756H30.6214V19.8653C30.6214 19.8849 30.6276 19.8858 30.6566 19.8901L30.6694 19.892V19.908H30.5111ZM30.6605 19.7329H30.6214V19.5773H30.6587C30.6925 19.5773 30.7227 19.5951 30.7227 19.6484C30.7227 19.7009 30.7022 19.7329 30.6605 19.7329Z" fill="#004A97"/>
<path fill-rule="evenodd" clip-rule="evenodd" d="M24.2809 17.7151H24.392C24.5565 17.7151 24.6729 17.7151 24.6729 17.4831V13.5791C24.6729 13.1393 24.5916 13.1112 24.3856 13.04L24.3636 13.0324V12.9204C24.5974 12.8297 24.8436 12.7035 24.9663 12.6182C24.9815 12.6083 24.9959 12.5987 25.0092 12.5899L25.0092 12.5899C25.0508 12.5622 25.0814 12.5417 25.0943 12.5417C25.1298 12.5417 25.1414 12.5844 25.1414 12.6395V17.4831C25.1414 17.7151 25.2703 17.7151 25.4347 17.7151H25.5334V17.8982C25.4358 17.8982 25.3367 17.8947 25.236 17.8912C25.1323 17.8876 25.027 17.884 24.92 17.884C24.7085 17.884 24.4978 17.8902 24.2809 17.8982V17.7151ZM24.0703 14.2733H23.9236C23.8125 13.4537 23.3271 13.124 22.672 13.124C21.9983 13.124 21.0205 13.6635 21.0205 15.3462C21.0205 16.7622 21.864 17.7791 22.7645 17.7791C23.344 17.7791 23.8249 17.3017 23.9423 16.5649L24.0765 16.6075L23.9423 17.6306C23.696 17.8137 23.0347 18.0031 22.648 18.0031C21.2783 18.0031 20.4125 16.9453 20.4125 15.3675C20.4125 13.9302 21.4836 12.8991 22.6311 12.8991C23.1049 12.8991 23.5609 13.0822 24.0116 13.2715L24.0703 14.2733ZM28.2027 17.6449C28.1031 17.6449 28.0391 17.6377 28.0391 17.5115V14.9249C28.0391 14.8484 28.0391 14.7995 27.992 14.7995C27.9715 14.7995 27.9168 14.8065 27.8312 14.8174C27.6757 14.8371 27.4185 14.8698 27.0791 14.8973V15.0235L27.1419 15.0441C27.3415 15.1091 27.5707 15.1838 27.5707 15.3106V17.1969C27.3254 17.4422 27.0614 17.6235 26.8631 17.6235C26.3538 17.6235 26.3538 17.0217 26.3538 16.8111V15.0031C26.3538 14.8484 26.3538 14.7995 26.2889 14.7995C26.2546 14.7995 26.1414 14.8079 26.0081 14.8179C25.8444 14.8301 25.6503 14.8445 25.5343 14.8484V14.9817C25.8614 15.0164 25.8845 15.1915 25.8845 15.3737V17.1693C25.8845 17.7569 26.2125 18.0031 26.528 18.0031C26.944 18.0031 27.2143 17.7569 27.5654 17.4129V17.9817L27.5947 18.0031C27.7058 17.9613 28.1849 17.8137 28.4374 17.7862V17.6377C28.3985 17.6377 28.3568 17.6396 28.3159 17.6414H28.3159L28.3159 17.6414C28.2764 17.6431 28.2376 17.6449 28.2027 17.6449ZM29.2036 15.1986C29.4383 14.9604 29.7547 14.6937 30.0765 14.6937C30.7556 14.6937 31.1654 15.4022 31.1654 16.1666C31.1654 17.0849 30.6027 18.0031 29.7654 18.0031C29.3965 18.0031 29.176 17.8804 29.0248 17.7963L29.0248 17.7963C28.9986 17.7817 28.9745 17.7683 28.952 17.7569L28.7769 17.9186L28.6543 17.8422C28.7058 17.428 28.736 17.0217 28.736 16.5933V13.58C28.736 13.1399 28.6532 13.1113 28.4477 13.0403L28.4249 13.0324V12.9204C28.6596 12.8297 28.9049 12.7035 29.0285 12.6182C29.0456 12.6073 29.0615 12.5967 29.0759 12.5871L29.0759 12.5871L29.0759 12.5871C29.1156 12.5608 29.1443 12.5417 29.1574 12.5417C29.1929 12.5417 29.2036 12.5835 29.2036 12.6395V15.1986ZM29.8071 17.82C29.4151 17.82 29.2036 17.372 29.2036 17.1053V15.4022C29.3618 15.2413 29.5431 15.0733 29.76 15.0733C30.216 15.0733 30.696 15.7035 30.696 16.46C30.696 17.0849 30.4329 17.82 29.8071 17.82Z" fill="#004A97"/>
<path fill-rule="evenodd" clip-rule="evenodd" d="M8.83469 13.6146C8.68269 13.6146 8.54758 13.4458 8.54758 13.2635C8.54758 13.0884 8.68891 12.9258 8.83469 12.9258C8.98669 12.9258 9.12091 13.0751 9.12091 13.2635C9.12091 13.4538 8.99291 13.6146 8.83469 13.6146ZM4.49691 13.7818C4.49691 13.1942 4.2574 13.1907 4.01248 13.1872C3.9947 13.1869 3.97689 13.1867 3.95914 13.1862V13.0049C4.18669 13.0173 4.42136 13.0173 4.6498 13.0173C4.75511 13.0173 4.87679 13.015 5.0157 13.0124C5.2004 13.0089 5.41555 13.0049 5.66314 13.0049C7.1778 13.0049 8.00358 14.2173 8.00358 15.4582C8.00358 16.1524 7.66403 17.8982 5.59203 17.8982C5.4396 17.8982 5.2932 17.8945 5.14986 17.8909H5.14984H5.14983H5.14981H5.1498H5.14978H5.14977H5.14976L5.14972 17.8909C5.01224 17.8874 4.87758 17.884 4.74314 17.884C4.48003 17.884 4.22225 17.8902 3.95914 17.8982V17.7151L3.97206 17.7135C4.31442 17.6729 4.48023 17.6532 4.49691 17.1818V13.7818ZM5.07025 17.0706C5.07025 17.6093 5.39291 17.6733 5.67914 17.6733C6.94403 17.6733 7.35914 16.5311 7.35914 15.4866C7.35914 14.1746 6.65691 13.2289 5.52803 13.2289C5.35509 13.2289 5.24904 13.2399 5.16383 13.2487L5.16383 13.2487C5.13035 13.2522 5.10009 13.2553 5.07025 13.2573V17.0706ZM8.31914 17.7151H8.20803V17.8982C8.42491 17.8902 8.63558 17.884 8.84714 17.884C8.95295 17.884 9.05808 17.8876 9.16183 17.8912L9.16188 17.8912H9.16189H9.1619H9.16191H9.16191H9.16192C9.26296 17.8947 9.36269 17.8982 9.46047 17.8982V17.7151H9.3618C9.19736 17.7151 9.06847 17.7151 9.06847 17.4831V14.7915C9.06847 14.7364 9.05603 14.6938 9.02847 14.6938C8.99004 14.6939 8.95267 14.7064 8.9218 14.7293C8.89869 14.7506 8.57158 14.8822 8.29603 14.9818V15.0938L8.32433 15.112C8.51982 15.2377 8.60091 15.2898 8.60091 15.5844V17.4831C8.60091 17.7151 8.48269 17.7151 8.31914 17.7151ZM9.67736 15.1631C9.95203 15.2973 10.0169 15.3675 10.0169 15.6253V17.4831C10.0169 17.7151 9.89958 17.7151 9.73603 17.7151H9.63114V17.8982C9.84091 17.8902 10.0525 17.884 10.2622 17.884C10.3689 17.884 10.4738 17.8876 10.5778 17.8912L10.5778 17.8912C10.68 17.8947 10.7814 17.8982 10.8827 17.8982V17.7151H10.7778C10.6142 17.7151 10.4845 17.7151 10.4845 17.4831V15.4093C10.6782 15.2546 10.9769 15.0733 11.1645 15.0733C11.4978 15.0733 11.7022 15.2689 11.7022 15.6689V17.4831C11.7022 17.7151 11.5858 17.7151 11.4214 17.7151H11.3165V17.8982C11.5271 17.8902 11.7378 17.884 11.9485 17.884C12.0545 17.884 12.1589 17.8876 12.2627 17.8912L12.2627 17.8912C12.3651 17.8947 12.4669 17.8982 12.5689 17.8982V17.7151H12.464C12.2996 17.7151 12.1707 17.7151 12.1707 17.4831V15.6751C12.1707 15.1284 11.9947 14.6946 11.4987 14.6946C11.1058 14.6946 10.8187 14.9329 10.4854 15.2191V14.764C10.4854 14.708 10.4676 14.6938 10.4498 14.6938C10.1806 14.8352 9.94887 14.9252 9.70857 15.0185L9.67736 15.0306V15.1631ZM13.0142 15.9631C13.0018 16.0253 13.0018 16.132 13.0142 16.3693C13.0489 17.036 13.4062 17.5818 13.8738 17.5818C14.1965 17.5818 14.448 17.3711 14.6649 17.1133L14.7458 17.2111C14.4774 17.6378 14.1431 18.0022 13.664 18.0022C12.7325 18.0022 12.5458 16.9231 12.5458 16.4742C12.5458 15.1 13.3182 14.6938 13.728 14.6938C14.2018 14.6938 14.7111 15.0511 14.7174 15.7951C14.7174 15.8369 14.7174 15.8786 14.7111 15.9204L14.6578 15.9631H13.0142ZM14.2134 15.5631C14.2134 15.6466 14.1965 15.7391 14.0507 15.7391H13.0311C13.1022 15.2333 13.3476 14.9186 13.704 14.9186C14.032 14.9186 14.2134 15.2058 14.2134 15.5631ZM14.8525 17.7151H15.0098C15.1734 17.7151 15.2907 17.7151 15.2907 17.4831V15.5142C15.2907 15.3428 15.1553 15.2802 15.0551 15.2339C15.0284 15.2216 15.0043 15.2104 14.9858 15.1986V15.0938C15.2161 14.9764 15.3904 14.8695 15.5106 14.7957C15.6135 14.7325 15.6768 14.6938 15.7014 14.6938C15.7351 14.6938 15.7529 14.7151 15.7529 14.7853V15.4164H15.7654C15.9111 15.1426 16.1574 14.6938 16.5138 14.6938C16.6605 14.6938 16.8471 14.8129 16.8471 15.0653C16.8471 15.2546 16.7369 15.4235 16.5734 15.4235C16.485 15.4235 16.4395 15.3838 16.3926 15.3429C16.3428 15.2994 16.2915 15.2546 16.1858 15.2546C16.0871 15.2546 15.7591 15.4155 15.7591 15.8369V17.4831C15.7591 17.7151 15.8756 17.7151 16.04 17.7151H16.3671V17.8982L16.3489 17.8977C16.036 17.89 15.7952 17.884 15.5485 17.884C15.3085 17.884 15.0622 17.8902 14.8516 17.8982V17.7151H14.8525ZM17.8427 17.7791C17.4151 17.7791 17.1814 17.3853 17.1049 16.9231V16.9222L17 16.9578L17.0649 17.764C17.2685 17.9053 17.544 18.0031 17.7787 18.0031C18.4747 18.0031 18.7849 17.5115 18.7849 17.0493C18.7849 16.4582 18.3939 16.2573 18.0316 16.0712C17.7189 15.9106 17.4276 15.7609 17.4276 15.3809C17.4218 15.2577 17.4678 15.1377 17.5544 15.0499C17.641 14.9621 17.7603 14.9145 17.8836 14.9186C18.2587 14.9186 18.4631 15.1702 18.5218 15.612H18.656L18.6151 14.8973C18.3876 14.7569 18.1351 14.6938 17.9485 14.6938C17.304 14.6938 17.0409 15.1986 17.0409 15.5915C17.0409 16.199 17.4108 16.402 17.7522 16.5893C18.0448 16.7499 18.3165 16.899 18.3165 17.2813C18.3165 17.5258 18.1876 17.7791 17.8427 17.7791Z" fill="#004A97"/>
<path fill-rule="evenodd" clip-rule="evenodd" d="M11.5459 7.30922C11.5459 10.0369 13.8128 12.2783 16.5676 12.2651H17.8587C20.5806 12.2651 23.0656 10.0361 23.0656 7.30922C23.0656 4.32645 20.5806 2.26526 17.8595 2.26526H16.5676C13.8128 2.26526 11.5459 4.32728 11.5459 7.30922ZM16.5792 2.67914C14.0613 2.67914 12.0223 4.728 12.0215 7.25656C12.0215 9.78513 14.0621 11.8332 16.5792 11.8332C19.097 11.8332 21.1368 9.7843 21.1377 7.25656C21.1368 4.72882 19.097 2.67997 16.5792 2.67914ZM17.6126 4.54862C18.7308 4.98173 19.4679 6.05745 19.4681 7.25656V7.25738C19.4676 8.4562 18.7305 9.5315 17.6126 9.9645V4.54862ZM15.544 4.54944V9.96368C14.427 9.52996 13.6907 8.45489 13.6902 7.25656C13.691 6.0583 14.4271 4.98335 15.544 4.54944Z" fill="#004A97"/>
<path fill-rule="evenodd" clip-rule="evenodd" d="M33.0557 0.5H2.05566C1.22724 0.5 0.555664 1.17157 0.555664 2V22C0.555664 22.8284 1.22724 23.5 2.05566 23.5H33.0557C33.8841 23.5 34.5557 22.8284 34.5557 22V2C34.5557 1.17157 33.8841 0.5 33.0557 0.5ZM2.05566 0C0.951095 0 0.0556641 0.89543 0.0556641 2V22C0.0556641 23.1046 0.951095 24 2.05566 24H33.0557C34.1602 24 35.0557 23.1046 35.0557 22V2C35.0557 0.895431 34.1602 0 33.0557 0H2.05566Z" fill="#D8D8D8"/>
</svg>
