<svg width="36" height="24" viewBox="0 0 36 24" fill="none" xmlns="http://www.w3.org/2000/svg">
<g clip-path="url(#clip0)">
<path fill-rule="evenodd" clip-rule="evenodd" d="M4.55566 10.3167C4.55566 10.2494 4.56528 10.2248 4.64151 10.226C5.03247 10.2315 5.42342 10.2206 5.81438 10.2327C6.38876 10.2507 6.91068 10.4185 7.3365 10.8254C7.62484 11.0972 7.81772 11.4553 7.88628 11.8461C8.03077 12.6387 7.80792 13.3111 7.20602 13.8487C6.87745 14.1427 6.48356 14.2898 6.04944 14.3249C5.57003 14.3638 5.08932 14.3329 4.60926 14.3434C4.55175 14.3447 4.55827 14.3135 4.55827 14.278C4.55729 13.8719 4.55811 10.973 4.55566 10.3167ZM5.35484 13.5698C5.35484 13.6255 5.36625 13.6433 5.42505 13.6425C5.58502 13.6405 5.74547 13.6425 5.90446 13.6242C6.19507 13.5915 6.4676 13.508 6.68018 13.2945C7.03856 12.9358 7.16888 12.4995 7.06983 12.0059C6.96981 11.5089 6.68458 11.1584 6.19018 11.0047C5.94909 10.9298 5.69856 10.9346 5.44932 10.9313C5.3783 10.9305 5.35354 10.9445 5.35435 11.0228C5.35843 11.444 5.35729 13.1432 5.35484 13.5698Z" fill="#231F20"/>
<path fill-rule="evenodd" clip-rule="evenodd" d="M28.8052 12.6176L30.0909 14.3424H29.9181C29.6765 14.3424 29.4348 14.3386 29.1932 14.3447C29.12 14.3465 29.0832 14.319 29.0453 14.262C28.7102 13.7585 28.3736 13.256 28.0353 12.7546C28.0303 12.7482 28.0259 12.7413 28.0223 12.734C28.0019 12.6839 27.9581 12.6872 27.9193 12.6952C27.8765 12.704 27.8968 12.7442 27.8968 12.7697C27.8955 13.2624 27.8937 13.7553 27.898 14.2483C27.898 14.33 27.8745 14.3463 27.7986 14.3442C27.5868 14.3388 27.3751 14.3407 27.1633 14.3434C27.1099 14.3442 27.0882 14.3344 27.0884 14.2736C27.0901 12.9475 27.0901 11.6214 27.0884 10.2952C27.0884 10.2503 27.0931 10.226 27.1485 10.2271C27.6046 10.2368 28.0607 10.209 28.5168 10.2435C28.833 10.2678 29.1303 10.3536 29.3735 10.5702C29.6651 10.8297 29.7472 11.1698 29.7273 11.5446C29.6982 12.0959 29.3986 12.4596 28.8649 12.5955C28.847 12.6001 28.8299 12.6084 28.8052 12.6176ZM27.896 11.5026C27.896 11.6846 27.8993 11.8668 27.8942 12.0488C27.8924 12.1127 27.9126 12.1251 27.9711 12.1227C28.09 12.1178 28.2091 12.1204 28.328 12.1078C28.6765 12.071 28.8746 11.8691 28.9005 11.5196C28.9213 11.2378 28.7776 11.0246 28.5095 10.9367C28.3337 10.8788 28.1524 10.8852 27.9719 10.8816C27.9128 10.8805 27.8926 10.8934 27.8942 10.9568C27.8991 11.1383 27.896 11.3205 27.896 11.5026V11.5026Z" fill="#231F20"/>
<path fill-rule="evenodd" clip-rule="evenodd" d="M24.2989 10.3083C24.2989 10.2466 24.3113 10.2266 24.3776 10.2266C25.0835 10.2293 25.7894 10.2293 26.4952 10.2266C26.5503 10.2266 26.5702 10.2373 26.5689 10.2969C26.5649 10.4874 26.5649 10.678 26.5689 10.8687C26.57 10.9262 26.5488 10.9341 26.4993 10.9341C26.0623 10.9323 25.6252 10.9351 25.1883 10.931C25.114 10.931 25.0992 10.9521 25.1003 11.022C25.1047 11.2697 25.1043 11.5175 25.1003 11.7652C25.0995 11.8271 25.1166 11.842 25.1774 11.8417C25.5982 11.8389 26.0189 11.8417 26.4395 11.8384C26.506 11.8384 26.5189 11.8585 26.5176 11.9201C26.5137 12.1024 26.5137 12.2848 26.5176 12.4673C26.5187 12.5249 26.5024 12.5387 26.4459 12.5383C26.0279 12.5359 25.6099 12.5393 25.1916 12.5349C25.1135 12.5341 25.0992 12.5588 25.1 12.6305C25.1038 12.9409 25.1033 13.2513 25.1 13.5618C25.1 13.6235 25.1122 13.6434 25.1787 13.6434C25.6156 13.64 26.0527 13.6434 26.4897 13.64C26.5549 13.64 26.5695 13.6582 26.5682 13.7206C26.5642 13.9083 26.5655 14.0963 26.5682 14.2841C26.5682 14.329 26.5576 14.3442 26.5101 14.3442C25.7933 14.3428 25.0766 14.3428 24.3598 14.3442C24.2947 14.3442 24.2997 14.3125 24.2997 14.2697C24.3004 13.6052 24.301 10.9643 24.2989 10.3083Z" fill="#231F20"/>
<path fill-rule="evenodd" clip-rule="evenodd" d="M9.90983 13.1536C10.0178 13.3562 10.1602 13.5211 10.3699 13.6135C10.5951 13.7129 10.8273 13.7475 11.0612 13.6426C11.273 13.5474 11.3886 13.3773 11.3977 13.1458C11.4069 12.9143 11.2845 12.763 11.0864 12.6638C10.8584 12.5494 10.6126 12.4821 10.38 12.3807C10.1519 12.2817 9.93606 12.1671 9.77903 11.9642C9.68617 11.8431 9.62814 11.6988 9.61124 11.5469C9.52849 10.8712 9.89745 10.3881 10.457 10.2291C11.0415 10.0633 11.5678 10.209 12.0394 10.5807C12.0743 10.6081 12.0862 10.6276 12.0528 10.6694C11.9326 10.8201 11.8157 10.9734 11.7019 11.1292C11.6675 11.1765 11.653 11.163 11.6204 11.1292C11.4921 10.9918 11.3448 10.8807 11.154 10.8532C10.9133 10.8187 10.6854 10.8496 10.5178 11.0493C10.3679 11.2282 10.4013 11.4536 10.5906 11.5884C10.76 11.7092 10.9574 11.7699 11.1485 11.8441C11.328 11.9119 11.5022 11.9929 11.6698 12.0864C12.0119 12.2807 12.1994 12.5658 12.2236 12.9651C12.2649 13.6395 11.9115 14.2091 11.2531 14.3787C10.5507 14.5597 9.86422 14.3592 9.41365 13.6925C9.39507 13.6648 9.39296 13.6487 9.41869 13.6243C9.5829 13.4699 9.74465 13.3129 9.90983 13.1536Z" fill="#231F20"/>
<path fill-rule="evenodd" clip-rule="evenodd" d="M20.0015 10.2283C20.2799 10.2283 20.5459 10.2301 20.8117 10.2268C20.865 10.2268 20.8857 10.2453 20.9041 10.2921C21.1484 10.913 21.8539 12.6929 21.9629 12.9675C22.0118 12.9126 22.717 11.1203 23.0491 10.2892C23.0625 10.2565 23.0719 10.2268 23.1202 10.2273C23.3915 10.2297 23.6628 10.2284 23.9456 10.2284C23.8804 10.384 22.7191 13.149 22.2025 14.3839C22.1822 14.4329 22.1594 14.4492 22.1086 14.4468C22.0056 14.4429 21.9023 14.443 21.799 14.4468C21.7531 14.4484 21.7324 14.4316 21.7155 14.3903C21.3954 13.6147 20.2776 10.9048 20.0386 10.3255C20.027 10.2957 20.0156 10.2655 20.0015 10.2283Z" fill="#231F20"/>
<path fill-rule="evenodd" clip-rule="evenodd" d="M15.6384 11.3408C15.4871 11.1957 15.3421 11.0736 15.169 10.9934C14.4874 10.6773 13.6669 11.0168 13.4043 11.7417C13.2016 12.3001 13.2692 12.8311 13.6757 13.2845C13.9475 13.5877 14.3067 13.6984 14.7071 13.6941C15.025 13.6908 15.2879 13.5613 15.5203 13.3553C15.5544 13.325 15.5874 13.2935 15.6208 13.2628C15.6497 13.2791 15.6371 13.3031 15.6371 13.3222C15.6381 13.5918 15.6371 13.8614 15.6383 14.131C15.6383 14.1718 15.6324 14.1963 15.5881 14.2182C14.7655 14.6156 13.7247 14.4582 13.0808 13.7967C12.6823 13.3883 12.486 12.8939 12.4736 12.322C12.4526 11.3546 13.0953 10.5111 13.9886 10.2402C14.5374 10.0744 15.0735 10.1062 15.59 10.3657C15.6179 10.3796 15.6389 10.3917 15.6389 10.431C15.6378 10.7274 15.6384 11.0241 15.6384 11.3408Z" fill="#231F20"/>
<path fill-rule="evenodd" clip-rule="evenodd" d="M9.09657 14.2525C9.09657 14.3202 9.08679 14.3468 9.00974 14.3445C8.79276 14.3381 8.57546 14.3406 8.35815 14.3435C8.30554 14.3435 8.28925 14.3306 8.28925 14.2761C8.29066 12.9501 8.29066 11.624 8.28925 10.2979C8.28925 10.2381 8.30896 10.2263 8.36353 10.2271C8.5779 10.2301 8.79244 10.2315 9.00681 10.2271C9.07784 10.2255 9.09738 10.2425 9.09706 10.316C9.09364 10.9743 9.09396 13.5992 9.09657 14.2525Z" fill="#231F20"/>
<path fill-rule="evenodd" clip-rule="evenodd" d="M30.2419 10.2C30.1792 10.1994 30.1176 10.2175 30.0652 10.2521C30.0127 10.2866 29.9717 10.336 29.9473 10.394C29.9228 10.452 29.9161 10.5159 29.928 10.5777C29.9399 10.6395 29.9698 10.6964 30.014 10.7411C30.0582 10.7858 30.1146 10.8164 30.1761 10.8289C30.2376 10.8414 30.3014 10.8353 30.3595 10.8113C30.4175 10.7874 30.4671 10.7466 30.5021 10.6944C30.537 10.6421 30.5556 10.5805 30.5556 10.5176C30.5558 10.4761 30.5479 10.4349 30.5322 10.3965C30.5165 10.3581 30.4935 10.3231 30.4644 10.2936C30.4352 10.2641 30.4006 10.2407 30.3624 10.2246C30.3242 10.2085 30.2833 10.2002 30.2419 10.2V10.2ZM30.2419 10.7762C30.1052 10.7762 29.9946 10.6604 29.9946 10.5176C29.9946 10.3748 30.1052 10.259 30.2419 10.259C30.3786 10.259 30.4892 10.3748 30.4892 10.5176C30.4892 10.6604 30.3786 10.7762 30.2419 10.7762Z" fill="#252122"/>
<path fill-rule="evenodd" clip-rule="evenodd" d="M30.2693 10.55L30.3854 10.7057H30.3692C30.3473 10.7057 30.3255 10.7057 30.304 10.7057C30.3013 10.7059 30.2986 10.7053 30.2962 10.704C30.2938 10.7027 30.2919 10.7007 30.2906 10.6983C30.2605 10.6529 30.2299 10.6075 30.1996 10.5622C30.1991 10.5617 30.1987 10.5611 30.1983 10.5604C30.1965 10.5558 30.1926 10.5562 30.189 10.5568C30.1854 10.5575 30.187 10.5612 30.187 10.5635C30.187 10.6081 30.187 10.6526 30.187 10.697C30.187 10.7044 30.1849 10.7058 30.1779 10.7057C30.1589 10.7057 30.1398 10.7057 30.1206 10.7057C30.1158 10.7057 30.1139 10.7057 30.1139 10.6993C30.1139 10.5795 30.1139 10.4597 30.1139 10.3399C30.1139 10.3358 30.1139 10.3336 30.1194 10.3336C30.1605 10.3346 30.2017 10.332 30.2427 10.3353C30.2711 10.3361 30.2983 10.3465 30.3201 10.3647C30.3321 10.3757 30.3414 10.3894 30.347 10.4047C30.3527 10.42 30.3546 10.4364 30.3527 10.4526C30.3528 10.475 30.3451 10.4968 30.3308 10.5141C30.3166 10.5315 30.2968 10.5433 30.2748 10.5475L30.2693 10.55ZM30.1878 10.4493C30.1878 10.4657 30.1878 10.482 30.1878 10.4983C30.1878 10.5041 30.1896 10.5052 30.1949 10.505C30.2056 10.505 30.2164 10.505 30.2274 10.5036C30.2413 10.5033 30.2545 10.4976 30.2642 10.4877C30.2738 10.4777 30.2792 10.4644 30.2791 10.4505C30.2804 10.4389 30.2775 10.4273 30.2711 10.4177C30.2646 10.4081 30.255 10.401 30.2439 10.3979C30.2279 10.3938 30.2115 10.3921 30.195 10.393C30.1896 10.393 30.1877 10.3939 30.1878 10.3997C30.1875 10.4165 30.1872 10.433 30.1872 10.4493H30.1878Z" fill="#231F20"/>
<path d="M18.0614 14.4684C19.2587 14.4684 20.2293 13.4914 20.2293 12.2862C20.2293 11.0811 19.2587 10.1041 18.0614 10.1041C16.8641 10.1041 15.8936 11.0811 15.8936 12.2862C15.8936 13.4914 16.8641 14.4684 18.0614 14.4684Z" fill="url(#paint0_linear)"/>
</g>
<path fill-rule="evenodd" clip-rule="evenodd" d="M33.0557 0.5H2.05566C1.22724 0.5 0.555664 1.17157 0.555664 2V22C0.555664 22.8284 1.22724 23.5 2.05566 23.5H33.0557C33.8841 23.5 34.5557 22.8284 34.5557 22V2C34.5557 1.17157 33.8841 0.5 33.0557 0.5ZM2.05566 0C0.951095 0 0.0556641 0.89543 0.0556641 2V22C0.0556641 23.1046 0.951095 24 2.05566 24H33.0557C34.1602 24 35.0557 23.1046 35.0557 22V2C35.0557 0.895431 34.1602 0 33.0557 0H2.05566Z" fill="#D8D8D8"/>
<defs>
<linearGradient id="paint0_linear" x1="17.1423" y1="10.3093" x2="18.9894" y2="14.2588" gradientUnits="userSpaceOnUse">
<stop offset="0.38" stop-color="#E35E26"/>
<stop offset="1" stop-color="#F9A121"/>
</linearGradient>
<clipPath id="clip0">
<rect width="26" height="5" fill="white" transform="translate(4.55566 10)"/>
</clipPath>
</defs>
</svg>
