<svg width="120" height="24" viewBox="0 0 120 24" fill="none" xmlns="http://www.w3.org/2000/svg">
<path fill-rule="evenodd" clip-rule="evenodd" d="M10.9468 15.9003H15.3122C15.0938 18.3138 13.3219 19.5346 11.0036 19.5346C7.4837 19.5346 5.57417 16.2331 5.57417 12.9852C5.57417 9.79498 7.3917 6.37991 10.922 6.37991C11.9223 6.38425 12.8948 6.71018 13.6957 7.30957C14.4966 7.90896 15.0835 8.75004 15.3698 9.70858L20.4448 7.54867C18.6728 3.63763 15.397 1.69291 11.1707 1.69291C4.54462 1.68491 0 6.16072 0 12.9604C0 19.537 4.50222 24 10.9652 24C14.401 24 17.4305 22.752 19.4448 19.8946C21.2623 17.2867 21.4903 14.6764 21.5447 11.6253H10.9436L10.9468 15.9003ZM22.5327 23.2976H27.4981V9.08221H22.5327V23.2976ZM43.4382 4.78238H38.4784V9.08221H34.2514V6.7703C34.2514 5.16156 34.6882 4.38479 35.9689 4.38479C36.5781 4.41339 37.1737 4.57417 37.7145 4.85598V0.498554C37.0608 0.156583 36.3313 -0.0145819 35.5938 0.000973021C34.6624 -0.00322447 33.7417 0.198478 32.8974 0.59165C32.0531 0.984823 31.3061 1.55974 30.71 2.27528C29.35 3.85682 29.2916 5.29916 29.2916 7.27188V23.2976H34.257V13.2372H38.4784V23.3096H43.4438V13.2372H46.2525V9.08221H43.4438L43.4382 4.78238ZM62.3175 15.1604H62.2631L52.4715 2.36968H47.1197V23.2912H52.4675V10.4917H52.5219L62.3215 23.3096H67.6685V2.38808H62.3247V15.1604H62.3175ZM76.5209 8.58302C72.0187 8.58302 68.0924 11.3293 68.0924 16.1867C68.0924 21.0441 72.0307 23.7624 76.5209 23.7624C81.0111 23.7624 84.9494 21.0161 84.9494 16.1867C84.9494 11.3573 81.0111 8.59823 76.5209 8.59823V8.58302ZM76.5209 19.3706C76.0953 19.3959 75.6693 19.3307 75.2708 19.1793C74.8722 19.0279 74.5103 18.7938 74.2089 18.4923C73.9074 18.1909 73.6733 17.829 73.5219 17.4305C73.3706 17.0319 73.3054 16.6059 73.3306 16.1803C73.3306 15.3342 73.6667 14.5227 74.265 13.9245C74.8633 13.3262 75.6748 12.99 76.5209 12.99C77.367 12.99 78.1785 13.3262 78.7768 13.9245C79.3751 14.5227 79.7112 15.3342 79.7112 16.1803C79.7408 16.608 79.6788 17.0371 79.5292 17.439C79.3797 17.8408 79.1462 18.2061 78.8442 18.5104C78.5422 18.8147 78.1788 19.0511 77.7781 19.2037C77.3774 19.3563 76.9488 19.4217 76.5209 19.3954V19.3706ZM105.607 9.05101L102.087 16.7563L98.5672 9.05101H95.6225L92.1027 16.7595L88.6124 9.05421H83.083L90.3867 23.288H93.6106L97.0729 15.4899L100.536 23.288H103.754L111.062 9.08221L105.607 9.05101ZM119.199 8.97101C119.206 9.63903 119.014 10.294 118.647 10.8525C118.281 11.4111 117.756 11.8481 117.141 12.1079C116.526 12.3678 115.847 12.4388 115.191 12.312C114.535 12.1851 113.932 11.866 113.458 11.3954C112.983 10.9248 112.66 10.3238 112.528 9.66885C112.396 9.01391 112.462 8.33459 112.718 7.71724C112.973 7.09989 113.406 6.57239 113.962 6.20179C114.518 5.83119 115.171 5.63423 115.839 5.63594C116.279 5.63213 116.715 5.71554 117.122 5.88133C117.529 6.04713 117.899 6.29202 118.211 6.60182C118.522 6.91163 118.769 7.28019 118.938 7.68618C119.106 8.09217 119.192 8.52751 119.191 8.96701L119.199 8.97101ZM113.302 8.97101C113.288 9.31583 113.344 9.65992 113.466 9.9826C113.588 10.3053 113.775 10.5999 114.014 10.8487C114.253 11.0976 114.54 11.2955 114.857 11.4306C115.175 11.5657 115.517 11.6352 115.862 11.6349C116.201 11.6305 116.535 11.5581 116.846 11.4221C117.156 11.2861 117.436 11.0892 117.669 10.8431C117.902 10.5969 118.083 10.3066 118.202 9.98913C118.321 9.67169 118.375 9.33365 118.361 8.99501C118.371 8.65734 118.313 8.32105 118.192 8.00593C118.07 7.69082 117.886 7.40326 117.652 7.16017C117.417 6.91708 117.136 6.72338 116.826 6.59047C116.515 6.45756 116.181 6.38813 115.843 6.38626C115.505 6.38439 115.171 6.45012 114.859 6.57959C114.547 6.70906 114.264 6.89964 114.026 7.14012C113.789 7.3806 113.602 7.66612 113.477 7.97987C113.352 8.29361 113.291 8.62925 113.297 8.96701L113.302 8.97101ZM115.32 10.7197H114.552V7.38067C114.968 7.30619 115.389 7.27217 115.811 7.27908C116.207 7.24636 116.604 7.33124 116.951 7.52307C117.056 7.61369 117.138 7.72639 117.194 7.85299C117.249 7.9796 117.276 8.11693 117.271 8.25504C117.258 8.44051 117.184 8.61654 117.062 8.75613C116.939 8.89572 116.774 8.99116 116.591 9.02781V9.0686C116.756 9.13711 116.898 9.24899 117.004 9.39229C117.11 9.53559 117.174 9.70492 117.191 9.88217C117.224 10.1716 117.305 10.4534 117.431 10.7157H116.611C116.485 10.4589 116.397 10.1847 116.351 9.90217C116.345 9.82119 116.323 9.74235 116.284 9.67076C116.246 9.59917 116.193 9.53642 116.129 9.48658C116.065 9.43673 115.991 9.4009 115.912 9.3814C115.833 9.36191 115.751 9.35918 115.671 9.37339H115.311V10.7157L115.32 10.7197ZM115.341 8.82861H115.7C116.12 8.82861 116.46 8.68622 116.46 8.34063C116.46 8.03585 116.24 7.83186 115.76 7.83186C115.619 7.82881 115.479 7.8425 115.341 7.87265V8.82461V8.82861ZM27.7925 3.58723C27.7851 4.13668 27.6153 4.67166 27.3047 5.12491C26.994 5.57816 26.5563 5.92942 26.0465 6.13453C25.5367 6.33964 24.9776 6.38944 24.4396 6.27766C23.9016 6.16587 23.4087 5.8975 23.0228 5.5063C22.6369 5.11509 22.3753 4.61852 22.2709 4.07904C22.1665 3.53955 22.2239 2.98123 22.436 2.47431C22.6481 1.96738 23.0053 1.53448 23.4628 1.23004C23.9202 0.925608 24.4575 0.763234 25.007 0.763341C25.3753 0.765854 25.7395 0.840892 26.0788 0.984167C26.4182 1.12744 26.7259 1.33615 26.9846 1.59837C27.2433 1.8606 27.4477 2.1712 27.5863 2.51245C27.725 2.8537 27.795 3.21891 27.7925 3.58723Z" fill="black"/>
</svg>
