<svg width="36" height="24" viewBox="0 0 36 24" fill="none" xmlns="http://www.w3.org/2000/svg">
<path fill-rule="evenodd" clip-rule="evenodd" d="M27.3789 23H3.2959V5.44223C3.2959 2.98891 5.28216 1 7.73248 1H31.8152V18.5577C31.8152 21.0109 29.8291 23 27.3789 23Z" fill="#FFFFFE"/>
<mask id="mask0" style="mask-type:alpha" maskUnits="userSpaceOnUse" x="23" y="12" width="4" height="3">
<path fill-rule="evenodd" clip-rule="evenodd" d="M23.9633 14.0421H25.7975C25.8552 14.0421 25.9643 14.033 26.0163 14.0216C26.3684 13.9454 26.6616 13.6327 26.6616 13.207C26.6616 12.7811 26.3684 12.4676 26.0163 12.3914C25.9643 12.3801 25.8552 12.3709 25.7975 12.3709H23.9633V14.0421Z" fill="white"/>
</mask>
<g mask="url(#mask0)">
<path fill-rule="evenodd" clip-rule="evenodd" d="M23.9633 14.0421H25.7975C25.8552 14.0421 25.9643 14.033 26.0163 14.0216C26.3684 13.9454 26.6616 13.6327 26.6616 13.207C26.6616 12.7811 26.3684 12.4676 26.0163 12.3914C25.9643 12.3801 25.8552 12.3709 25.7975 12.3709H23.9633V14.0421Z" fill="url(#paint0_linear)"/>
</g>
<mask id="mask1" style="mask-type:alpha" maskUnits="userSpaceOnUse" x="22" y="2" width="9" height="20">
<path fill-rule="evenodd" clip-rule="evenodd" d="M26.0177 2.04016C24.2678 2.04016 22.8488 3.45898 22.8488 5.20879V8.50011H27.3327C27.4367 8.50011 27.5638 8.50736 27.6431 8.51147C28.6578 8.56236 29.4063 9.08365 29.4063 9.98833C29.4063 10.6997 28.8947 11.3071 27.9638 11.4439V11.4796C28.9922 11.551 29.7796 12.1168 29.7796 13.0086C29.7796 13.9731 28.9153 14.5932 27.7634 14.5932H22.8488V21.0531H27.4967C29.2466 21.0531 30.6655 19.6343 30.6655 17.8843V2.04016H26.0177Z" fill="white"/>
</mask>
<g mask="url(#mask1)">
<path fill-rule="evenodd" clip-rule="evenodd" d="M26.0177 2.04016C24.2678 2.04016 22.8488 3.45898 22.8488 5.20879V8.50011H27.3327C27.4367 8.50011 27.5638 8.50736 27.6431 8.51147C28.6578 8.56236 29.4063 9.08365 29.4063 9.98833C29.4063 10.6997 28.8947 11.3071 27.9638 11.4439V11.4796C28.9922 11.551 29.7796 12.1168 29.7796 13.0086C29.7796 13.9731 28.9153 14.5932 27.7634 14.5932H22.8488V21.0531H27.4967C29.2466 21.0531 30.6655 19.6343 30.6655 17.8843V2.04016H26.0177Z" fill="url(#paint1_linear)"/>
</g>
<mask id="mask2" style="mask-type:alpha" maskUnits="userSpaceOnUse" x="5" y="2" width="9" height="20">
<path fill-rule="evenodd" clip-rule="evenodd" d="M8.48384 2.04016C6.73368 2.04016 5.31503 3.45898 5.31503 5.20879V13.0344C6.20371 13.465 7.12189 13.7454 8.05636 13.7454C9.15198 13.7454 9.75394 13.0766 9.75394 12.1767V8.50029H12.4793V12.1767C12.4793 13.6147 11.5966 14.768 8.56763 14.768C6.74468 14.768 5.31503 14.3749 5.31503 14.3749V21.0531H9.96267C11.7127 21.0531 13.1315 19.6343 13.1315 17.8843V2.04016H8.48384Z" fill="white"/>
</mask>
<g mask="url(#mask2)">
<path fill-rule="evenodd" clip-rule="evenodd" d="M8.48384 2.04016C6.73368 2.04016 5.31503 3.45898 5.31503 5.20879V13.0344C6.20371 13.465 7.12189 13.7454 8.05636 13.7454C9.15198 13.7454 9.75394 13.0766 9.75394 12.1767V8.50029H12.4793V12.1767C12.4793 13.6147 11.5966 14.768 8.56763 14.768C6.74468 14.768 5.31503 14.3749 5.31503 14.3749V21.0531H9.96267C11.7127 21.0531 13.1315 19.6343 13.1315 17.8843V2.04016H8.48384Z" fill="url(#paint2_linear)"/>
</g>
<mask id="mask3" style="mask-type:alpha" maskUnits="userSpaceOnUse" x="14" y="2" width="8" height="20">
<path fill-rule="evenodd" clip-rule="evenodd" d="M17.2508 2.04016C15.5007 2.04016 14.082 3.45898 14.082 5.20879V9.3574C14.8849 8.6686 16.2734 8.23835 18.5292 8.33994C19.7367 8.39369 21.0171 8.71752 21.0171 8.71752V10.0593C20.3763 9.73444 19.6077 9.43359 18.6174 9.35856C16.9055 9.22924 15.8752 10.0659 15.8752 11.5468C15.8752 13.0275 16.9055 13.8639 18.6174 13.734C19.6077 13.6596 20.3864 13.3508 21.0171 13.0343V14.3752C21.0171 14.3752 19.7367 14.6989 18.5292 14.7537C16.2734 14.8553 14.8849 14.425 14.082 13.7362V21.0531H18.7297C20.4796 21.0531 21.8984 19.6343 21.8984 17.8843V2.04016H17.2508Z" fill="white"/>
</mask>
<g mask="url(#mask3)">
<path fill-rule="evenodd" clip-rule="evenodd" d="M17.2508 2.04016C15.5007 2.04016 14.082 3.45898 14.082 5.20879V9.3574C14.8849 8.6686 16.2734 8.23835 18.5292 8.33994C19.7367 8.39369 21.0171 8.71752 21.0171 8.71752V10.0593C20.3763 9.73444 19.6077 9.43359 18.6174 9.35856C16.9055 9.22924 15.8752 10.0659 15.8752 11.5468C15.8752 13.0275 16.9055 13.8639 18.6174 13.734C19.6077 13.6596 20.3864 13.3508 21.0171 13.0343V14.3752C21.0171 14.3752 19.7367 14.6989 18.5292 14.7537C16.2734 14.8553 14.8849 14.425 14.082 13.7362V21.0531H18.7297C20.4796 21.0531 21.8984 19.6343 21.8984 17.8843V2.04016H17.2508Z" fill="url(#paint3_linear)"/>
</g>
<mask id="mask4" style="mask-type:alpha" maskUnits="userSpaceOnUse" x="23" y="9" width="4" height="3">
<path fill-rule="evenodd" clip-rule="evenodd" d="M26.4444 10.6562C26.4444 10.2376 26.1512 9.95695 25.8064 9.89864C25.7742 9.8931 25.6864 9.88469 25.6259 9.88469H23.9633V11.4275H25.6259C25.6864 11.4275 25.7742 11.4188 25.8064 11.4133C26.1512 11.3549 26.4444 11.0745 26.4444 10.6562Z" fill="white"/>
</mask>
<g mask="url(#mask4)">
<path fill-rule="evenodd" clip-rule="evenodd" d="M26.4444 10.6562C26.4444 10.2376 26.1512 9.95695 25.8064 9.89864C25.7742 9.8931 25.6864 9.88469 25.6259 9.88469H23.9633V11.4275H25.6259C25.6864 11.4275 25.7742 11.4188 25.8064 11.4133C26.1512 11.3549 26.4444 11.0745 26.4444 10.6562Z" fill="url(#paint4_linear)"/>
</g>
<path fill-rule="evenodd" clip-rule="evenodd" d="M33.0557 0.5H2.05566C1.22724 0.5 0.555664 1.17157 0.555664 2V22C0.555664 22.8284 1.22724 23.5 2.05566 23.5H33.0557C33.8841 23.5 34.5557 22.8284 34.5557 22V2C34.5557 1.17157 33.8841 0.5 33.0557 0.5ZM2.05566 0C0.951095 0 0.0556641 0.89543 0.0556641 2V22C0.0556641 23.1046 0.951095 24 2.05566 24H33.0557C34.1602 24 35.0557 23.1046 35.0557 22V2C35.0557 0.895431 34.1602 0 33.0557 0H2.05566Z" fill="#D8D8D8"/>
<path d="M2.05566 0.5H33.0557V-0.5H2.05566V0.5ZM34.5557 2V22H35.5557V2H34.5557ZM33.0557 23.5H2.05566V24.5H33.0557V23.5ZM0.555664 22V2H-0.444336V22H0.555664ZM2.05566 23.5C1.22724 23.5 0.555664 22.8284 0.555664 22H-0.444336C-0.444336 23.3807 0.674952 24.5 2.05566 24.5V23.5ZM34.5557 22C34.5557 22.8284 33.8841 23.5 33.0557 23.5V24.5C34.4364 24.5 35.5557 23.3807 35.5557 22H34.5557ZM33.0557 0.5C33.8841 0.5 34.5557 1.17157 34.5557 2H35.5557C35.5557 0.619288 34.4364 -0.5 33.0557 -0.5V0.5ZM2.05566 -0.5C0.674952 -0.5 -0.444336 0.619288 -0.444336 2H0.555664C0.555664 1.17157 1.22724 0.5 2.05566 0.5V-0.5Z" fill="#D8D8D8"/>
<defs>
<linearGradient id="paint0_linear" x1="22.4145" y1="14.5964" x2="30.2511" y2="14.5964" gradientUnits="userSpaceOnUse">
<stop stop-color="#5EB245"/>
<stop offset="1" stop-color="#007544"/>
</linearGradient>
<linearGradient id="paint1_linear" x1="22.8489" y1="11.37" x2="30.6857" y2="11.37" gradientUnits="userSpaceOnUse">
<stop stop-color="#5EB245"/>
<stop offset="1" stop-color="#007544"/>
</linearGradient>
<linearGradient id="paint2_linear" x1="5.30489" y1="11.5174" x2="13.2627" y2="11.5174" gradientUnits="userSpaceOnUse">
<stop stop-color="#006DAA"/>
<stop offset="1" stop-color="#2F2E61"/>
</linearGradient>
<linearGradient id="paint3_linear" x1="14.0351" y1="11.2389" x2="21.7639" y2="11.2389" gradientUnits="userSpaceOnUse">
<stop stop-color="#D81F43"/>
<stop offset="1" stop-color="#603133"/>
</linearGradient>
<linearGradient id="paint4_linear" x1="22.4143" y1="12.1198" x2="30.2507" y2="12.1198" gradientUnits="userSpaceOnUse">
<stop stop-color="#5EB245"/>
<stop offset="1" stop-color="#007544"/>
</linearGradient>
</defs>
</svg>
