<svg width="108" height="24" viewBox="0 0 108 24" fill="none" xmlns="http://www.w3.org/2000/svg">
<g clip-path="url(#clip0)">
<path d="M18.9199 0H13.6261C13.6261 4.34421 11.632 8.30861 8.16617 10.9199L6.07715 12.4866L14.1958 23.549H20.8665L13.3887 13.365C16.9258 9.85163 18.9199 5.10386 18.9199 0Z" fill="black"/>
<path d="M5.41246 0H0V23.549H5.41246V0Z" fill="black"/>
<path d="M27.5371 0H22.4332V23.549H27.5371V0Z" fill="black"/>
<path d="M72.3086 6.81306C70.362 6.81306 68.5104 7.40653 67.276 9.09199V7.2641H62.4332V23.549H67.3472V15.003C67.3472 12.5341 69.0089 11.3234 71.003 11.3234C73.1395 11.3234 74.3739 12.6053 74.3739 14.9792V23.5727H79.2403V13.1988C79.2403 9.4006 76.2255 6.81306 72.3086 6.81306Z" fill="black"/>
<path d="M42.9674 7.2641V8.30861C41.5905 7.35905 39.9288 6.81306 38.1246 6.81306C33.3769 6.81306 29.5312 10.6588 29.5312 15.4065C29.5312 20.1543 33.3769 24 38.1246 24C39.9288 24 41.5905 23.454 42.9674 22.5045V23.549H47.8338V7.2641H42.9674ZM38.5282 19.5846C36.0831 19.5846 34.1128 17.7092 34.1128 15.4065C34.1128 13.1039 36.0831 11.2285 38.5282 11.2285C40.9733 11.2285 42.9436 13.1039 42.9436 15.4065C42.9436 17.7092 40.9733 19.5846 38.5282 19.5846Z" fill="black"/>
<path d="M55.3828 9.37685V7.26409H50.3976V23.549H55.4065V15.9525C55.4065 13.3887 58.184 12.0119 60.1069 12.0119C60.1306 12.0119 60.1543 12.0119 60.1543 12.0119V7.26409C58.184 7.26409 56.3561 8.11869 55.3828 9.37685Z" fill="black"/>
<path d="M94.3858 7.2641V8.30861C93.0089 7.35905 91.3472 6.81306 89.543 6.81306C84.7953 6.81306 80.9496 10.6588 80.9496 15.4065C80.9496 20.1543 84.7953 24 89.543 24C91.3472 24 93.0089 23.454 94.3858 22.5045V23.549H99.2522V7.2641H94.3858ZM89.9466 19.5846C87.5015 19.5846 85.5312 17.7092 85.5312 15.4065C85.5312 13.1039 87.5015 11.2285 89.9466 11.2285C92.3917 11.2285 94.362 13.1039 94.362 15.4065C94.3858 17.7092 92.3917 19.5846 89.9466 19.5846Z" fill="black"/>
<path d="M103.027 7.73887C103.027 7.50148 102.861 7.35905 102.599 7.35905H102.148V8.59347H102.362V8.14243H102.599L102.789 8.59347H103.027L102.813 8.09495C102.955 8.02374 103.027 7.90504 103.027 7.73887ZM102.599 7.92878H102.362V7.54896H102.599C102.742 7.54896 102.813 7.62018 102.813 7.73887C102.813 7.85757 102.766 7.92878 102.599 7.92878Z" fill="black"/>
<path d="M102.528 6.83679C101.887 6.83679 101.365 7.35905 101.365 8C101.389 8.64095 101.887 9.1632 102.528 9.1632C103.169 9.1632 103.691 8.64095 103.691 8C103.691 7.35905 103.169 6.83679 102.528 6.83679ZM102.528 8.94955C102.006 8.94955 101.602 8.52225 101.602 8C101.602 7.47774 102.03 7.05044 102.528 7.05044C103.05 7.05044 103.454 7.47774 103.454 8C103.454 8.52225 103.027 8.94955 102.528 8.94955Z" fill="black"/>
<path d="M104.451 17.7804C102.766 17.7804 101.389 19.1573 101.389 20.8427C101.389 22.5282 102.766 23.9051 104.451 23.9051C106.137 23.9051 107.513 22.5282 107.513 20.8427C107.513 19.1335 106.137 17.7804 104.451 17.7804Z" fill="black"/>
</g>
<defs>
<clipPath id="clip0">
<rect width="107.513" height="24" fill="white"/>
</clipPath>
</defs>
</svg>
