<svg width="36" height="25" viewBox="0 0 36 25" fill="none" xmlns="http://www.w3.org/2000/svg">
<path d="M14.7976 16.1011L23.2859 16.1105L23.2706 3.65332L14.7834 3.64392L14.7976 16.1011Z" fill="#6C6BBD"/>
<path d="M15.675 9.75031C15.6745 7.3694 16.7717 5.12124 18.6491 3.65687C15.2691 1.01218 10.3759 1.59634 7.71963 4.96178C6.44416 6.57613 5.8652 8.63251 6.11106 10.6752C6.35691 12.7179 7.40728 14.5781 9.02938 15.8437C11.8555 18.0528 15.823 18.0528 18.6491 15.8437C16.7716 14.3795 15.6743 12.1312 15.675 9.75031Z" fill="#D32011"/>
<path fill-rule="evenodd" clip-rule="evenodd" d="M30.5138 14.6505V14.9255H30.4302V14.6505H30.2741V14.5941H30.669V14.6505H30.5138ZM31.2816 14.5941V14.9255H31.1959V14.6747L31.065 14.8903H30.9753L30.8463 14.6747V14.9255H30.7627V14.5941H30.8826L31.0226 14.8308L31.1617 14.5941H31.2816Z" fill="#F79E1B"/>
<path d="M31.2428 9.75127C31.2428 14.0302 27.7582 17.5003 23.4599 17.5003C21.7163 17.5007 20.0227 16.9176 18.6491 15.8437C20.5269 14.3796 21.6247 12.1315 21.6247 9.7503C21.6247 7.36915 20.5269 5.121 18.6491 3.65687C22.0281 1.01218 26.9222 1.59633 29.5785 4.9608C30.6561 6.32435 31.2424 8.0114 31.2428 9.74933V9.7503V9.75127Z" fill="#0099DF"/>
<path fill-rule="evenodd" clip-rule="evenodd" d="M23.0692 19.6283H22.2697V20.6434C22.2697 20.8688 22.3488 21.0194 22.5936 21.0194C22.746 21.0147 22.8947 20.9714 23.0259 20.8937L23.1667 21.3108C23.0118 21.4191 22.7681 21.4841 22.5568 21.4841C21.9783 21.4841 21.7768 21.1754 21.7768 20.6532V19.6283H21.3196V19.1819H21.7768V18.5005H22.2697V19.183H23.0692V19.6283ZM13.0219 20.0172V21.4278H12.5279V20.1765C12.5279 19.7962 12.3686 19.586 12.0349 19.586C11.711 19.586 11.4835 19.7919 11.4835 20.1819V21.4278H10.9905V20.1765C10.9905 19.7962 10.827 19.586 10.5019 19.586C10.1683 19.586 9.95157 19.7919 9.95157 20.1819V21.4278H9.45972V19.1809H9.94832V19.4582C10.0927 19.238 10.3429 19.1106 10.6059 19.1234C10.9083 19.1114 11.1932 19.265 11.3491 19.5243C11.555 19.209 11.8529 19.1191 12.1379 19.1245C12.6839 19.1289 13.0219 19.4864 13.0219 20.0172ZM15.7759 19.183V20.3054V20.3065V21.43H15.2862V21.157C15.1302 21.3595 14.8962 21.4852 14.5776 21.4852C13.9482 21.4852 13.4531 20.9923 13.4531 20.3076C13.4531 19.6196 13.9482 19.1267 14.5776 19.1267C14.8532 19.1152 15.1173 19.238 15.2862 19.456V19.183H15.7759ZM13.9569 20.3054C13.9569 19.91 14.2158 19.586 14.6394 19.586C15.0413 19.586 15.3143 19.8959 15.3143 20.3054C15.3143 20.7138 15.0413 21.0248 14.6394 21.0248C14.2158 21.0248 13.9569 20.6998 13.9569 20.3054ZM27.5306 19.4658C27.2953 19.2444 26.9837 19.1222 26.6607 19.1245V19.1256C26.4862 19.1256 26.3259 19.1559 26.1764 19.2166C25.8887 19.3305 25.6593 19.556 25.5404 19.8417C25.4798 19.9869 25.4494 20.144 25.4494 20.313C25.4393 20.7943 25.7291 21.2314 26.1764 21.4094C26.3259 21.4711 26.4873 21.5004 26.6607 21.5004C26.8269 21.5025 26.9919 21.4715 27.146 21.4094C27.5946 21.2323 27.8861 20.7952 27.8773 20.313C27.8773 20.144 27.847 19.9869 27.7852 19.8417C27.7246 19.6976 27.64 19.5709 27.5306 19.4658ZM26.6607 19.5904C26.4724 19.5855 26.2904 19.658 26.1569 19.7908C26.0927 19.8568 26.0422 19.9348 26.0085 20.0205C25.9717 20.1136 25.9533 20.2129 25.9543 20.313C25.9543 20.4192 25.9727 20.5167 26.0085 20.6055C26.0428 20.6908 26.0936 20.7684 26.158 20.8341C26.2212 20.8985 26.2973 20.9491 26.3812 20.9825C26.4678 21.0183 26.5621 21.0367 26.6607 21.0367C26.8496 21.038 27.0316 20.9652 27.1677 20.8341C27.2319 20.769 27.2824 20.6916 27.3161 20.6066C27.3533 20.5136 27.3717 20.4142 27.3703 20.3141C27.3729 20.12 27.3003 19.9325 27.1677 19.7908C27.0327 19.6582 26.8498 19.5859 26.6607 19.5904ZM19.9328 19.5622C20.1792 19.5659 20.4206 19.6326 20.6338 19.7561L20.845 19.3607C20.6099 19.2058 20.286 19.1256 19.9285 19.1256C19.3608 19.1256 18.9935 19.3975 18.9935 19.8439C18.9935 20.2112 19.2665 20.4365 19.7682 20.5069L19.9989 20.5405C20.2665 20.5784 20.3943 20.6488 20.3943 20.7745C20.3943 20.95 20.2156 21.0475 19.8819 21.0475C19.545 21.0475 19.298 20.9392 19.1333 20.8135L18.9047 21.1927C19.1723 21.3921 19.5103 21.4841 19.8765 21.4841C20.5254 21.4841 20.9014 21.1797 20.9014 20.7507C20.9014 20.3563 20.6056 20.1505 20.117 20.079L19.8852 20.0465C19.6739 20.0183 19.506 19.975 19.506 19.8266C19.506 19.6619 19.6652 19.5622 19.9328 19.5622ZM18.4865 20.3054C18.4811 19.6045 18.0488 19.1245 17.4183 19.1245C16.7607 19.1245 16.3002 19.6045 16.3002 20.3054C16.3002 21.0194 16.7791 21.4841 17.4519 21.4841C17.7899 21.4841 18.0997 21.4007 18.3727 21.17L18.1333 20.8081C17.9476 20.9566 17.7178 21.0389 17.48 21.0421C17.1648 21.0421 16.8788 20.8969 16.8083 20.4928H18.4768L18.4788 20.4653C18.4826 20.4135 18.4865 20.3606 18.4865 20.3054ZM17.4085 19.5622C17.0618 19.5622 16.8647 19.7832 16.8127 20.1082H17.9773C17.9264 19.7605 17.7238 19.5622 17.4085 19.5622ZM25.223 19.1863C25.1147 19.144 24.9727 19.1256 24.8752 19.1256C24.6324 19.1189 24.4052 19.2452 24.2826 19.455V19.1819H23.7984V21.4289H24.288V20.1689C24.288 19.7973 24.4473 19.5915 24.7669 19.5915C24.8715 19.5894 24.9754 19.6086 25.0724 19.6478L25.223 19.1863Z" fill="#110F0D"/>
<rect x="1.19287" y="0.499756" width="34.5" height="23.5" rx="1.75" stroke="#D8D8D8" stroke-width="0.5"/>
</svg>
