<svg width="36" height="24" viewBox="0 0 36 24" fill="none" xmlns="http://www.w3.org/2000/svg">
<path fill-rule="evenodd" clip-rule="evenodd" d="M33.0557 0.5H2.05566C1.22724 0.5 0.555664 1.17157 0.555664 2V22C0.555664 22.8284 1.22724 23.5 2.05566 23.5H33.0557C33.8841 23.5 34.5557 22.8284 34.5557 22V2C34.5557 1.17157 33.8841 0.5 33.0557 0.5ZM2.05566 0C0.951095 0 0.0556641 0.89543 0.0556641 2V22C0.0556641 23.1046 0.951095 24 2.05566 24H33.0557C34.1602 24 35.0557 23.1046 35.0557 22V2C35.0557 0.895431 34.1602 0 33.0557 0H2.05566Z" fill="#D8D8D8"/>
<g opacity="0.01">
<rect x="7.05566" y="5" width="20.7731" height="13.5496" fill="white"/>
</g>
<rect x="14.7031" y="7.36066" width="5.47984" height="8.82675" fill="#FF5F00"/>
<path fill-rule="evenodd" clip-rule="evenodd" d="M15.2675 11.7748C15.2661 10.0527 16.0678 8.42551 17.4414 7.36222C15.1078 5.55353 11.7566 5.81698 9.743 7.96742C7.72938 10.1179 7.72938 13.4333 9.743 15.5838C11.7566 17.7342 15.1078 17.9976 17.4414 16.189C16.0673 15.1253 15.2657 13.4975 15.2675 11.7748Z" fill="#EB001B"/>
<path fill-rule="evenodd" clip-rule="evenodd" d="M26.118 15.111V15.4778H26.0797V15.111H25.998V15.0351H26.2049V15.111H26.118ZM26.5197 15.0351V15.4778H26.4762V15.1427L26.4084 15.4304H26.3615L26.2936 15.1427V15.4778H26.2484V15.0351H26.311L26.3841 15.3513L26.4571 15.0351H26.5197Z" fill="#F79E1B"/>
<path fill-rule="evenodd" clip-rule="evenodd" d="M26.6509 11.7748C26.6508 13.9239 25.4065 15.8844 23.4464 16.8235C21.4863 17.7627 19.1545 17.5157 17.4414 16.1874C18.8145 15.1232 19.6162 13.4963 19.6162 11.774C19.6162 10.0518 18.8145 8.42485 17.4414 7.36066C19.1545 6.03237 21.4863 5.78535 23.4464 6.72451C25.4065 7.66367 26.6508 9.62412 26.6509 11.7733V11.7748Z" fill="#F79E1B"/>
<path d="M2.05566 0.5H33.0557V-0.5H2.05566V0.5ZM34.5557 2V22H35.5557V2H34.5557ZM33.0557 23.5H2.05566V24.5H33.0557V23.5ZM0.555664 22V2H-0.444336V22H0.555664ZM2.05566 23.5C1.22724 23.5 0.555664 22.8284 0.555664 22H-0.444336C-0.444336 23.3807 0.674952 24.5 2.05566 24.5V23.5ZM34.5557 22C34.5557 22.8284 33.8841 23.5 33.0557 23.5V24.5C34.4364 24.5 35.5557 23.3807 35.5557 22H34.5557ZM33.0557 0.5C33.8841 0.5 34.5557 1.17157 34.5557 2H35.5557C35.5557 0.619288 34.4364 -0.5 33.0557 -0.5V0.5ZM2.05566 -0.5C0.674952 -0.5 -0.444336 0.619288 -0.444336 2H0.555664C0.555664 1.17157 1.22724 0.5 2.05566 0.5V-0.5Z" fill="#D8D8D8"/>
</svg>
