<svg width="90" height="24" viewBox="0 0 90 24" fill="none" xmlns="http://www.w3.org/2000/svg">
<path fill-rule="evenodd" clip-rule="evenodd" d="M3.7998 0.000854492H10.8001C13.143 0.000854492 14.9077 0.61957 15.9026 1.78947C16.8085 2.85475 17.1084 4.37583 16.7952 6.31183C16.1001 10.7369 13.4388 12.9699 8.82759 12.9699H6.61151C6.13349 12.9699 5.72513 13.3182 5.65139 13.7926L4.88781 18.6376C4.81306 19.1118 4.40571 19.4601 3.92668 19.4601H0.584644C0.225421 19.4601 -0.0489601 19.1404 0.00735103 18.7861L2.83859 0.822603C2.91333 0.349216 3.32069 0.000854492 3.7998 0.000854492ZM7.44981 9.0755C9.30558 9.0755 11.2248 9.0755 11.6077 6.5618C11.7479 5.67877 11.6353 5.03963 11.2678 4.60935C10.6516 3.8883 9.45907 3.8883 8.19496 3.8883H7.71085C7.4242 3.8883 7.1786 4.09725 7.13454 4.38103L6.39349 9.0755H7.44981Z" fill="#283B82"/>
<path fill-rule="evenodd" clip-rule="evenodd" d="M28.3728 6.48088H31.7249C32.0833 6.48088 32.3567 6.80145 32.2992 7.15486L30.4875 18.6366C30.4117 19.1107 30.0064 19.459 29.5263 19.459H26.5069C26.1496 19.459 25.8752 19.1395 25.9316 18.783L26.0811 17.8509C26.0811 17.8509 24.4259 19.7714 21.4411 19.7714C19.702 19.7714 18.2403 19.2695 17.2188 18.0649C16.1052 16.7548 15.6497 14.8762 15.97 12.9116C16.5862 8.97305 19.7501 6.16541 23.4544 6.16541C25.0696 6.16541 26.688 6.5177 27.4137 7.57176L27.6482 7.91187L27.7964 6.9736C27.8406 6.68985 28.0873 6.48088 28.3728 6.48088ZM23.2704 16.213C25.2089 16.213 26.7291 14.9264 27.0524 13.0099C27.1987 12.0818 26.9962 11.2398 26.4854 10.6365C25.9756 10.0394 25.2019 9.72291 24.2498 9.72291C22.341 9.72291 20.7952 11.0514 20.4933 12.9515C20.3356 13.8837 20.524 14.7205 21.0194 15.3085C21.5189 15.9005 22.297 16.213 23.2704 16.213Z" fill="#283B82"/>
<path d="M49.5784 6.48088H46.2098C45.8884 6.48088 45.5864 6.64068 45.4043 6.90808L40.7582 13.7567L38.7889 7.1754C38.665 6.76356 38.2853 6.48088 37.8554 6.48088H34.5451C34.1428 6.48088 33.8634 6.87419 33.9914 7.25319L37.7018 18.1499L34.2135 23.078C33.939 23.4661 34.2154 24 34.6895 24H38.054C38.3733 24 38.6723 23.8442 38.8534 23.582L50.0574 7.39771C50.3257 7.01043 50.0504 6.48088 49.5784 6.48088Z" fill="#283B82"/>
<path fill-rule="evenodd" clip-rule="evenodd" d="M53.7301 0.000858307H60.7314C63.0745 0.000858307 64.8381 0.619574 65.832 1.78947C66.7379 2.85475 67.0399 4.37583 66.7256 6.31183C66.0296 10.7369 63.3692 12.9699 58.757 12.9699H56.5419C56.064 12.9699 55.6554 13.3182 55.5817 13.7926L54.7783 18.8844C54.7262 19.2164 54.4405 19.4601 54.1069 19.4601H50.5141C50.1568 19.4601 49.8826 19.1404 49.9387 18.7861L52.7699 0.822607C52.8447 0.34922 53.2522 0.000858307 53.7301 0.000858307ZM57.3812 9.0755C59.2382 9.0755 61.1573 9.0755 61.5391 6.5618C61.6792 5.67877 61.5677 5.03963 61.2002 4.60935C60.5841 3.8883 59.3906 3.8883 58.1274 3.8883H57.6433C57.3556 3.8883 57.1121 4.09725 57.0681 4.38103L56.326 9.0755H57.3812Z" fill="#469BDB"/>
<path fill-rule="evenodd" clip-rule="evenodd" d="M78.3056 6.48088H81.6558C82.015 6.48088 82.2893 6.80146 82.2342 7.15487L80.4214 18.6366C80.3467 19.1108 79.9392 19.4591 79.4612 19.4591H76.4427C76.0833 19.4591 75.8091 19.1395 75.8652 18.783L76.0147 17.8509C76.0147 17.8509 74.3596 19.7714 71.3748 19.7714C69.6357 19.7714 68.1762 19.2695 67.1526 18.0649C66.0389 16.7548 65.5855 14.8762 65.9048 12.9116C66.5211 8.97306 69.6838 6.16541 73.3883 6.16541C75.0035 6.16541 76.6208 6.51771 77.3465 7.57177L77.5819 7.91188L77.7303 6.97361C77.7732 6.68986 78.018 6.48088 78.3056 6.48088ZM73.2009 16.213C75.1394 16.213 76.6615 14.9264 76.9829 13.0099C77.1313 12.0818 76.9287 11.2398 76.4159 10.6365C75.9061 10.0394 75.1324 9.72291 74.1805 9.72291C72.2714 9.72291 70.7278 11.0514 70.4239 12.9515C70.2682 13.8837 70.4546 14.7205 70.9499 15.3085C71.4494 15.9005 72.2294 16.213 73.2009 16.213Z" fill="#469BDB"/>
<path d="M85.6077 0.493692L82.7344 18.7861C82.6782 19.1404 82.9524 19.4601 83.3097 19.4601H86.1982C86.6783 19.4601 87.0858 19.1118 87.1594 18.6376L89.9926 0.675138C90.049 0.32058 89.7747 0 89.4175 0H86.1828C85.8973 0.000854492 85.6517 0.210087 85.6077 0.493692Z" fill="#469BDB"/>
</svg>
