<svg width="72" height="24" viewBox="0 0 72 24" fill="none" xmlns="http://www.w3.org/2000/svg">
<g clip-path="url(#clip0)">
<path d="M18.3288 6.09755C18.6226 4.23037 18.3288 2.96031 17.3178 1.81031C16.212 0.546569 14.1979 2.8928e-06 11.631 2.8928e-06H4.16857C3.91414 -0.000343105 3.668 0.0904324 3.47472 0.255893C3.28144 0.421353 3.15381 0.650556 3.11493 0.901996L0.00770538 20.5974C-0.00639619 20.6886 -0.000624016 20.7819 0.0246239 20.8707C0.0498719 20.9595 0.0940019 21.0418 0.153997 21.112C0.213992 21.1822 0.288436 21.2386 0.372241 21.2774C0.456047 21.3162 0.547236 21.3364 0.639575 21.3367H5.24433L4.92839 23.3523C4.91586 23.4323 4.92077 23.5139 4.94277 23.5918C4.96478 23.6696 5.00337 23.7418 5.05589 23.8033C5.10842 23.8648 5.17363 23.9143 5.24706 23.9482C5.32048 23.9822 5.40038 23.9998 5.48128 24H9.37044C9.59314 24 9.80851 23.9204 9.97768 23.7756C10.1469 23.6308 10.2587 23.4302 10.293 23.2102L10.3309 23.0127L11.0623 18.3764L11.1097 18.1205C11.1439 17.9007 11.2555 17.7003 11.4243 17.5555C11.5932 17.4107 11.8082 17.331 12.0306 17.3306H12.6119C16.3716 17.3306 19.3161 15.8031 20.177 11.3847C20.5356 9.53808 20.3508 7.9979 19.3998 6.91424C19.0981 6.57869 18.7379 6.30088 18.3367 6.09439V6.09439" fill="#009CDE"/>
<path d="M18.3288 6.09755C18.6226 4.23037 18.3288 2.96031 17.3178 1.81031C16.212 0.546569 14.1979 2.8928e-06 11.631 2.8928e-06H4.16857C3.91414 -0.000343105 3.668 0.0904324 3.47472 0.255893C3.28144 0.421353 3.15381 0.650556 3.11493 0.901996L0.00770538 20.5974C-0.00639619 20.6886 -0.000624016 20.7819 0.0246239 20.8707C0.0498719 20.9595 0.0940019 21.0418 0.153997 21.112C0.213992 21.1822 0.288436 21.2386 0.372241 21.2774C0.456047 21.3162 0.547236 21.3364 0.639575 21.3367H5.24433L6.40065 14.0022L6.36432 14.2329C6.40312 13.982 6.53029 13.7532 6.72291 13.5878C6.91554 13.4224 7.16092 13.3313 7.4148 13.3309H9.60423C13.9025 13.3309 17.2688 11.5853 18.2514 6.53828C18.2814 6.38821 18.3051 6.24288 18.3272 6.10071" fill="#012169"/>
<path d="M7.64543 6.12529C7.67942 5.9051 7.79115 5.70438 7.96039 5.55948C8.12963 5.41459 8.34517 5.33511 8.56796 5.33545H14.4128C15.0584 5.33137 15.7033 5.37838 16.3415 5.47604C16.5106 5.50289 16.6749 5.53449 16.8344 5.56924C16.994 5.60399 17.1503 5.64506 17.2988 5.68772L17.52 5.75722C17.7979 5.84865 18.0679 5.96277 18.3272 6.09843C18.621 4.23126 18.3272 2.9612 17.3162 1.81119C16.2104 0.547455 14.1963 0.000885995 11.6294 0.000885995H4.16857C3.91414 0.000539997 3.668 0.0913179 3.47472 0.256778C3.28144 0.422238 3.15381 0.651442 3.11493 0.902881L0.00770538 20.5967C-0.00639619 20.6879 -0.000624016 20.7812 0.0246239 20.87C0.0498719 20.9588 0.0940019 21.0411 0.153997 21.1113C0.213992 21.1815 0.288436 21.2379 0.372241 21.2767C0.456047 21.3155 0.547236 21.3357 0.639575 21.336H5.24433L6.40065 14.0015L7.64543 6.12529Z" fill="#003087"/>
<path d="M50.3553 12.3357C50.3697 12.2439 50.4164 12.1602 50.4871 12.1C50.5579 12.0397 50.6478 12.0067 50.7408 12.0071H54.3377C57.3075 12.0071 59.3927 14.3403 58.9187 17.3369C58.4448 20.3336 55.6109 22.6668 52.6537 22.6668H48.9889C48.9561 22.6667 48.9238 22.6595 48.894 22.6458C48.8643 22.6321 48.8378 22.612 48.8165 22.5871C48.7952 22.5622 48.7795 22.533 48.7706 22.5015C48.7616 22.47 48.7596 22.4369 48.7646 22.4045L50.3553 12.3357ZM51.8639 20.3209H52.4863C54.1402 20.3209 55.6946 19.4158 56.0343 17.3369C56.3312 15.4287 55.2444 14.3529 53.461 14.3529H53.0044C52.9503 14.3534 52.8981 14.373 52.857 14.4082C52.8159 14.4435 52.7887 14.4922 52.7801 14.5456L51.8639 20.3209Z" fill="#003087"/>
<path d="M45.7031 14.6815L45.4725 16.1348H48.3317C48.3634 16.1362 48.3944 16.1443 48.4227 16.1584C48.4511 16.1725 48.4762 16.1924 48.4964 16.2168C48.5166 16.2412 48.5316 16.2696 48.5402 16.3001C48.5488 16.3305 48.551 16.3625 48.5466 16.3939L48.2717 18.1505C48.2573 18.2423 48.2106 18.3259 48.1399 18.3862C48.0691 18.4465 47.9792 18.4794 47.8863 18.479H45.4299C45.3374 18.479 45.248 18.5119 45.1777 18.5718C45.1073 18.6317 45.0607 18.7148 45.046 18.806L44.8012 20.3178H47.831C47.8636 20.3176 47.8959 20.3245 47.9256 20.3381C47.9553 20.3517 47.9817 20.3715 48.0029 20.3964C48.0241 20.4212 48.0396 20.4503 48.0484 20.4818C48.0572 20.5132 48.059 20.5462 48.0537 20.5784L47.7788 22.335C47.7648 22.4267 47.7184 22.5103 47.6479 22.5706C47.5775 22.6309 47.4877 22.6639 47.395 22.6636H41.9277C41.895 22.6635 41.8626 22.6564 41.8328 22.6426C41.8031 22.6289 41.7767 22.6089 41.7554 22.584C41.7341 22.5591 41.7184 22.5299 41.7094 22.4984C41.7005 22.4668 41.6984 22.4338 41.7034 22.4014L43.2926 12.3325C43.3069 12.2407 43.3537 12.1571 43.4244 12.0968C43.4951 12.0365 43.5851 12.0036 43.678 12.0039H49.1453C49.178 12.004 49.2104 12.0112 49.2401 12.0249C49.2699 12.0386 49.2963 12.0587 49.3176 12.0836C49.3389 12.1085 49.3546 12.1377 49.3636 12.1692C49.3725 12.2007 49.3746 12.2338 49.3696 12.2662L49.0947 14.0244C49.0804 14.1162 49.0336 14.1998 48.9629 14.2601C48.8922 14.3203 48.8022 14.3533 48.7093 14.3529H46.0807C45.9892 14.3547 45.9013 14.3886 45.8323 14.4487C45.7633 14.5088 45.7176 14.5912 45.7031 14.6815V14.6815Z" fill="#003087"/>
<path d="M61.342 22.6668H59.1652C59.1324 22.6667 59.1 22.6595 59.0703 22.6458C59.0405 22.6321 59.0141 22.612 58.9928 22.5871C58.9715 22.5622 58.9558 22.533 58.9468 22.5015C58.9379 22.47 58.9358 22.4369 58.9408 22.4045L60.53 12.3357C60.5443 12.2441 60.5909 12.1607 60.6612 12.1005C60.7316 12.0402 60.8212 12.0071 60.9139 12.0071H63.0875C63.1203 12.0072 63.1526 12.0143 63.1824 12.0281C63.2121 12.0418 63.2386 12.0618 63.2599 12.0867C63.2812 12.1116 63.2968 12.1408 63.3058 12.1723C63.3148 12.2039 63.3168 12.237 63.3118 12.2693L61.7226 22.3382C61.7084 22.4292 61.6623 22.5122 61.5926 22.5724C61.5229 22.6325 61.4341 22.666 61.342 22.6668V22.6668Z" fill="#003087"/>
<path d="M40.9468 22.6667H38.1034C38.044 22.6667 37.9858 22.65 37.9355 22.6184C37.8852 22.5868 37.8449 22.5417 37.819 22.4882L35.9408 18.5675H35.9092L35.2995 22.3966C35.2874 22.4714 35.2488 22.5393 35.1908 22.588C35.1328 22.6367 35.0593 22.663 34.9835 22.662H32.7499C32.7171 22.6619 32.6847 22.6548 32.655 22.641C32.6252 22.6273 32.5988 22.6073 32.5775 22.5824C32.5562 22.5575 32.5405 22.5283 32.5316 22.4968C32.5226 22.4652 32.5206 22.4322 32.5256 22.3998L34.1242 12.2678C34.1363 12.193 34.1749 12.1251 34.2328 12.0764C34.2908 12.0277 34.3644 12.0014 34.4401 12.0024H38.3103C40.4176 12.0024 41.8598 13.0055 41.506 15.2818C41.2659 16.7524 40.2423 18.0257 38.6926 18.2942L41.1395 22.3176C41.1619 22.352 41.1744 22.3917 41.1759 22.4327C41.1774 22.4736 41.1678 22.5142 41.148 22.55C41.1282 22.5859 41.099 22.6157 41.0635 22.6363C41.0281 22.6568 40.9877 22.6674 40.9468 22.6667V22.6667ZM36.1904 16.7856H36.4589C37.3625 16.7856 38.4035 16.615 38.5931 15.4571C38.7826 14.2992 38.1792 14.1302 37.2124 14.127H36.8191C36.7618 14.1271 36.7064 14.1477 36.6629 14.1851C36.6195 14.2225 36.5908 14.2742 36.5822 14.3308L36.1904 16.7856Z" fill="#003087"/>
<path d="M67.2167 22.6667H65.0431C65.0104 22.6667 64.978 22.6595 64.9483 22.6458C64.9185 22.632 64.8921 22.612 64.8708 22.5871C64.8495 22.5622 64.8338 22.533 64.8248 22.5015C64.8159 22.47 64.8138 22.4369 64.8188 22.4045L66.092 14.3482H64.0669C64.0342 14.3483 64.0019 14.3414 63.9721 14.3278C63.9424 14.3143 63.9159 14.2944 63.8946 14.2696C63.8733 14.2449 63.8576 14.2157 63.8486 14.1843C63.8396 14.1529 63.8376 14.1198 63.8426 14.0875L64.1175 12.3309C64.1318 12.2391 64.1786 12.1555 64.2493 12.0952C64.32 12.035 64.41 12.002 64.5029 12.0024H71.2559C71.2888 12.0022 71.3213 12.0091 71.3512 12.0228C71.3811 12.0365 71.4076 12.0565 71.429 12.0814C71.4503 12.1064 71.466 12.1357 71.4748 12.1673C71.4837 12.199 71.4855 12.2322 71.4803 12.2646L71.2054 14.0244C71.1911 14.1159 71.1445 14.1993 71.0742 14.2595C71.0038 14.3198 70.9142 14.3529 70.8215 14.3529H68.8628L67.599 22.3398C67.5844 22.4307 67.538 22.5136 67.4679 22.5734C67.3979 22.6333 67.3089 22.6664 67.2167 22.6667Z" fill="#003087"/>
<path d="M32.6677 15.0353C32.6603 15.0797 32.6406 15.1211 32.611 15.1549C32.5814 15.1887 32.5429 15.2136 32.4999 15.2267C32.4569 15.2398 32.4111 15.2407 32.3676 15.2292C32.3241 15.2177 32.2847 15.1944 32.2538 15.1617C31.9993 14.9161 31.6983 14.7237 31.3684 14.596C31.0386 14.4682 30.6865 14.4076 30.3329 14.4177C28.6379 14.4177 27.2952 15.7178 27.0282 17.3701C26.7723 19.0509 27.7344 20.2657 29.4562 20.2657C30.211 20.2456 30.9413 19.9936 31.5477 19.5437C31.5864 19.5162 31.6323 19.5008 31.6798 19.4994C31.7272 19.498 31.774 19.5107 31.8143 19.5359C31.8545 19.5611 31.8864 19.5976 31.9058 19.6409C31.9253 19.6842 31.9315 19.7323 31.9237 19.7791L31.5287 22.2181C31.5177 22.2893 31.4866 22.3558 31.439 22.4098C31.3914 22.4638 31.3294 22.5031 31.2602 22.523C30.4151 22.771 29.7674 22.9495 28.9776 22.9495C24.3823 22.9495 23.6462 19.024 23.8831 17.3559C24.5466 12.6769 28.3441 11.6043 30.6757 11.7338C31.3834 11.7568 32.0832 11.8901 32.7498 12.1287C32.8533 12.167 32.9403 12.2401 32.9957 12.3355C33.051 12.431 33.0714 12.5428 33.0531 12.6516L32.6677 15.0353Z" fill="#003087"/>
<path d="M46.4724 1.33325H44.0713C43.9918 1.33346 43.915 1.36207 43.8548 1.41392C43.7945 1.46577 43.7548 1.53744 43.7428 1.61601L42.7713 7.77674C42.7667 7.80527 42.7684 7.83444 42.7762 7.86225C42.784 7.89006 42.7978 7.91584 42.8166 7.93779C42.8354 7.95973 42.8587 7.97732 42.885 7.98934C42.9113 8.00136 42.9398 8.00751 42.9687 8.00737H44.2009C44.2564 8.00768 44.3102 7.98809 44.3525 7.95216C44.3948 7.91622 44.4228 7.86632 44.4315 7.8115L44.7064 6.07385C44.7188 5.9953 44.7589 5.92379 44.8194 5.87223C44.88 5.82066 44.957 5.79244 45.0365 5.79267H45.7963C47.376 5.79267 48.289 5.02653 48.5276 3.51004C48.635 2.84658 48.5276 2.32528 48.2211 1.96196C47.8799 1.54492 47.2828 1.33325 46.4724 1.33325ZM46.7489 3.58112C46.6177 4.44363 45.959 4.44363 45.3272 4.44363H44.9638L45.2182 2.83394C45.226 2.7872 45.2501 2.74475 45.2863 2.7141C45.3224 2.68345 45.3682 2.66659 45.4156 2.66649H45.5736C46.008 2.66649 46.4171 2.66649 46.6272 2.91292C46.7583 3.05983 46.7962 3.28257 46.7489 3.58112Z" fill="#009CDE"/>
<path d="M29.3503 1.33325H26.9492C26.8698 1.33346 26.793 1.36207 26.7327 1.41392C26.6725 1.46577 26.6327 1.53744 26.6207 1.61601L25.6492 7.77674C25.6448 7.80536 25.6468 7.83457 25.6548 7.86238C25.6628 7.89018 25.6767 7.91592 25.6957 7.93783C25.7146 7.95974 25.738 7.9773 25.7643 7.9893C25.7907 8.00131 25.8193 8.00747 25.8482 8.00737H26.9935C27.0729 8.00728 27.1497 7.97895 27.2102 7.92744C27.2707 7.87593 27.3109 7.8046 27.3236 7.72619L27.5858 6.06595C27.5979 5.98754 27.6377 5.91605 27.698 5.86446C27.7583 5.81287 27.8351 5.7846 27.9144 5.78477H28.6742C30.2539 5.78477 31.1685 5.01863 31.4071 3.50214C31.5145 2.83868 31.4071 2.31738 31.1006 1.95406C30.7594 1.54492 30.1544 1.33325 29.3503 1.33325ZM29.6284 3.58112C29.4957 4.44363 28.8385 4.44363 28.2067 4.44363H27.8449L28.0977 2.83394C28.1055 2.78694 28.1299 2.74427 28.1664 2.71359C28.2028 2.68291 28.249 2.66621 28.2967 2.66649H28.4626C28.8954 2.66649 29.3045 2.66649 29.5162 2.91292C29.6378 3.05983 29.6757 3.28257 29.6284 3.58112Z" fill="#003087"/>
<path d="M36.5253 3.55427H35.3769C35.329 3.55405 35.2826 3.57097 35.2461 3.60197C35.2096 3.63297 35.1854 3.676 35.1778 3.7233L35.1273 4.03923L35.0483 3.92392C34.8034 3.56691 34.2442 3.44053 33.6977 3.44053C32.4339 3.44053 31.3424 4.40256 31.1323 5.7516C31.0714 6.05942 31.0782 6.37677 31.1521 6.68171C31.2261 6.98665 31.3653 7.27188 31.5604 7.51768C31.9111 7.92997 32.4118 8.10216 33.0074 8.10216C33.3031 8.10522 33.5964 8.0486 33.8697 7.93569C34.143 7.82278 34.3907 7.65589 34.5981 7.44501L34.5475 7.76095C34.5429 7.78947 34.5446 7.81866 34.5524 7.84647C34.5603 7.87428 34.5741 7.90005 34.5928 7.92199C34.6116 7.94394 34.635 7.96153 34.6612 7.97355C34.6875 7.98556 34.7161 7.99172 34.745 7.99158H35.7797C35.8592 7.99181 35.9362 7.96359 35.9967 7.91202C36.0573 7.86046 36.0974 7.78895 36.1098 7.7104L36.7306 3.77543C36.7338 3.74695 36.7309 3.71812 36.7219 3.6909C36.7129 3.66369 36.6982 3.63873 36.6787 3.61773C36.6592 3.59673 36.6354 3.58019 36.6089 3.56924C36.5824 3.55829 36.5539 3.55318 36.5253 3.55427V3.55427ZM34.9235 5.79109C34.8788 6.10095 34.7222 6.38371 34.4832 6.58598C34.2443 6.78826 33.9396 6.89603 33.6266 6.88897C33.4832 6.90343 33.3384 6.88282 33.2048 6.82892C33.0711 6.77502 32.9525 6.68944 32.8593 6.57956C32.766 6.46967 32.7009 6.33877 32.6694 6.19811C32.638 6.05746 32.6412 5.91127 32.6788 5.77214C32.7232 5.46292 32.8783 5.18035 33.1154 4.97696C33.3525 4.77357 33.6554 4.66319 33.9678 4.66636C34.1109 4.65916 34.2538 4.68376 34.3863 4.73838C34.5188 4.79301 34.6375 4.87631 34.7339 4.9823C34.8223 5.09529 34.885 5.22616 34.9178 5.36582C34.9505 5.50549 34.9524 5.6506 34.9235 5.79109V5.79109Z" fill="#003087"/>
<path d="M53.6473 3.55427H52.4957C52.4481 3.55443 52.4021 3.57152 52.3659 3.60248C52.3297 3.63345 52.3058 3.67627 52.2983 3.7233L52.2477 4.03923L52.1671 3.92392C51.9191 3.56217 51.3631 3.44211 50.8102 3.44211C49.5464 3.44211 48.4549 4.40414 48.2432 5.75318C48.1831 6.06102 48.1903 6.3782 48.2641 6.68303C48.338 6.98785 48.4769 7.2731 48.6713 7.51926C49.022 7.93155 49.5227 8.10374 50.1199 8.10374C50.4145 8.10678 50.7066 8.0506 50.9791 7.93852C51.2515 7.82645 51.4987 7.66078 51.7059 7.45133L51.6553 7.76727C51.6507 7.79579 51.6524 7.82497 51.6602 7.85278C51.6681 7.88059 51.6819 7.90637 51.7006 7.92831C51.7194 7.95026 51.7428 7.96785 51.769 7.97987C51.7953 7.99188 51.8239 7.99804 51.8528 7.9979H52.8875C52.9669 7.9978 53.0437 7.96947 53.1042 7.91796C53.1647 7.86645 53.2049 7.79513 53.2176 7.71672L53.8384 3.78175C53.8425 3.75398 53.8406 3.72568 53.8329 3.69869C53.8252 3.67171 53.8119 3.64666 53.7938 3.62518C53.7758 3.6037 53.7534 3.58628 53.7282 3.57406C53.7029 3.56184 53.6753 3.5551 53.6473 3.55427V3.55427ZM52.0455 5.79109C52.0004 6.10108 51.8435 6.38386 51.6043 6.58611C51.3651 6.78835 51.0602 6.89608 50.747 6.88896C50.6036 6.90343 50.4588 6.88282 50.3252 6.82892C50.1915 6.77502 50.0729 6.68944 49.9797 6.57956C49.8864 6.46967 49.8213 6.33877 49.7898 6.19811C49.7584 6.05746 49.7616 5.91127 49.7992 5.77214C49.8432 5.46305 49.9981 5.1805 50.2349 4.97709C50.4718 4.77367 50.7744 4.66324 51.0866 4.66636C51.2298 4.65883 51.3728 4.68327 51.5053 4.73792C51.6379 4.79257 51.7566 4.87605 51.8528 4.9823C51.942 5.09488 52.0055 5.22562 52.0387 5.36534C52.072 5.50507 52.0743 5.65038 52.0455 5.79109V5.79109Z" fill="#009CDE"/>
<path d="M42.6481 3.55427H41.4918C41.4374 3.55437 41.3839 3.56782 41.336 3.59344C41.2881 3.61905 41.2472 3.65605 41.2169 3.70118L39.623 6.047L38.9469 3.7928C38.9269 3.72437 38.8853 3.66421 38.8284 3.62124C38.7715 3.57828 38.7023 3.5548 38.631 3.55427H37.4889C37.457 3.55432 37.4256 3.56197 37.3973 3.57658C37.3689 3.59119 37.3445 3.61234 37.3259 3.63828C37.3074 3.66423 37.2953 3.69421 37.2907 3.72575C37.2861 3.75729 37.289 3.78948 37.2993 3.81966L38.5741 7.54769L37.3783 9.23636C37.3575 9.26599 37.345 9.3007 37.3423 9.33681C37.3396 9.37293 37.3468 9.4091 37.363 9.44149C37.3792 9.47388 37.4038 9.50129 37.4343 9.5208C37.4648 9.54031 37.5001 9.55119 37.5363 9.5523H38.691C38.745 9.55215 38.7982 9.53901 38.846 9.51399C38.8938 9.48897 38.9349 9.4528 38.9659 9.40855L42.8076 3.86389C42.8269 3.83423 42.8379 3.80001 42.8397 3.76469C42.8414 3.72938 42.8338 3.69423 42.8176 3.6628C42.8015 3.63137 42.7772 3.60478 42.7475 3.58572C42.7177 3.56667 42.6834 3.55581 42.6481 3.55427V3.55427Z" fill="#003087"/>
<path d="M55.0027 1.50227L54.017 7.77043C54.0124 7.79896 54.0141 7.82814 54.0219 7.85595C54.0297 7.88376 54.0435 7.90953 54.0623 7.93148C54.0811 7.95342 54.1044 7.97101 54.1307 7.98303C54.157 7.99505 54.1856 8.0012 54.2144 8.00106H55.2049C55.2844 8.00129 55.3614 7.97307 55.4219 7.92151C55.4825 7.86994 55.5226 7.79843 55.535 7.71988L56.5065 1.55914C56.5108 1.53058 56.5089 1.50143 56.501 1.47366C56.4931 1.44589 56.4793 1.42013 56.4606 1.39813C56.4419 1.37613 56.4187 1.35839 56.3926 1.34611C56.3664 1.33383 56.338 1.32729 56.3091 1.32693H55.2033C55.1541 1.32619 55.1064 1.3437 55.0693 1.37608C55.0323 1.40846 55.0085 1.45342 55.0027 1.50227V1.50227Z" fill="#009CDE"/>
</g>
<defs>
<clipPath id="clip0">
<rect width="72" height="24" fill="white"/>
</clipPath>
</defs>
</svg>
