<svg width="175" height="24" viewBox="0 0 175 24" fill="none" xmlns="http://www.w3.org/2000/svg">
<g clip-path="url(#clip0)">
<path d="M120.383 19.5341H117.551V4.07786H118.416C119.547 4.07786 120.678 4.09539 121.807 4.06763C122.134 4.06763 122.245 4.21377 122.356 4.45929C124.156 8.43929 125.961 12.4164 127.77 16.3905C127.82 16.5211 127.905 16.6357 128.015 16.7223V4.09247H130.816V19.5224H126.182L120.466 6.87213L120.383 6.88821V19.5341Z" fill="black"/>
<path d="M136.658 6.8458V19.5121H133.83V4.07783H134.169C135.492 4.07783 136.817 4.08514 138.141 4.07783C138.239 4.0651 138.339 4.08743 138.422 4.14089C138.505 4.19436 138.567 4.27553 138.596 4.37012C140.446 8.45631 142.303 12.5454 144.167 16.6375C144.196 16.7018 144.228 16.7646 144.313 16.9298V4.10414H147.114V19.5428C145.61 19.5428 144.129 19.5501 142.646 19.5282C142.54 19.5282 142.396 19.3367 142.336 19.2038C141.125 16.542 139.919 13.8783 138.719 11.2126C138.06 9.75115 137.401 8.29214 136.742 6.83557L136.658 6.8458Z" fill="black"/>
<path d="M91.5107 13.5259V19.5251H88.7037V4.07768H89.0743C91.2131 4.07768 93.3504 4.05868 95.4936 4.08499C96.8563 4.10252 98.1051 4.47958 99.0943 5.48797C99.7982 6.20784 100.214 7.1617 100.261 8.16825C100.317 8.83235 100.283 9.501 100.159 10.1558C99.7843 11.9095 98.5545 12.8522 96.8986 13.3301C96.7527 13.3739 96.5951 13.4061 96.3836 13.4587C97.8527 15.4813 99.3014 17.4776 100.788 19.5178C100.642 19.5295 100.537 19.5427 100.436 19.5427C99.4765 19.5427 98.5165 19.5339 97.5565 19.55C97.4568 19.5578 97.3568 19.5368 97.2686 19.4894C97.1804 19.442 97.1077 19.3702 97.0591 19.2825C95.8219 17.4806 94.5687 15.6888 93.3373 13.8825C93.2689 13.7573 93.1643 13.6557 93.0373 13.591C92.9102 13.5264 92.7667 13.5016 92.6254 13.5201C92.2723 13.5464 91.9134 13.5259 91.5107 13.5259ZM91.5268 11.0078C92.5889 11.0078 93.6203 11.0327 94.6489 10.9976C95.1438 10.9818 95.6344 10.9002 96.1078 10.755C97.0561 10.4539 97.5507 9.65016 97.488 8.64468C97.4209 7.57929 96.9044 6.89095 95.8394 6.79304C94.43 6.66589 93.0061 6.71412 91.5881 6.68927C91.5705 6.68927 91.553 6.71704 91.5224 6.74189L91.5268 11.0078Z" fill="black"/>
<path d="M162.94 4.0778C165.054 4.0778 167.144 4.0778 169.231 4.0778C169.656 4.0766 170.08 4.09953 170.502 4.14649C172.924 4.4227 174.497 6.21297 174.529 8.66089C174.545 9.93526 174.298 11.103 173.389 12.05C172.648 12.8216 171.701 13.2191 170.606 13.45L175 19.4931C174.953 19.5139 174.904 19.5286 174.854 19.5369C173.796 19.5369 172.74 19.5472 171.684 19.5282C171.606 19.5151 171.532 19.4865 171.466 19.444C171.4 19.4016 171.343 19.3462 171.299 19.2812C170.034 17.47 168.776 15.6534 167.524 13.8315C167.379 13.6079 167.217 13.4953 166.941 13.5143C166.566 13.5406 166.189 13.5143 165.765 13.5143V19.5063H162.942L162.94 4.0778ZM165.766 10.9656C167.005 10.9656 168.228 10.9948 169.447 10.951C169.87 10.9183 170.283 10.8036 170.663 10.6134C171.434 10.2539 171.815 9.45299 171.713 8.55274C171.602 7.56334 171.157 7.02992 170.237 6.79901C170.002 6.73773 169.761 6.70293 169.519 6.69525C168.328 6.67625 167.139 6.67333 165.95 6.66748C165.888 6.67273 165.827 6.6825 165.766 6.69671V10.9656Z" fill="black"/>
<path d="M7.35157 12.9955L6.25153 19.192L6.33906 19.2257C8.52747 15.9944 10.7159 12.7646 12.916 9.50122C14.4128 10.8282 15.507 12.3408 15.7565 14.343C16.2219 17.9834 13.5156 21.9425 9.14752 22.5417C4.88742 23.1306 1.36845 20.1814 0.291751 16.9794C0.080204 16.3802 0.056861 16.4913 0.583539 16.2385C2.67177 15.2379 4.75854 14.2304 6.84386 13.2162C6.99121 13.1446 7.14877 13.0847 7.35157 12.9955Z" fill="black"/>
<path d="M8.46181 10.646C8.84114 8.51379 9.21025 6.44585 9.5779 4.37645L9.51079 4.35015L2.90179 14.114C2.20879 13.5364 1.60375 12.8604 1.10584 12.1075C-0.779115 9.24598 -0.099249 5.78528 1.97391 3.53905C5.26236 -0.0224871 10.7961 0.196729 14.0058 3.99209C14.7993 4.90874 15.3754 5.99344 15.6909 7.16488L8.46181 10.646Z" fill="black"/>
<path d="M72.7209 11.9184C72.6947 13.868 72.2833 15.7036 71.0869 17.2907C69.9533 18.7901 68.4098 19.5618 66.5642 19.7664C65.4152 19.9085 64.2491 19.7952 63.1488 19.4346C61.4375 18.8501 60.1726 17.7394 59.4344 16.1011C58.114 13.1782 58.098 10.2217 59.6751 7.38504C60.9954 5.0102 63.0759 3.73875 65.826 3.81328C68.5163 3.88781 70.4406 5.27472 71.7026 7.61303C72.4047 8.93707 72.7553 10.4196 72.7209 11.9184V11.9184ZM69.8993 11.6773C69.9047 10.5082 69.5969 9.35899 69.0079 8.3496C67.4162 5.69854 63.8345 5.65762 62.2735 8.32329C61.0275 10.4497 61.0013 12.7076 62.0254 14.9246C62.7272 16.4416 64.0184 17.1679 65.6947 17.1431C67.371 17.1182 68.5717 16.313 69.2939 14.8048C69.7374 13.8768 69.8833 12.8845 69.8993 11.6773V11.6773Z" fill="black"/>
<path d="M47.0171 10.4118H53.238V4.09692H56.0232V19.5224H53.2512V12.946H47.0463V19.5312H44.2145V4.09985H47.0171V10.4118Z" fill="black"/>
<path d="M102.453 4.08801H105.296V4.51914C105.296 7.69339 105.296 10.8662 105.312 14.039C105.301 14.7505 105.518 15.4469 105.932 16.0251C106.614 16.9545 107.6 17.1811 108.672 17.1635C109.012 17.1559 109.35 17.1069 109.679 17.0174C110.897 16.6915 111.631 15.6933 111.721 14.2684C111.745 13.9045 111.756 13.5377 111.756 13.1753C111.756 10.2952 111.756 7.41377 111.756 4.53083V4.0924H114.547C114.547 4.221 114.565 4.33938 114.565 4.4563C114.565 7.62909 114.578 10.8033 114.565 13.9761C114.556 15.6071 114.127 17.0978 112.923 18.2845C112.248 18.9406 111.404 19.3959 110.486 19.5998C109.205 19.9154 107.868 19.9154 106.587 19.5998C104.352 19.0488 102.835 17.3433 102.543 15.0576C102.487 14.6116 102.458 14.1626 102.457 13.7131C102.457 10.6616 102.457 7.61009 102.457 4.5586L102.453 4.08801Z" fill="black"/>
<path d="M159.462 12.9751H152.955V16.9034H159.912V19.5238H150.1V4.10559H159.909V6.6675H152.944V10.5228H159.462V12.9751Z" fill="black"/>
<path d="M75.185 4.07791C76.7899 4.07791 78.3714 4.06329 79.9499 4.07791C80.8253 4.0896 81.7007 4.07791 82.56 4.22405C84.9103 4.65371 86.308 6.35045 86.3868 8.73406C86.4408 10.387 86.0075 11.8396 84.6565 12.9021C83.59 13.7395 82.3397 14.0435 81.0091 14.0712C80.0273 14.0902 79.0439 14.0712 78.0125 14.0712V19.5195H75.1821L75.185 4.07791ZM78.0314 6.76696V11.4304C79.0323 11.4304 80.0054 11.467 80.9712 11.4158C81.4427 11.3799 81.9044 11.2617 82.3353 11.0665C83.2573 10.6617 83.7009 9.71176 83.5535 8.60984C83.4076 7.53714 82.8795 6.88095 81.794 6.79034C80.5569 6.68804 79.3036 6.76696 78.0314 6.76696V6.76696Z" fill="black"/>
<path d="M32.2586 14.5374C32.352 14.6572 32.4337 14.7552 32.5066 14.856C33.1675 15.7636 33.9393 16.5484 35.0073 16.9634C36.0752 17.3785 37.1038 17.3638 38.0608 16.6843C39.1492 15.9097 39.1346 14.4819 37.9762 13.8242C37.2249 13.3989 36.3816 13.13 35.5631 12.8378C34.5083 12.4578 33.4652 12.0617 32.5898 11.3383C30.2847 9.43844 30.5619 6.11804 33.1617 4.59668C35.6025 3.17031 39.031 3.62336 41.1655 6.14435C41.1957 6.18311 41.2168 6.22822 41.2272 6.27631C41.2375 6.3244 41.2369 6.37422 41.2253 6.42202C40.8839 7.15274 40.5264 7.88346 40.1705 8.61418C40.1559 8.64195 40.1165 8.65803 40.0464 8.71064C39.9472 8.59811 39.8451 8.48996 39.7547 8.37451C38.9464 7.39826 38.0185 6.58863 36.7215 6.37818C35.8272 6.23203 34.9708 6.35626 34.2793 7.02121C33.5498 7.71686 33.5877 8.65949 34.3478 9.31275C35.054 9.92071 35.9162 10.2203 36.7843 10.4994C37.9091 10.8604 38.9989 11.2842 39.9706 11.9799C42.6565 13.9105 41.9124 17.3478 39.7488 18.7961C37.8522 20.0646 35.8301 20.0734 33.7672 19.2988C32.7392 18.9117 31.8237 18.2743 31.1031 17.4442C31.0606 17.3949 31.0298 17.3364 31.0131 17.2734C30.9964 17.2103 30.9943 17.1443 31.0069 17.0803C31.3716 16.2736 31.7597 15.4727 32.1434 14.6806C32.177 14.6292 32.2156 14.5812 32.2586 14.5374V14.5374Z" fill="black"/>
</g>
<defs>
<clipPath id="clip0">
<rect width="175" height="24" fill="white"/>
</clipPath>
</defs>
</svg>
