<svg width="36" height="24" viewBox="0 0 36 24" fill="none" xmlns="http://www.w3.org/2000/svg">
<path d="M1.80566 0H33.3057C34.2722 0 35.0557 0.716344 35.0557 1.6V22.4C35.0557 23.2837 34.2722 24 33.3057 24H1.80566C0.839166 24 0.0556641 23.2837 0.0556641 22.4V1.6C0.0556641 0.716344 0.839166 0 1.80566 0Z" fill="#EB6F93"/>
<mask id="mask0" style="mask-type:alpha" maskUnits="userSpaceOnUse" x="10" y="17" width="15" height="4">
<path fill-rule="evenodd" clip-rule="evenodd" d="M10.0557 17H24.2669V20.5808H10.0557V17Z" fill="white"/>
</mask>
<g mask="url(#mask0)">
<path fill-rule="evenodd" clip-rule="evenodd" d="M12.3693 19.4664C12.3693 20.1304 11.8549 20.5808 11.1805 20.5808H11.1797C10.7093 20.5808 10.3037 20.3624 10.0557 20.0264L10.5229 19.556C10.6613 19.7344 10.8885 19.9272 11.1909 19.9272C11.4733 19.9272 11.6661 19.7592 11.6661 19.4912C11.6661 19.2048 11.4389 19.1352 11.0773 19.0312C10.4125 18.8376 10.1453 18.4912 10.1453 18.0448C10.1453 17.4848 10.5725 17 11.2437 17C11.6701 17 12.0613 17.1984 12.2365 17.5848L11.6765 17.936C11.5725 17.7632 11.4237 17.6488 11.2253 17.6488C10.9925 17.6488 10.8437 17.8072 10.8437 18.0104C10.8437 18.2528 11.0573 18.3272 11.3989 18.4264C11.9341 18.5856 12.3693 18.852 12.3693 19.4664ZM16.8637 17.684V17.0504H16.7653C15.9421 17.0504 15.5413 17.5944 15.5413 18.2384V20.5168H16.2149V19.5168C16.2149 19.184 16.4725 18.9464 16.8445 18.9368V18.2928C16.5765 18.2928 16.3637 18.3728 16.2149 18.5304V18.2736C16.2149 17.8568 16.4877 17.6688 16.8637 17.684ZM22.3613 19.2928V18.7088C22.5101 18.8672 22.7229 18.9464 22.9901 18.9464V18.304C22.6237 18.2936 22.3613 18.0512 22.3613 17.724V17.348H21.6869V19.328C21.6869 19.9728 22.0885 20.5168 22.9109 20.5168H23.0101V19.8824C22.6341 19.8984 22.3613 19.7096 22.3613 19.2928ZM23.8157 20.5568C24.0637 20.5568 24.2669 20.3536 24.2669 20.1056C24.2655 19.8571 24.0642 19.6561 23.8157 19.6552C23.5673 19.6561 23.3661 19.8572 23.3653 20.1056C23.3653 20.3536 23.5685 20.5568 23.8157 20.5568ZM20.6437 18.12V18.392C20.7781 18.1744 20.9957 18.0696 21.3029 18.08V18.8032C20.8973 18.8032 20.6637 19.0256 20.6637 19.4224V20.5168H19.9909V18.12H20.6437ZM18.3325 19.9472C18.4986 19.9481 18.6581 19.8818 18.7747 19.7634C18.8913 19.645 18.9551 19.4845 18.9517 19.3184C18.9553 19.1521 18.8916 18.9914 18.775 18.8729C18.6584 18.7543 18.4988 18.6879 18.3325 18.6888C18.1661 18.6877 18.0063 18.754 17.8897 18.8726C17.773 18.9912 17.7094 19.1521 17.7133 19.3184C17.7133 19.6744 17.9853 19.9472 18.3325 19.9472ZM17.0397 19.3184C17.0397 20.0128 17.6189 20.5808 18.3325 20.5808C19.0453 20.5808 19.6253 20.012 19.6253 19.3184C19.6253 18.6256 19.0453 18.0552 18.3325 18.0552C17.6189 18.0552 17.0397 18.6256 17.0397 19.3184ZM14.3462 19.7639C14.2296 19.8825 14.07 19.9489 13.9037 19.948V19.9472C13.5573 19.9472 13.2845 19.6744 13.2845 19.3184C13.2808 19.1521 13.3445 18.9914 13.4611 18.8729C13.5777 18.7543 13.7374 18.6879 13.9037 18.6888C14.07 18.6879 14.2296 18.7543 14.3462 18.8729C14.4628 18.9914 14.5265 19.1521 14.5229 19.3184C14.5265 19.4847 14.4628 19.6454 14.3462 19.7639ZM13.9037 20.5808C13.1901 20.5808 12.6109 20.0128 12.6109 19.3184C12.6109 18.6256 13.1901 18.0552 13.9037 18.0552C14.6165 18.0552 15.1965 18.6256 15.1965 19.3184C15.1965 20.012 14.6165 20.5808 13.9037 20.5808Z" fill="white"/>
</g>
<path fill-rule="evenodd" clip-rule="evenodd" d="M17.3149 15.8818C15.4965 15.8482 13.9709 14.5106 13.9213 12.6098L13.5045 12.197C12.9885 11.6778 12.9045 10.9618 13.3197 10.5354L13.3629 10.4882C13.5413 10.305 13.7749 10.2058 14.0141 10.1922C13.7253 9.62423 13.8157 9.00183 14.2637 8.69463L14.3277 8.65223C14.8149 8.36903 15.2397 8.47863 15.6021 8.83863L15.1853 5.41143C15.0437 4.81543 15.4109 4.16343 15.9677 4.04503C16.2525 3.98403 16.5498 4.03928 16.7936 4.19852C17.0374 4.35776 17.2075 4.60778 17.2661 4.89303L17.9757 7.92663L18.8757 4.84343C19.0357 4.24263 19.6509 3.88023 20.2629 4.03623C20.8117 4.19863 21.1405 4.75543 21.0213 5.30983L20.0293 10.249L20.4549 10.3482C20.5797 10.3658 20.7405 10.4394 20.8925 10.6026C21.1701 10.8986 21.3053 11.389 21.2445 12.1034C21.0517 14.3994 19.9205 15.9058 17.3317 15.8826H17.3149V15.8818ZM17.3973 15.4242C19.6565 15.4202 20.6133 14.1306 20.7861 12.0642C20.8373 11.4698 20.7381 11.1082 20.5573 10.9154C20.5191 10.874 20.4735 10.8401 20.4229 10.8154C20.4062 10.8076 20.3884 10.8022 20.3701 10.7994L17.6885 10.173C17.6606 10.1656 17.6323 10.1597 17.6037 10.1554C17.4613 10.1273 17.3148 10.1276 17.1725 10.1562C16.9728 10.1905 16.8129 10.3407 16.7661 10.5378C16.6757 10.8386 16.6821 11.0682 16.8717 11.253C16.9203 11.2698 16.9617 11.3025 16.9893 11.3458C17.1229 11.4338 17.3109 11.5106 17.5645 11.5794L19.3309 11.9738C19.6253 12.0394 19.5349 12.4786 19.2389 12.4234L19.1813 12.4162C18.9434 12.3886 18.7022 12.416 18.4765 12.4962C18.0445 12.6602 17.7781 13.0306 17.7437 13.7186C17.7396 13.8007 17.692 13.8742 17.6189 13.9117C17.5458 13.9491 17.4582 13.9447 17.3893 13.9001C17.3203 13.8555 17.2804 13.7775 17.2845 13.6954C17.3213 12.937 17.6189 12.4354 18.0957 12.169L17.4541 12.025C17.2596 11.9743 17.0711 11.903 16.8917 11.8122C16.8171 11.9277 16.7203 12.0272 16.6069 12.105L16.5549 12.1386C16.5245 12.1594 16.4933 12.1786 16.4613 12.1946C16.6707 12.5899 16.6023 13.0751 16.2917 13.397L16.2461 13.445C15.8473 13.8524 15.1943 13.8613 14.7845 13.465L14.4405 13.1242C14.7221 14.501 15.9501 15.4234 17.3845 15.4234H17.3973V15.4242ZM20.5709 5.21623L19.5813 10.1442L17.8045 9.72903C17.5658 9.66487 17.3153 9.65775 17.0733 9.70823C16.8293 9.76183 16.6261 9.88423 16.4837 10.0786L16.1557 9.59063L15.6397 5.34263L15.6341 5.31383C15.5453 4.95783 15.7669 4.55703 16.0637 4.49383C16.2295 4.45868 16.4025 4.49134 16.5441 4.58451C16.6856 4.67769 16.784 4.82364 16.8173 4.98983L17.7261 8.87703C17.7382 8.93017 17.7688 8.97726 17.8125 9.00983C17.8726 9.05627 17.9518 9.06988 18.0239 9.04615C18.0961 9.02243 18.1517 8.96446 18.1725 8.89143L19.3189 4.96663C19.4123 4.60555 19.7796 4.38758 20.1413 4.47863C20.4545 4.5754 20.6413 4.89606 20.5709 5.21623ZM16.2789 10.5962L15.7717 9.84183C15.7517 9.8215 15.7357 9.79763 15.7245 9.77143L15.4917 9.42503C15.1965 8.99463 14.9077 8.84663 14.5701 9.04183L14.5221 9.07463C14.2581 9.25543 14.2213 9.69303 14.4957 10.1082L15.4997 11.6034C15.6787 11.866 16.0362 11.9346 16.2997 11.757L16.3477 11.725C16.4174 11.6773 16.4756 11.6147 16.5181 11.5418C16.2685 11.2818 16.2077 10.9618 16.2781 10.5962H16.2789ZM15.1189 11.861C15.3149 12.1492 15.6424 12.3199 15.9909 12.3154C16.1762 12.541 16.1627 12.8697 15.9597 13.0794L15.9165 13.1258C15.6949 13.3512 15.3331 13.3562 15.1053 13.137L13.8285 11.8722C13.4773 11.5186 13.4261 11.0834 13.6501 10.8546L13.6949 10.8066C13.8751 10.6224 14.163 10.5979 14.3717 10.749L15.1189 11.861Z" fill="white"/>
</svg>
