<svg width="36" height="24" viewBox="0 0 36 24" fill="none" xmlns="http://www.w3.org/2000/svg">
<path d="M8.12581 2H15.8632C16.9434 2 17.6147 2.908 17.3628 4.026L13.761 19.977C13.5053 21.092 12.4242 22 11.344 22H3.60756C2.52935 22 1.8551 21.092 2.10697 19.977L5.71072 4.026C5.96356 2.908 7.04372 2 8.12678 2" fill="#E21836"/>
<path d="M15.22 2H24.117C25.1971 2 24.7098 2.908 24.456 4.026L20.8542 19.977C20.6023 21.092 20.6798 22 19.5977 22H10.6998C9.61768 22 8.94828 21.092 9.20209 19.977L12.8039 4.026C13.0597 2.908 14.1388 2 15.22 2Z" fill="#00447C"/>
<path d="M23.7643 2H31.5017C32.5829 2 33.2552 2.908 33.0014 4.026L29.3995 19.977C29.1448 21.092 28.0627 22 26.9806 22H19.2461C18.165 22 17.4926 21.092 17.7465 19.977L21.3492 4.026C21.6021 2.908 22.6822 2 23.7643 2Z" fill="#007B84"/>
<path fill-rule="evenodd" clip-rule="evenodd" d="M21.5808 12.477L21.7736 11.55C21.7736 11.55 21.9131 10.969 21.9218 10.947C21.9218 10.947 21.9654 10.887 22.009 10.863H22.0748C22.6852 10.863 23.373 10.863 23.9135 10.468C24.2807 10.198 24.5316 9.79799 24.644 9.31299C24.673 9.19399 24.6943 9.05299 24.6943 8.91099C24.7023 8.72794 24.6509 8.54738 24.5481 8.39799C24.2729 8.01499 23.7246 8.00799 23.0911 8.00499L22.7801 8.00799C21.9692 8.01799 21.6447 8.01499 21.511 7.99899L21.4781 8.16099L21.1875 9.49899L20.4609 12.472C21.1681 12.464 21.4587 12.464 21.5808 12.477ZM22.4255 8.77799L22.1184 10.105L22.1049 10.171H22.2725C22.5321 10.171 22.783 10.163 22.9874 10.061C23.2462 9.93036 23.4334 9.68527 23.496 9.39499C23.5687 9.07099 23.466 8.82199 23.2141 8.72499L22.5631 8.66999L22.4401 8.65699L22.4352 8.70899L22.4255 8.77799ZM30.1484 9.86999L30.1126 9.82999C29.6495 9.92199 29.5662 9.93699 29.1409 9.99399L29.1099 10.025L29.1051 10.045L29.1031 10.038C28.9307 10.4326 28.855 10.5659 28.7803 10.6975C28.7177 10.8077 28.6558 10.9168 28.5383 11.177L28.5354 11.107L28.4715 9.86999L28.4308 9.82999C28.2951 9.85577 28.1965 9.8755 28.115 9.8918C27.9057 9.93369 27.8094 9.95296 27.4873 9.99399L27.4524 10.025C27.4492 10.0347 27.4481 10.0449 27.447 10.0557C27.4463 10.0616 27.4456 10.0677 27.4446 10.074L27.4475 10.08C27.4919 10.3042 27.4928 10.3115 27.5188 10.5254L27.5188 10.5257L27.519 10.5269L27.5192 10.529C27.5261 10.5855 27.5347 10.6563 27.5463 10.749C27.5597 10.8616 27.5754 10.9743 27.591 11.0865L27.5911 11.0867L27.5911 11.0869C27.606 11.1937 27.6208 11.3002 27.6335 11.406L27.6548 11.5825C27.6865 11.8438 27.711 12.0456 27.7566 12.503C27.629 12.7112 27.5426 12.8652 27.4636 13.0059L27.4635 13.006L27.4635 13.0061C27.3547 13.1998 27.2599 13.3686 27.091 13.62L27.093 13.625L26.8886 13.946C26.8653 13.98 26.844 14.003 26.814 14.013C26.7712 14.0289 26.7256 14.0354 26.6803 14.032H26.566L26.3974 14.589L26.9767 14.599C27.3158 14.598 27.5289 14.439 27.6452 14.229L28.0084 13.609H28.0036L28.0414 13.565C28.2855 13.042 30.1484 9.86999 30.1484 9.86999ZM15.9465 14.032L16.1926 13.59V13.591H17.1604L16.9908 13.911H17.9654L17.7891 14.499H16.4571L16.3127 14.623C16.2761 14.6584 16.2537 14.6646 16.2247 14.6725C16.2046 14.678 16.1814 14.6844 16.148 14.702C16.0734 14.739 15.9155 14.813 15.7102 14.813H15.2839L15.4563 14.248H15.5842C15.6589 14.2547 15.7341 14.2437 15.8041 14.216C15.8646 14.1667 15.9133 14.1037 15.9465 14.032ZM18.1592 17.337C18.1359 17.305 18.1524 17.247 18.1873 17.129L18.5505 15.933H19.8458L19.8619 15.9327H19.862C20.0425 15.9299 20.1738 15.9278 20.2594 15.921C20.3689 15.9073 20.4748 15.872 20.5713 15.817C20.6631 15.77 20.741 15.6985 20.7971 15.61C20.8533 15.533 20.9433 15.366 21.0208 15.107L21.4781 13.594L20.1344 13.601C20.1344 13.601 19.7208 13.661 19.5387 13.729C19.3546 13.803 19.093 14.012 19.093 14.012L19.2141 13.597H18.3839L17.2214 17.423C17.1891 17.528 17.1642 17.6353 17.1468 17.744C17.1442 17.806 17.2155 17.8673 17.2729 17.9166L17.2941 17.935C17.3493 17.9762 17.4252 17.9797 17.5034 17.9834C17.524 17.9844 17.5447 17.9853 17.5653 17.987C17.669 17.995 17.8162 18 18.0206 18H18.6581L18.8538 17.343L18.2822 17.397C18.2343 17.3979 18.1888 17.3757 18.1592 17.337ZM19.0582 14.222H20.4299L20.3311 14.547C20.3311 14.547 19.6849 14.541 19.5813 14.559C19.126 14.637 18.8596 14.879 18.8596 14.879L19.0582 14.222ZM20.0899 16.295C20.0819 16.3284 20.0627 16.3579 20.0356 16.378C20.0085 16.395 19.9639 16.402 19.8971 16.402H19.7033L19.715 16.074H18.909L18.876 17.676C18.8751 17.792 18.8857 17.858 18.971 17.912C19.0562 17.979 19.3197 17.987 19.6723 17.987H20.1771L20.3592 17.387L19.9194 17.412L19.7741 17.42C19.7514 17.4123 19.7306 17.3997 19.713 17.383C19.7094 17.3794 19.7053 17.377 19.701 17.3745C19.6838 17.3644 19.6646 17.3531 19.6685 17.26L19.6723 16.85L20.1335 16.83C20.3824 16.83 20.488 16.75 20.5791 16.674C20.6663 16.6 20.6953 16.516 20.7273 16.402L20.8048 16.039H20.1703L20.0889 16.295H20.0899ZM20.1461 15.125H18.7869H18.7859L18.7017 15.397H19.8797C19.9743 15.3854 20.0179 15.391 20.0397 15.3939C20.0498 15.3952 20.0552 15.3959 20.0589 15.394L20.1461 15.125ZM16.0812 17.326L16.3176 16.546H17.2892L17.4665 15.966H16.4948L16.6431 15.485H17.5924L17.7688 14.923H15.3924L15.22 15.485H15.7596L15.6162 15.965H15.0737L14.8945 16.555H15.4341L15.1202 17.588C15.0836 17.7029 15.122 17.758 15.1582 17.81C15.1652 17.82 15.1721 17.8298 15.1783 17.84C15.2164 17.9057 15.2798 17.9515 15.3527 17.966C15.4486 17.987 15.5135 18 15.6017 18H16.6963L16.892 17.357L16.4067 17.423C16.3127 17.423 16.0531 17.412 16.0812 17.326ZM25.6437 15.344H24.6314L24.8038 14.768H27.6209L27.4456 15.344H26.5011L26.3538 15.812H27.3013L27.1433 16.324H26.1203L25.9373 16.539H26.3538L26.4546 17.184C26.4577 17.2009 26.46 17.2163 26.462 17.2304C26.4677 17.2689 26.4719 17.2972 26.4875 17.317C26.5088 17.34 26.6338 17.352 26.7064 17.352H26.8324L26.6396 17.979H26.3199C26.2853 17.979 26.2392 17.977 26.1794 17.9745H26.1794H26.1794L26.0952 17.971C26.0248 17.9651 25.9694 17.9328 25.919 17.9034L25.9189 17.9034C25.9013 17.8932 25.8843 17.8833 25.8675 17.875C25.8084 17.847 25.7212 17.776 25.6999 17.656L25.5992 17.013L25.1342 17.647C24.9869 17.847 24.7873 18 24.4483 18H23.7973L23.9678 17.44H24.2167C24.2805 17.4374 24.3429 17.4196 24.3989 17.388C24.4555 17.3664 24.5038 17.3264 24.5364 17.274L25.2165 16.324H24.3185L24.4735 15.812H25.4984L25.6437 15.344ZM22.9409 17.196H22.2386L22.442 16.526H23.1424L22.9409 17.196ZM22.968 15.961C23.1133 15.928 23.3323 15.901 23.3323 15.901L23.5028 15.344H22.7995L22.5583 16.138C22.5583 16.138 22.8256 16.003 22.968 15.961ZM23.3197 14.811C23.1782 14.85 22.9157 14.967 22.9157 14.967L23.1482 14.204H23.8496L23.6801 14.76C23.6801 14.76 23.464 14.773 23.3197 14.81V14.811ZM23.7934 17.189H24.0395L23.8496 17.804H23.6074L23.5493 17.994H22.6842L22.7423 17.804H20.9889L21.1632 17.234H21.3425L22.2628 14.204L22.4459 13.594H23.3274L23.2354 13.901C23.2354 13.901 23.4698 13.734 23.6927 13.677C23.8777 13.629 24.7873 13.605 25.0915 13.599V13.597H26.0332L26.0428 13.945C26.037 14.004 26.0874 14.032 26.1978 14.032H26.3887L26.2133 14.606H25.7048C25.2649 14.637 25.0973 14.45 25.1099 14.239L25.1003 13.897L25.0043 14.204H24.7021L23.7934 17.189ZM25.5343 10.49C25.2359 10.49 25.1216 10.849 25.0208 11.275C24.9841 11.4126 24.9636 11.5543 24.9598 11.697C24.9666 11.967 25.1506 11.967 25.1797 11.967C25.2853 11.967 25.4674 11.9 25.5439 11.792C25.5907 11.7244 25.6278 11.6504 25.6544 11.572C25.6647 11.53 25.6753 11.4881 25.6858 11.4462C25.7069 11.3624 25.728 11.2787 25.7474 11.194C25.7644 11.1245 25.7783 11.0615 25.7916 11.0012L25.7916 11.0011L25.8016 10.956C25.822 10.662 25.7222 10.49 25.5343 10.49ZM24.0395 11.254C23.9581 11.599 23.8641 12.229 24.4454 12.454C24.6294 12.532 24.7961 12.555 24.9646 12.547C25.1429 12.537 25.3085 12.449 25.4616 12.321L25.4199 12.478L25.4461 12.512C25.8646 12.495 25.9934 12.495 26.4468 12.498L26.4875 12.468L26.4911 12.447C26.5557 12.0673 26.6195 11.6926 26.7878 10.968C26.8711 10.615 26.9544 10.264 27.0407 9.91299L27.0271 9.87399C26.5602 9.95999 26.4352 9.97799 25.9857 10.042L25.9518 10.069L25.9373 10.174C25.8602 10.0494 25.7449 9.95508 25.6098 9.90599C25.4102 9.82799 24.9414 9.92899 24.5364 10.293C24.2526 10.554 24.117 10.911 24.0395 11.253V11.254ZM18.3878 12.426L18.3548 12.46H18.3539C17.9693 12.454 17.8366 12.454 17.3909 12.477L17.3716 12.439C17.446 12.1387 17.519 11.838 17.5905 11.537C17.7765 10.723 17.8191 10.411 17.8714 9.99699L17.9053 9.97299L17.9793 9.96274C18.3515 9.91115 18.4729 9.89433 18.9138 9.80499L18.9506 9.84899L18.8828 10.108L18.8942 10.1011C18.968 10.0563 19.0426 10.011 19.1173 9.97299C19.3372 9.86499 19.5842 9.83299 19.7198 9.83299C19.9233 9.83299 20.149 9.88999 20.2458 10.125C20.333 10.337 20.2739 10.595 20.1558 11.105L20.0967 11.366C19.9736 11.933 19.9562 12.036 19.8903 12.426L19.8448 12.46C19.4689 12.454 19.3401 12.454 18.9012 12.477L18.8848 12.444C18.9048 12.3552 18.9263 12.2678 18.9478 12.1802L18.9478 12.1802C18.9668 12.103 18.9858 12.0257 19.0039 11.947L19.0553 11.721C19.1366 11.369 19.2161 10.96 19.2238 10.834L19.2242 10.8309C19.2332 10.7549 19.2548 10.572 19.0436 10.572C18.9513 10.572 18.86 10.6144 18.7649 10.6586L18.7598 10.661C18.7208 10.803 18.6489 11.1404 18.5936 11.3997L18.5936 11.3998L18.5936 11.3998L18.5935 11.3999L18.5935 11.4L18.5935 11.4003L18.5934 11.4005L18.5932 11.4016L18.5928 11.4032C18.5756 11.484 18.56 11.5571 18.5476 11.614C18.4624 12.0209 18.4409 12.1377 18.4113 12.2987L18.4113 12.2987L18.4113 12.2987L18.3878 12.426ZM15.6443 11.229C15.7431 10.796 15.8593 10.432 16.1577 10.432C16.3902 10.432 16.4067 10.702 16.303 11.137C16.2837 11.234 16.1994 11.592 16.0841 11.745C16.0047 11.858 15.9097 11.926 15.8041 11.926C15.7731 11.926 15.5871 11.926 15.5842 11.652C15.588 11.509 15.6082 11.3671 15.6443 11.229ZM16.8736 12.052C16.5443 12.399 16.1054 12.516 15.6782 12.516C15.5106 12.516 15.251 12.495 15.0708 12.418C14.4866 12.183 14.5796 11.553 14.661 11.203C14.7404 10.859 14.8732 10.501 15.1609 10.237C15.561 9.86999 16.0725 9.84899 16.2885 9.84899C16.646 9.84899 16.9908 9.92899 17.1856 10.177C17.3144 10.339 17.4161 10.606 17.2853 11.178C17.2447 11.351 17.1284 11.77 16.8736 12.052ZM14.3994 9.64699C14.1883 9.52299 13.8172 9.56299 13.5673 9.73399C13.3183 9.90099 13.2902 10.139 13.5004 10.264C13.7087 10.385 14.0817 10.349 14.3287 10.177C14.5777 10.006 14.6087 9.76899 14.3994 9.64699ZM14.2902 10.3868L14.3946 10.367L14.4033 10.386L14.4091 10.408C14.3905 10.4865 14.3712 10.5648 14.3518 10.6435L14.3517 10.6437L14.3517 10.6438L14.3516 10.644C14.3275 10.7414 14.3033 10.8395 14.2803 10.939C14.2625 11.0156 14.2441 11.0916 14.2258 11.1673L14.2258 11.1675L14.2258 11.1676C14.2013 11.2688 14.177 11.3694 14.1543 11.47C14.1234 11.6089 14.0993 11.7157 14.0802 11.8003L14.0801 11.8004L14.0801 11.8005C14.0478 11.9433 14.0299 12.0226 14.0178 12.086C14.0055 12.1434 13.9988 12.1851 13.9882 12.2517L13.9882 12.2518L13.9882 12.2519C13.9813 12.2955 13.9726 12.3497 13.9596 12.426L13.9383 12.444L13.918 12.459C13.8354 12.459 13.7635 12.4583 13.6986 12.4577H13.6986H13.6985C13.5859 12.4567 13.4942 12.4558 13.4045 12.459C13.274 12.4599 13.146 12.466 12.96 12.4749L12.9599 12.4749L12.9599 12.4749L12.9163 12.477L12.9047 12.459L12.8921 12.439C12.945 12.2399 12.9747 12.1617 13.0018 12.0901L13.0018 12.0901L13.0083 12.073C13.0374 11.996 13.0635 11.92 13.1149 11.701C13.1673 11.4838 13.2116 11.2647 13.2476 11.044C13.2709 10.92 13.2855 10.8099 13.3006 10.695C13.3063 10.6523 13.312 10.609 13.3183 10.564L13.3348 10.551L13.3522 10.536C13.577 10.504 13.7203 10.483 13.8657 10.46C13.9904 10.444 14.1152 10.4202 14.2902 10.3868ZM12.2692 9.83299C12.1355 9.83299 11.8884 9.86599 11.6685 9.97299C11.6078 10.0029 11.5502 10.0372 11.4915 10.0722C11.4716 10.0841 11.4516 10.0961 11.4312 10.108L11.5038 9.84899L11.4641 9.80499C11.019 9.89517 10.9013 9.91146 10.5201 9.96421L10.5201 9.96421L10.4566 9.97299L10.4198 9.99699C10.3694 10.411 10.3258 10.723 10.1389 11.537C10.0682 11.837 9.99356 12.14 9.91994 12.439L9.93931 12.477C10.3849 12.454 10.5196 12.454 10.9052 12.46L10.9362 12.426C10.9477 12.3667 10.9569 12.3182 10.9656 12.2719C10.9936 12.1237 11.0174 11.9978 11.1008 11.613L11.1289 11.4783C11.184 11.2135 11.2662 10.818 11.3101 10.661C11.3976 10.6121 11.4939 10.5821 11.593 10.573C11.8022 10.573 11.7833 10.7485 11.7749 10.8267L11.7741 10.834C11.7644 10.96 11.686 11.369 11.6046 11.721L11.5513 11.947C11.5319 12.0333 11.5117 12.1181 11.4915 12.2028L11.4915 12.2028C11.4725 12.2829 11.4534 12.3629 11.4351 12.444L11.4515 12.477C11.8884 12.454 12.0231 12.454 12.3961 12.46L12.4406 12.426C12.5084 12.037 12.5278 11.933 12.647 11.366L12.708 11.105L12.7087 11.1018L12.7087 11.1018C12.8245 10.5939 12.8832 10.3366 12.7952 10.125C12.7012 9.88999 12.4755 9.83299 12.2692 9.83299ZM9.30284 8.00799C9.3755 8.02499 9.60122 8.03299 10.3685 8.02499L10.3675 8.02699C10.3636 8.03499 10.3617 8.04299 10.3578 8.05999C10.2629 8.35099 9.70391 10.592 9.70391 10.592L9.64191 10.833L9.64089 10.8365C9.50553 11.3066 9.35372 11.8338 8.77778 12.173C8.4455 12.375 7.95338 12.486 7.42831 12.486C7.02047 12.486 6.29972 12.42 6.04784 11.982C5.96841 11.844 5.92966 11.68 5.92966 11.48L6.02169 10.803L6.06916 10.597L6.62328 8.16499C6.62328 8.16499 6.64944 8.03099 6.65622 8.00799C6.66978 8.02499 6.85772 8.03499 7.91366 8.02499C7.91318 8.02698 7.91275 8.02896 7.9123 8.03109C7.91094 8.03752 7.90931 8.04521 7.90494 8.05799C7.80806 8.34299 7.26556 10.501 7.26556 10.501L7.16191 11.145L7.16772 11.255C7.20163 11.573 7.40022 11.74 7.73928 11.74C7.9386 11.7452 8.13336 11.6779 8.28953 11.55C8.56466 11.329 8.64506 10.988 8.75647 10.508C8.75841 10.508 9.27572 8.13899 9.30284 8.00799Z" fill="#FEFEFE"/>
<path fill-rule="evenodd" clip-rule="evenodd" d="M33.0552 0.5H2.05518C1.22675 0.5 0.555176 1.17157 0.555176 2V22C0.555176 22.8284 1.22675 23.5 2.05518 23.5H33.0552C33.8836 23.5 34.5552 22.8284 34.5552 22V2C34.5552 1.17157 33.8836 0.5 33.0552 0.5ZM2.05518 0C0.950606 0 0.0551758 0.89543 0.0551758 2V22C0.0551758 23.1046 0.950606 24 2.05518 24H33.0552C34.1597 24 35.0552 23.1046 35.0552 22V2C35.0552 0.895431 34.1597 0 33.0552 0H2.05518Z" fill="#D8D8D8"/>
<path d="M2.05518 0.5H33.0552V-0.5H2.05518V0.5ZM34.5552 2V22H35.5552V2H34.5552ZM33.0552 23.5H2.05518V24.5H33.0552V23.5ZM0.555176 22V2H-0.444824V22H0.555176ZM2.05518 23.5C1.22675 23.5 0.555176 22.8284 0.555176 22H-0.444824C-0.444824 23.3807 0.674464 24.5 2.05518 24.5V23.5ZM34.5552 22C34.5552 22.8284 33.8836 23.5 33.0552 23.5V24.5C34.4359 24.5 35.5552 23.3807 35.5552 22H34.5552ZM33.0552 0.5C33.8836 0.5 34.5552 1.17157 34.5552 2H35.5552C35.5552 0.619288 34.4359 -0.5 33.0552 -0.5V0.5ZM2.05518 -0.5C0.674464 -0.5 -0.444824 0.619288 -0.444824 2H0.555176C0.555176 1.17157 1.22675 0.5 2.05518 0.5V-0.5Z" fill="#D8D8D8"/>
</svg>
