<svg width="36" height="24" viewBox="0 0 36 24" fill="none" xmlns="http://www.w3.org/2000/svg">
<path fill-rule="evenodd" clip-rule="evenodd" d="M16.0357 15.4892H14.1889L15.3441 8.53331H17.1907L16.0357 15.4892Z" fill="#0742A6"/>
<path fill-rule="evenodd" clip-rule="evenodd" d="M22.7305 8.70337C22.3663 8.56262 21.7885 8.40723 21.0741 8.40723C19.2503 8.40723 17.966 9.35436 17.9582 10.7085C17.943 11.7075 18.8777 12.2624 19.5767 12.5956C20.2912 12.936 20.5341 13.1581 20.5341 13.4616C20.5268 13.9276 19.9567 14.1424 19.425 14.1424C18.6877 14.1424 18.2926 14.0316 17.6923 13.7724L17.4491 13.6612L17.1906 15.2227C17.6238 15.4148 18.4218 15.5854 19.2503 15.5929C21.1881 15.5929 22.4497 14.6604 22.4646 13.2174C22.472 12.4255 21.9785 11.8188 20.9144 11.323C20.2685 11.0047 19.8729 10.7901 19.8729 10.4645C19.8805 10.1684 20.2075 9.8652 20.9367 9.8652C21.537 9.85035 21.9782 9.9909 22.3123 10.1315L22.4794 10.2054L22.7305 8.70337Z" fill="#0742A6"/>
<path fill-rule="evenodd" clip-rule="evenodd" d="M26.0362 8.53331H27.4647L28.9546 15.4891H27.2447C27.2447 15.4891 27.0773 14.6899 27.0243 14.4457H24.6532C24.5846 14.6306 24.2656 15.4891 24.2656 15.4891H22.3278L25.071 9.11044C25.261 8.659 25.5957 8.53331 26.0362 8.53331ZM25.9224 11.0788C25.9224 11.0788 25.3372 12.6254 25.1851 13.025H26.7201C26.6442 12.6772 26.2945 11.0122 26.2945 11.0122L26.1654 10.4128C26.111 10.5672 26.0324 10.7794 25.9794 10.9225C25.9435 11.0195 25.9193 11.0848 25.9224 11.0788Z" fill="#0742A6"/>
<path fill-rule="evenodd" clip-rule="evenodd" d="M12.6464 8.53331L10.8378 13.2766L10.6402 12.3146C10.3058 11.2046 9.25712 9.99857 8.08685 9.39891L9.74349 15.4818H11.6964L14.5993 8.53331H12.6464V8.53331Z" fill="#0742A6"/>
<path fill-rule="evenodd" clip-rule="evenodd" d="M9.15833 8.53331H6.18701L6.15662 8.67386C8.47443 9.25109 10.0095 10.6425 10.6402 12.3149L9.99422 9.11802C9.88788 8.67376 9.56108 8.54796 9.15833 8.53331Z" fill="#0742A6"/>
<path fill-rule="evenodd" clip-rule="evenodd" d="M33.0557 0.5H2.05566C1.22724 0.5 0.555664 1.17157 0.555664 2V22C0.555664 22.8284 1.22724 23.5 2.05566 23.5H33.0557C33.8841 23.5 34.5557 22.8284 34.5557 22V2C34.5557 1.17157 33.8841 0.5 33.0557 0.5ZM2.05566 0C0.951095 0 0.0556641 0.89543 0.0556641 2V22C0.0556641 23.1046 0.951095 24 2.05566 24H33.0557C34.1602 24 35.0557 23.1046 35.0557 22V2C35.0557 0.895431 34.1602 0 33.0557 0H2.05566Z" fill="#D8D8D8"/>
</svg>
