<svg width="25" height="25" viewBox="0 0 25 25" fill="none" xmlns="http://www.w3.org/2000/svg">
<g id="Type=default">
<g id="close">
<path id="Path 9" fill-rule="evenodd" clip-rule="evenodd" d="M6.14645 6.14645C6.32001 5.97288 6.58944 5.9536 6.78431 6.08859L6.85355 6.14645L18.8536 18.1464C19.0488 18.3417 19.0488 18.6583 18.8536 18.8536C18.68 19.0271 18.4106 19.0464 18.2157 18.9114L18.1464 18.8536L6.14645 6.85355C5.95118 6.65829 5.95118 6.34171 6.14645 6.14645Z" fill="black"/>
<path id="Path 9_2" fill-rule="evenodd" clip-rule="evenodd" d="M18.8536 6.14645C18.68 5.97288 18.4106 5.9536 18.2157 6.08859L18.1464 6.14645L6.14645 18.1464C5.95118 18.3417 5.95118 18.6583 6.14645 18.8536C6.32001 19.0271 6.58944 19.0464 6.78431 18.9114L6.85355 18.8536L18.8536 6.85355C19.0488 6.65829 19.0488 6.34171 18.8536 6.14645Z" fill="black"/>
</g>
</g>
</svg>
