<svg width="24" height="24" viewBox="0 0 24 24" fill="none" xmlns="http://www.w3.org/2000/svg">
<path d="M20.7955 22.0364C20.7955 21.7091 20.6864 21.2727 20.6864 20.9455C20.4682 19.6364 20.1409 18.5455 19.7045 17.4545C18.6136 14.9455 16.7591 13.2 14.3591 12.4364C16.5409 11.3455 18.0682 9.16364 18.0682 6.54545C18.0682 2.94545 15.1227 0 11.5227 0C7.92273 0 4.97727 2.94545 4.97727 6.54545C4.97727 9.16364 6.50455 11.3455 8.68636 12.4364C6.17727 13.2 4.43182 14.8364 3.34091 17.4545C2.90455 18.5455 2.57727 19.6364 2.35909 20.9455C2.25 21.3818 2.25 21.7091 2.25 22.0364C2.25 22.2545 2.25 22.3636 2.25 22.4727V24H20.7955V22.4727C20.7955 22.3636 20.7955 22.2545 20.7955 22.0364ZM6.06818 6.54545C6.06818 3.49091 8.46818 1.09091 11.5227 1.09091C14.5773 1.09091 16.9773 3.49091 16.9773 6.54545C16.9773 9.6 14.5773 12 11.5227 12C8.46818 12 6.06818 9.6 6.06818 6.54545ZM19.5955 22.9091H3.45V22.4727C3.45 22.3636 3.45 22.2545 3.45 22.0364C3.45 21.7091 3.45 21.3818 3.55909 20.9455C3.66818 19.8545 3.99545 18.7636 4.43182 17.7818C5.63182 14.9455 7.92273 13.0909 11.5227 13.0909C15.1227 13.0909 17.4136 14.9455 18.6136 17.8909C19.05 18.8727 19.3773 19.9636 19.4864 21.0545C19.4864 21.3818 19.5955 21.8182 19.5955 22.1455C19.5955 22.3636 19.5955 22.4727 19.5955 22.5818V22.9091Z" fill="#010101"/>
</svg>
