<svg width="25" height="24" viewBox="0 0 25 24" fill="none" xmlns="http://www.w3.org/2000/svg">
<g id="Account">
<g id="icon">
<path id="Oval 5" fill-rule="evenodd" clip-rule="evenodd" d="M12.75 11.7917C14.706 11.7917 16.2917 10.206 16.2917 8.25C16.2917 6.29399 14.706 4.70833 12.75 4.70833C10.794 4.70833 9.20833 6.29399 9.20833 8.25C9.20833 10.206 10.794 11.7917 12.75 11.7917ZM12.75 12.5C10.4028 12.5 8.5 10.5972 8.5 8.25C8.5 5.90279 10.4028 4 12.75 4C15.0972 4 17 5.90279 17 8.25C17 10.5972 15.0972 12.5 12.75 12.5Z" fill="black"/>
<path id="Path" fill-rule="evenodd" clip-rule="evenodd" d="M12.7497 12.7273C10.1626 12.7273 8.48442 13.927 7.56608 15.8967C7.24923 16.5764 7.04647 17.3013 6.93395 18.0257C6.89459 18.279 6.86928 18.5145 6.85518 18.7263C6.84663 18.8548 6.84375 18.948 6.84375 19L6.84377 19.2727H18.6562V19C18.6562 18.948 18.6534 18.8548 18.6448 18.7263C18.6307 18.5144 18.6053 18.279 18.566 18.0256C18.4534 17.3013 18.2506 16.5763 17.9336 15.8967C17.0151 13.927 15.3369 12.7273 12.7497 12.7273ZM12.7497 12C15.5932 12 17.6309 13.2974 18.7165 15.6255C19.0483 16.337 19.2754 17.1132 19.4022 17.9291C19.4429 18.1908 19.4712 18.4446 19.4872 18.6846C19.4957 18.8124 19.5 18.9231 19.5 19V20H6.00009L6 19.0001C5.99999 18.9232 6.00431 18.8125 6.01282 18.6847C6.02878 18.4447 6.05701 18.1908 6.09766 17.9291C6.22441 17.1132 6.45149 16.337 6.78318 15.6256C7.86859 13.2974 9.9062 12 12.7497 12Z" fill="black"/>
</g>
</g>
</svg>
