<svg width="24" height="24" viewBox="0 0 24 24" fill="none" xmlns="http://www.w3.org/2000/svg">
<path fill-rule="evenodd" clip-rule="evenodd" d="M18.6269 5.25H5.20318C4.36336 5.25 3.66588 5.87788 3.60434 6.6893L2.5 21.25H21.5L20.2244 6.67192C20.154 5.8679 19.4598 5.25 18.6269 5.25ZM18.6269 6.0119L18.7519 6.02113C19.1188 6.07581 19.4085 6.36764 19.4407 6.73628L20.6437 20.4881H3.34665L4.38868 6.74513C4.42003 6.33177 4.77535 6.0119 5.20318 6.0119H18.6269Z" fill="black"/>
<path fill-rule="evenodd" clip-rule="evenodd" d="M13.625 5.25C13.625 3.84375 13.075 3.375 11.975 3.375C10.875 3.375 10.325 3.84375 10.325 5.25H13.625ZM14.45 5.25C14.45 5.25 10.3458 5.25 10.1187 5.25C9.93327 5.25 9.5 5.25 9.5 5.25C9.5 3.55781 10.2997 2.75 11.975 2.75C13.6503 2.75 14.45 3.55781 14.45 5.25Z" fill="black"/>
</svg>
