<svg width="20" height="20" viewBox="0 0 20 20" fill="none" xmlns="http://www.w3.org/2000/svg">
<path fill-rule="evenodd" clip-rule="evenodd" d="M16.9757 2.63159H2.84545C1.96143 2.63159 1.22724 3.29252 1.16246 4.14665L0 19.4737H20L18.6572 4.12835C18.5832 3.28202 17.8525 2.63159 16.9757 2.63159ZM16.9758 3.4339L17.1073 3.44361C17.4935 3.50117 17.7984 3.80837 17.8324 4.1964L19.0987 18.672H0.891242L1.98811 4.20572C2.02111 3.7706 2.39513 3.4339 2.84548 3.4339H16.9758Z" fill="black"/>
<path fill-rule="evenodd" clip-rule="evenodd" d="M11.7105 2.63158C11.7105 1.15132 11.1316 0.657895 9.9737 0.657895C8.8158 0.657895 8.23685 1.15132 8.23685 2.63158H11.7105ZM12.5789 2.63158C12.5789 2.63158 8.25869 2.63158 8.01972 2.63158C7.82448 2.63158 7.36841 2.63158 7.36841 2.63158C7.36841 0.850329 8.21023 0 9.97367 0C11.7371 0 12.5789 0.850329 12.5789 2.63158Z" fill="black"/>
</svg>
