<svg width="16" height="20" viewBox="0 0 16 20" fill="none" xmlns="http://www.w3.org/2000/svg">
<path fill-rule="evenodd" clip-rule="evenodd" d="M14.3849 3.25C14.7614 3.25 15.0861 3.58418 15.1103 4.00025L16 19.25H0L0.889675 4.00025C0.913848 3.5859 1.24178 3.25 1.61511 3.25H14.3849ZM14.3849 4H1.61512C1.60716 4 1.59204 4.01286 1.58251 4.02709L1.57401 4.04801L0.730525 18.5H15.2686L14.426 4.04801C14.4252 4.03359 14.4135 4.01706 14.4016 4.00764L14.3849 4Z" fill="black"/>
<path fill-rule="evenodd" clip-rule="evenodd" d="M9.50849 3.25C9.50849 1.84375 9.00564 1.375 7.99992 1.375C6.99421 1.375 6.49135 1.84375 6.49135 3.25H9.50849ZM10.2628 3.25C10.2628 3.25 6.51034 3.25 6.30277 3.25C6.13319 3.25 5.73706 3.25 5.73706 3.25C5.73706 1.55781 6.46825 0.75 7.99992 0.75C9.53159 0.75 10.2628 1.55781 10.2628 3.25Z" fill="black"/>
</svg>
