<svg width="25" height="24" viewBox="0 0 25 24" fill="none" xmlns="http://www.w3.org/2000/svg">
<path fill-rule="evenodd" clip-rule="evenodd" d="M19.7335 5.25C20.1452 5.25 20.5004 5.58418 20.5269 6.00025L21.5 21.25H4L4.97308 6.00025C4.99952 5.5859 5.3582 5.25 5.76653 5.25H19.7335ZM19.7335 6H5.76653C5.75782 6 5.74128 6.01286 5.73086 6.02709L5.72156 6.04801L4.799 20.5H20.7L19.7784 6.04801C19.7775 6.03359 19.7648 6.01706 19.7518 6.00764L19.7335 6Z" fill="black"/>
<path fill-rule="evenodd" clip-rule="evenodd" d="M14.3999 5.25C14.3999 3.84375 13.8499 3.375 12.7499 3.375C11.6499 3.375 11.0999 3.84375 11.0999 5.25H14.3999ZM15.2249 5.25C15.2249 5.25 11.1207 5.25 10.8937 5.25C10.7082 5.25 10.2749 5.25 10.2749 5.25C10.2749 3.55781 11.0746 2.75 12.7499 2.75C14.4252 2.75 15.2249 3.55781 15.2249 5.25Z" fill="black"/>
</svg>
