<svg width="24" height="24" viewBox="0 0 24 24" fill="none" xmlns="http://www.w3.org/2000/svg">
<path fill-rule="evenodd" clip-rule="evenodd" d="M21.411 3.24329C21.9452 3.24329 22.4059 3.67682 22.4403 4.21659L23.7027 24H1L2.26238 4.21659C2.29668 3.67905 2.76198 3.24329 3.29172 3.24329H21.411ZM21.4111 4.21631H3.29183C3.28054 4.21631 3.25907 4.233 3.24555 4.25145L3.23349 4.2786L2.03666 23.0271H22.665L21.4694 4.2786C21.4683 4.25989 21.4517 4.23844 21.4349 4.22622L21.4111 4.21631Z" fill="black"/>
<path fill-rule="evenodd" clip-rule="evenodd" d="M14.4916 3.24324C14.4916 1.41892 13.7781 0.810811 12.3511 0.810811C10.9241 0.810811 10.2105 1.41892 10.2105 3.24324H14.4916ZM15.5622 3.24324C15.5622 3.24324 10.2378 3.24324 9.94333 3.24324C9.70271 3.24324 9.14062 3.24324 9.14062 3.24324C9.14062 1.04797 10.1781 0 12.3514 0C14.5248 0 15.5622 1.04797 15.5622 3.24324Z" fill="black"/>
<path d="M12.2498 8.74805C13.4262 8.74805 14.2768 9.23258 14.8015 10.2017C15.2078 10.9507 15.4109 11.9769 15.4109 13.2803C15.4109 14.516 15.2268 15.5379 14.8587 16.3462C14.3255 17.5057 13.4537 18.0854 12.2434 18.0854C11.1516 18.0854 10.3391 17.6115 9.80593 16.6636C9.3616 15.8722 9.13943 14.8101 9.13943 13.4771C9.13943 12.4445 9.27273 11.5579 9.53933 10.8174C10.0387 9.43782 10.9422 8.74805 12.2498 8.74805ZM12.2371 17.0444C12.8295 17.0444 13.3014 16.7821 13.6526 16.2573C14.0039 15.7326 14.1795 14.755 14.1795 13.3247C14.1795 12.2922 14.0525 11.4437 13.7986 10.7793C13.5447 10.1107 13.0517 9.77637 12.3196 9.77637C11.6468 9.77637 11.1538 10.0937 10.8406 10.7285C10.5317 11.359 10.3772 12.29 10.3772 13.5215C10.3772 14.4482 10.4767 15.193 10.6756 15.7559C10.9803 16.6149 11.5008 17.0444 12.2371 17.0444Z" fill="#575757"/>
</svg>
