<svg xmlns="http://www.w3.org/2000/svg" viewBox="0 0 17 16"><path d="M7.7,4a4.55,4.55,0,0,1,4,1.77,4.88,4.88,0,0,1,.34.58A4.34,4.34,0,0,1,15.93,4c2.81,0,4,1.37,4.5,3.66.33,1.49-.46,4-2.09,6.11a25.43,25.43,0,0,1-1.91,2.13l-.77.76c-.74.72-1.53,1.45-2.32,2.16l-.77.67-.29.26L12,20l-.28-.27-.23-.23q-.3-.27-.63-.6c-.66-.63-1.31-1.27-1.92-1.87l-.15-.15c-1.21-1.2-2.07-2.09-2.45-2.56l-.48-.57c-.21-.26-.38-.46-.54-.67A7.62,7.62,0,0,1,3.5,8.24,3.88,3.88,0,0,1,7.7,4ZM9.53,16.4c.6.6,1.25,1.23,1.9,1.86l.58.56.75-.66c.79-.7,1.57-1.43,2.3-2.14l.76-.75a23.14,23.14,0,0,0,1.83-2c1.49-1.94,2.2-4.18,1.93-5.38-.43-1.93-1.32-3-3.65-3a3.26,3.26,0,0,0-2.81,1.4A3.8,3.8,0,0,0,12.43,8h-.86A3.32,3.32,0,0,0,11,6.29,3.71,3.71,0,0,0,7.7,4.88,3,3,0,0,0,4.36,8.24,6.73,6.73,0,0,0,6,12.53c.15.2.31.4.52.65l.48.58c.36.43,1.21,1.31,2.39,2.48Z" transform="translate(-3.5 -4)" fill-rule="evenodd"/></svg>