<svg width="24" height="24" viewBox="0 0 24 24" fill="none" xmlns="http://www.w3.org/2000/svg">
<path fill-rule="evenodd" clip-rule="evenodd" d="M11.516 3.49837C10.3935 1.92335 8.55138 1 5.92562 1C1.89248 1 0 3.58464 0 6.98311C0 9.5724 0.887794 11.6612 2.53933 13.8127C2.7692 14.1121 3.00411 14.4019 3.30448 14.7609C3.28041 14.7321 3.84413 15.4017 3.98258 15.5702C4.52457 16.2299 5.735 17.4835 7.441 19.1766L7.65719 19.3908C8.51603 20.241 9.43585 21.139 10.3556 22.0286C10.6775 22.34 10.9764 22.628 11.2447 22.8858C11.4057 23.0406 11.5207 23.1508 11.5825 23.2098L11.9784 23.5882L12.3937 23.2321C12.4692 23.1674 12.6096 23.046 12.8055 22.8748C13.1314 22.59 13.4944 22.2693 13.8853 21.9193C15.0023 20.9192 16.1194 19.8851 17.1632 18.8715C17.5427 18.5029 17.9063 18.1429 18.2519 17.7931C19.3831 16.648 20.2961 15.6379 20.944 14.7942C23.2557 11.7841 24.3622 8.2673 23.8946 6.16628C23.1737 2.92717 21.5177 1 17.5477 1C14.8402 1 12.9218 2.54393 12.0034 4.31618C11.8655 4.03689 11.7033 3.76118 11.516 3.49837Z" fill="black"/>
</svg>
