<svg width="24" height="24" viewBox="0 0 24 24" fill="none" xmlns="http://www.w3.org/2000/svg">
<g id="Type=filled">
<path id="icon" fill-rule="evenodd" clip-rule="evenodd" d="M11.6572 5.76968C10.8621 4.65404 9.55723 4 7.69731 4C4.84051 4 3.5 5.83079 3.5 8.23804C3.5 10.0721 4.12885 11.5517 5.29869 13.0756C5.46152 13.2878 5.62791 13.493 5.84067 13.7473C5.82362 13.7269 6.22292 14.2012 6.32099 14.3206C6.70491 14.7879 7.56229 15.6758 8.77071 16.8751L8.92384 17.0268C9.53219 17.629 10.1837 18.2651 10.8352 18.8953C11.0632 19.1158 11.2749 19.3199 11.465 19.5024C11.5791 19.6121 11.6605 19.6901 11.7042 19.7319L11.9847 20L12.2789 19.7477C12.3324 19.7019 12.4318 19.6159 12.5706 19.4946C12.8014 19.2929 13.0586 19.0657 13.3354 18.8178C14.1266 18.1095 14.9179 17.377 15.6573 16.659C15.9261 16.3979 16.1836 16.1429 16.4284 15.8951C17.2297 15.084 17.8764 14.3685 18.3353 13.7709C19.9728 11.6387 20.7565 9.14767 20.4253 7.65945C19.9147 5.36508 18.7417 4 15.9296 4C14.0118 4 12.6529 5.09362 12.0024 6.34896C11.9047 6.15113 11.7899 5.95584 11.6572 5.76968Z" fill="black"/>
</g>
</svg>
