<svg width="25" height="24" viewBox="0 0 25 24" fill="none" xmlns="http://www.w3.org/2000/svg">
<g id="Hamburger Menu">
<path id="Combined Shape" fill-rule="evenodd" clip-rule="evenodd" d="M5.5 7.47619C5.5 7.2132 5.7132 7 5.97619 7H19.0238C19.2868 7 19.5 7.2132 19.5 7.47619V7.52381C19.5 7.7868 19.2868 8 19.0238 8H5.97619C5.7132 8 5.5 7.7868 5.5 7.52381V7.47619ZM5.5 12.4762C5.5 12.2132 5.7132 12 5.97619 12H19.0238C19.2868 12 19.5 12.2132 19.5 12.4762V12.5238C19.5 12.7868 19.2868 13 19.0238 13H5.97619C5.7132 13 5.5 12.7868 5.5 12.5238V12.4762ZM5.97619 17C5.7132 17 5.5 17.2132 5.5 17.4762V17.5238C5.5 17.7868 5.7132 18 5.97619 18H19.0238C19.2868 18 19.5 17.7868 19.5 17.5238V17.4762C19.5 17.2132 19.2868 17 19.0238 17H5.97619Z" fill="black"/>
</g>
</svg>
