<svg width="24" height="24" viewBox="0 0 24 24" fill="none" xmlns="http://www.w3.org/2000/svg">
<path fill-rule="evenodd" clip-rule="evenodd" d="M11.628 21.9327C11.7026 21.8404 11.8227 21.689 11.9584 21.5161C12.2364 21.1619 12.5297 20.7806 12.83 20.3833C13.7838 19.1209 14.6744 17.8729 15.4743 16.6763C16.026 15.8511 16.5223 15.0679 16.9614 14.3296C18.5442 11.6683 19.3001 9.74537 19.3001 8.51984C19.3001 4.52709 15.8394 1.20007 11.5001 1.20007C7.16076 1.20007 3.70007 4.52709 3.70007 8.51984C3.70007 9.74537 4.45598 11.6683 6.03876 14.3296C6.47786 15.0679 6.97419 15.8511 7.52586 16.6763C8.32576 17.8729 9.21636 19.1209 10.1702 20.3833C10.4704 20.7806 10.7638 21.1619 11.0418 21.5161C11.1774 21.689 11.2975 21.8404 11.3722 21.9327L11.5001 22.091L11.628 21.9327ZM12.9023 22.2569C12.7586 22.44 12.6371 22.5931 12.5612 22.6869L11.5 24C11.5 24 9.52039 21.5139 9.21268 21.1066C8.25585 19.8402 7.34999 18.5725 6.52818 17.3432C5.96744 16.5044 5.45941 15.7031 5.00731 14.9429C3.34863 12.154 2.5 10.0403 2.5 8.51977C2.5 3.91978 6.43932 0 11.5 0C16.5607 0 20.5 3.91978 20.5 8.51977C20.5 10.0403 19.6514 12.154 17.9927 14.9429C17.5406 15.7031 17.0326 16.5044 16.4718 17.3432C15.65 18.5725 14.7442 19.8402 13.7873 21.1066C13.4796 21.5139 13.182 21.9006 12.9023 22.2569Z" fill="black"/>
<path fill-rule="evenodd" clip-rule="evenodd" d="M11.5001 12.2143C13.2753 12.2143 14.7143 10.7753 14.7143 9.00005C14.7143 7.22485 13.2753 5.78577 11.5001 5.78577C9.72485 5.78577 8.28577 7.22485 8.28577 9.00005C8.28577 10.7753 9.72485 12.2143 11.5001 12.2143ZM11.5 13.5C9.01472 13.5 7 11.4853 7 9C7 6.51472 9.01472 4.5 11.5 4.5C13.9853 4.5 16 6.51472 16 9C16 11.4853 13.9853 13.5 11.5 13.5Z" fill="black"/>
</svg>
