<svg width="25" height="24" viewBox="0 0 25 24" fill="none" xmlns="http://www.w3.org/2000/svg">
<g id="Location">
<g id="icon">
<path id="Path" fill-rule="evenodd" clip-rule="evenodd" d="M12.5853 18.6217C12.635 18.5602 12.7151 18.4593 12.8055 18.344C12.9909 18.1079 13.1864 17.8537 13.3866 17.5888C14.0225 16.7472 14.6162 15.9152 15.1495 15.1175C15.5173 14.5674 15.8481 14.0452 16.1409 13.553C17.1961 11.7788 17.7 10.4969 17.7 9.67985C17.7 7.01801 15.3929 4.8 12.5 4.8C9.60712 4.8 7.3 7.01801 7.3 9.67985C7.3 10.4969 7.80394 11.7788 8.85913 13.553C9.15186 14.0452 9.48274 14.5674 9.85053 15.1175C10.3838 15.9152 10.9775 16.7472 11.6134 17.5888C11.8136 17.8537 12.0091 18.1079 12.1945 18.344C12.2849 18.4593 12.365 18.5602 12.4147 18.6217L12.5 18.7273L12.5853 18.6217ZM13.4349 18.8379C13.3391 18.96 13.258 19.062 13.2075 19.1246L12.5 20C12.5 20 11.1803 18.3426 10.9751 18.0711C10.3372 17.2268 9.73333 16.3817 9.18545 15.5621C8.81162 15.0029 8.47294 14.4687 8.17154 13.962C7.06576 12.1026 6.5 10.6935 6.5 9.67985C6.5 6.61318 9.12621 4 12.5 4C15.8738 4 18.5 6.61318 18.5 9.67985C18.5 10.6935 17.9342 12.1026 16.8285 13.962C16.5271 14.4687 16.1884 15.0029 15.8145 15.5621C15.2667 16.3817 14.6628 17.2268 14.0249 18.0711C13.8197 18.3426 13.6213 18.6004 13.4349 18.8379Z" fill="black"/>
<path id="Oval 4" fill-rule="evenodd" clip-rule="evenodd" d="M12.5 12.1429C13.6835 12.1429 14.6429 11.1835 14.6429 10C14.6429 8.81653 13.6835 7.85714 12.5 7.85714C11.3165 7.85714 10.3571 8.81653 10.3571 10C10.3571 11.1835 11.3165 12.1429 12.5 12.1429ZM12.5 13C10.8431 13 9.5 11.6569 9.5 10C9.5 8.34315 10.8431 7 12.5 7C14.1569 7 15.5 8.34315 15.5 10C15.5 11.6569 14.1569 13 12.5 13Z" fill="black"/>
</g>
</g>
</svg>
