<svg width="25" height="25" viewBox="0 0 25 25" fill="none" xmlns="http://www.w3.org/2000/svg">
<g id="Search">
<g id="icon">
<path id="Oval" fill-rule="evenodd" clip-rule="evenodd" d="M11.7202 4.36865C15.0339 4.36865 17.7202 7.05494 17.7202 10.3687C17.7202 13.6824 15.0339 16.3687 11.7202 16.3687C8.40651 16.3687 5.72021 13.6824 5.72021 10.3687C5.72021 7.05494 8.40651 4.36865 11.7202 4.36865ZM11.7202 5.36865C8.95879 5.36865 6.72021 7.60723 6.72021 10.3687C6.72021 13.1301 8.95879 15.3687 11.7202 15.3687C14.4816 15.3687 16.7202 13.1301 16.7202 10.3687C16.7202 7.60723 14.4816 5.36865 11.7202 5.36865Z" fill="black"/>
<path id="Path 7" fill-rule="evenodd" clip-rule="evenodd" d="M14.2568 15.0736C14.4575 14.9324 14.7263 14.9595 14.8951 15.1259L14.9535 15.1948L18.3918 20.0809C18.5507 20.3067 18.4965 20.6186 18.2706 20.7775C18.0699 20.9188 17.8012 20.8916 17.6323 20.7252L17.574 20.6564L14.1356 15.7703C13.9767 15.5445 14.031 15.2326 14.2568 15.0736Z" fill="black"/>
</g>
</g>
</svg>
