<svg width="24" height="25" viewBox="0 0 24 25" fill="none" xmlns="http://www.w3.org/2000/svg">
<path d="M11.9022 0.315674C6.94543 0.315674 2.88989 4.37122 2.88989 9.32799C2.88989 14.2848 6.94543 18.3403 11.9022 18.3403C16.859 18.3403 20.9145 14.2848 20.9145 9.32799C20.9145 4.37122 16.859 0.315674 11.9022 0.315674ZM11.9022 17.2138C7.5087 17.2138 4.01643 13.7215 4.01643 9.32799C4.01643 4.93448 7.5087 1.44221 11.9022 1.44221C16.2957 1.44221 19.788 4.93448 19.788 9.32799C19.788 13.7215 16.2957 17.2138 11.9022 17.2138Z" fill="black"/>
<path fill-rule="evenodd" clip-rule="evenodd" d="M21.027 23.2972L17.3094 16.876C17.1968 16.538 16.7462 16.4254 16.4082 16.6507C16.0702 16.7633 15.9576 17.2139 16.1829 17.5519L19.9005 23.9732C20.0131 24.3111 20.4637 24.4238 20.8017 24.1985C21.1397 23.9732 21.2523 23.6352 21.027 23.2972Z" fill="black"/>
</svg>
