<svg width="24" height="24" viewBox="0 0 24 24" fill="none" xmlns="http://www.w3.org/2000/svg">
<path fill-rule="evenodd" clip-rule="evenodd" d="M8.22222 4.33333H4.33333V8.22222C4.33333 8.86655 3.811 9.38889 3.16667 9.38889C2.52233 9.38889 2 8.86655 2 8.22222V3.16667C2 2.52233 2.52233 2 3.16667 2H8.22222C8.86655 2 9.38889 2.52233 9.38889 3.16667C9.38889 3.811 8.86655 4.33333 8.22222 4.33333ZM8.22222 20.2778H4.33333V16.3889C4.33333 15.7446 3.811 15.2222 3.16667 15.2222C2.52233 15.2222 2 15.7446 2 16.3889V21.4444C2 22.0888 2.52233 22.6111 3.16667 22.6111H8.22222C8.86655 22.6111 9.38889 22.0888 9.38889 21.4444C9.38889 20.8001 8.86655 20.2778 8.22222 20.2778ZM20.2778 4.33333H16.3889C15.7446 4.33333 15.2222 3.811 15.2222 3.16667C15.2222 2.52233 15.7446 2 16.3889 2H21.4444C22.0888 2 22.6111 2.52233 22.6111 3.16667V8.22222C22.6111 8.86655 22.0888 9.38889 21.4444 9.38889C20.8001 9.38889 20.2778 8.86655 20.2778 8.22222V4.33333ZM16.3889 20.2778H20.2778V16.3889C20.2778 15.7446 20.8001 15.2222 21.4444 15.2222C22.0888 15.2222 22.6111 15.7446 22.6111 16.3889V21.4444C22.6111 22.0888 22.0888 22.6111 21.4444 22.6111H16.3889C15.7446 22.6111 15.2222 22.0888 15.2222 21.4444C15.2222 20.8001 15.7446 20.2778 16.3889 20.2778Z" fill="white"/>
</svg>
