<svg width="25" height="25" viewBox="0 0 25 25" fill="none" xmlns="http://www.w3.org/2000/svg">
<path fill-rule="evenodd" clip-rule="evenodd" d="M16.9703 21.9651C16.9703 22.4982 16.6613 22.9824 16.1776 23.2084C15.9906 23.2966 15.7903 23.3392 15.5912 23.3392C15.2759 23.3392 14.9636 23.2312 14.7114 23.0227L7.17335 16.798H3.15861C2.39724 16.7986 1.77979 16.183 1.77979 15.4243V9.9498C1.77979 9.19074 2.39724 8.57542 3.15861 8.57542H7.17368L14.7117 2.35067C15.1235 2.01049 15.6946 1.93797 16.178 2.16562C16.6613 2.39165 16.9707 2.87623 16.9707 3.40894L16.9703 21.9651Z" fill="white"/>
<path fill-rule="evenodd" clip-rule="evenodd" d="M0.885193 0.885193C1.34125 0.429138 2.05886 0.394057 2.55516 0.77995L2.67434 0.885193L24.1441 22.355C24.6382 22.849 24.6382 23.65 24.1441 24.1441C23.688 24.6002 22.9704 24.6352 22.4741 24.2493L22.355 24.1441L0.885193 2.67434C0.391134 2.18028 0.391134 1.37925 0.885193 0.885193Z" fill="white"/>
</svg>
