<svg width="25" height="25" viewBox="0 0 25 25" fill="none" xmlns="http://www.w3.org/2000/svg">
<path fill-rule="evenodd" clip-rule="evenodd" d="M16.0366 19.9847C16.0366 20.406 15.7923 20.7888 15.41 20.9675C15.2622 21.0371 15.1038 21.0708 14.9464 21.0708C14.6973 21.0708 14.4504 20.9855 14.251 20.8207L8.29265 15.9004H5.11924C4.51742 15.9009 4.02936 15.4143 4.02936 14.8146V10.4873C4.02936 9.88732 4.51742 9.40095 5.11924 9.40095H8.29291L14.2512 4.48066C14.5768 4.21177 15.0282 4.15444 15.4103 4.33439C15.7923 4.51305 16.0368 4.89609 16.0368 5.31716L16.0366 19.9847Z" fill="white"/>
<path fill-rule="evenodd" clip-rule="evenodd" d="M3.32225 3.32231C3.68274 2.96183 4.24997 2.9341 4.64226 3.23912L4.73646 3.32231L21.707 20.2929C22.0976 20.6834 22.0976 21.3166 21.707 21.7071C21.3465 22.0676 20.7793 22.0953 20.387 21.7903L20.2928 21.7071L3.32225 4.73653C2.93173 4.346 2.93173 3.71284 3.32225 3.32231Z" fill="white"/>
</svg>
