<svg width="24" height="24" viewBox="0 0 24 24" fill="none" xmlns="http://www.w3.org/2000/svg">
<path fill-rule="evenodd" clip-rule="evenodd" d="M14 3.95652C14 5.03708 13.1046 5.91304 12 5.91304C10.8954 5.91304 10 5.03708 10 3.95652C10 2.87596 10.8954 2 12 2C13.1046 2 14 2.87596 14 3.95652ZM14 12C14 13.0806 13.1046 13.9565 12 13.9565C10.8954 13.9565 10 13.0806 10 12C10 10.9194 10.8954 10.0435 12 10.0435C13.1046 10.0435 14 10.9194 14 12ZM12 22C13.1046 22 14 21.124 14 20.0435C14 18.9629 13.1046 18.087 12 18.087C10.8954 18.087 10 18.9629 10 20.0435C10 21.124 10.8954 22 12 22Z" fill="white"/>
</svg>
