<svg width="24" height="25" viewBox="0 0 24 25" fill="none" xmlns="http://www.w3.org/2000/svg">
<path fill-rule="evenodd" clip-rule="evenodd" d="M12.0072 19.9553C12.0072 20.3766 11.7629 20.7594 11.3806 20.9381C11.2328 21.0077 11.0744 21.0414 10.9171 21.0414C10.6679 21.0414 10.421 20.956 10.2216 20.7913L4.26329 15.871H1.08988C0.488059 15.8715 0 15.3849 0 14.7851V10.4579C0 9.85789 0.488059 9.37152 1.08988 9.37152H4.26355L10.2219 4.45123C10.5474 4.18234 10.9989 4.12501 11.3809 4.30496C11.7629 4.48362 12.0075 4.86665 12.0075 5.28773L12.0072 19.9553ZM16.1957 18.2581C16.1691 18.2599 16.1436 18.2609 16.1173 18.2609C15.8294 18.2609 15.5518 18.1476 15.3468 17.9429L15.201 17.7972C14.8187 17.417 14.7738 16.8147 15.0958 16.3823C15.912 15.2856 16.3427 13.9856 16.3427 12.6219C16.3427 11.1551 15.8537 9.77923 14.9281 8.64299C14.5757 8.21111 14.6082 7.58387 15.0032 7.19055L15.1486 7.04531C15.3664 6.82834 15.6581 6.71009 15.9739 6.72886C16.2813 6.74428 16.5685 6.8885 16.7635 7.12603C18.0473 8.69157 18.7255 10.5923 18.7255 12.6221C18.7255 14.5126 18.1258 16.3121 16.9907 17.8252C16.8011 18.0774 16.5112 18.2357 16.1957 18.2581ZM20.7017 21.6147C20.5047 21.8468 20.2196 21.9861 19.9144 21.999C19.8995 21.9995 19.8843 22 19.8688 22C19.5801 22 19.3031 21.8864 19.098 21.682L18.9548 21.5393C18.5547 21.1409 18.5277 20.5036 18.8914 20.0722C20.6491 17.989 21.6175 15.3432 21.6175 12.6219C21.6175 9.79131 20.5808 7.06639 18.6989 4.94917C18.3174 4.51936 18.3368 3.86872 18.7428 3.46255L18.8857 3.31987C19.0977 3.10754 19.3732 2.99057 19.6892 3.0006C19.9893 3.00908 20.273 3.14121 20.4724 3.36486C22.7471 5.91704 24 9.20494 24 12.6219C24.0005 15.9095 22.8291 19.1034 20.7017 21.6147Z" fill="white"/>
</svg>
